<?xml version="1.0" encoding="UTF-8" standalone="no"?>
<svg
   xmlns:dc="http://purl.org/dc/elements/1.1/"
   xmlns:cc="http://creativecommons.org/ns#"
   xmlns:rdf="http://www.w3.org/1999/02/22-rdf-syntax-ns#"
   xmlns:svg="http://www.w3.org/2000/svg"
   xmlns="http://www.w3.org/2000/svg"
   id="svg7204"
   version="1.1"
   viewBox="0 0 52.916679 41.199921"
   height="41.199921mm"
   width="52.916679mm">
  <defs
     id="defs7198" />
  <metadata
     id="metadata7201">
    <rdf:RDF>
      <cc:Work
         rdf:about="">
        <dc:format>image/svg+xml</dc:format>
        <dc:type
           rdf:resource="http://purl.org/dc/dcmitype/StillImage" />
        <dc:title></dc:title>
      </cc:Work>
    </rdf:RDF>
  </metadata>
  <g
     transform="translate(68.908066,-163.41623)"
     id="layer1">
    <g
       id="g7234">
      <path
         id="path441"
         style="fill:#003d8f;fill-rule:evenodd;stroke-width:1.50478637"
         d="m -16.998952,185.26358 c 0.439236,-0.43849 0.710411,-1.04511 0.704394,-1.7152 -0.01081,-1.05512 -0.708608,-1.93558 -1.660386,-2.24253 l -0.07223,-7.30579 0.48138,-0.22465 -0.4832,-0.21157 -0.0045,-0.16323 -0.362343,0.005 -22.951002,-9.98938 -24.47505,11.08124 5.384426,2.37426 c 1.509454,-0.49196 3.118824,-0.76729 4.791244,-0.76729 6.207095,0 11.545322,3.66506 14.006702,8.93948 l 22.107421,-10.33909 0.06364,6.61687 c -0.945908,0.32646 -1.626222,1.2187 -1.61599,2.27461 0.0063,0.75239 0.367177,1.41167 0.911602,1.84431 -0.493892,1.58166 -1.199463,4.77018 -0.638181,8.93345 l 2.722311,-0.0284 1.944032,-0.0171 c 0.498215,-4.31228 -0.332882,-7.54971 -0.854569,-9.06335 z" />
      <path
         id="path443"
         style="fill:#003d8f;fill-rule:evenodd;stroke-width:1.50478637"
         d="m -40.948681,186.76898 c 0.493892,1.51182 0.769099,3.12299 0.769099,4.79963 0,1.55641 -0.234889,3.05515 -0.663462,4.46921 2.955402,-0.23774 9.363836,-1.1749 12.752008,-4.84418 l -0.103965,-10.60423 c 0,0.1018 -9.0543,4.42239 -12.753669,6.17957 z" />
      <path
         id="path445"
         style="fill:#003d8f;fill-rule:evenodd;stroke-width:1.50478637"
         d="m -55.645928,178.0865 c -7.32425,0 -13.262138,5.93848 -13.262138,13.26514 0,7.32666 5.937888,13.26451 13.262138,13.26451 7.326656,0 13.26695,-5.93785 13.26695,-13.26451 0,-7.32666 -5.940294,-13.26514 -13.26695,-13.26514 z m 8.655979,14.11728 h 1.151314 c -0.409151,4.75107 -4.201662,8.54359 -8.952724,8.95456 v -1.14891 c 0,-0.47319 -0.381623,-0.85641 -0.854569,-0.85641 -0.470517,0 -0.852163,0.38333 -0.852163,0.85641 v 1.14891 c -4.751062,-0.4112 -8.543573,-4.20349 -8.954532,-8.95456 h 1.150711 c 0.471142,0 0.854568,-0.38162 0.854568,-0.85214 0,-0.47319 -0.383443,-0.85459 -0.854568,-0.85459 h -1.150711 c 0.41097,-4.75089 4.20347,-8.54341 8.954532,-8.95449 v 1.15084 c 0,0.47262 0.381623,0.85441 0.852163,0.85441 0.472963,0 0.854569,-0.38162 0.854569,-0.85441 v -1.15084 c 4.751062,0.41119 8.543573,4.2036 8.952724,8.95449 h -1.151314 c -0.470517,0 -0.852158,0.38163 -0.852158,0.85459 0,0.47035 0.381624,0.85214 0.852158,0.85214 z" />
      <path
         id="path447"
         style="fill:#003d8f;fill-rule:evenodd;stroke-width:1.50478637"
         d="m -50.701955,190.07107 h -3.075634 c -0.409321,-0.59382 -1.091869,-0.98369 -1.867736,-0.98369 l -0.0364,0.004 -2.802668,-3.9475 c -0.411084,-0.57453 -1.210298,-0.71206 -1.787237,-0.30086 -0.574522,0.40949 -0.710257,1.20851 -0.30109,1.78482 l 2.804624,3.94994 c -0.08474,0.24342 -0.1419,0.49992 -0.1419,0.77343 0,1.25122 1.013321,2.26443 2.264403,2.26443 0.775867,0 1.458438,-0.39016 1.867741,-0.98386 h 3.075628 c 0.708455,0 1.280577,-0.57454 1.280577,-1.28057 0,-0.70785 -0.572122,-1.27995 -1.280577,-1.27995 z" />
      <path
         d="m -16.998952,185.26358 c 0.439236,-0.43849 0.710411,-1.04511 0.704394,-1.7152 -0.01081,-1.05512 -0.708608,-1.93558 -1.660386,-2.24253 l -0.07223,-7.30579 0.48138,-0.22465 -0.4832,-0.21157 -0.0045,-0.16323 -0.362343,0.005 -22.951002,-9.98938 -24.47505,11.08124 5.384426,2.37426 c 1.509454,-0.49196 3.118824,-0.76729 4.791244,-0.76729 6.207095,0 11.545322,3.66506 14.006702,8.93948 l 22.107421,-10.33909 0.06364,6.61687 c -0.945908,0.32646 -1.626222,1.2187 -1.61599,2.27461 0.0063,0.75239 0.367177,1.41167 0.911602,1.84431 -0.493892,1.58166 -1.199463,4.77018 -0.638181,8.93345 l 2.722311,-0.0284 1.944032,-0.0171 c 0.498215,-4.31228 -0.332882,-7.54971 -0.854569,-9.06335 z"
         style="fill:#003d8f;fill-rule:evenodd;stroke-width:1.50478637"
         id="path1361" />
      <path
         d="m -40.948681,186.76898 c 0.493892,1.51182 0.769099,3.12299 0.769099,4.79963 0,1.55641 -0.234889,3.05515 -0.663462,4.46921 2.955402,-0.23774 9.363836,-1.1749 12.752008,-4.84418 l -0.103965,-10.60423 c 0,0.1018 -9.0543,4.42239 -12.753669,6.17957 z"
         style="fill:#003d8f;fill-rule:evenodd;stroke-width:1.50478637"
         id="path1363" />
      <path
         d="m -55.645928,178.0865 c -7.32425,0 -13.262138,5.93848 -13.262138,13.26514 0,7.32666 5.937888,13.26451 13.262138,13.26451 7.326656,0 13.26695,-5.93785 13.26695,-13.26451 0,-7.32666 -5.940294,-13.26514 -13.26695,-13.26514 z m 8.655979,14.11728 h 1.151314 c -0.409151,4.75107 -4.201662,8.54359 -8.952724,8.95456 v -1.14891 c 0,-0.47319 -0.381623,-0.85641 -0.854569,-0.85641 -0.470517,0 -0.852163,0.38333 -0.852163,0.85641 v 1.14891 c -4.751062,-0.4112 -8.543573,-4.20349 -8.954532,-8.95456 h 1.150711 c 0.471142,0 0.854568,-0.38162 0.854568,-0.85214 0,-0.47319 -0.383443,-0.85459 -0.854568,-0.85459 h -1.150711 c 0.41097,-4.75089 4.20347,-8.54341 8.954532,-8.95449 v 1.15084 c 0,0.47262 0.381623,0.85441 0.852163,0.85441 0.472963,0 0.854569,-0.38162 0.854569,-0.85441 v -1.15084 c 4.751062,0.41119 8.543573,4.2036 8.952724,8.95449 h -1.151314 c -0.470517,0 -0.852158,0.38163 -0.852158,0.85459 0,0.47035 0.381624,0.85214 0.852158,0.85214 z"
         style="fill:#003d8f;fill-rule:evenodd;stroke-width:1.50478637"
         id="path1365" />
      <path
         d="m -50.701955,190.07107 h -3.075634 c -0.409321,-0.59382 -1.091869,-0.98369 -1.867736,-0.98369 l -0.0364,0.004 -2.802668,-3.9475 c -0.411084,-0.57453 -1.210298,-0.71206 -1.787237,-0.30086 -0.574522,0.40949 -0.710257,1.20851 -0.30109,1.78482 l 2.804624,3.94994 c -0.08474,0.24342 -0.1419,0.49992 -0.1419,0.77343 0,1.25122 1.013321,2.26443 2.264403,2.26443 0.775867,0 1.458438,-0.39016 1.867741,-0.98386 h 3.075628 c 0.708455,0 1.280577,-0.57454 1.280577,-1.28057 0,-0.70785 -0.572122,-1.27995 -1.280577,-1.27995 z"
         style="fill:#003d8f;fill-rule:evenodd;stroke-width:1.50478637"
         id="path1367" />
    </g>
  </g>
</svg>
