<?xml version="1.0" encoding="UTF-8" standalone="no"?>
<svg
   xmlns:dc="http://purl.org/dc/elements/1.1/"
   xmlns:cc="http://creativecommons.org/ns#"
   xmlns:rdf="http://www.w3.org/1999/02/22-rdf-syntax-ns#"
   xmlns:svg="http://www.w3.org/2000/svg"
   xmlns="http://www.w3.org/2000/svg"
   id="svg7242"
   version="1.1"
   viewBox="0 0 52.916668 52.178814"
   height="52.178814mm"
   width="52.916668mm">
  <defs
     id="defs7236" />
  <metadata
     id="metadata7239">
    <rdf:RDF>
      <cc:Work
         rdf:about="">
        <dc:format>image/svg+xml</dc:format>
        <dc:type
           rdf:resource="http://purl.org/dc/dcmitype/StillImage" />
        <dc:title></dc:title>
      </cc:Work>
    </rdf:RDF>
  </metadata>
  <g
     transform="translate(-87.690476,-46.392736)"
     id="layer1">
    <g
       transform="translate(37.458552,-92.953745)"
       id="layer1-3">
      <g
         transform="matrix(6.3046146,0,0,6.3046146,-266.46101,-1015.9678)"
         id="g7180">
        <path
           id="path327"
           style="fill:#003d8f;fill-rule:evenodd;stroke-width:0.26458332"
           d="m 52.578009,189.08905 0.01225,-0.0212 0.0037,-0.0261 0.01087,-0.022 0.0149,-0.0689 0.02641,-0.0336 c 0.0046,-0.14349 0.17299,-0.48678 0.204264,-0.66535 -0.115491,-0.0652 -0.07451,-0.0574 -0.133773,-0.0995 -0.04776,-0.0339 -0.08909,-0.0547 -0.142426,-0.0969 -0.05061,-0.0402 -0.08231,-0.0761 -0.13081,-0.10882 l -0.06784,-0.0444 -0.858387,-0.6568 c -0.08686,-0.0746 -0.176028,-0.12446 -0.266568,-0.19566 l -0.518795,-0.40259 -0.02167,-0.0183 -0.01564,-0.0108 -0.02725,-0.0205 0.0026,0.002 c 0.03276,0.0407 -0.0068,-2.6e-4 -0.0026,-0.002 -0.150891,-0.0932 -0.375311,-0.28813 -0.435318,-0.31792 l 0.0021,2.95291 c 0.09131,0.0659 1.246796,0.47704 1.520455,0.58364 l 0.518795,0.19127 0.248311,-0.74702 0.0049,-0.0339 0.01119,-0.0175 0.0082,-0.0249 0.01161,-0.0201 0.0047,-0.0228 0.02209,-0.0313 z" />
        <path
           id="path329"
           style="fill:#003d8f;fill-rule:evenodd;stroke-width:0.26458332"
           d="m 58.343783,187.00575 c -0.07639,0.0491 -0.200448,0.13229 -0.280644,0.16886 l -0.0093,0.003 -0.01458,0.0165 -0.02304,-0.005 -0.01426,0.0168 -0.01638,0.0174 -0.0085,0.006 -0.04924,0.0231 -0.0019,0.004 -0.07048,0.0451 -0.0085,0.006 -0.01902,0.006 -0.02947,0.0175 -0.003,0.004 -0.01606,0.016 c -0.04733,0.0239 0.02683,-0.0137 -0.0354,0.0119 l -0.02082,0.0175 c -0.168083,0.12637 -1.381066,0.84053 -1.447,0.92665 l 0.671671,0.95906 0.0071,0.0202 c 0.05366,0.0328 0.200528,0.24895 0.239633,0.30673 0.07564,0.11179 0.12192,0.19304 0.216932,0.29967 0.03318,-0.0257 0.115254,-0.0701 0.161027,-0.10134 l 1.052697,-0.72535 v -2.22975 c -0.09057,0.0428 -0.194627,0.11284 -0.28149,0.16883 z" />
        <path
           id="path331"
           style="fill:#003d8f;fill-rule:evenodd;stroke-width:0.26458332"
           d="m 54.208134,190.64501 0.0048,-0.002" />
        <path
           id="path333"
           style="fill:#003d8f;fill-rule:evenodd;stroke-width:0.26458332"
           d="m 55.650192,189.79827 -0.488685,-0.32586 -0.05188,-0.0279 -0.0372,-0.0324 -0.01871,-0.004 -0.01783,-0.0161 c -0.09731,-0.0373 -0.198332,-0.10958 -0.2871,-0.1625 -0.132609,-0.0783 -0.559779,0.32501 -1.014227,0.1233 -0.08157,-0.0365 -0.204549,-0.13714 -0.243761,-0.20233 -0.21881,-0.36423 0.413438,-0.44061 0.598673,-0.61727 l -1.122336,-0.0876 -0.228097,0.69514 c -0.0522,0.14804 -0.09512,0.29639 -0.146553,0.44178 -0.05929,0.16737 -0.03014,0.19378 0.177827,0.34845 0.088,-0.0532 0.168089,-0.10469 0.307895,-0.0667 0.1964,0.0537 0.0712,0.12374 0.251249,0.10504 0.233309,-0.0245 0.399176,0.13946 0.414813,0.34962 0.07683,0.0134 0.103982,0.0217 0.142769,0.066 l 0.02905,-0.004 c 0.05853,0.007 0.04924,10e-4 0.10586,0.0432 l 0.0276,0.022 c 0.03432,-0.0652 0.04628,-0.0697 0.133112,-0.0574 l 0.104405,0.009 0.0011,0.26721 c -0.05104,5.3e-4 -0.07228,-0.01 -0.07977,-0.0198 -0.05178,0.0251 -0.07154,0.031 -0.150998,0.019 l 0.0063,0.0637 c 0.28739,0.0687 0.344117,0.32025 0.228838,0.52745 0.04924,0.0488 0.08993,0.0712 0.139489,0.11263 0.0917,0.0779 0.28739,0.30041 0.474821,0.0193 -0.02789,-0.0596 -0.245641,-0.22029 -0.310834,-0.26392 -0.05813,-0.0395 -0.101759,-0.0805 -0.16473,-0.12184 -0.07607,-0.0507 -0.0917,-0.0851 -0.0336,-0.16883 0.106283,-0.0258 0.11221,0.0115 0.170313,0.063 l 0.26998,0.20952 c 0.04278,0.0357 0.08305,0.0622 0.127847,0.0954 0.131551,0.0957 0.196744,0.17254 0.292153,0.17254 0.129011,0 0.237834,-0.10692 0.244607,-0.22961 l -0.320595,-0.23931 c -0.03919,-0.0347 -0.03728,-0.0366 -0.07755,-0.0659 l -0.234025,-0.17899 c -0.06826,-0.0215 -0.06456,-0.0223 -0.106309,-0.07 -0.03654,0.0712 -0.09911,0.0883 -0.199787,0.0668 -0.0016,0.0979 0.02577,0.1084 -0.05665,0.10808 -0.03318,-0.10335 -0.0082,-0.27472 0.03276,-0.35565 -0.05062,-0.23405 0.164412,-0.0898 0.240797,-0.0373 l 0.01122,-0.12329 0.05662,0.004 0.009,0.14052 c 0.133137,-0.0584 0.127872,0.031 0.170761,0.13946 0.02683,-0.1737 0.169889,-0.18606 0.276939,-0.0805 l 0.03202,-0.0898 c -0.06816,-0.0302 7.94e-4,0.002 -0.03688,-0.0299 l -0.304509,-0.23109 c -0.209524,-0.14941 -0.250111,-0.15954 -0.208783,-0.28329 0.12827,-0.0335 0.18079,0.0612 0.261726,0.1193 l 0.684662,0.51329 0.01648,-0.0529 c 0.08051,-0.022 0.07935,-0.0149 0.146447,0.009 -0.01003,0.0439 0.0049,0.0563 -0.04247,0.0537 -0.04807,-0.003 -0.0205,-0.0537 -0.05927,0.0287 0.09319,0.0339 0.08083,0.013 0.11737,0.10692 l 0.01005,0.002 c 0.197246,0.0992 0.285591,-0.13081 0.240479,-0.32385 -0.04511,-0.19495 -0.368642,-0.34814 -0.512867,-0.47525 z m -1.417981,0.55724 c -0.0093,-0.0116 -0.01712,0.0216 -0.01934,-0.038 -0.0024,-0.0563 0.01302,-0.0313 0.01892,-0.0429 l 0.06678,0.0142 0.0016,0.0622 z m 0.156924,0.12184 c -0.0049,0.24122 0.05366,0.0436 0.06339,0.1756 -0.04175,0.0335 -0.06003,0.0153 -0.111813,0.005 -0.01426,-0.0646 -0.01119,-0.12456 -0.02609,-0.19463 0,-2.6e-4 -0.05443,-0.0886 0.04987,-0.14348 0.05633,0.0332 -0.0085,-0.002 0.03434,0.0429 l 0.009,0.009 c 0.09205,0.0891 0.04956,0.0429 -0.01868,0.1062 z" />
        <path
           id="path335"
           style="fill:#003d8f;fill-rule:evenodd;stroke-width:0.26458332"
           d="m 56.921806,189.48826 h -0.0031 l -0.02008,-0.0172 -0.06001,-0.0947 -0.0078,-0.0208 -0.0131,-0.0254 c -0.04278,-0.0149 -0.02228,0.001 -0.0335,-0.041 l -0.02238,-0.0246 c -0.03731,-0.0186 -0.505804,-0.69443 -0.563589,-0.78349 -0.163565,0.0257 -0.506227,0.24863 -0.636614,0.24599 -0.102182,-0.002 -0.58674,-0.12375 -0.710459,-0.15587 -0.320992,-0.0834 -0.401082,0.008 -0.643361,0.13758 -0.106309,0.0574 -0.495035,0.24525 -0.556524,0.30081 0.03276,0.10885 0.183435,0.19611 0.345942,0.19865 0.156898,0.002 0.299641,-0.0525 0.428969,-0.10544 0.497973,-0.2032 0.149093,-0.13197 0.694399,0.11179 l 0.01267,0.0142 0.0083,0.005 c 0.115914,0.0555 0.723451,0.42561 0.852038,0.54047 0.08919,0.0798 0.101441,0.17105 0.237543,0.23667 0.125195,-0.0156 0.341783,-0.0917 0.443542,-0.14317 0.174016,-0.0879 0.228124,-0.19187 0.332105,-0.22621 -0.02685,-0.0675 -0.0485,-0.0798 -0.06268,-0.13155 z" />
        <path
           id="path337"
           style="fill:#003d8f;fill-rule:evenodd;stroke-width:0.26458332"
           d="m 55.700463,186.60477 c 0.03127,-0.14718 0.07186,-0.27164 0.09615,-0.43013 0.02199,-0.14496 0.03056,-0.39656 0.04839,-0.48151 -0.163962,-0.0575 -0.988113,0.006 -1.241187,-0.0175 l -0.04479,-0.005 -7.94e-4,0.94755 z" />
        <path
           id="path339"
           style="fill:#003d8f;fill-rule:evenodd;stroke-width:0.26458332"
           d="m 53.107044,185.68193 0.01045,0.22411 c 0.01236,0.114 0.02463,0.22992 0.04363,0.34022 0.01934,0.10967 0.069,0.22813 0.06519,0.33031 l 0.01606,0.0329 1.115245,0.004 0.003,-0.93522 c -0.593699,-8e-4 -0.787903,0.002 -1.253543,0.004 z" />
        <path
           id="path341"
           style="fill:#003d8f;fill-rule:evenodd;stroke-width:0.26458332"
           d="m 53.03603,186.61522 c -0.07533,-0.33811 -0.126048,-0.58007 -0.129752,-0.94046 l -0.836083,0.002 c 0.02461,0.45212 0.08538,0.54872 0.221033,0.933 z" />
        <path
           id="path343"
           style="fill:#003d8f;fill-rule:evenodd;stroke-width:0.26458332"
           d="m 56.78634,185.67487 -0.745543,0.002 c 0.0034,0.35819 -0.06519,0.60979 -0.129752,0.93668 l 0.654579,-8e-4 c 0.115914,-0.38957 0.194204,-0.40404 0.220716,-0.93826 z" />
        <path
           id="path345"
           style="fill:#003d8f;fill-rule:evenodd;stroke-width:0.26458332"
           d="m 55.526341,187.0684 c 0.04186,-0.088 0.09099,-0.20539 0.117819,-0.30228 l -1.081326,0.002 -0.0016,0.56581 0.836084,-8e-4 c 0.02389,-0.0779 0.08686,-0.1756 0.128905,-0.265 z" />
        <path
           id="path347"
           style="fill:#003d8f;fill-rule:evenodd;stroke-width:0.26458332"
           d="m 54.357412,186.76633 -1.054577,0.004 c 0.05895,0.19198 0.149913,0.426 0.263922,0.56105 l 0.793618,0.003 z" />
        <path
           id="path349"
           style="fill:#003d8f;fill-rule:evenodd;stroke-width:0.26458332"
           d="m 53.086009,186.7695 -0.701886,-0.002 c 0.06813,0.16177 0.196823,0.29745 0.305673,0.43045 0.02831,0.0351 0.04956,0.0612 0.08231,0.0925 0.0563,0.0526 0.05673,0.0444 0.156157,0.044 0.131657,-0.001 0.261302,-0.004 0.393991,2.6e-4 -0.04543,-0.13642 -0.161343,-0.30789 -0.236247,-0.56549 z" />
        <path
           id="path351"
           style="fill:#003d8f;fill-rule:evenodd;stroke-width:0.26458332"
           d="m 56.024842,187.32317 c 0.102182,-0.047 0.392536,-0.42127 0.447702,-0.55578 h -0.613463 c -0.01797,0.0857 -0.07017,0.20275 -0.105569,0.28845 -0.02905,0.0705 -0.124883,0.21693 -0.120015,0.27545 0.101732,5.3e-4 0.333984,0.0183 0.391345,-0.008 z" />
        <path
           id="path353"
           style="fill:#003d8f;fill-rule:evenodd;stroke-width:0.26458332"
           d="m 54.87536,187.91676 c 0.09025,-0.018 0.09954,-0.008 0.142452,-0.0649 0.0563,-0.0746 0.238151,-0.28665 0.269531,-0.36568 l -0.724297,-5.3e-4 c 0.01087,0.49987 -0.118137,0.51668 0.312314,0.43098 z" />
        <path
           id="path355"
           style="fill:#003d8f;fill-rule:evenodd;stroke-width:0.26458332"
           d="m 53.982021,187.89954 c 0.06265,0.0491 0.2912,0.0584 0.37129,0.054 l 0.0034,-0.46112 -0.696728,-0.008 c 0.03021,0.0612 0.07903,0.12224 0.114433,0.17667 z" />
        <path
           id="path357"
           style="fill:#003d8f;fill-rule:evenodd;stroke-width:0.26458332"
           d="m 53.844967,191.01125 c -0.03731,0.0582 -0.199787,0.2281 -0.23413,0.29604 0.05514,0.0913 0.221033,0.224 0.335148,0.0921 0.03646,-0.0422 0.197908,-0.2762 0.198966,-0.33179 0.0034,-0.1606 -0.20574,-0.20349 -0.299984,-0.0563 z" />
        <path
           id="path359"
           style="fill:#003d8f;fill-rule:evenodd;stroke-width:0.26458332"
           d="m 53.853539,190.6598 c -0.04659,-0.0271 -0.05887,-0.0264 -0.07935,-0.0607 -0.08199,0.0724 -0.08316,0.0836 -0.212487,0.0548 l 0.0016,0.0802 c -0.0096,0.0391 0.01384,0.0152 -0.02125,0.0305 -0.0671,0.0302 -0.04765,-0.0261 -0.04659,-0.0646 l -0.159546,0.20021 c -0.172984,0.20765 0.05186,0.2852 0.134911,0.29078 0.05601,-0.0522 0.06339,-0.0731 0.107792,-0.12785 l 0.102473,-0.12075 c 0.08612,-0.1193 0.182695,-0.1905 0.172561,-0.28266 z" />
        <path
           id="path361"
           style="fill:#003d8f;fill-rule:evenodd;stroke-width:0.26458332"
           d="m 55.473927,190.62832 c -0.019,0.0895 -0.128588,0.0556 -0.143801,-0.082 -0.0085,0.0678 -0.08168,0.11486 -0.150654,0.13537 l 0.01574,0.0201 0.362612,0.27323 c 0.199813,0.16809 0.33991,-0.0984 0.314245,-0.20309 l -0.01048,-0.005 -0.01521,-0.0161 -0.01648,-0.0137 -0.01267,-0.0146 c -0.04469,-0.0432 -0.07077,-0.0737 -0.121073,-0.0827 -0.120782,0.0526 -0.121946,0.0529 -0.222223,-0.0112 z" />
        <path
           id="path363"
           style="fill:#003d8f;fill-rule:evenodd;stroke-width:0.26458332"
           d="m 55.179578,190.68147 0.01532,0.0209" />
        <path
           id="path365"
           style="fill:#003d8f;fill-rule:evenodd;stroke-width:0.26458332"
           d="m 55.337746,190.36122 -0.03244,0.0899 c -0.106627,-0.10555 -0.249687,-0.0932 -0.276516,0.0801 -0.04321,-0.10851 -0.03731,-0.19791 -0.170762,-0.13936 l -0.0093,-0.1402 -0.0563,-0.004 -0.01154,0.12308 c 0.03127,0.0443 0.06636,0.0622 0.102499,0.11137 0.117396,0.0339 0.22061,0.17443 0.295963,0.19949 0.06929,-0.0202 0.142002,-0.0675 0.150548,-0.13536 0.01532,0.13758 0.12491,0.17182 0.143907,0.0824 0.100277,0.0637 0.101759,0.0637 0.222224,0.0105 l -0.0097,-0.009 -0.0097,-0.009 -0.375735,-0.28993 c 0.03762,0.0316 -0.03127,-5.3e-4 0.03688,0.0301 z m -0.2091,0.23003 c -0.03762,-0.0358 -0.01299,-0.0984 0.0045,-0.12933 0.06152,-0.0134 0.063,-0.0161 0.118136,0.004 l 0.0086,0.0981 c -0.04882,0.028 -0.0857,0.0705 -0.131233,0.0268 z" />
        <path
           id="path367"
           style="fill:#003d8f;fill-rule:evenodd;stroke-width:0.26458332"
           d="m 53.114637,190.1313 c -0.143907,-0.16738 -0.228547,-0.041 -0.31242,0.0765 -0.111045,0.15618 -0.142769,0.15354 -0.0011,0.31795 l 0.02609,-0.022 0.220292,-0.27514 c 0.02791,-0.0361 0.0521,-0.0544 0.0671,-0.0973 z" />
        <path
           id="path369"
           style="fill:#003d8f;fill-rule:evenodd;stroke-width:0.26458332"
           d="m 52.997268,190.61141 c 0.08535,0.0976 0.194628,0.0898 0.25019,-0.0221 l 0.05842,0.0656 0.01945,-2.6e-4 0.0056,-0.003 0.02199,-0.0209 0.01225,-0.0213 0.07459,-0.10099 0.01902,-0.0174 0.03318,-0.0437 0.0027,-0.0175 c -0.01564,-0.0246 0.02841,-0.0193 -0.06075,-0.044 -0.07345,-0.0202 -0.12184,0.01 -0.170656,0.057 l 7.94e-4,-0.20606 c -0.0354,0.0316 -0.06414,0.0689 -0.09319,0.1006 -0.03731,0.0403 -0.01236,0.008 -0.03879,0.0566 l -0.03096,0.0551 c 0.112209,0.0209 0.106309,0.0593 0.07607,0.15068 -0.09139,0.008 -0.116311,0.0223 -0.142002,-0.0775 l -0.07268,0.0981 c 0.04056,-0.0261 0.0413,-0.0175 0.03498,-0.009 z m 0.322474,-0.1085 c 0.01267,-0.0615 0.06297,-0.0522 0.08948,-0.0534 l -0.08168,0.10028 c -0.0052,-0.0142 -0.02313,0.0272 -0.0078,-0.0469 z" />
        <path
           id="path371"
           style="fill:#003d8f;fill-rule:evenodd;stroke-width:0.26458332"
           d="m 52.997268,190.61141 -0.0063,-0.006" />
        <path
           id="path373"
           style="fill:#003d8f;fill-rule:evenodd;stroke-width:0.26458332"
           d="m 53.407108,187.48692 -0.385128,-0.002 c 0.05485,0.0653 0.484558,0.32912 0.616215,0.3306 -0.04437,-0.0413 -0.206878,-0.31866 -0.231087,-0.3284 z" />
        <path
           id="path375"
           style="fill:#003d8f;fill-rule:evenodd;stroke-width:0.26458332"
           d="m 54.208134,190.64501 0.0048,-0.002 -0.0048,0.002 c 0.0075,0.01 0.02873,0.0202 0.08019,0.0194 l -0.0011,-0.26691 -0.104299,-0.01 c -0.08726,-0.0119 -0.09922,-0.008 -0.133429,0.0575 l -0.0276,-0.0217 c -0.05673,-0.0425 -0.04702,-0.0369 -0.105543,-0.0439 0.04659,0.0625 0.109988,0.1084 0.126365,0.22809 l 0.01458,0.0562 c 0.07977,0.0116 0.09911,0.006 0.150892,-0.019 z" />
        <path
           id="path377"
           style="fill:#003d8f;fill-rule:evenodd;stroke-width:0.26458332"
           d="m 53.247141,190.58945 c -0.05546,0.11189 -0.16473,0.1197 -0.250084,0.0221 l -0.0063,-0.007 0.0063,0.007 c 0.0068,-0.009 0.0063,-0.018 -0.03498,0.008 -0.123852,0.0668 0.01669,0.25156 0.197908,0.24786 0.06707,-0.15732 0.129725,-0.13904 0.145706,-0.21246 z" />
        <path
           id="path379"
           style="fill:#003d8f;fill-rule:evenodd;stroke-width:0.26458332"
           d="m 53.433645,190.3854 c 0.08917,0.0249 0.04511,0.0194 0.06075,0.0435 l 0.01267,0.008 c 0.02577,-0.1007 0.06043,-0.17179 -0.03127,-0.23561 -0.09731,-0.0686 -0.174439,-0.0301 -0.212063,0.0347 l -7.94e-4,0.20606 c 0.04882,-0.0469 0.09721,-0.0774 0.170656,-0.057 z" />
        <path
           id="path381"
           style="fill:#003d8f;fill-rule:evenodd;stroke-width:0.26458332"
           d="m 55.52814,187.48578 c -0.01945,0.0433 -0.159544,0.25728 -0.181213,0.27999 0.121206,-0.0187 0.429419,-0.21027 0.487945,-0.28105 z" />
        <path
           id="path383"
           style="fill:#003d8f;fill-rule:evenodd;stroke-width:0.26458332"
           d="m 54.508092,190.76379 c 0.08231,5.2e-4 0.05517,-0.0104 0.05665,-0.10809 0.100568,0.0216 0.162824,0.004 0.199046,-0.0667 -0.03654,-0.0447 -0.01341,-0.0195 -0.04479,-0.031 -0.03731,0.0518 -0.05294,0.0596 -0.135678,0.0287 -0.02344,-0.0612 -0.01783,-0.0641 0.0021,-0.12933 l -0.04469,-0.0497 c -0.04172,0.0813 -0.06636,0.25242 -0.03276,0.35598 z" />
        <path
           id="path385"
           style="fill:#003d8f;fill-rule:evenodd;stroke-width:0.26458332"
           d="m 54.407497,190.37114 -0.0085,-0.009 c -0.04278,-0.045 0.02167,-0.01 -0.03424,-0.0428 -0.104828,0.0544 -0.04998,0.14349 -0.04956,0.14349 0.01415,0.0701 0.01151,0.13007 0.02566,0.19452 0.05178,0.0105 0.07006,0.0288 0.111496,-0.005 -0.0097,-0.13198 -0.06826,0.0655 -0.063,-0.17561 0.06784,-0.063 0.110331,-0.0171 0.01818,-0.1062 z" />
        <path
           id="path387"
           style="fill:#003d8f;fill-rule:evenodd;stroke-width:0.26458332"
           d="m 53.542257,190.76463 c 0.03498,-0.0152 0.01077,0.009 0.0205,-0.0301 l -0.0011,-0.0805 c 0.129328,0.0283 0.130492,0.0179 0.212487,-0.0552 0.02048,0.0347 0.03315,0.0342 0.07977,0.0608 -0.01944,-0.0868 -0.04776,-0.13049 -0.137158,-0.13343 -0.01722,0.0447 -0.08094,0.11515 -0.117079,0.0451 l -0.06519,0.073 -0.01942,0.0231 -0.01976,0.0324 c -0.0011,0.0383 -0.0205,0.095 0.04702,0.0648 z" />
        <path
           id="path389"
           style="fill:#003d8f;fill-rule:evenodd;stroke-width:0.26458332"
           d="m 53.694287,190.52794 0.02241,-0.002" />
        <path
           id="path391"
           style="fill:#003d8f;fill-rule:evenodd;stroke-width:0.26458332"
           d="m 53.177079,190.59937 c 0.03014,-0.091 0.03646,-0.12975 -0.07649,-0.15068 -0.03908,0.0231 -0.03318,0.0243 -0.06562,0.0735 0.02537,0.0995 0.0504,0.0851 0.142108,0.0772 z" />
        <path
           id="path393"
           style="fill:#003d8f;fill-rule:evenodd;stroke-width:0.26458332"
           d="m 55.133276,190.46192 c -0.01794,0.0309 -0.04215,0.0935 -0.0041,0.12933 0.04543,0.0435 0.08199,0.001 0.13081,-0.0268 l -0.0083,-0.0981 c -0.05546,-0.0205 -0.05736,-0.0179 -0.118454,-0.004 z" />
        <path
           id="path395"
           style="fill:#003d8f;fill-rule:evenodd;stroke-width:0.26458332"
           d="m 55.795158,190.48822 c 0.03866,-0.0824 0.01077,-0.0317 0.05958,-0.0287 0.04733,0.003 0.03201,-0.01 0.04215,-0.0537 -0.0671,-0.0242 -0.06562,-0.0313 -0.146553,-0.009 l -0.01638,0.0525 c 0.05485,0.044 0.131975,0.1 0.178568,0.14613 -0.03654,-0.0939 -0.02418,-0.0727 -0.117369,-0.10692 z" />
        <path
           id="path397"
           style="fill:#003d8f;fill-rule:evenodd;stroke-width:0.26458332"
           d="m 54.583525,190.5867 c 0.08231,0.0313 0.09795,0.0234 0.135255,-0.0287 l -0.0071,-0.0101 -0.05146,-0.0463 c -0.02537,-0.019 -0.03879,-0.0279 -0.07451,-0.0444 -0.02048,0.0653 -0.02609,0.0683 -0.0021,0.12944 z" />
        <path
           id="path399"
           style="fill:#003d8f;fill-rule:evenodd;stroke-width:0.26458332"
           d="m 54.231893,190.27468 c -0.0059,0.0111 -0.02154,-0.0138 -0.01892,0.0428 0.0021,0.0597 0.01005,0.0265 0.01892,0.038 l 0.06795,-0.004 -0.0011,-0.063 z" />
        <path
           id="path401"
           style="fill:#003d8f;fill-rule:evenodd;stroke-width:0.26458332"
           d="m 53.716697,190.52585 -0.02241,0.002 c -0.04437,0 -0.05556,-0.006 -0.07829,0.0298 l -0.01606,0.0134 c 0.03583,0.0697 0.09954,-8e-4 0.11676,-0.0454 z" />
        <path
           id="path403"
           style="fill:#003d8f;fill-rule:evenodd;stroke-width:0.26458332"
           d="m 53.327442,190.54971 0.08157,-0.0999 c -0.02609,7.9e-4 -0.07681,-0.008 -0.08906,0.0529 -0.01532,0.0737 0.0026,0.0332 0.0075,0.0469 z" />
        <path
           id="path405"
           style="fill:#003d8f;fill-rule:evenodd;stroke-width:0.26458332"
           d="m 54.558918,185.53422 0.04479,-0.004 c 0.253498,-0.0242 1.077225,0.0395 1.241187,-0.0179 -0.01783,-0.0846 -0.02609,-0.33697 -0.04839,-0.48131 -0.02429,-0.15912 -0.06488,-0.28326 -0.09583,-0.43087 l -1.142497,-0.0137 z" />
        <path
           id="path407"
           style="fill:#003d8f;fill-rule:evenodd;stroke-width:0.26458332"
           d="m 54.357412,184.59174 -1.115351,0.004 -0.01595,0.0328 c 0.0041,0.1026 -0.04585,0.22106 -0.0653,0.33031 -0.019,0.11072 -0.03085,0.22664 -0.04352,0.34065 l -0.01045,0.2241 c 0.465958,0.002 0.660162,0.004 1.253861,0.004 z" />
        <path
           id="path409"
           style="fill:#003d8f;fill-rule:evenodd;stroke-width:0.26458332"
           d="m 53.03603,184.58984 -0.744802,0.006 c -0.135652,0.38399 -0.196427,0.48056 -0.221033,0.93343 l 0.836083,0.001 c 0.0037,-0.36 0.05443,-0.60196 0.129752,-0.94007 z" />
        <path
           id="path411"
           style="fill:#003d8f;fill-rule:evenodd;stroke-width:0.26458332"
           d="m 56.040797,185.52821 0.745543,0.002 c -0.02641,-0.53411 -0.104378,-0.54872 -0.221033,-0.93816 l -0.654156,-5.3e-4 c 0.06445,0.3269 0.132715,0.57849 0.129646,0.93679 z" />
        <path
           id="path413"
           style="fill:#003d8f;fill-rule:evenodd;stroke-width:0.26458332"
           d="m 55.526341,184.13666 c -0.04204,-0.0895 -0.105013,-0.18682 -0.128905,-0.26469 l -0.836083,-0.001 0.0016,0.56624 1.081325,0.002 c -0.02683,-0.0973 -0.07596,-0.21429 -0.117821,-0.30261 z" />
        <path
           id="path415"
           style="fill:#003d8f;fill-rule:evenodd;stroke-width:0.26458332"
           d="m 53.303047,184.43471 1.054471,0.004 0.0027,-0.56771 -0.793195,0.003 c -0.114436,0.13494 -0.205718,0.36907 -0.26382,0.56094 z" />
        <path
           id="path417"
           style="fill:#003d8f;fill-rule:evenodd;stroke-width:0.26458332"
           d="m 53.322362,183.87017 c -0.132689,0.004 -0.262335,0.002 -0.394309,2.7e-4 -0.09911,-8e-4 -0.09954,-0.009 -0.155839,0.0439 -0.03318,0.031 -0.054,0.0575 -0.08231,0.0922 -0.10885,0.13343 -0.237861,0.26911 -0.306097,0.43087 l 0.70231,-0.002 c 0.0749,-0.25749 0.190818,-0.42897 0.236247,-0.56539 z" />
        <path
           id="path419"
           style="fill:#003d8f;fill-rule:evenodd;stroke-width:0.26458332"
           d="m 55.753618,184.14912 c 0.03572,0.0858 0.0876,0.20286 0.105463,0.28898 l 0.613569,-5.3e-4 c -0.05485,-0.13494 -0.345626,-0.50842 -0.447702,-0.55536 -0.05704,-0.0265 -0.289613,-0.009 -0.391345,-0.008 -0.0049,0.0581 0.09054,0.20423 0.120015,0.27504 z" />
        <path
           id="path421"
           style="fill:#003d8f;fill-rule:evenodd;stroke-width:0.26458332"
           d="m 54.563152,183.71949 0.724191,-7.9e-4 c -0.0317,-0.0787 -0.213228,-0.29078 -0.269849,-0.36571 -0.04249,-0.0566 -0.05178,-0.047 -0.142028,-0.0644 -0.430557,-0.0858 -0.301546,-0.069 -0.312314,0.43087 z" />
        <path
           id="path423"
           style="fill:#003d8f;fill-rule:evenodd;stroke-width:0.26458332"
           d="m 54.353205,183.25174 c -0.07977,-0.005 -0.308637,0.005 -0.371184,0.0537 l -0.207619,0.23815 c -0.0354,0.0544 -0.08432,0.11591 -0.114432,0.17709 l 0.696622,-0.008 z" />
        <path
           id="path425"
           style="fill:#003d8f;fill-rule:evenodd;stroke-width:0.26458332"
           d="m 53.638089,183.39017 c -0.131127,10e-4 -0.561261,0.26498 -0.616109,0.33017 l 0.385022,-0.002 c 0.02421,-0.009 0.186822,-0.28699 0.231087,-0.32798 z" />
        <path
           id="path427"
           style="fill:#003d8f;fill-rule:evenodd;stroke-width:0.26458332"
           d="m 55.834872,183.72023 c -0.0581,-0.0708 -0.366739,-0.26159 -0.488263,-0.28104 0.02167,0.0224 0.16219,0.23678 0.181531,0.27998 z" />
        <path
           d="m 52.578009,189.08905 0.01225,-0.0212 0.0037,-0.0261 0.01087,-0.022 0.0149,-0.0689 0.02641,-0.0336 c 0.0046,-0.14349 0.17299,-0.48678 0.204264,-0.66535 -0.115491,-0.0652 -0.07451,-0.0574 -0.133773,-0.0995 -0.04776,-0.0339 -0.08909,-0.0547 -0.142426,-0.0969 -0.05061,-0.0402 -0.08231,-0.0761 -0.13081,-0.10882 l -0.06784,-0.0444 -0.858387,-0.6568 c -0.08686,-0.0746 -0.176028,-0.12446 -0.266568,-0.19566 l -0.518795,-0.40259 -0.02167,-0.0183 -0.01564,-0.0108 -0.02725,-0.0205 0.0026,0.002 c 0.03276,0.0407 -0.0068,-2.6e-4 -0.0026,-0.002 -0.150891,-0.0932 -0.375311,-0.28813 -0.435318,-0.31792 l 0.0021,2.95291 c 0.09131,0.0659 1.246796,0.47704 1.520455,0.58364 l 0.518795,0.19127 0.248311,-0.74702 0.0049,-0.0339 0.01119,-0.0175 0.0082,-0.0249 0.01161,-0.0201 0.0047,-0.0228 0.02209,-0.0313 z"
           style="fill:#003d8f;fill-rule:evenodd;stroke-width:0.26458332"
           id="path1247" />
        <path
           d="m 58.343783,187.00575 c -0.07639,0.0491 -0.200448,0.13229 -0.280644,0.16886 l -0.0093,0.003 -0.01458,0.0165 -0.02304,-0.005 -0.01426,0.0168 -0.01638,0.0174 -0.0085,0.006 -0.04924,0.0231 -0.0019,0.004 -0.07048,0.0451 -0.0085,0.006 -0.01902,0.006 -0.02947,0.0175 -0.003,0.004 -0.01606,0.016 c -0.04733,0.0239 0.02683,-0.0137 -0.0354,0.0119 l -0.02082,0.0175 c -0.168083,0.12637 -1.381066,0.84053 -1.447,0.92665 l 0.671671,0.95906 0.0071,0.0202 c 0.05366,0.0328 0.200528,0.24895 0.239633,0.30673 0.07564,0.11179 0.12192,0.19304 0.216932,0.29967 0.03318,-0.0257 0.115254,-0.0701 0.161027,-0.10134 l 1.052697,-0.72535 v -2.22975 c -0.09057,0.0428 -0.194627,0.11284 -0.28149,0.16883 z"
           style="fill:#003d8f;fill-rule:evenodd;stroke-width:0.26458332"
           id="path1249" />
        <path
           d="m 54.208134,190.64501 0.0048,-0.002"
           style="fill:#003d8f;fill-rule:evenodd;stroke-width:0.26458332"
           id="path1251" />
        <path
           d="m 55.650192,189.79827 -0.488685,-0.32586 -0.05188,-0.0279 -0.0372,-0.0324 -0.01871,-0.004 -0.01783,-0.0161 c -0.09731,-0.0373 -0.198332,-0.10958 -0.2871,-0.1625 -0.132609,-0.0783 -0.559779,0.32501 -1.014227,0.1233 -0.08157,-0.0365 -0.204549,-0.13714 -0.243761,-0.20233 -0.21881,-0.36423 0.413438,-0.44061 0.598673,-0.61727 l -1.122336,-0.0876 -0.228097,0.69514 c -0.0522,0.14804 -0.09512,0.29639 -0.146553,0.44178 -0.05929,0.16737 -0.03014,0.19378 0.177827,0.34845 0.088,-0.0532 0.168089,-0.10469 0.307895,-0.0667 0.1964,0.0537 0.0712,0.12374 0.251249,0.10504 0.233309,-0.0245 0.399176,0.13946 0.414813,0.34962 0.07683,0.0134 0.103982,0.0217 0.142769,0.066 l 0.02905,-0.004 c 0.05853,0.007 0.04924,10e-4 0.10586,0.0432 l 0.0276,0.022 c 0.03432,-0.0652 0.04628,-0.0697 0.133112,-0.0574 l 0.104405,0.009 0.0011,0.26721 c -0.05104,5.3e-4 -0.07228,-0.01 -0.07977,-0.0198 -0.05178,0.0251 -0.07154,0.031 -0.150998,0.019 l 0.0063,0.0637 c 0.28739,0.0687 0.344117,0.32025 0.228838,0.52745 0.04924,0.0488 0.08993,0.0712 0.139489,0.11263 0.0917,0.0779 0.28739,0.30041 0.474821,0.0193 -0.02789,-0.0596 -0.245641,-0.22029 -0.310834,-0.26392 -0.05813,-0.0395 -0.101759,-0.0805 -0.16473,-0.12184 -0.07607,-0.0507 -0.0917,-0.0851 -0.0336,-0.16883 0.106283,-0.0258 0.11221,0.0115 0.170313,0.063 l 0.26998,0.20952 c 0.04278,0.0357 0.08305,0.0622 0.127847,0.0954 0.131551,0.0957 0.196744,0.17254 0.292153,0.17254 0.129011,0 0.237834,-0.10692 0.244607,-0.22961 l -0.320595,-0.23931 c -0.03919,-0.0347 -0.03728,-0.0366 -0.07755,-0.0659 l -0.234025,-0.17899 c -0.06826,-0.0215 -0.06456,-0.0223 -0.106309,-0.07 -0.03654,0.0712 -0.09911,0.0883 -0.199787,0.0668 -0.0016,0.0979 0.02577,0.1084 -0.05665,0.10808 -0.03318,-0.10335 -0.0082,-0.27472 0.03276,-0.35565 -0.05062,-0.23405 0.164412,-0.0898 0.240797,-0.0373 l 0.01122,-0.12329 0.05662,0.004 0.009,0.14052 c 0.133137,-0.0584 0.127872,0.031 0.170761,0.13946 0.02683,-0.1737 0.169889,-0.18606 0.276939,-0.0805 l 0.03202,-0.0898 c -0.06816,-0.0302 7.94e-4,0.002 -0.03688,-0.0299 l -0.304509,-0.23109 c -0.209524,-0.14941 -0.250111,-0.15954 -0.208783,-0.28329 0.12827,-0.0335 0.18079,0.0612 0.261726,0.1193 l 0.684662,0.51329 0.01648,-0.0529 c 0.08051,-0.022 0.07935,-0.0149 0.146447,0.009 -0.01003,0.0439 0.0049,0.0563 -0.04247,0.0537 -0.04807,-0.003 -0.0205,-0.0537 -0.05927,0.0287 0.09319,0.0339 0.08083,0.013 0.11737,0.10692 l 0.01005,0.002 c 0.197246,0.0992 0.285591,-0.13081 0.240479,-0.32385 -0.04511,-0.19495 -0.368642,-0.34814 -0.512867,-0.47525 z m -1.417981,0.55724 c -0.0093,-0.0116 -0.01712,0.0216 -0.01934,-0.038 -0.0024,-0.0563 0.01302,-0.0313 0.01892,-0.0429 l 0.06678,0.0142 0.0016,0.0622 z m 0.156924,0.12184 c -0.0049,0.24122 0.05366,0.0436 0.06339,0.1756 -0.04175,0.0335 -0.06003,0.0153 -0.111813,0.005 -0.01426,-0.0646 -0.01119,-0.12456 -0.02609,-0.19463 0,-2.6e-4 -0.05443,-0.0886 0.04987,-0.14348 0.05633,0.0332 -0.0085,-0.002 0.03434,0.0429 l 0.009,0.009 c 0.09205,0.0891 0.04956,0.0429 -0.01868,0.1062 z"
           style="fill:#003d8f;fill-rule:evenodd;stroke-width:0.26458332"
           id="path1253" />
        <path
           d="m 56.921806,189.48826 h -0.0031 l -0.02008,-0.0172 -0.06001,-0.0947 -0.0078,-0.0208 -0.0131,-0.0254 c -0.04278,-0.0149 -0.02228,0.001 -0.0335,-0.041 l -0.02238,-0.0246 c -0.03731,-0.0186 -0.505804,-0.69443 -0.563589,-0.78349 -0.163565,0.0257 -0.506227,0.24863 -0.636614,0.24599 -0.102182,-0.002 -0.58674,-0.12375 -0.710459,-0.15587 -0.320992,-0.0834 -0.401082,0.008 -0.643361,0.13758 -0.106309,0.0574 -0.495035,0.24525 -0.556524,0.30081 0.03276,0.10885 0.183435,0.19611 0.345942,0.19865 0.156898,0.002 0.299641,-0.0525 0.428969,-0.10544 0.497973,-0.2032 0.149093,-0.13197 0.694399,0.11179 l 0.01267,0.0142 0.0083,0.005 c 0.115914,0.0555 0.723451,0.42561 0.852038,0.54047 0.08919,0.0798 0.101441,0.17105 0.237543,0.23667 0.125195,-0.0156 0.341783,-0.0917 0.443542,-0.14317 0.174016,-0.0879 0.228124,-0.19187 0.332105,-0.22621 -0.02685,-0.0675 -0.0485,-0.0798 -0.06268,-0.13155 z"
           style="fill:#003d8f;fill-rule:evenodd;stroke-width:0.26458332"
           id="path1255" />
        <path
           d="m 55.700463,186.60477 c 0.03127,-0.14718 0.07186,-0.27164 0.09615,-0.43013 0.02199,-0.14496 0.03056,-0.39656 0.04839,-0.48151 -0.163962,-0.0575 -0.988113,0.006 -1.241187,-0.0175 l -0.04479,-0.005 -7.94e-4,0.94755 z"
           style="fill:#003d8f;fill-rule:evenodd;stroke-width:0.26458332"
           id="path1257" />
        <path
           d="m 53.107044,185.68193 0.01045,0.22411 c 0.01236,0.114 0.02463,0.22992 0.04363,0.34022 0.01934,0.10967 0.069,0.22813 0.06519,0.33031 l 0.01606,0.0329 1.115245,0.004 0.003,-0.93522 c -0.593699,-8e-4 -0.787903,0.002 -1.253543,0.004 z"
           style="fill:#003d8f;fill-rule:evenodd;stroke-width:0.26458332"
           id="path1259" />
        <path
           d="m 53.03603,186.61522 c -0.07533,-0.33811 -0.126048,-0.58007 -0.129752,-0.94046 l -0.836083,0.002 c 0.02461,0.45212 0.08538,0.54872 0.221033,0.933 z"
           style="fill:#003d8f;fill-rule:evenodd;stroke-width:0.26458332"
           id="path1261" />
        <path
           d="m 56.78634,185.67487 -0.745543,0.002 c 0.0034,0.35819 -0.06519,0.60979 -0.129752,0.93668 l 0.654579,-8e-4 c 0.115914,-0.38957 0.194204,-0.40404 0.220716,-0.93826 z"
           style="fill:#003d8f;fill-rule:evenodd;stroke-width:0.26458332"
           id="path1263" />
        <path
           d="m 55.526341,187.0684 c 0.04186,-0.088 0.09099,-0.20539 0.117819,-0.30228 l -1.081326,0.002 -0.0016,0.56581 0.836084,-8e-4 c 0.02389,-0.0779 0.08686,-0.1756 0.128905,-0.265 z"
           style="fill:#003d8f;fill-rule:evenodd;stroke-width:0.26458332"
           id="path1265" />
        <path
           d="m 54.357412,186.76633 -1.054577,0.004 c 0.05895,0.19198 0.149913,0.426 0.263922,0.56105 l 0.793618,0.003 z"
           style="fill:#003d8f;fill-rule:evenodd;stroke-width:0.26458332"
           id="path1267" />
        <path
           d="m 53.086009,186.7695 -0.701886,-0.002 c 0.06813,0.16177 0.196823,0.29745 0.305673,0.43045 0.02831,0.0351 0.04956,0.0612 0.08231,0.0925 0.0563,0.0526 0.05673,0.0444 0.156157,0.044 0.131657,-0.001 0.261302,-0.004 0.393991,2.6e-4 -0.04543,-0.13642 -0.161343,-0.30789 -0.236247,-0.56549 z"
           style="fill:#003d8f;fill-rule:evenodd;stroke-width:0.26458332"
           id="path1269" />
        <path
           d="m 56.024842,187.32317 c 0.102182,-0.047 0.392536,-0.42127 0.447702,-0.55578 h -0.613463 c -0.01797,0.0857 -0.07017,0.20275 -0.105569,0.28845 -0.02905,0.0705 -0.124883,0.21693 -0.120015,0.27545 0.101732,5.3e-4 0.333984,0.0183 0.391345,-0.008 z"
           style="fill:#003d8f;fill-rule:evenodd;stroke-width:0.26458332"
           id="path1271" />
        <path
           d="m 54.87536,187.91676 c 0.09025,-0.018 0.09954,-0.008 0.142452,-0.0649 0.0563,-0.0746 0.238151,-0.28665 0.269531,-0.36568 l -0.724297,-5.3e-4 c 0.01087,0.49987 -0.118137,0.51668 0.312314,0.43098 z"
           style="fill:#003d8f;fill-rule:evenodd;stroke-width:0.26458332"
           id="path1273" />
        <path
           d="m 53.982021,187.89954 c 0.06265,0.0491 0.2912,0.0584 0.37129,0.054 l 0.0034,-0.46112 -0.696728,-0.008 c 0.03021,0.0612 0.07903,0.12224 0.114433,0.17667 z"
           style="fill:#003d8f;fill-rule:evenodd;stroke-width:0.26458332"
           id="path1275" />
        <path
           d="m 53.844967,191.01125 c -0.03731,0.0582 -0.199787,0.2281 -0.23413,0.29604 0.05514,0.0913 0.221033,0.224 0.335148,0.0921 0.03646,-0.0422 0.197908,-0.2762 0.198966,-0.33179 0.0034,-0.1606 -0.20574,-0.20349 -0.299984,-0.0563 z"
           style="fill:#003d8f;fill-rule:evenodd;stroke-width:0.26458332"
           id="path1277" />
        <path
           d="m 53.853539,190.6598 c -0.04659,-0.0271 -0.05887,-0.0264 -0.07935,-0.0607 -0.08199,0.0724 -0.08316,0.0836 -0.212487,0.0548 l 0.0016,0.0802 c -0.0096,0.0391 0.01384,0.0152 -0.02125,0.0305 -0.0671,0.0302 -0.04765,-0.0261 -0.04659,-0.0646 l -0.159546,0.20021 c -0.172984,0.20765 0.05186,0.2852 0.134911,0.29078 0.05601,-0.0522 0.06339,-0.0731 0.107792,-0.12785 l 0.102473,-0.12075 c 0.08612,-0.1193 0.182695,-0.1905 0.172561,-0.28266 z"
           style="fill:#003d8f;fill-rule:evenodd;stroke-width:0.26458332"
           id="path1279" />
        <path
           d="m 55.473927,190.62832 c -0.019,0.0895 -0.128588,0.0556 -0.143801,-0.082 -0.0085,0.0678 -0.08168,0.11486 -0.150654,0.13537 l 0.01574,0.0201 0.362612,0.27323 c 0.199813,0.16809 0.33991,-0.0984 0.314245,-0.20309 l -0.01048,-0.005 -0.01521,-0.0161 -0.01648,-0.0137 -0.01267,-0.0146 c -0.04469,-0.0432 -0.07077,-0.0737 -0.121073,-0.0827 -0.120782,0.0526 -0.121946,0.0529 -0.222223,-0.0112 z"
           style="fill:#003d8f;fill-rule:evenodd;stroke-width:0.26458332"
           id="path1281" />
        <path
           d="m 55.179578,190.68147 0.01532,0.0209"
           style="fill:#003d8f;fill-rule:evenodd;stroke-width:0.26458332"
           id="path1283" />
        <path
           d="m 55.337746,190.36122 -0.03244,0.0899 c -0.106627,-0.10555 -0.249687,-0.0932 -0.276516,0.0801 -0.04321,-0.10851 -0.03731,-0.19791 -0.170762,-0.13936 l -0.0093,-0.1402 -0.0563,-0.004 -0.01154,0.12308 c 0.03127,0.0443 0.06636,0.0622 0.102499,0.11137 0.117396,0.0339 0.22061,0.17443 0.295963,0.19949 0.06929,-0.0202 0.142002,-0.0675 0.150548,-0.13536 0.01532,0.13758 0.12491,0.17182 0.143907,0.0824 0.100277,0.0637 0.101759,0.0637 0.222224,0.0105 l -0.0097,-0.009 -0.0097,-0.009 -0.375735,-0.28993 c 0.03762,0.0316 -0.03127,-5.3e-4 0.03688,0.0301 z m -0.2091,0.23003 c -0.03762,-0.0358 -0.01299,-0.0984 0.0045,-0.12933 0.06152,-0.0134 0.063,-0.0161 0.118136,0.004 l 0.0086,0.0981 c -0.04882,0.028 -0.0857,0.0705 -0.131233,0.0268 z"
           style="fill:#003d8f;fill-rule:evenodd;stroke-width:0.26458332"
           id="path1285" />
        <path
           d="m 53.114637,190.1313 c -0.143907,-0.16738 -0.228547,-0.041 -0.31242,0.0765 -0.111045,0.15618 -0.142769,0.15354 -0.0011,0.31795 l 0.02609,-0.022 0.220292,-0.27514 c 0.02791,-0.0361 0.0521,-0.0544 0.0671,-0.0973 z"
           style="fill:#003d8f;fill-rule:evenodd;stroke-width:0.26458332"
           id="path1287" />
        <path
           d="m 52.997268,190.61141 c 0.08535,0.0976 0.194628,0.0898 0.25019,-0.0221 l 0.05842,0.0656 0.01945,-2.6e-4 0.0056,-0.003 0.02199,-0.0209 0.01225,-0.0213 0.07459,-0.10099 0.01902,-0.0174 0.03318,-0.0437 0.0027,-0.0175 c -0.01564,-0.0246 0.02841,-0.0193 -0.06075,-0.044 -0.07345,-0.0202 -0.12184,0.01 -0.170656,0.057 l 7.94e-4,-0.20606 c -0.0354,0.0316 -0.06414,0.0689 -0.09319,0.1006 -0.03731,0.0403 -0.01236,0.008 -0.03879,0.0566 l -0.03096,0.0551 c 0.112209,0.0209 0.106309,0.0593 0.07607,0.15068 -0.09139,0.008 -0.116311,0.0223 -0.142002,-0.0775 l -0.07268,0.0981 c 0.04056,-0.0261 0.0413,-0.0175 0.03498,-0.009 z m 0.322474,-0.1085 c 0.01267,-0.0615 0.06297,-0.0522 0.08948,-0.0534 l -0.08168,0.10028 c -0.0052,-0.0142 -0.02313,0.0272 -0.0078,-0.0469 z"
           style="fill:#003d8f;fill-rule:evenodd;stroke-width:0.26458332"
           id="path1289" />
        <path
           d="m 52.997268,190.61141 -0.0063,-0.006"
           style="fill:#003d8f;fill-rule:evenodd;stroke-width:0.26458332"
           id="path1291" />
        <path
           d="m 53.407108,187.48692 -0.385128,-0.002 c 0.05485,0.0653 0.484558,0.32912 0.616215,0.3306 -0.04437,-0.0413 -0.206878,-0.31866 -0.231087,-0.3284 z"
           style="fill:#003d8f;fill-rule:evenodd;stroke-width:0.26458332"
           id="path1293" />
        <path
           d="m 54.208134,190.64501 0.0048,-0.002 -0.0048,0.002 c 0.0075,0.01 0.02873,0.0202 0.08019,0.0194 l -0.0011,-0.26691 -0.104299,-0.01 c -0.08726,-0.0119 -0.09922,-0.008 -0.133429,0.0575 l -0.0276,-0.0217 c -0.05673,-0.0425 -0.04702,-0.0369 -0.105543,-0.0439 0.04659,0.0625 0.109988,0.1084 0.126365,0.22809 l 0.01458,0.0562 c 0.07977,0.0116 0.09911,0.006 0.150892,-0.019 z"
           style="fill:#003d8f;fill-rule:evenodd;stroke-width:0.26458332"
           id="path1295" />
        <path
           d="m 53.247141,190.58945 c -0.05546,0.11189 -0.16473,0.1197 -0.250084,0.0221 l -0.0063,-0.007 0.0063,0.007 c 0.0068,-0.009 0.0063,-0.018 -0.03498,0.008 -0.123852,0.0668 0.01669,0.25156 0.197908,0.24786 0.06707,-0.15732 0.129725,-0.13904 0.145706,-0.21246 z"
           style="fill:#003d8f;fill-rule:evenodd;stroke-width:0.26458332"
           id="path1297" />
        <path
           d="m 53.433645,190.3854 c 0.08917,0.0249 0.04511,0.0194 0.06075,0.0435 l 0.01267,0.008 c 0.02577,-0.1007 0.06043,-0.17179 -0.03127,-0.23561 -0.09731,-0.0686 -0.174439,-0.0301 -0.212063,0.0347 l -7.94e-4,0.20606 c 0.04882,-0.0469 0.09721,-0.0774 0.170656,-0.057 z"
           style="fill:#003d8f;fill-rule:evenodd;stroke-width:0.26458332"
           id="path1299" />
        <path
           d="m 55.52814,187.48578 c -0.01945,0.0433 -0.159544,0.25728 -0.181213,0.27999 0.121206,-0.0187 0.429419,-0.21027 0.487945,-0.28105 z"
           style="fill:#003d8f;fill-rule:evenodd;stroke-width:0.26458332"
           id="path1301" />
        <path
           d="m 54.508092,190.76379 c 0.08231,5.2e-4 0.05517,-0.0104 0.05665,-0.10809 0.100568,0.0216 0.162824,0.004 0.199046,-0.0667 -0.03654,-0.0447 -0.01341,-0.0195 -0.04479,-0.031 -0.03731,0.0518 -0.05294,0.0596 -0.135678,0.0287 -0.02344,-0.0612 -0.01783,-0.0641 0.0021,-0.12933 l -0.04469,-0.0497 c -0.04172,0.0813 -0.06636,0.25242 -0.03276,0.35598 z"
           style="fill:#003d8f;fill-rule:evenodd;stroke-width:0.26458332"
           id="path1303" />
        <path
           d="m 54.407497,190.37114 -0.0085,-0.009 c -0.04278,-0.045 0.02167,-0.01 -0.03424,-0.0428 -0.104828,0.0544 -0.04998,0.14349 -0.04956,0.14349 0.01415,0.0701 0.01151,0.13007 0.02566,0.19452 0.05178,0.0105 0.07006,0.0288 0.111496,-0.005 -0.0097,-0.13198 -0.06826,0.0655 -0.063,-0.17561 0.06784,-0.063 0.110331,-0.0171 0.01818,-0.1062 z"
           style="fill:#003d8f;fill-rule:evenodd;stroke-width:0.26458332"
           id="path1305" />
        <path
           d="m 53.542257,190.76463 c 0.03498,-0.0152 0.01077,0.009 0.0205,-0.0301 l -0.0011,-0.0805 c 0.129328,0.0283 0.130492,0.0179 0.212487,-0.0552 0.02048,0.0347 0.03315,0.0342 0.07977,0.0608 -0.01944,-0.0868 -0.04776,-0.13049 -0.137158,-0.13343 -0.01722,0.0447 -0.08094,0.11515 -0.117079,0.0451 l -0.06519,0.073 -0.01942,0.0231 -0.01976,0.0324 c -0.0011,0.0383 -0.0205,0.095 0.04702,0.0648 z"
           style="fill:#003d8f;fill-rule:evenodd;stroke-width:0.26458332"
           id="path1307" />
        <path
           d="m 53.694287,190.52794 0.02241,-0.002"
           style="fill:#003d8f;fill-rule:evenodd;stroke-width:0.26458332"
           id="path1309" />
        <path
           d="m 53.177079,190.59937 c 0.03014,-0.091 0.03646,-0.12975 -0.07649,-0.15068 -0.03908,0.0231 -0.03318,0.0243 -0.06562,0.0735 0.02537,0.0995 0.0504,0.0851 0.142108,0.0772 z"
           style="fill:#003d8f;fill-rule:evenodd;stroke-width:0.26458332"
           id="path1311" />
        <path
           d="m 55.133276,190.46192 c -0.01794,0.0309 -0.04215,0.0935 -0.0041,0.12933 0.04543,0.0435 0.08199,0.001 0.13081,-0.0268 l -0.0083,-0.0981 c -0.05546,-0.0205 -0.05736,-0.0179 -0.118454,-0.004 z"
           style="fill:#003d8f;fill-rule:evenodd;stroke-width:0.26458332"
           id="path1313" />
        <path
           d="m 55.795158,190.48822 c 0.03866,-0.0824 0.01077,-0.0317 0.05958,-0.0287 0.04733,0.003 0.03201,-0.01 0.04215,-0.0537 -0.0671,-0.0242 -0.06562,-0.0313 -0.146553,-0.009 l -0.01638,0.0525 c 0.05485,0.044 0.131975,0.1 0.178568,0.14613 -0.03654,-0.0939 -0.02418,-0.0727 -0.117369,-0.10692 z"
           style="fill:#003d8f;fill-rule:evenodd;stroke-width:0.26458332"
           id="path1315" />
        <path
           d="m 54.583525,190.5867 c 0.08231,0.0313 0.09795,0.0234 0.135255,-0.0287 l -0.0071,-0.0101 -0.05146,-0.0463 c -0.02537,-0.019 -0.03879,-0.0279 -0.07451,-0.0444 -0.02048,0.0653 -0.02609,0.0683 -0.0021,0.12944 z"
           style="fill:#003d8f;fill-rule:evenodd;stroke-width:0.26458332"
           id="path1317" />
        <path
           d="m 54.231893,190.27468 c -0.0059,0.0111 -0.02154,-0.0138 -0.01892,0.0428 0.0021,0.0597 0.01005,0.0265 0.01892,0.038 l 0.06795,-0.004 -0.0011,-0.063 z"
           style="fill:#003d8f;fill-rule:evenodd;stroke-width:0.26458332"
           id="path1319" />
        <path
           d="m 53.716697,190.52585 -0.02241,0.002 c -0.04437,0 -0.05556,-0.006 -0.07829,0.0298 l -0.01606,0.0134 c 0.03583,0.0697 0.09954,-8e-4 0.11676,-0.0454 z"
           style="fill:#003d8f;fill-rule:evenodd;stroke-width:0.26458332"
           id="path1321" />
        <path
           d="m 53.327442,190.54971 0.08157,-0.0999 c -0.02609,7.9e-4 -0.07681,-0.008 -0.08906,0.0529 -0.01532,0.0737 0.0026,0.0332 0.0075,0.0469 z"
           style="fill:#003d8f;fill-rule:evenodd;stroke-width:0.26458332"
           id="path1323" />
        <path
           d="m 54.558918,185.53422 0.04479,-0.004 c 0.253498,-0.0242 1.077225,0.0395 1.241187,-0.0179 -0.01783,-0.0846 -0.02609,-0.33697 -0.04839,-0.48131 -0.02429,-0.15912 -0.06488,-0.28326 -0.09583,-0.43087 l -1.142497,-0.0137 z"
           style="fill:#003d8f;fill-rule:evenodd;stroke-width:0.26458332"
           id="path1325" />
        <path
           d="m 54.357412,184.59174 -1.115351,0.004 -0.01595,0.0328 c 0.0041,0.1026 -0.04585,0.22106 -0.0653,0.33031 -0.019,0.11072 -0.03085,0.22664 -0.04352,0.34065 l -0.01045,0.2241 c 0.465958,0.002 0.660162,0.004 1.253861,0.004 z"
           style="fill:#003d8f;fill-rule:evenodd;stroke-width:0.26458332"
           id="path1327" />
        <path
           d="m 53.03603,184.58984 -0.744802,0.006 c -0.135652,0.38399 -0.196427,0.48056 -0.221033,0.93343 l 0.836083,0.001 c 0.0037,-0.36 0.05443,-0.60196 0.129752,-0.94007 z"
           style="fill:#003d8f;fill-rule:evenodd;stroke-width:0.26458332"
           id="path1329" />
        <path
           d="m 56.040797,185.52821 0.745543,0.002 c -0.02641,-0.53411 -0.104378,-0.54872 -0.221033,-0.93816 l -0.654156,-5.3e-4 c 0.06445,0.3269 0.132715,0.57849 0.129646,0.93679 z"
           style="fill:#003d8f;fill-rule:evenodd;stroke-width:0.26458332"
           id="path1331" />
        <path
           d="m 55.526341,184.13666 c -0.04204,-0.0895 -0.105013,-0.18682 -0.128905,-0.26469 l -0.836083,-0.001 0.0016,0.56624 1.081325,0.002 c -0.02683,-0.0973 -0.07596,-0.21429 -0.117821,-0.30261 z"
           style="fill:#003d8f;fill-rule:evenodd;stroke-width:0.26458332"
           id="path1333" />
        <path
           d="m 53.303047,184.43471 1.054471,0.004 0.0027,-0.56771 -0.793195,0.003 c -0.114436,0.13494 -0.205718,0.36907 -0.26382,0.56094 z"
           style="fill:#003d8f;fill-rule:evenodd;stroke-width:0.26458332"
           id="path1335" />
        <path
           d="m 53.322362,183.87017 c -0.132689,0.004 -0.262335,0.002 -0.394309,2.7e-4 -0.09911,-8e-4 -0.09954,-0.009 -0.155839,0.0439 -0.03318,0.031 -0.054,0.0575 -0.08231,0.0922 -0.10885,0.13343 -0.237861,0.26911 -0.306097,0.43087 l 0.70231,-0.002 c 0.0749,-0.25749 0.190818,-0.42897 0.236247,-0.56539 z"
           style="fill:#003d8f;fill-rule:evenodd;stroke-width:0.26458332"
           id="path1337" />
        <path
           d="m 55.753618,184.14912 c 0.03572,0.0858 0.0876,0.20286 0.105463,0.28898 l 0.613569,-5.3e-4 c -0.05485,-0.13494 -0.345626,-0.50842 -0.447702,-0.55536 -0.05704,-0.0265 -0.289613,-0.009 -0.391345,-0.008 -0.0049,0.0581 0.09054,0.20423 0.120015,0.27504 z"
           style="fill:#003d8f;fill-rule:evenodd;stroke-width:0.26458332"
           id="path1339" />
        <path
           d="m 54.563152,183.71949 0.724191,-7.9e-4 c -0.0317,-0.0787 -0.213228,-0.29078 -0.269849,-0.36571 -0.04249,-0.0566 -0.05178,-0.047 -0.142028,-0.0644 -0.430557,-0.0858 -0.301546,-0.069 -0.312314,0.43087 z"
           style="fill:#003d8f;fill-rule:evenodd;stroke-width:0.26458332"
           id="path1341" />
        <path
           d="m 54.353205,183.25174 c -0.07977,-0.005 -0.308637,0.005 -0.371184,0.0537 l -0.207619,0.23815 c -0.0354,0.0544 -0.08432,0.11591 -0.114432,0.17709 l 0.696622,-0.008 z"
           style="fill:#003d8f;fill-rule:evenodd;stroke-width:0.26458332"
           id="path1343" />
        <path
           d="m 53.638089,183.39017 c -0.131127,10e-4 -0.561261,0.26498 -0.616109,0.33017 l 0.385022,-0.002 c 0.02421,-0.009 0.186822,-0.28699 0.231087,-0.32798 z"
           style="fill:#003d8f;fill-rule:evenodd;stroke-width:0.26458332"
           id="path1345" />
        <path
           d="m 55.834872,183.72023 c -0.0581,-0.0708 -0.366739,-0.26159 -0.488263,-0.28104 0.02167,0.0224 0.16219,0.23678 0.181531,0.27998 z"
           style="fill:#003d8f;fill-rule:evenodd;stroke-width:0.26458332"
           id="path1347" />
      </g>
    </g>
  </g>
</svg>
