<?xml version="1.0" encoding="UTF-8" standalone="no"?>
<svg
   xmlns:dc="http://purl.org/dc/elements/1.1/"
   xmlns:cc="http://creativecommons.org/ns#"
   xmlns:rdf="http://www.w3.org/1999/02/22-rdf-syntax-ns#"
   xmlns:svg="http://www.w3.org/2000/svg"
   xmlns="http://www.w3.org/2000/svg"
   id="svg7481"
   version="1.1"
   viewBox="0 0 52.916714 44.079365"
   height="44.079365mm"
   width="52.916714mm">
  <defs
     id="defs7475" />
  <metadata
     id="metadata7478">
    <rdf:RDF>
      <cc:Work
         rdf:about="">
        <dc:format>image/svg+xml</dc:format>
        <dc:type
           rdf:resource="http://purl.org/dc/dcmitype/StillImage" />
        <dc:title></dc:title>
      </cc:Work>
    </rdf:RDF>
  </metadata>
  <g
     transform="translate(158.06633,-232.6944)"
     id="layer1">
    <path
       d="m -111.24347,258.5993 v -11.07833 h -20.86051 l -0.0137,2.10478 0.0137,8.98083 z"
       style="fill:#003d8f;fill-rule:evenodd;stroke-width:1.8172884"
       id="path479" />
    <path
       d="m -152.18916,265.32108 0.003,5.56856 18.41024,-0.0275 v -23.34979 l -18.41312,0.007 z"
       style="fill:#003d8f;fill-rule:evenodd;stroke-width:1.8172884"
       id="path481" />
    <path
       d="m -132.12211,260.26779 0.0137,10.62261 3.57931,-0.0275 h 6.02133 l 0.005,-6.03452 -0.002,-4.5547 z"
       style="fill:#003d8f;fill-rule:evenodd;stroke-width:1.8172884"
       id="path483" />
    <path
       d="m -115.30529,232.80529 -24.12565,-0.0137 c -18.23901,-0.002 -18.62302,-1.67935 -18.63539,8.98378 v 29.42771 5.57069 l 52.71719,-0.0275 -0.005,-19.27107 c 0.005,-25.96812 2.48351,-24.65459 -9.95107,-24.66984 z m -24.22504,4.08305 c 1.18798,0 2.15039,0.96516 2.15039,2.15334 0,1.18797 -0.96241,2.15094 -2.15039,2.15094 -1.18797,0 -2.15327,-0.96297 -2.15327,-2.15094 0,-1.18818 0.9653,-2.15334 2.15327,-2.15334 z m -6.32904,0 c 1.18791,0 2.15314,0.96516 2.15314,2.15334 0,1.18797 -0.96523,2.15094 -2.15314,2.15094 -1.19038,0 -2.15334,-0.96297 -2.15334,-2.15094 0,-1.18818 0.96296,-2.15334 2.15334,-2.15334 z m -6.33131,0 c 1.18798,0 2.15025,0.96516 2.15025,2.15334 0,1.18797 -0.96227,2.15094 -2.15025,2.15094 -1.18811,0 -2.15038,-0.96297 -2.15038,-2.15094 0,-1.18818 0.96227,-2.15334 2.15038,-2.15334 z m -3.628,37.60444 0.0137,-25.35627 -0.0137,-5.24052 48.19889,-0.007 0.0275,30.60771 z"
       style="fill:#003d8f;fill-rule:evenodd;stroke-width:1.8172884"
       id="path485" />
    <path
       d="m -111.24498,263.35786 0.0206,-3.09007 -9.1522,-0.0206 0.0275,2.61634 v 4.41603 l -0.0206,3.57423 9.15804,0.0275 -0.0275,-3.11047 z"
       style="fill:#003d8f;fill-rule:evenodd;stroke-width:1.8172884"
       id="path487" />
    <path
       id="path1399"
       style="fill:#003d8f;fill-rule:evenodd;stroke-width:1.8172884"
       d="m -111.24347,258.5993 v -11.07833 h -20.86051 l -0.0137,2.10478 0.0137,8.98083 z" />
    <path
       id="path1401"
       style="fill:#003d8f;fill-rule:evenodd;stroke-width:1.8172884"
       d="m -152.18916,265.32108 0.003,5.56856 18.41024,-0.0275 v -23.34979 l -18.41312,0.007 z" />
    <path
       id="path1403"
       style="fill:#003d8f;fill-rule:evenodd;stroke-width:1.8172884"
       d="m -132.12211,260.26779 0.0137,10.62261 3.57931,-0.0275 h 6.02133 l 0.005,-6.03452 -0.002,-4.5547 z" />
    <path
       id="path1405"
       style="fill:#003d8f;fill-rule:evenodd;stroke-width:1.8172884"
       d="m -115.30529,232.80529 -24.12565,-0.0137 c -18.23901,-0.002 -18.62302,-1.67935 -18.63539,8.98378 v 29.42771 5.57069 l 52.71719,-0.0275 -0.005,-19.27107 c 0.005,-25.96812 2.48351,-24.65459 -9.95107,-24.66984 z m -24.22504,4.08305 c 1.18798,0 2.15039,0.96516 2.15039,2.15334 0,1.18797 -0.96241,2.15094 -2.15039,2.15094 -1.18797,0 -2.15327,-0.96297 -2.15327,-2.15094 0,-1.18818 0.9653,-2.15334 2.15327,-2.15334 z m -6.32904,0 c 1.18791,0 2.15314,0.96516 2.15314,2.15334 0,1.18797 -0.96523,2.15094 -2.15314,2.15094 -1.19038,0 -2.15334,-0.96297 -2.15334,-2.15094 0,-1.18818 0.96296,-2.15334 2.15334,-2.15334 z m -6.33131,0 c 1.18798,0 2.15025,0.96516 2.15025,2.15334 0,1.18797 -0.96227,2.15094 -2.15025,2.15094 -1.18811,0 -2.15038,-0.96297 -2.15038,-2.15094 0,-1.18818 0.96227,-2.15334 2.15038,-2.15334 z m -3.628,37.60444 0.0137,-25.35627 -0.0137,-5.24052 48.19889,-0.007 0.0275,30.60771 z" />
    <path
       id="path1407"
       style="fill:#003d8f;fill-rule:evenodd;stroke-width:1.8172884"
       d="m -111.24498,263.35786 0.0206,-3.09007 -9.1522,-0.0206 0.0275,2.61634 v 4.41603 l -0.0206,3.57423 9.15804,0.0275 -0.0275,-3.11047 z" />
  </g>
</svg>
