<?xml version="1.0" encoding="UTF-8" standalone="no"?>
<svg
   xmlns:dc="http://purl.org/dc/elements/1.1/"
   xmlns:cc="http://creativecommons.org/ns#"
   xmlns:rdf="http://www.w3.org/1999/02/22-rdf-syntax-ns#"
   xmlns:svg="http://www.w3.org/2000/svg"
   xmlns="http://www.w3.org/2000/svg"
   id="svg6337"
   version="1.1"
   viewBox="0 0 52.916637 107.202"
   height="107.202mm"
   width="52.916637mm">
  <defs
     id="defs6331" />
  <metadata
     id="metadata6334">
    <rdf:RDF>
      <cc:Work
         rdf:about="">
        <dc:format>image/svg+xml</dc:format>
        <dc:type
           rdf:resource="http://purl.org/dc/dcmitype/StillImage" />
        <dc:title></dc:title>
      </cc:Work>
    </rdf:RDF>
  </metadata>
  <g
     transform="translate(126.94892,-61.243235)"
     id="layer1">
    <path
       id="path1241"
       style="fill:#003d8f;fill-rule:evenodd;stroke-width:3.15730023"
       d="m -124.28135,168.43043 h 0.77326 c 0.72196,-0.71121 1.33019,-3.25046 1.62923,-4.42945 1.73364,0.16349 0.61217,0.48926 2.44092,-1.66824 0.7482,-0.88544 1.26861,-1.60107 1.93543,-2.51801 2.35273,-3.23781 1.43245,-1.65035 2.58483,-6.3471 1.07517,-4.40283 9.47787,-41.15286 10.19397,-43.16788 l 3.17242,-0.0358 c 0.36396,2.12588 -0.77446,5.67145 1.90261,5.83159 2.878504,0.17422 1.91777,-3.51788 2.127076,-5.8051 0.719566,-0.0358 1.80536,-0.142 2.321228,0.1074 0.298327,0.2673 9.32763,39.22256 10.265691,43.17671 0.285201,1.21408 0.52625,2.39796 0.831737,3.59461 0.20883,0.80071 4.648899,6.75569 5.222523,6.90688 l 0.501191,0.0239 0.125297,0.0119 0.119331,0.0239 0.125298,0.0239 c 0.715986,2.18399 0.715986,3.5631 1.752257,4.28326 h 0.618135 l 0.503577,-0.42601 c 0.128877,-1.23209 -0.693314,-3.3137 -1.001188,-4.5242 0.427205,-0.27565 1.102619,-0.4451 1.761446,-0.61336 l -12.59217,-52.54885 7.188144,-0.0597 c 1.068013,1.32517 0.20883,2.02386 3.26442,1.96574 1.032214,-0.0239 1.236628,-0.0835 1.708343,-0.80906 0.970162,-1.50799 1.592593,-4.98542 -1.712161,-5.06119 -3.233991,-0.0716 -2.437456,0.58234 -3.434586,1.94295 l -7.489694,0.0119 c -0.83651,-3.39413 -1.646529,-6.71655 -2.442109,-10.079057 -0.414079,-1.752615 -0.996415,-2.917644 -0.511931,-3.758689 0.920043,-1.583762 1.664191,-1.58758 2.602252,-5.47097 0.849637,-3.513822 -0.34248,-6.98373 -2.113233,-9.764024 -1.756434,-2.75249 -4.469783,-4.033389 -7.622986,-5.039708 l -0.02387,-12.965437 h -5.875738 l -0.0119,13.148252 c -6.85008,2.037697 -10.70579,8.976201 -8.97083,15.234994 1.42326,5.133144 3.29592,4.674078 2.99688,6.298173 l -1.81789,7.455326 c -0.3747,1.49402 -0.78281,3.58447 -1.21945,4.94997 l -8.58503,-0.0239 c -0.96419,-1.31634 -0.20406,-2.07278 -3.6075,-1.94294 -3.03351,0.12529 -2.55678,3.56322 -1.46753,5.15963 0.49761,0.72554 0.74821,0.70167 1.81049,0.71122 3.47015,0.0239 1.93412,-1.45358 3.26454,-1.96574 l 8.03289,0.0239 c 0.0358,0.74701 -8.75806,36.80301 -9.3719,39.33366 -0.52506,2.15357 -3.0149,11.81425 -3.13578,13.22904 l 1.76144,0.56086 c -0.56921,2.95773 -1.66323,3.77993 -0.51909,5.02956 z m 14.72688,-76.749904 c -1.73483,-3.073967 -1.63292,-7.312964 0,-10.200298 5.77849,-10.229295 20.336517,-5.270136 20.065277,5.271807 -0.02387,1.316222 -0.645581,4.652598 -1.819559,5.537557 l -1.316222,-5.155578 c -1.458702,0.156323 -6.436477,2.020036 -7.362248,2.011205 -1.453568,-0.01193 -5.417868,-1.837221 -7.339458,-2.028866 l -1.35154,5.671446 z m 9.52345,-1.374096 4.34974,18.01875 -1.858343,-0.0358 c -0.107398,-2.30858 0.675414,-5.90689 -2.095453,-5.79997 -2.593784,0.0955 -1.668364,3.46013 -1.886504,5.82145 l -2.76609,-0.009 z" />
  </g>
</svg>
