<?xml version="1.0" encoding="UTF-8" standalone="no"?>
<svg
   xmlns:dc="http://purl.org/dc/elements/1.1/"
   xmlns:cc="http://creativecommons.org/ns#"
   xmlns:rdf="http://www.w3.org/1999/02/22-rdf-syntax-ns#"
   xmlns:svg="http://www.w3.org/2000/svg"
   xmlns="http://www.w3.org/2000/svg"
   id="svg6132"
   version="1.1"
   viewBox="0 0 52.916668 40.797588"
   height="40.797588mm"
   width="52.916668mm">
  <defs
     id="defs6126" />
  <metadata
     id="metadata6129">
    <rdf:RDF>
      <cc:Work
         rdf:about="">
        <dc:format>image/svg+xml</dc:format>
        <dc:type
           rdf:resource="http://purl.org/dc/dcmitype/StillImage" />
        <dc:title></dc:title>
      </cc:Work>
    </rdf:RDF>
  </metadata>
  <g
     transform="translate(-36.400557,-19.044808)"
     id="layer1">
    <g
       transform="matrix(5.1109195,0,0,5.1109195,-149.63976,-246.00728)"
       id="g6147">
      <path
         d="m 42.7078,59.382274 c -0.08686,-0.0693 -0.573326,-0.38431 -0.893895,-0.59044 0.05178,-0.21725 0.09731,-0.43829 0.12192,-0.5896 0.06519,-0.40669 0.110622,-2.06883 0.110622,-2.06883 h 0.702337 c 0.03466,-2.6e-4 0.137477,0.0354 0.28403,0.0954 v 0.12531 l 0.04585,0.0459 0.04585,-0.0459 v -0.0873 c 0.101759,0.0425 0.218837,0.094 0.345096,0.14983 v 0.13875 l 0.04585,0.0459 0.04628,-0.0459 v -0.0976 c 0.117396,0.0521 0.241115,0.10808 0.367189,0.16618 v 0.0973 l 0.04585,0.0459 0.04575,-0.0459 v -0.056 c 0.06234,0.0292 0.125307,0.0575 0.187854,0.0865 v 0.13565 l 0.04588,0.0459 0.04628,-0.0459 v -0.0935 c 0.670931,0.30822 1.309768,0.6046 1.337443,0.58516 0.05697,-0.0395 -0.122343,-0.51142 -0.201269,-0.60344 -0.03921,-0.0459 -0.903948,-0.59899 -1.75715,-1.13913 v -0.4145 c 0,-0.14129 -0.114433,-0.25572 -0.255694,-0.25572 -0.14097,0 -0.255402,0.11443 -0.255402,0.25572 v 0.091 c -0.645266,-0.40711 -1.109636,-0.73993 -1.109636,-0.73993 0,0 0.04511,-0.96883 0.0581,-1.96583 0.0131,-0.99639 -1.092861,-0.99639 -1.079421,0 0.01299,0.997 0.0581,1.96583 0.0581,1.96583 0,0 -0.464079,0.33282 -1.109345,0.73993 v -0.091 c 0,-0.14129 -0.114749,-0.25572 -0.255693,-0.25572 -0.141261,0 -0.255693,0.11443 -0.255693,0.25572 v 0.4145 c -0.853228,0.54014 -1.717648,1.09328 -1.75715,1.13913 -0.07903,0.092 -0.258233,0.56391 -0.201295,0.60344 0.02757,0.0194 0.666829,-0.27694 1.337786,-0.58516 v 0.0935 l 0.04585,0.0459 0.04585,-0.0459 v -0.13565 c 0.06265,-0.0291 0.125624,-0.0574 0.187881,-0.0865 v 0.056 l 0.04585,0.0459 0.04585,-0.0459 v -0.0973 c 0.126789,-0.0581 0.250112,-0.11411 0.367587,-0.16618 v 0.0976 l 0.04577,0.0459 0.04585,-0.0459 v -0.13875 c 0.126365,-0.0559 0.243443,-0.10734 0.345202,-0.14983 v 0.0873 l 0.04585,0.0459 0.04585,-0.0459 v -0.12531 c 0.146447,-0.06 0.248946,-0.0954 0.284003,-0.0954 0.209841,0 0.702654,-2.7e-4 0.702654,-2.7e-4 0,0 0.04511,1.66246 0.110729,2.06915 0.02421,0.15132 0.07006,0.37235 0.121841,0.5896 -0.320887,0.20614 -0.80735,0.52112 -0.894213,0.59044 -0.131233,0.10481 -0.235955,0.18786 -0.240374,0.25803 -0.0041,0.0696 -0.04808,0.21394 0.01754,0.20126 0.05398,-0.0112 0.972503,-0.31908 1.29339,-0.42685 0.02461,0.0619 0.04511,0.0988 0.06001,0.0988 0.0149,0 0.03583,-0.0369 0.06003,-0.0988 0.320886,0.10777 1.239387,0.41566 1.293389,0.42643 0.0653,0.0131 0.02199,-0.13123 0.01754,-0.20084 -0.0044,-0.0702 -0.109564,-0.15322 -0.240374,-0.25803 z"
         style="fill:#003d8f;fill-rule:evenodd;stroke-width:0.26458332"
         id="path1219" />
      <path
         d="m 40.920116,58.017664 h -4.519559 l 0.328401,0.45317 h 4.191158 z"
         style="fill:#003d8f;fill-rule:evenodd;stroke-width:0.26458332"
         id="path1221" />
      <path
         d="m 42.234222,58.017664 v 0.45317 h 4.191265 l 0.328719,-0.45317 z"
         style="fill:#003d8f;fill-rule:evenodd;stroke-width:0.26458332"
         id="path1223" />
    </g>
  </g>
</svg>
