<?xml version="1.0" encoding="UTF-8" standalone="no"?>
<svg
   xmlns:dc="http://purl.org/dc/elements/1.1/"
   xmlns:cc="http://creativecommons.org/ns#"
   xmlns:rdf="http://www.w3.org/1999/02/22-rdf-syntax-ns#"
   xmlns:svg="http://www.w3.org/2000/svg"
   xmlns="http://www.w3.org/2000/svg"
   id="svg6351"
   version="1.1"
   viewBox="0 0 52.916668 42.730103"
   height="42.730103mm"
   width="52.916668mm">
  <defs
     id="defs6345" />
  <metadata
     id="metadata6348">
    <rdf:RDF>
      <cc:Work
         rdf:about="">
        <dc:format>image/svg+xml</dc:format>
        <dc:type
           rdf:resource="http://purl.org/dc/dcmitype/StillImage" />
        <dc:title></dc:title>
      </cc:Work>
    </rdf:RDF>
  </metadata>
  <g
     transform="translate(-62.744047,-8.0278081)"
     id="layer1">
    <g
       id="layer1-1"
       transform="translate(93.515089,-283.74252)">
      <path
         d="m 14.484759,319.16817 c -2.493071,-0.16441 -4.6996537,0.88282 -6.0991733,2.63447 l -4.4430298,-3.29042 c 0.9510313,-1.64201 1.4928565,-3.5628 1.4928565,-5.6507 0,-1.0611 -0.1438029,-2.09698 -0.4044763,-3.09201 l 9.9042869,-2.69857 c 0.624285,0.97423 1.687322,1.65631 2.890438,1.73404 1.923332,0.12761 3.480305,-1.32889 3.480305,-3.24961 0,-1.92318 -1.556973,-3.586 -3.480305,-3.71164 -1.921382,-0.12576 -3.480956,1.32877 -3.480956,3.24949 0,0.42086 0.07773,0.82067 0.210674,1.20049 l -9.7693985,2.65961 C 3.844035,306.16076 1.9297944,303.75973 -0.54185407,302.18201 L 1.6122931,298.2097 c 0.3655194,0.16258 0.7616092,0.26994 1.1752019,0.29509 1.8590507,0.12393 3.3635942,-1.28281 3.3635942,-3.14182 0,-1.85925 -1.5045435,-3.46231 -3.3635942,-3.58532 -1.8566213,-0.12147 -3.36360041,1.28282 -3.36360041,3.14183 0,1.14551 0.57361635,2.19299 1.4474089,2.85863 l -2.15398769,3.96532 c -1.5486967,-0.84669 -3.2864965,-1.37877 -5.1203879,-1.49803 -5.2046329,-0.3454 -9.6229879,2.72826 -11.2078809,7.29511 l -6.249492,-2.2895 0.05521,-0.58527 c 0,-1.92508 -1.559568,-3.58789 -3.480956,-3.71354 -1.923332,-0.1276 -3.484851,1.32877 -3.484851,3.24949 0,1.92594 1.561519,3.586 3.484851,3.71372 1.42744,0.0914 2.650684,-0.68386 3.187964,-1.87722 l 6.245105,2.28434 c -0.249017,0.94435 -0.38374,1.93937 -0.38374,2.97532 0,3.27673 1.330704,6.3272 3.482256,8.61173 l -5.149609,5.20709 c -0.772645,-0.64945 -1.737799,-1.07018 -2.789959,-1.13889 -2.524887,-0.16687 -4.566716,1.74299 -4.566716,4.26727 0,2.5249 2.041829,4.70611 4.566716,4.87071 2.526838,0.16748 4.571262,-1.74232 4.571262,-4.26654 0,-1.17134 -0.445887,-2.26686 -1.170656,-3.12391 l 5.152044,-5.20721 c 2.074449,1.93245 4.7795129,3.20164 7.7386126,3.39606 4.1524731,0.27423 7.8001271,-1.62171 9.9133727,-4.71568 l 4.4065086,3.26569 c -0.688401,1.10459 -1.0929018,2.41925 -1.0929018,3.85562 0,4.23034 3.4298209,7.88241 7.6608579,8.16369 4.230227,0.27914 7.660699,-2.92274 7.660699,-7.15315 0,-4.22825 -3.430472,-7.88498 -7.660699,-8.16173 z m -18.5348445,-16.58101 -0.4595066,0.0706 -0.5166842,0.12332 c -0.3681574,0.0847 -0.7707011,0.17177 -1.2076618,0.32024 -0.2152135,0.0669 -0.4413471,0.13742 -0.6747691,0.20797 -0.2217165,0.0988 -0.4595066,0.18528 -0.6994377,0.27914 -0.4874206,0.16197 -0.9445407,0.46135 -1.4456237,0.68319 -0.4614697,0.30184 -0.9716444,0.55828 -1.4220834,0.9173 -0.477728,0.31594 -0.901044,0.71564 -1.349048,1.08833 -0.398034,0.41902 -0.825719,0.81227 -1.175846,1.27177 -0.386317,0.42516 -0.678659,0.91209 -1.008007,1.35165 -0.254047,0.48957 -0.58337,0.92374 -0.777836,1.39693 -0.112146,0.23313 -0.219753,0.45766 -0.322206,0.67668 -0.09141,0.22699 -0.176257,0.44601 -0.25595,0.65871 -0.17644,0.42331 -0.293004,0.8257 -0.402574,1.1895 l -0.155643,0.50736 -0.100491,0.44601 c -0.12368,0.53742 -0.210673,0.85496 -0.210673,0.85496 0,0 -0.05706,-0.32453 -0.118527,-0.90103 l -0.05337,-0.47975 0.0067,-0.56258 c 0.0049,-0.19877 0.0098,-0.41595 0.01288,-0.64503 0.0032,-0.22637 0.05951,-0.45521 0.08945,-0.70208 0.03926,-0.24662 0.07969,-0.50552 0.11865,-0.76809 0.07319,-0.25399 0.149017,-0.52208 0.226256,-0.79405 0.13276,-0.56011 0.402574,-1.09293 0.642947,-1.66655 0.308587,-0.53313 0.594414,-1.11367 1.008657,-1.61478 0.365519,-0.54171 0.846014,-0.99692 1.298398,-1.47723 0.507604,-0.41901 0.996969,-0.86423 1.562169,-1.19146 0.530303,-0.3773 1.127318,-0.62687 1.6809899,-0.89846 0.5898739,-0.20184 1.1453309,-0.43068 1.7098798,-0.52822 0.2769309,-0.0614 0.5471748,-0.12147 0.8096518,-0.17178 0.265888,-0.0245 0.5263774,-0.0491 0.7734557,-0.0705 0.2514096,-0.0123 0.4777273,-0.0552 0.7109653,-0.043 0.2307962,0.0123 0.4506109,0.0184 0.6541496,0.0307 l 0.5645366,0.0307 0.4686477,0.0822 c 0.5653342,0.10245 0.8856084,0.17791 0.8856084,0.17791 0,0 -0.3137405,0.0663 -0.8693877,0.15092 z"
         style="fill:#003d8f;fill-rule:evenodd;stroke-width:1.62320125"
         id="path1237" />
    </g>
  </g>
</svg>
