<?xml version="1.0" encoding="UTF-8" standalone="no"?>
<svg
   xmlns:dc="http://purl.org/dc/elements/1.1/"
   xmlns:cc="http://creativecommons.org/ns#"
   xmlns:rdf="http://www.w3.org/1999/02/22-rdf-syntax-ns#"
   xmlns:svg="http://www.w3.org/2000/svg"
   xmlns="http://www.w3.org/2000/svg"
   id="svg6085"
   version="1.1"
   viewBox="0 0 52.916668 54.762295"
   height="54.762295mm"
   width="52.916668mm">
  <defs
     id="defs6079" />
  <metadata
     id="metadata6082">
    <rdf:RDF>
      <cc:Work
         rdf:about="">
        <dc:format>image/svg+xml</dc:format>
        <dc:type
           rdf:resource="http://purl.org/dc/dcmitype/StillImage" />
        <dc:title></dc:title>
      </cc:Work>
    </rdf:RDF>
  </metadata>
  <g
     transform="translate(-46.850766,-194.00754)"
     id="layer1">
    <g
       transform="matrix(6.9663027,0,0,6.9663027,-279.52584,-1484.2359)"
       id="g6102">
      <g
         id="g6097">
        <path
           id="path1133"
           style="fill:#003d8f;fill-rule:evenodd;stroke-width:0.26458332"
           d="m 52.255799,242.40307 0.256037,-0.36838 c 0.04276,0.0102 0.08808,0.0159 0.134144,0.0159 0.314722,0 0.570759,-0.25522 0.570759,-0.56994 0,-0.31546 -0.256037,-0.57078 -0.570759,-0.57078 -0.314749,0 -0.569966,0.25532 -0.569966,0.57078 0,0.1033 0.02715,0.20053 0.07575,0.2843 l -0.259635,0.37343 c -1.31699,-0.90834 -2.847896,-1.45476 -3.825902,-1.14001 -0.176186,0.0565 -0.187801,0.058 -0.290089,0.20413 -3.365738,4.80927 3.282395,8.98437 6.642286,4.7734 0.214603,-1.15028 -0.812933,-2.53974 -2.162625,-3.57286 z m -4.498155,-0.23569 c -0.456168,1.29778 -0.03659,3.1863 0.92538,4.16894 -1.503336,-0.75714 -1.967124,-2.84679 -0.92538,-4.16894 z m 0.631719,-0.55761 c 1.290188,0.0591 2.29452,0.46265 3.111871,1.09138 l -0.496756,0.71581 c -0.07072,0.10115 -0.04535,0.24185 0.05622,0.313 0.101547,0.0699 0.24257,0.0449 0.312579,-0.057 l 0.474663,-0.68281 c 0.746521,0.65128 1.194382,1.15996 1.866291,2.56001 -2.770002,-0.48041 -4.70371,-1.66114 -5.324872,-3.94042 z" />
        <path
           id="path1135"
           style="fill:#003d8f;fill-rule:evenodd;stroke-width:0.26458332"
           d="m 50.636072,248.21073 c -0.953955,-0.2172 -1.608508,-0.60378 -2.328624,-0.99899 -0.756708,0.23598 -1.087464,0.75928 -1.079156,1.51096 l 3.915145,0.0471 c -0.225213,-0.12436 -0.256354,-0.50178 -0.507365,-0.55904 z" />
      </g>
    </g>
  </g>
</svg>
