<?xml version="1.0" encoding="UTF-8" standalone="no"?>
<svg
   xmlns:dc="http://purl.org/dc/elements/1.1/"
   xmlns:cc="http://creativecommons.org/ns#"
   xmlns:rdf="http://www.w3.org/1999/02/22-rdf-syntax-ns#"
   xmlns:svg="http://www.w3.org/2000/svg"
   xmlns="http://www.w3.org/2000/svg"
   id="svg6212"
   version="1.1"
   viewBox="0 0 52.916668 33.372929"
   height="33.372929mm"
   width="52.916668mm">
  <defs
     id="defs6206" />
  <metadata
     id="metadata6209">
    <rdf:RDF>
      <cc:Work
         rdf:about="">
        <dc:format>image/svg+xml</dc:format>
        <dc:type
           rdf:resource="http://purl.org/dc/dcmitype/StillImage" />
        <dc:title></dc:title>
      </cc:Work>
    </rdf:RDF>
  </metadata>
  <g
     transform="translate(-24.265909,-133.11323)"
     id="layer1">
    <path
       id="path1231"
       style="fill:#003d8f;fill-rule:evenodd;stroke-width:1.34204745"
       d="m 72.10078,159.97271 c 1.109333,0.24144 2.211824,0.55948 3.306671,0.95821 -1.671522,-1.72037 -3.026989,-3.51633 -4.161558,-5.32404 0.99258,0.20796 1.9814,0.48744 2.961096,0.84519 -1.898331,-1.95507 -3.327742,-4.02705 -4.458552,-6.08615 0.803347,0.15115 1.601464,0.37027 2.39354,0.65975 -2.820714,-2.90379 -4.184099,-6.16924 -5.167016,-8.95627 -1.431562,4.2827 -3.051681,7.08251 -4.827344,8.95627 0.680684,-0.24398 1.353855,-0.42201 2.023272,-0.56541 -1.208111,2.37688 -2.490035,4.24085 -3.832624,5.71578 -1.663599,-1.85271 -3.062952,-3.76228 -4.268781,-5.68372 1.277764,0.26883 2.544654,0.62972 3.802017,1.0875 -2.437024,-2.51099 -4.273077,-5.16919 -5.723427,-7.81409 1.032838,0.19427 2.057495,0.47629 3.072615,0.84667 -3.62084,-3.72845 -5.373423,-7.91792 -6.634408,-11.49917 -1.835653,5.49985 -3.913548,9.09611 -6.191804,11.49917 0.871386,-0.31195 1.735398,-0.54284 2.593906,-0.72615 -1.649108,3.24252 -3.401686,5.74596 -5.244719,7.69357 1.130272,-0.4068 2.251551,-0.73158 3.368939,-0.98722 -1.266488,2.2027 -2.579013,4.06733 -3.940253,5.65146 -1.799684,-1.89456 -3.172331,-3.893 -4.263415,-5.87814 0.803352,0.15115 1.601332,0.37027 2.393408,0.65975 -2.820582,-2.90379 -4.187858,-6.16924 -5.169166,-8.95627 -1.42928,4.2827 -3.049531,7.08251 -4.822916,8.95627 0.678406,-0.24398 1.351577,-0.42201 2.020989,-0.56541 -1.283531,2.52423 -2.650812,4.47347 -4.085458,5.99181 0.878904,-0.31549 1.754054,-0.57073 2.62397,-0.76586 -1.219251,2.11748 -2.497553,3.84014 -3.826715,5.24471 0.970165,-0.34796 1.932148,-0.62968 2.890905,-0.8526 -1.486186,2.59012 -3.044165,4.69487 -4.668043,6.40774 6.929262,-2.48467 13.610913,-2.36136 20.079179,0 -1.002242,-1.03216 -1.909602,-2.08756 -2.741267,-3.15569 6.199184,-1.59757 12.242025,-1.56764 18.148644,-0.0776 -0.862267,1.21025 -1.743453,2.28213 -2.645446,3.23339 6.927648,-2.48467 13.6093,-2.36136 20.075557,0 -2.041928,-2.10247 -3.698016,-4.29939 -5.081796,-6.51335 z m -9.391516,-4.2865 c -0.939437,1.63191 -1.913223,3.02537 -2.917078,4.22218 -0.955131,-1.2595 -1.826522,-2.53392 -2.624508,-3.80793 1.423913,0.3084 2.839908,0.71657 4.244628,1.22892 -0.323157,-0.33274 -0.633445,-0.66939 -0.939432,-1.00812 0.748728,-0.25311 1.495174,-0.46817 2.23639,-0.63505 z m -18.797123,0.54659 c -0.75624,1.31591 -1.523761,2.52976 -2.306712,3.65627 -1.240184,-1.39717 -2.291815,-2.83562 -3.200782,-4.28219 0.897696,0.18919 1.788545,0.43672 2.673358,0.74659 -0.289476,0.3368 -0.582579,0.66564 -0.875683,0.97591 1.244344,-0.44788 2.480774,-0.80761 3.709819,-1.09658 z m -4.651,3.73991 c 0.646333,0.14152 1.291049,0.30789 1.932148,0.50267 -0.279839,0.39107 -0.563391,0.77129 -0.848983,1.13995 -0.377937,-0.54609 -0.741211,-1.09283 -1.083165,-1.64267 z m 20.976875,0.51398 c 0.51454,-0.15319 1.026934,-0.29115 1.537183,-0.40832 -0.262644,0.45752 -0.527424,0.90576 -0.79758,1.33665 -0.251231,-0.3084 -0.497238,-0.61801 -0.739603,-0.92828 z" />
  </g>
</svg>
