<?xml version="1.0" encoding="UTF-8" standalone="no"?>
<svg
   xmlns:dc="http://purl.org/dc/elements/1.1/"
   xmlns:cc="http://creativecommons.org/ns#"
   xmlns:rdf="http://www.w3.org/1999/02/22-rdf-syntax-ns#"
   xmlns:svg="http://www.w3.org/2000/svg"
   xmlns="http://www.w3.org/2000/svg"
   xmlns:xlink="http://www.w3.org/1999/xlink"
   id="svg1468"
   version="1.1"
   viewBox="0 0 52.916668 52.887444"
   height="52.887444mm"
   width="52.916668mm">
  <defs
     id="defs1462">
    <clipPath
       id="clipPath1553"
       clipPathUnits="userSpaceOnUse">
      <use
         height="100%"
         width="100%"
         id="use1555"
         xlink:href="#g1549"
         y="0"
         x="0" />
    </clipPath>
  </defs>
  <metadata
     id="metadata1465">
    <rdf:RDF>
      <cc:Work
         rdf:about="">
        <dc:format>image/svg+xml</dc:format>
        <dc:type
           rdf:resource="http://purl.org/dc/dcmitype/StillImage" />
        <dc:title></dc:title>
      </cc:Work>
    </rdf:RDF>
  </metadata>
  <g
     transform="translate(-8.8393587,-188.40164)"
     id="layer1">
    <g
       clip-path="url(#clipPath1553)"
       id="g1551">
      <g
         id="g1549">
        <g
           transform="matrix(0.26340049,0,0,0.26340049,6.5110673,177.73342)"
           id="g6067">
          <path
             id="path1141"
             style="fill:#003d8f;fill-rule:evenodd;stroke-width:6.62469816"
             d="m 188.43802,142.73058 c -1.38787,-0.66101 -10.43811,-4.7302 -11.81805,-5.40123 0.75591,-3.54491 1.31626,-7.11636 1.61497,-10.65777 6.47035,-2.84409 13.0341,-5.7623 19.70253,-8.72808 -0.34577,-4.82161 -0.70808,-9.59515 -1.02556,-14.36117 -3.22756,-0.0198 -6.40741,-0.0501 -9.56871,-0.0501 -6.8135,-0.39826 -0.38621,-0.40502 -7.00164,-0.0494 -1.12898,-0.007 -2.26496,-0.0198 -3.39384,-0.0198 -0.77443,-3.523632 -1.75292,-6.909552 -3.04006,-10.155752 4.99833,-4.7818 10.0046,-9.60317 15.06918,-14.44255 -2.28624,-3.62704 -4.55911,-7.20025 -6.79032,-10.73465 -4.1285,1.65253 -8.15698,3.2382 -12.2146,4.85066 -5.65688,1.449058 -0.53454,-0.7684 -5.50047,2.19085 l -1.11019,0.42815 c -1.90316,-2.20086 -3.9914,-4.23196 -6.20072,-6.13512 2.98375,-5.62183 5.97612,-11.26545 8.96055,-16.88778 -3.55282,-1.94798 -7.03939,-3.88018 -10.48092,-5.76205 -3.96223,3.32758 -7.89796,6.62136 -11.82311,9.90187 -7.7492,0.773136 -0.36259,-0.530678 -8.17833,1.23063 -1.40916,-0.41063 -2.84412,-0.7812 -4.29028,-1.09918 0.62395,-5.28632 1.25867,-10.53859 1.89264,-15.78786 -4.08346,-0.17527 -8.08279,-0.35554 -12.05561,-0.55835 -2.92879,4.64134 -5.89467,9.25939 -8.84993,13.85616 -6.18376,1.161786 -0.63864,-0.452408 -6.39602,1.8 -1.0441,0.15022 -2.08093,0.28793 -3.12487,0.48323 -1.29523,-4.30858 -2.56374,-8.58811 -3.813828,-12.84912 -3.991395,1.32453 -7.924468,2.62 -11.815153,3.8967 -1.324272,5.01691 -2.656504,10.04434 -3.98873,15.06901 -1.652198,0.72861 -3.275251,1.5023 -4.877102,2.32355 l -3.330238,1.78122 -0.896318,0.48324 c -2.822785,-2.85186 -5.603834,-5.67717 -8.352421,-8.46618 -3.43358,2.50858 -6.827414,4.98036 -10.19276,7.45138 0.436566,4.40147 0.930771,8.84726 1.387869,13.33286 -2.312681,2.05063 -4.55978,4.17888 -6.695584,6.44383 -3.869485,-1.25691 -7.673386,-2.4888 -11.413028,-3.74021 -2.57237,3.31231 -5.146729,6.60284 -7.729037,9.86732 1.995372,3.42047 4.04703,6.86198 6.116585,10.369832 -1.844967,2.87039 -3.542226,5.82565 -5.091081,8.81021 -4.345803,0.55835 -8.616747,1.09166 -12.859202,1.63249 -1.491227,3.76675 -3.002975,7.5335 -4.493534,11.30025 3.206353,2.01308 6.499492,4.05695 9.827077,6.10808 -0.792985,2.85511 -1.445507,5.70721 -1.966202,8.56958 -4.364351,2.22841 -8.664444,4.43803 -12.914849,6.62136 -0.3173345,3.87742 -0.6081535,7.75835 -0.8777652,11.6568 4.0947242,0.39811 8.2709362,0.77118 12.4868932,1.19182 l 0.228368,2.6459 c 0.0028,0.007 0.151843,1.67069 0.151843,1.67069 0.177521,1.61497 0.402114,3.22743 0.690304,4.82136 -3.811856,3.88794 -7.588595,7.72104 -11.3289,11.51634 1.062597,3.53439 2.146402,7.08657 3.24544,10.68707 4.541231,-1.48227 9.138108,-2.98456 13.808521,-4.54119 0.597538,1.18431 1.216542,2.36743 1.869064,3.50542 1.624539,3.77194 1.604945,3.7698 1.535369,4.67157 -2.516059,4.78455 -5.016882,9.54758 -7.532942,14.32136 2.413385,2.7512 4.876441,5.54823 7.366663,8.36578 4.400787,-3.47881 8.846623,-6.9759 13.313659,-10.50955 1.287841,1.00654 2.622717,1.94046 3.991379,2.82557 l 0.09264,-0.0751 1.585946,1.08165 c 2.008952,1.38066 0.0056,0.0193 2.012583,1.36459 l -0.615448,3.94352 c -0.698241,4.55996 -1.398485,9.12768 -2.114603,13.71594 3.711154,1.40965 7.440861,2.81805 11.236151,4.24248 3.364682,-5.16464 6.722081,-10.3776 10.126512,-15.62711 2.95528,0.51328 6.013239,0.84879 9.081799,0.97899 l 0.557802,2.48129 c -0.198096,4.14652 -0.595369,0.62267 0.877772,3.94603 0.840684,3.76675 1.668097,7.52574 2.526661,11.32879 4.493533,-0.35304 9.026815,-0.74614 13.660801,-1.14675 1.530336,-6.35971 3.050004,-12.68211 4.551824,-19.01278 3.682,-0.93392 7.35606,-2.12574 11.00363,-3.58197 0.85656,1.07414 1.75218,2.20337 2.6194,3.28327 1.82802,4.17643 -0.64644,0.862 3.33817,4.17838 1.84507,2.29099 3.65631,4.54894 5.51122,6.89102 4.55978,-2.45375 9.11957,-4.89773 13.72703,-7.37727 -1.08365,-6.47113 -2.1648,-12.84862 -3.209,-19.17202 3.08711,-2.23842 6.0424,-4.67038 8.88637,-7.26334 5.79928,2.65656 11.72042,5.34216 17.77341,8.08284 3.63696,-4.13907 7.26332,-8.28891 10.90823,-12.4465 -3.84034,-5.31562 -7.63628,-10.5391 -11.38388,-15.69321 2.42345,-3.57396 4.60681,-7.28513 6.5472,-11.07792 6.76911,-0.25038 13.64951,-0.49325 20.6803,-0.79371 1.69734,-4.82136 3.38654,-9.61368 5.10169,-14.43504 3.59153,0.95474 0.78041,-0.55282 -5.31121,-3.56116 z m -47.99619,-9.9359 c -2.48229,14.2127 -10.64192,27.34951 -21.52431,36.52677 -10.71281,9.06384 -24.111243,14.18416 -36.748523,13.45404 -13.232402,-1.94797 -14.315826,-5.96542 -16.037072,-4.57774 -4.868491,-2.75971 -8.859871,-6.60007 -11.825749,-11.24466 -5.585283,-8.70154 -7.522343,-20.43996 -4.773757,-32.88972 2.7519,-12.44701 9.66146,-23.64686 18.73531,-32.08675 9.222243,-8.569082 20.710131,-14.405242 33.083091,-15.422792 12.37294,-1.00654 23.38716,3.33809 30.5849,11.44197 7.44086,8.363772 10.99369,20.580422 8.50611,34.798882 z" />
          <path
             id="path1143"
             style="fill:#003d8f;fill-rule:evenodd;stroke-width:6.62469816"
             d="m 112.33852,54.369678 c -0.50477,-1.71511 -1.02807,-3.43098 -1.53033,-5.14685 l -6.32263,2.08818 c 0.48624,1.60495 0.96197,3.23544 1.45422,4.85842 1.88413,-0.28043 3.77674,-0.51328 5.66147,-0.64348 z" />
          <path
             id="path1145"
             style="fill:#003d8f;fill-rule:evenodd;stroke-width:6.62469816"
             d="m 143.81977,56.730038 c 0.41263,-3.41246 0.82225,-6.83619 1.23213,-10.23788 -2.69361,-0.12519 -5.36071,-0.25039 -8.00132,-0.36306 -0.47572,3.93576 -0.95195,7.87928 -1.41691,11.84434 1.63099,0.46571 3.21696,0.99652 4.78435,1.60244 1.12898,-0.93142 2.27548,-1.9004 3.40177,-2.84384 z" />
          <path
             id="path1147"
             style="fill:#003d8f;fill-rule:evenodd;stroke-width:6.62469816"
             d="m 29.990884,188.79994 c -1.77874,0.5859 -3.552163,1.1743 -5.313009,1.74266 l 1.443529,4.72872 c 1.791986,-0.58589 3.599861,-1.1843 5.410391,-1.7702 l 0.63199,-1.21435 c -0.763842,-1.12923 -1.491227,-2.29351 -2.172893,-3.48583 z" />
          <path
             id="path1149"
             style="fill:#003d8f;fill-rule:evenodd;stroke-width:6.62469816"
             d="m 177.931,58.009238 c -3.54223,-1.94797 -7.03078,-3.88869 -10.48821,-5.77006 l -1.12873,0.95897 3.89598,2.15328 c -2.98376,5.62234 -5.97615,11.25469 -8.96852,16.87702 1.11821,0.95146 2.19134,1.92294 3.2249,2.9475 1.81051,-0.70858 3.67406,-1.45472 5.50315,-2.17332 2.65651,-4.99813 5.31301,-10.00452 7.96156,-14.99489 z" />
          <path
             id="path1151"
             style="fill:#003d8f;fill-rule:evenodd;stroke-width:6.62469816"
             d="m 185.71038,98.728658 c 4.99568,-4.77378 10.02318,-9.58463 15.06655,-14.42477 -2.27347,-3.6368 -4.54123,-7.21827 -6.78831,-10.75242 l -4.81087,1.92294 c 1.28771,2.04312 2.58297,4.09425 3.8781,6.16366 -5.05397,4.84014 -10.06027,9.65099 -15.06656,14.43529 0.9487,2.38614 1.69659,4.886962 2.34984,7.432852 2.32855,0 4.65188,0.007 7.0096,0.025 -0.49425,-1.62248 -1.01505,-3.23494 -1.63825,-4.802332 z" />
          <path
             id="path1153"
             style="fill:#003d8f;fill-rule:evenodd;stroke-width:6.62469816"
             d="m 75.076595,219.89492 c -3.356736,5.17515 -6.668422,10.33253 -9.996671,15.43432 2.508773,0.94143 5.035433,1.89289 7.59919,2.86262 2.936729,-4.52291 5.873458,-9.07461 8.831387,-13.64233 -0.298781,-1.307 -0.5896,-2.64855 -0.885727,-3.94628 -1.876115,-0.17527 -3.731693,-0.39059 -5.548184,-0.70858 z" />
          <path
             id="path1155"
             style="fill:#003d8f;fill-rule:evenodd;stroke-width:6.62469816"
             d="m 106.33326,218.47 c -1.5013,6.32265 -3.03148,12.66383 -4.55979,19.01278 -2.238423,0.2003 -4.459088,0.38308 -6.657821,0.57087 l 0.716094,3.23544 c 4.504127,-0.34553 9.037427,-0.74614 13.662787,-1.14675 1.52758,-6.3517 3.05862,-12.68237 4.55979,-19.01303 1.72313,-0.43817 3.43888,-0.9815 5.15665,-1.52984 -1.1097,-1.37961 -2.23842,-2.79652 -3.34879,-4.17638 -3.15069,1.20184 -6.33054,2.23592 -9.52895,3.04741 z" />
          <path
             style="fill:#003d8f;fill-rule:evenodd;stroke-width:21.55332184"
             d="m 19.959104,159.60652 -0.423681,6.2241 3.39619,0.32438 -0.539693,-6.33677 z"
             id="path1157" />
          <path
             id="path1159"
             style="fill:#003d8f;fill-rule:evenodd;stroke-width:8.46700859"
             d="m 78.440557,63.55111 -3.787296,2.768116 0.524117,0.521617 c 1.405528,-0.787231 2.823763,-1.561656 4.252982,-2.288088 z" />
          <path
             id="path1161"
             style="fill:#003d8f;fill-rule:evenodd;stroke-width:6.62469816"
             d="m 148.21062,195.43457 c -2.8367,2.59021 -5.79197,5.02493 -8.88704,7.26334 1.0521,6.31214 2.13325,12.7009 3.20637,19.16126 l -9.8092,5.27856 3.8039,4.76578 c 4.55183,-2.44624 9.1189,-4.89548 13.72636,-7.36725 -1.08115,-6.47038 -2.15429,-12.8699 -3.20634,-19.17127 2.86254,-2.08068 5.61179,-4.32711 8.26033,-6.70624 -2.38689,-1.06914 -4.75521,-2.15329 -7.09438,-3.22418 z" />
          <path
             id="path1163"
             style="fill:#003d8f;fill-rule:evenodd;stroke-width:6.62469816"
             d="m 50.683331,209.16746 -1.689304,-0.99652 c -3.356735,2.65656 -6.713471,5.29734 -10.04172,7.91659 1.501818,1.71512 3.021526,3.43099 4.541231,5.16538 2.851932,-2.23591 5.725728,-4.50412 8.588258,-6.76983 0.203311,-1.307 0.409401,-2.63803 0.604849,-3.95429 z" />
          <path
             id="path1165"
             style="fill:#003d8f;fill-rule:evenodd;stroke-width:6.62469816"
             d="m 190.03168,132.08585 c 6.48159,-2.84384 13.05528,-5.7648 19.70581,-8.72808 -0.34653,-4.82061 -0.70082,-9.5944 -1.01755,-14.37094 l -7.5442,-0.0501 c 0.26966,3.8987 0.56036,7.80542 0.84855,11.74118 -6.65849,2.96578 -13.23218,5.88398 -19.71378,8.72808 -0.25113,3.30955 -0.79296,6.62912 -1.46398,9.93892 4.32726,2.07066 8.67239,4.14984 13.15003,6.2856 l -0.24287,0.68104 c 1.45422,0.69105 2.85193,1.36208 4.33519,2.07066 -1.81853,5.0432 -3.57138,10.06011 -5.35275,15.10556 -7.03875,0.29796 -13.91121,0.55085 -20.69159,0.79372 -1.9292,3.79329 -4.10995,7.50445 -6.53658,11.07841 3.74031,5.14611 7.53625,10.37685 11.38718,15.70047 -3.47067,3.95429 -6.92016,7.89005 -10.38022,11.84434 l 7.20037,3.25422 c 3.63695,-4.13131 7.25337,-8.28966 10.90094,-12.43925 -3.8516,-5.31561 -7.6469,-10.5466 -11.38718,-15.69321 2.4267,-3.58147 4.60681,-7.29263 6.53658,-11.07791 6.76911,-0.25289 13.66013,-0.49325 20.69159,-0.79371 1.78147,-5.04596 3.5336,-10.06287 5.35275,-15.11633 -5.9291,-2.8153 -11.71246,-5.58528 -17.37195,-8.30794 0.7559,-3.55292 1.31626,-7.11561 1.59393,-10.65777 z" />
          <path
             id="path1167"
             style="fill:#003d8f;fill-rule:evenodd;stroke-width:6.62469816"
             d="m 66.113377,172.36936 c -5.574685,-8.69879 -7.524995,-20.44046 -4.763158,-32.88772 2.7413,-12.44976 9.65086,-23.65662 18.722059,-32.08599 9.214957,-8.569592 20.712782,-14.416762 33.085722,-15.423552 4.27956,-0.35304 8.39219,-0.0501 12.24377,0.81124 -5.84695,-2.79903 -12.67172,-4.07548 -19.96483,-3.47856 -12.372966,1.00653 -23.862842,6.85371 -33.085086,15.423552 -9.063912,8.42937 -15.973472,19.64749 -18.722058,32.094 -2.7519,12.44175 -0.811539,24.18092 4.763157,32.8797 2.090743,3.26474 4.691611,6.11935 7.738972,8.49547 2.648556,1.5023 5.587934,2.64054 8.76779,3.42298 -3.49718,-2.51935 -6.462395,-5.63285 -8.786338,-9.25138 z" />
        </g>
      </g>
    </g>
  </g>
</svg>
