<?xml version="1.0" encoding="UTF-8" standalone="no"?>
<svg
   xmlns:dc="http://purl.org/dc/elements/1.1/"
   xmlns:cc="http://creativecommons.org/ns#"
   xmlns:rdf="http://www.w3.org/1999/02/22-rdf-syntax-ns#"
   xmlns:svg="http://www.w3.org/2000/svg"
   xmlns="http://www.w3.org/2000/svg"
   id="svg6409"
   version="1.1"
   viewBox="0 0 52.917114 58.13821"
   height="58.13821mm"
   width="52.917114mm">
  <defs
     id="defs6403" />
  <metadata
     id="metadata6406">
    <rdf:RDF>
      <cc:Work
         rdf:about="">
        <dc:format>image/svg+xml</dc:format>
        <dc:type
           rdf:resource="http://purl.org/dc/dcmitype/StillImage" />
        <dc:title></dc:title>
      </cc:Work>
    </rdf:RDF>
  </metadata>
  <g
     transform="translate(-36.982685,-36.6287)"
     id="layer1">
    <g
       transform="translate(186.72024,-107.34524)"
       id="g6421">
      <path
         d="m -115.26685,155.53157 c -3.87226,0 -7.01154,3.13929 -7.01154,7.01155 0,3.87131 3.13928,7.00811 7.01154,7.00811 3.87141,0 7.01095,-3.1368 7.01095,-7.00811 0,-3.87226 -3.13954,-7.01155 -7.01095,-7.01155 z"
         style="fill:#003d8f;fill-rule:evenodd;stroke-width:2.27139473"
         id="path1353" />
      <path
         d="m -96.884902,160.89587 c -0.173413,-1.26446 -0.733142,-2.89626 -1.181096,-4.04825 -0.259261,-0.6533 -0.537409,-1.19363 -0.848179,-1.76332 -1.958363,-3.59016 -4.530973,-5.90067 -7.919653,-7.84899 l -0.86723,-0.44556 c -0.61811,-0.32965 -1.13663,-0.54084 -1.79508,-0.81555 -0.32623,-0.13822 -0.64043,-0.23093 -0.9542,-0.3597 -0.54686,-0.22321 -1.94566,-0.63013 -2.55621,-0.7735 l -0.49621,-0.12791 c -0.31677,-0.0936 -0.76233,-0.13821 -1.09499,-0.22406 -0.40005,-0.10645 -0.94699,-0.14165 -1.13551,-0.182 -0.33566,-0.0858 -0.75546,-0.13135 -1.10752,-0.18972 -0.18887,-0.0343 -0.93721,-0.0858 -1.54209,-0.14337 h -5.7028 c -0.69365,0.0687 -1.60922,0.182 -2.2141,0.3039 -0.47989,0.0961 -0.99781,0.20518 -1.48758,0.31335 l -2.75855,0.82585 c -0.41894,0.16312 -0.83788,0.3331 -1.2545,0.51509 -3.80778,1.67361 -7.44971,4.89557 -9.26394,8.62361 -0.41636,0.85418 -0.48933,0.9924 -0.82929,1.89749 l -0.23694,0.64043 c -0.22406,0.72542 -0.63098,2.14989 -0.68507,2.88921 -0.0257,0.31678 -0.0773,0.49621 -0.0773,0.84818 -0.006,1.00142 0.14079,1.32532 0.44555,2.22046 l -0.0867,0.32622 -0.55286,0.79324 c -1.07233,1.50406 -2.73589,3.48131 -3.93587,4.97274 -0.72971,0.90604 -1.61909,2.09607 -2.22415,3.152 -0.57261,1.00511 -0.4859,1.05576 -0.4859,2.18234 l 0.16912,0.3142 c 0.26184,0.37344 0.73572,0.64901 1.14573,0.8699 l 0.89625,0.45156 1.15182,0.19488 0.28158,0.0601 c 1.27716,0.42237 0.60523,1.35966 0.43525,2.05451 -0.10645,0.41293 -0.0515,0.51509 -0.27557,0.86698 -0.32279,0.51767 -1.13208,1.15474 -0.59149,2.00653 l 0.009,0.0172 0.0172,0.0172 0.4902,0.49019 0.31592,0.28072 c 0.25582,0.21119 0.52195,0.29446 0.22406,0.69108 l -0.58892,0.6533 c -0.68249,0.82929 -0.27815,0.98846 0.21119,1.57085 0.31935,0.37515 0.81555,0.91179 0.96965,1.51024 0.18457,0.73657 -0.16998,1.40516 -0.36228,1.97115 -0.43525,1.27725 -1.04666,2.71683 -0.40005,3.98747 0.4859,0.96596 1.55205,1.90042 2.63691,2.31317 0.79667,0.30476 1.07481,0.35284 2.08258,0.35284 2.47998,0.002 4.90922,0.0773 7.38911,0.0515 l 0.43783,0.15367 c 0.61124,0.69107 1.08477,2.18594 1.27699,3.03678 l 0.70738,3.71808 h 28.71882 l -0.45414,-2.35842 c -0.10216,-0.49276 -0.27471,-1.78512 -0.3803,-2.12808 -0.0773,-0.24982 -0.33309,-2.08267 -0.41637,-2.47989 l -0.52796,-3.80419 c -0.0258,-0.461 -0.0858,-0.88354 -0.13135,-1.33167 l -0.10473,-1.35331 c -0.0515,-1.51659 -0.21462,-2.46358 0.25926,-3.95836 0.40262,-1.27356 1.26359,-2.76774 1.99021,-3.84342 l 1.77594,-2.57235 c 0.17856,-0.3142 0.376872,-0.56316 0.572605,-0.87994 1.055759,-1.74692 1.10392,-2.11177 1.785982,-4.01562 l 0.504786,-1.68357 0.1468,-0.55973 0.144225,-0.59235 0.109027,-0.61381 c 0.09615,-0.39748 0.160535,-0.78465 0.230072,-1.21904 l 0.06009,-0.49964 v -6.88913 z m -4.764908,5.23466 -2.44813,0.16312 c -0.16311,0.48675 -0.36227,0.95694 -0.58634,1.41786 l 1.66717,1.8587 -1.06477,1.59359 -2.35207,-0.82843 c -0.30733,0.34854 -0.63441,0.67476 -0.97325,0.98511 l 0.81641,2.31025 -1.5875,1.07842 -1.84299,-1.6227 c -0.461,0.23094 -0.93445,0.42924 -1.42052,0.59236 l -0.14165,2.45448 -1.88136,0.37515 -1.06846,-2.21162 c -0.46101,0.0258 -0.92519,0.0343 -1.38241,0.002 l -1.05937,2.2214 -1.87861,-0.36142 -0.16311,-2.45087 c -0.4859,-0.16054 -0.96236,-0.36228 -1.42662,-0.58635 l -1.84599,1.66082 -1.59111,-1.06572 0.82242,-2.34202 c -0.3494,-0.3039 -0.6782,-0.63098 -0.98579,-0.976 l -2.31317,0.81899 -1.07576,-1.58742 1.61909,-1.84324 c -0.23007,-0.461 -0.42581,-0.9342 -0.59493,-1.41666 l -2.45104,-0.14423 -0.3743,-1.8787 2.21144,-1.07481 c -0.0258,-0.45843 -0.0343,-0.9215 -0.006,-1.38241 l -2.2178,-1.05593 0.36486,-1.88214 2.44555,-0.15967 c 0.16225,-0.4859 0.36142,-0.96322 0.58892,-1.42774 l -1.66082,-1.84307 1.06486,-1.59652 2.34296,0.8293 c 0.30391,-0.34941 0.63013,-0.6782 0.97867,-0.98872 l -0.82156,-2.31386 1.58629,-1.07851 1.84694,1.6227 c 0.45757,-0.23007 0.9342,-0.42924 1.41417,-0.59235 l 0.14423,-2.45087 1.8811,-0.3743 1.07233,2.20784 c 0.45756,-0.0258 0.92157,-0.0258 1.38241,-0.007 l 1.05575,-2.2141 1.88205,0.35798 0.15968,2.44839 c 0.4859,0.16568 0.9633,0.36142 1.42422,0.58806 l 1.85594,-1.66992 1.5936,1.06503 -0.83187,2.35567 c 0.34854,0.3039 0.67734,0.63012 0.98511,0.9724 l 2.31661,-0.81899 1.07232,1.58724 -1.61566,1.84325 c 0.22664,0.461 0.42152,0.93428 0.58892,1.42052 l 2.45354,0.14079 0.37172,1.87844 -2.20784,1.07576 c 0.0258,0.45757 0.0258,0.92175 0.007,1.37872 l 2.2141,1.06237 z"
         style="fill:#003d8f;fill-rule:evenodd;stroke-width:2.27139473"
         id="path1355" />
    </g>
  </g>
</svg>
