<?xml version="1.0" encoding="UTF-8" standalone="no"?>
<svg
   xmlns:dc="http://purl.org/dc/elements/1.1/"
   xmlns:cc="http://creativecommons.org/ns#"
   xmlns:rdf="http://www.w3.org/1999/02/22-rdf-syntax-ns#"
   xmlns:svg="http://www.w3.org/2000/svg"
   xmlns="http://www.w3.org/2000/svg"
   id="svg7656"
   version="1.1"
   viewBox="0 0 52.916668 80.394371"
   height="80.394371mm"
   width="52.916668mm">
  <defs
     id="defs7650" />
  <metadata
     id="metadata7653">
    <rdf:RDF>
      <cc:Work
         rdf:about="">
        <dc:format>image/svg+xml</dc:format>
        <dc:type
           rdf:resource="http://purl.org/dc/dcmitype/StillImage" />
        <dc:title></dc:title>
      </cc:Work>
    </rdf:RDF>
  </metadata>
  <g
     transform="translate(49.246853,-283.35474)"
     id="layer1">
    <g
       transform="matrix(8.4430222,0,0,8.4430222,366.54537,-2707.3927)"
       id="g7754">
      <path
         id="path493"
         style="fill:#003d8f;fill-rule:evenodd;stroke-width:0.26458332"
         d="m -48.271381,357.02486 h 0.756735 c 0.07226,0.23299 0.290354,0.40373 0.546047,0.40373 h 1.710558 c 0.256116,0 0.47453,-0.17074 0.546788,-0.40373 h 0.756761 c 0.153511,0 0.279585,-0.12594 0.279585,-0.2799 0,-0.1383 -0.101864,-0.25379 -0.234474,-0.27578 l 7.94e-4,-0.0492 c 0,-0.83608 -0.466698,-1.56292 -1.153292,-1.93526 v 1.26539 c 0,0.0988 -0.08094,0.17931 -0.180049,0.17931 -0.09879,0 -0.179732,-0.0805 -0.179732,-0.17931 v -1.42084 c -0.161766,-0.0529 -0.331681,-0.0876 -0.507603,-0.10215 v 1.73061 c 0,0.0988 -0.08094,0.17973 -0.179731,0.17973 -0.09911,0 -0.180049,-0.0809 -0.180049,-0.17973 v -1.73061 c -0.175922,0.0146 -0.345916,0.0492 -0.507683,0.10215 v 1.42084 c 0,0.0988 -0.08051,0.17931 -0.179625,0.17931 -0.09911,0 -0.179626,-0.0805 -0.179626,-0.17931 v -1.26539 c -0.686699,0.37234 -1.153292,1.09918 -1.153292,1.93526 l 2.64e-4,0.0476 c -0.136419,0.0183 -0.242279,0.13611 -0.242279,0.27737 0,0.15396 0.126048,0.2799 0.279903,0.2799 z" />
      <path
         id="path495"
         style="fill:#003d8f;fill-rule:evenodd;stroke-width:0.26458332"
         d="m -46.107142,359.1551 c -0.563166,0 -1.051851,-0.24789 -1.29413,-0.61169 h -0.0067 v 1.90667 h 2.601703 v -1.90667 h -0.0063 c -0.2426,0.3638 -0.731285,0.61169 -1.294583,0.61169 z" />
      <path
         id="path497"
         style="fill:#003d8f;fill-rule:evenodd;stroke-width:0.26458332"
         d="m -47.935492,358.60744 c -0.787294,0.61476 -1.227164,1.56527 -1.311355,2.86163 h 1.311355 z" />
      <path
         id="path499"
         style="fill:#003d8f;fill-rule:evenodd;stroke-width:0.26458332"
         d="m -44.290301,358.60744 v 2.86163 h 1.310957 c -0.0839,-1.29636 -0.524086,-2.24687 -1.310957,-2.86163 z" />
      <path
         id="path501"
         style="fill:#003d8f;fill-rule:evenodd;stroke-width:0.26458332"
         d="m -43.994762,362.78402 c 0,-0.26607 0.217779,-0.48382 0.4835,-0.48382 h 0.508026 c -0.167693,-0.26723 -0.465111,-0.44505 -0.803222,-0.44505 -0.339592,0 -0.636719,0.17782 -0.804095,0.44505 h -4.152371 c -0.266171,0 -0.483817,0.21775 -0.483817,0.48382 0,0.26614 0.217646,0.4835 0.483817,0.4835 h 4.130808 c 0.162507,0.28771 0.471143,0.48159 0.825658,0.48159 0.353748,0 0.661961,-0.19388 0.824468,-0.48159 h -0.529272 c -0.265721,0 -0.4835,-0.21736 -0.4835,-0.4835 z" />
      <path
         d="m -48.271381,357.02486 h 0.756735 c 0.07226,0.23299 0.290354,0.40373 0.546047,0.40373 h 1.710558 c 0.256116,0 0.47453,-0.17074 0.546788,-0.40373 h 0.756761 c 0.153511,0 0.279585,-0.12594 0.279585,-0.2799 0,-0.1383 -0.101864,-0.25379 -0.234474,-0.27578 l 7.94e-4,-0.0492 c 0,-0.83608 -0.466698,-1.56292 -1.153292,-1.93526 v 1.26539 c 0,0.0988 -0.08094,0.17931 -0.180049,0.17931 -0.09879,0 -0.179732,-0.0805 -0.179732,-0.17931 v -1.42084 c -0.161766,-0.0529 -0.331681,-0.0876 -0.507603,-0.10215 v 1.73061 c 0,0.0988 -0.08094,0.17973 -0.179731,0.17973 -0.09911,0 -0.180049,-0.0809 -0.180049,-0.17973 v -1.73061 c -0.175922,0.0146 -0.345916,0.0492 -0.507683,0.10215 v 1.42084 c 0,0.0988 -0.08051,0.17931 -0.179625,0.17931 -0.09911,0 -0.179626,-0.0805 -0.179626,-0.17931 v -1.26539 c -0.686699,0.37234 -1.153292,1.09918 -1.153292,1.93526 l 2.64e-4,0.0476 c -0.136419,0.0183 -0.242279,0.13611 -0.242279,0.27737 0,0.15396 0.126048,0.2799 0.279903,0.2799 z"
         style="fill:#003d8f;fill-rule:evenodd;stroke-width:0.26458332"
         id="path1413" />
      <path
         d="m -46.107142,359.1551 c -0.563166,0 -1.051851,-0.24789 -1.29413,-0.61169 h -0.0067 v 1.90667 h 2.601703 v -1.90667 h -0.0063 c -0.2426,0.3638 -0.731285,0.61169 -1.294583,0.61169 z"
         style="fill:#003d8f;fill-rule:evenodd;stroke-width:0.26458332"
         id="path1415" />
      <path
         d="m -47.935492,358.60744 c -0.787294,0.61476 -1.227164,1.56527 -1.311355,2.86163 h 1.311355 z"
         style="fill:#003d8f;fill-rule:evenodd;stroke-width:0.26458332"
         id="path1417" />
      <path
         d="m -44.290301,358.60744 v 2.86163 h 1.310957 c -0.0839,-1.29636 -0.524086,-2.24687 -1.310957,-2.86163 z"
         style="fill:#003d8f;fill-rule:evenodd;stroke-width:0.26458332"
         id="path1419" />
      <path
         d="m -43.994762,362.78402 c 0,-0.26607 0.217779,-0.48382 0.4835,-0.48382 h 0.508026 c -0.167693,-0.26723 -0.465111,-0.44505 -0.803222,-0.44505 -0.339592,0 -0.636719,0.17782 -0.804095,0.44505 h -4.152371 c -0.266171,0 -0.483817,0.21775 -0.483817,0.48382 0,0.26614 0.217646,0.4835 0.483817,0.4835 h 4.130808 c 0.162507,0.28771 0.471143,0.48159 0.825658,0.48159 0.353748,0 0.661961,-0.19388 0.824468,-0.48159 h -0.529272 c -0.265721,0 -0.4835,-0.21736 -0.4835,-0.4835 z"
         style="fill:#003d8f;fill-rule:evenodd;stroke-width:0.26458332"
         id="path1421" />
    </g>
  </g>
</svg>
