<?xml version="1.0" encoding="UTF-8" standalone="no"?>
<svg
   xmlns:dc="http://purl.org/dc/elements/1.1/"
   xmlns:cc="http://creativecommons.org/ns#"
   xmlns:rdf="http://www.w3.org/1999/02/22-rdf-syntax-ns#"
   xmlns:svg="http://www.w3.org/2000/svg"
   xmlns="http://www.w3.org/2000/svg"
   id="svg7563"
   version="1.1"
   viewBox="0 0 52.916668 75.526497"
   height="75.526497mm"
   width="52.916668mm">
  <defs
     id="defs7557" />
  <metadata
     id="metadata7560">
    <rdf:RDF>
      <cc:Work
         rdf:about="">
        <dc:format>image/svg+xml</dc:format>
        <dc:type
           rdf:resource="http://purl.org/dc/dcmitype/StillImage" />
        <dc:title></dc:title>
      </cc:Work>
    </rdf:RDF>
  </metadata>
  <g
     transform="translate(-57.185261,-62.884842)"
     id="layer1">
    <g
       id="g7629">
      <path
         id="path453"
         style="fill:#003d8f;fill-rule:evenodd;stroke-width:2.12719011"
         d="m 88.968901,95.19852 h -10.73993 v 2.92125 h 10.67722 z" />
      <path
         id="path455"
         style="fill:#003d8f;fill-rule:evenodd;stroke-width:2.12719011"
         d="m 84.843851,133.24458 c 0.81813,-5.69747 1.53495,-11.13348 3.38692,-15.51508 h -9.41321 c 1.9453,4.75047 2.79575,10.06652 3.39536,15.51508 z" />
      <path
         id="path457"
         style="fill:#003d8f;fill-rule:evenodd;stroke-width:2.12719011"
         d="m 88.823861,102.13443 v -3.44625 h -10.59747 v 0.64479 l 0.36903,17.36366 h 9.92293 z" />
      <path
         id="path459"
         style="fill:#003d8f;fill-rule:evenodd;stroke-width:2.12719011"
         d="m 89.036111,79.02571 c -0.60459,-3.08615 -2.29543,-16.71035 -5.56175,-16.1224 -3.26946,-0.58771 -4.96014,13.03625 -5.56489,16.1224 h 5.56489 z" />
      <path
         id="path461"
         style="fill:#003d8f;fill-rule:evenodd;stroke-width:2.12719011"
         d="m 88.985941,94.39486 0.30551,-14.6606 h -11.47484 l 0.30872,14.6606 z" />
      <path
         id="path463"
         style="fill:#003d8f;fill-rule:evenodd;stroke-width:2.12719011"
         d="m 85.121711,133.79 -1.59116,0.0241 -1.59115,-0.0241 c -1.51373,4.58219 -2.79639,-1.35157 -3.8447,-3.91023 -0.11738,2.38548 -0.85133,4.31543 -1.91234,6.01102 2.26312,-0.37465 4.70536,0.71956 7.2735,2.41844 v 0.10211 l 0.0724,-0.0482 0.0804,0.0482 v -0.10211 c 2.56557,-1.69896 5.00781,-2.79301 7.2735,-2.41844 -1.06109,-1.69559 -1.79833,-3.62554 -1.91234,-6.01102 -1.04919,2.55866 -2.33185,8.49242 -3.84807,3.91023 z" />
      <path
         id="path465"
         style="fill:#003d8f;fill-rule:evenodd;stroke-width:2.12719011"
         d="m 85.599031,133.7424 c 0.24521,1.01864 0.69463,1.12316 1.31844,0.44943 1.18675,-4.64241 2.55367,-9.07779 4.80979,-12.52067 l -2.94601,-3.32412 c -1.89361,5.34074 -2.79913,10.43257 -3.18222,15.39536 z" />
      <path
         id="path467"
         style="fill:#003d8f;fill-rule:evenodd;stroke-width:2.12719011"
         d="m 81.497781,133.7424 c -0.3843,-4.96279 -1.28886,-10.05462 -3.18311,-15.39536 l -2.94851,3.32412 c 2.2595,3.44288 3.62305,7.87826 4.8098,12.52067 0.62388,0.67373 1.07532,0.56921 1.32182,-0.44943 z" />
      <path
         id="path469"
         style="fill:#003d8f;fill-rule:evenodd;stroke-width:2.12719011"
         d="m 69.067161,108.58048 8.40896,-0.24039 -14.26449,-16.35362 1.75919,-2.01654 -7.78556,-1.58866 1.93598,8.21464 1.96235,-2.13399 9.17965,11.3253 -9.16092,0.0563 13.96476,14.91209 2.84657,-2.90364 z" />
      <path
         id="path471"
         style="fill:#003d8f;fill-rule:evenodd;stroke-width:2.12719011"
         d="m 102.31275,89.96993 1.7628,2.01742 -14.268099,16.35363 8.4092,0.23958 -8.84681,9.27477 2.85026,2.90107 13.964769,-14.91209 -9.160919,-0.0563 9.176029,-11.32451 1.96573,2.1332 1.93622,-8.21376 z" />
      <path
         d="m 88.968901,95.19852 h -10.73993 v 2.92125 h 10.67722 z"
         style="fill:#003d8f;fill-rule:evenodd;stroke-width:2.12719011"
         id="path1373" />
      <path
         d="m 84.843851,133.24458 c 0.81813,-5.69747 1.53495,-11.13348 3.38692,-15.51508 h -9.41321 c 1.9453,4.75047 2.79575,10.06652 3.39536,15.51508 z"
         style="fill:#003d8f;fill-rule:evenodd;stroke-width:2.12719011"
         id="path1375" />
      <path
         d="m 88.823861,102.13443 v -3.44625 h -10.59747 v 0.64479 l 0.36903,17.36366 h 9.92293 z"
         style="fill:#003d8f;fill-rule:evenodd;stroke-width:2.12719011"
         id="path1377" />
      <path
         d="m 89.036111,79.02571 c -0.60459,-3.08615 -2.29543,-16.71035 -5.56175,-16.1224 -3.26946,-0.58771 -4.96014,13.03625 -5.56489,16.1224 h 5.56489 z"
         style="fill:#003d8f;fill-rule:evenodd;stroke-width:2.12719011"
         id="path1379" />
      <path
         d="m 88.985941,94.39486 0.30551,-14.6606 h -11.47484 l 0.30872,14.6606 z"
         style="fill:#003d8f;fill-rule:evenodd;stroke-width:2.12719011"
         id="path1381" />
      <path
         d="m 85.121711,133.79 -1.59116,0.0241 -1.59115,-0.0241 c -1.51373,4.58219 -2.79639,-1.35157 -3.8447,-3.91023 -0.11738,2.38548 -0.85133,4.31543 -1.91234,6.01102 2.26312,-0.37465 4.70536,0.71956 7.2735,2.41844 v 0.10211 l 0.0724,-0.0482 0.0804,0.0482 v -0.10211 c 2.56557,-1.69896 5.00781,-2.79301 7.2735,-2.41844 -1.06109,-1.69559 -1.79833,-3.62554 -1.91234,-6.01102 -1.04919,2.55866 -2.33185,8.49242 -3.84807,3.91023 z"
         style="fill:#003d8f;fill-rule:evenodd;stroke-width:2.12719011"
         id="path1383" />
      <path
         d="m 85.599031,133.7424 c 0.24521,1.01864 0.69463,1.12316 1.31844,0.44943 1.18675,-4.64241 2.55367,-9.07779 4.80979,-12.52067 l -2.94601,-3.32412 c -1.89361,5.34074 -2.79913,10.43257 -3.18222,15.39536 z"
         style="fill:#003d8f;fill-rule:evenodd;stroke-width:2.12719011"
         id="path1385" />
      <path
         d="m 81.497781,133.7424 c -0.3843,-4.96279 -1.28886,-10.05462 -3.18311,-15.39536 l -2.94851,3.32412 c 2.2595,3.44288 3.62305,7.87826 4.8098,12.52067 0.62388,0.67373 1.07532,0.56921 1.32182,-0.44943 z"
         style="fill:#003d8f;fill-rule:evenodd;stroke-width:2.12719011"
         id="path1387" />
      <path
         d="m 69.067161,108.58048 8.40896,-0.24039 -14.26449,-16.35362 1.75919,-2.01654 -7.78556,-1.58866 1.93598,8.21464 1.96235,-2.13399 9.17965,11.3253 -9.16092,0.0563 13.96476,14.91209 2.84657,-2.90364 z"
         style="fill:#003d8f;fill-rule:evenodd;stroke-width:2.12719011"
         id="path1389" />
      <path
         d="m 102.31275,89.96993 1.7628,2.01742 -14.268099,16.35363 8.4092,0.23958 -8.84681,9.27477 2.85026,2.90107 13.964769,-14.91209 -9.160919,-0.0563 9.176029,-11.32451 1.96573,2.1332 1.93622,-8.21376 z"
         style="fill:#003d8f;fill-rule:evenodd;stroke-width:2.12719011"
         id="path1391" />
    </g>
  </g>
</svg>
