<?xml version="1.0" encoding="utf-8"?>
<!-- Generator: Adobe Illustrator 20.1.0, SVG Export Plug-In . SVG Version: 6.00 Build 0)  -->
<svg version="1.1"
	 id="svg821" xmlns:cc="http://creativecommons.org/ns#" xmlns:dc="http://purl.org/dc/elements/1.1/" xmlns:rdf="http://www.w3.org/1999/02/22-rdf-syntax-ns#" xmlns:svg="http://www.w3.org/2000/svg"
	 xmlns="http://www.w3.org/2000/svg" xmlns:xlink="http://www.w3.org/1999/xlink" x="0px" y="0px" viewBox="0 0 657 220"
	 style="enable-background:new 0 0 657 220;" xml:space="preserve">
<style type="text/css">
	.st0{opacity:0;}
	.st1{fill:#5F8DD3;}
</style>
<g id="layer1" transform="translate(0,-238.79165)" class="st0">
</g>
<g id="layer2">
	<g id="layer1-3" transform="matrix(0.21435802,0.0580399,-0.05887302,0.21743493,37.15057,-22.421642)">
		<g id="g7234" transform="rotate(-21.069542,-92.171018,225.2365)">
			<path id="path441" class="st1" d="M217.3,340.3c1.7-1.7,2.7-3.9,2.7-6.5c0-4-2.7-7.3-6.3-8.5l-0.3-27.6l1.8-0.8l-1.8-0.8l0-0.6
				l-1.4,0l-86.7-37.8l-92.5,41.9l20.4,9c5.7-1.9,11.8-2.9,18.1-2.9c23.5,0,43.6,13.9,52.9,33.8l83.6-39.1l0.2,25
				c-3.6,1.2-6.1,4.6-6.1,8.6c0,2.8,1.4,5.3,3.4,7c-1.9,6-4.5,18-2.4,33.8l10.3-0.1l7.3-0.1C222.4,358.2,219.2,346,217.3,340.3
				L217.3,340.3z"/>
			<path id="path443" class="st1" d="M126.7,345.9c1.9,5.7,2.9,11.8,2.9,18.1c0,5.9-0.9,11.5-2.5,16.9c11.2-0.9,35.4-4.4,48.2-18.3
				l-0.4-40.1C174.9,323,140.7,339.3,126.7,345.9z"/>
			<path id="path445" class="st1" d="M71.2,313.1c-27.7,0-50.1,22.4-50.1,50.1c0,27.7,22.4,50.1,50.1,50.1
				c27.7,0,50.1-22.4,50.1-50.1C121.3,335.6,98.9,313.1,71.2,313.1z M103.9,366.5h4.4c-1.5,18-15.9,32.3-33.8,33.8V396
				c0-1.8-1.4-3.2-3.2-3.2c-1.8,0-3.2,1.4-3.2,3.2v4.3c-18-1.6-32.3-15.9-33.8-33.8h4.3c1.8,0,3.2-1.4,3.2-3.2
				c0-1.8-1.4-3.2-3.2-3.2h-4.3c1.6-18,15.9-32.3,33.8-33.8v4.3c0,1.8,1.4,3.2,3.2,3.2c1.8,0,3.2-1.4,3.2-3.2v-4.3
				c18,1.6,32.3,15.9,33.8,33.8h-4.4c-1.8,0-3.2,1.4-3.2,3.2C100.7,365,102.1,366.5,103.9,366.5z"/>
			<path id="path447" class="st1" d="M89.9,358.4H78.3c-1.5-2.2-4.1-3.7-7.1-3.7l-0.1,0l-10.6-14.9c-1.6-2.2-4.6-2.7-6.8-1.1
				c-2.2,1.5-2.7,4.6-1.1,6.7l10.6,14.9c-0.3,0.9-0.5,1.9-0.5,2.9c0,4.7,3.8,8.6,8.6,8.6c2.9,0,5.5-1.5,7.1-3.7h11.6
				c2.7,0,4.8-2.2,4.8-4.8C94.7,360.6,92.6,358.4,89.9,358.4L89.9,358.4z"/>
			<path id="path1361" class="st1" d="M217.3,340.3c1.7-1.7,2.7-3.9,2.7-6.5c0-4-2.7-7.3-6.3-8.5l-0.3-27.6l1.8-0.8l-1.8-0.8l0-0.6
				l-1.4,0l-86.7-37.8l-92.5,41.9l20.4,9c5.7-1.9,11.8-2.9,18.1-2.9c23.5,0,43.6,13.9,52.9,33.8l83.6-39.1l0.2,25
				c-3.6,1.2-6.1,4.6-6.1,8.6c0,2.8,1.4,5.3,3.4,7c-1.9,6-4.5,18-2.4,33.8l10.3-0.1l7.3-0.1C222.4,358.2,219.2,346,217.3,340.3
				L217.3,340.3z"/>
			<path id="path1363" class="st1" d="M126.7,345.9c1.9,5.7,2.9,11.8,2.9,18.1c0,5.9-0.9,11.5-2.5,16.9c11.2-0.9,35.4-4.4,48.2-18.3
				l-0.4-40.1C174.9,323,140.7,339.3,126.7,345.9z"/>
			<path id="path1365" class="st1" d="M71.2,313.1c-27.7,0-50.1,22.4-50.1,50.1c0,27.7,22.4,50.1,50.1,50.1
				c27.7,0,50.1-22.4,50.1-50.1C121.3,335.6,98.9,313.1,71.2,313.1z M103.9,366.5h4.4c-1.5,18-15.9,32.3-33.8,33.8V396
				c0-1.8-1.4-3.2-3.2-3.2c-1.8,0-3.2,1.4-3.2,3.2v4.3c-18-1.6-32.3-15.9-33.8-33.8h4.3c1.8,0,3.2-1.4,3.2-3.2
				c0-1.8-1.4-3.2-3.2-3.2h-4.3c1.6-18,15.9-32.3,33.8-33.8v4.3c0,1.8,1.4,3.2,3.2,3.2c1.8,0,3.2-1.4,3.2-3.2v-4.3
				c18,1.6,32.3,15.9,33.8,33.8h-4.4c-1.8,0-3.2,1.4-3.2,3.2C100.7,365,102.1,366.5,103.9,366.5z"/>
			<path id="path1367" class="st1" d="M89.9,358.4H78.3c-1.5-2.2-4.1-3.7-7.1-3.7l-0.1,0l-10.6-14.9c-1.6-2.2-4.6-2.7-6.8-1.1
				c-2.2,1.5-2.7,4.6-1.1,6.7l10.6,14.9c-0.3,0.9-0.5,1.9-0.5,2.9c0,4.7,3.8,8.6,8.6,8.6c2.9,0,5.5-1.5,7.1-3.7h11.6
				c2.7,0,4.8-2.2,4.8-4.8C94.7,360.6,92.6,358.4,89.9,358.4L89.9,358.4z"/>
		</g>
	</g>
</g>
<g id="layer5">
	<g id="layer1-9" transform="matrix(0.19716983,0,0,0.2,49.72186,18.548616)">
		<g id="layer1-3-5" transform="translate(37.458552,-92.953745)">
			<g id="g7180" transform="matrix(6.3046146,0,0,6.3046146,-266.46101,-1015.9678)">
				<path id="path327" class="st1" d="M208.9,266.7L208.9,266.7l0.1-0.2l0-0.1l0.1-0.3l0.1-0.1c0-0.5,0.7-1.8,0.8-2.5
					c-0.4-0.2-0.3-0.2-0.5-0.4c-0.2-0.1-0.3-0.2-0.5-0.4c-0.2-0.2-0.3-0.3-0.5-0.4l-0.3-0.2l-3.2-2.5c-0.3-0.3-0.7-0.5-1-0.7l-2-1.5
					l-0.1-0.1l-0.1,0l-0.1-0.1l0,0c0.1,0.2,0,0,0,0c-0.6-0.4-1.4-1.1-1.6-1.2l0,11.2c0.3,0.2,4.7,1.8,5.7,2.2l2,0.7l0.9-2.8l0-0.1
					l0-0.1l0-0.1l0-0.1l0-0.1L208.9,266.7L208.9,266.7z"/>
				<path id="path329" class="st1" d="M230.7,258.8c-0.3,0.2-0.8,0.5-1.1,0.6l0,0l-0.1,0.1l-0.1,0l-0.1,0.1l-0.1,0.1l0,0l-0.2,0.1
					l0,0l-0.3,0.2l0,0l-0.1,0l-0.1,0.1l0,0l-0.1,0.1c-0.2,0.1,0.1-0.1-0.1,0l-0.1,0.1c-0.6,0.5-5.2,3.2-5.5,3.5l2.5,3.6l0,0.1
					c0.2,0.1,0.8,0.9,0.9,1.2c0.3,0.4,0.5,0.7,0.8,1.1c0.1-0.1,0.4-0.3,0.6-0.4l4-2.7v-8.4C231.5,258.3,231.1,258.6,230.7,258.8
					L230.7,258.8z"/>
				<path id="path331" class="st1" d="M215.1,272.5L215.1,272.5"/>
				<path id="path333" class="st1" d="M220.5,269.3l-1.8-1.2l-0.2-0.1l-0.1-0.1l-0.1,0l-0.1-0.1c-0.4-0.1-0.7-0.4-1.1-0.6
					c-0.5-0.3-2.1,1.2-3.8,0.5c-0.3-0.1-0.8-0.5-0.9-0.8c-0.8-1.4,1.6-1.7,2.3-2.3l-4.2-0.3l-0.9,2.6c-0.2,0.6-0.4,1.1-0.6,1.7
					c-0.2,0.6-0.1,0.7,0.7,1.3c0.3-0.2,0.6-0.4,1.2-0.3c0.7,0.2,0.3,0.5,0.9,0.4c0.9-0.1,1.5,0.5,1.6,1.3c0.3,0.1,0.4,0.1,0.5,0.2
					l0.1,0c0.2,0,0.2,0,0.4,0.2l0.1,0.1c0.1-0.2,0.2-0.3,0.5-0.2l0.4,0l0,1c-0.2,0-0.3,0-0.3-0.1c-0.2,0.1-0.3,0.1-0.6,0.1l0,0.2
					c1.1,0.3,1.3,1.2,0.9,2c0.2,0.2,0.3,0.3,0.5,0.4c0.3,0.3,1.1,1.1,1.8,0.1c-0.1-0.2-0.9-0.8-1.2-1c-0.2-0.1-0.4-0.3-0.6-0.5
					c-0.3-0.2-0.3-0.3-0.1-0.6c0.4-0.1,0.4,0,0.6,0.2l1,0.8c0.2,0.1,0.3,0.2,0.5,0.4c0.5,0.4,0.7,0.7,1.1,0.7c0.5,0,0.9-0.4,0.9-0.9
					l-1.2-0.9c-0.1-0.1-0.1-0.1-0.3-0.2l-0.9-0.7c-0.3-0.1-0.2-0.1-0.4-0.3c-0.1,0.3-0.4,0.3-0.8,0.3c0,0.4,0.1,0.4-0.2,0.4
					c-0.1-0.4,0-1,0.1-1.3c-0.2-0.9,0.6-0.3,0.9-0.1l0-0.5l0.2,0l0,0.5c0.5-0.2,0.5,0.1,0.6,0.5c0.1-0.7,0.6-0.7,1-0.3l0.1-0.3
					c-0.3-0.1,0,0-0.1-0.1l-1.2-0.9c-0.8-0.6-0.9-0.6-0.8-1.1c0.5-0.1,0.7,0.2,1,0.5l2.6,1.9l0.1-0.2c0.3-0.1,0.3-0.1,0.6,0
					c0,0.2,0,0.2-0.2,0.2c-0.2,0-0.1-0.2-0.2,0.1c0.4,0.1,0.3,0,0.4,0.4l0,0c0.7,0.4,1.1-0.5,0.9-1.2
					C222.3,270.4,221.1,269.8,220.5,269.3L220.5,269.3z M215.2,271.4c0,0-0.1,0.1-0.1-0.1c0-0.2,0-0.1,0.1-0.2l0.3,0.1l0,0.2
					L215.2,271.4z M215.8,271.9c0,0.9,0.2,0.2,0.2,0.7c-0.2,0.1-0.2,0.1-0.4,0c-0.1-0.2,0-0.5-0.1-0.7c0,0-0.2-0.3,0.2-0.5
					c0.2,0.1,0,0,0.1,0.2l0,0C216.2,271.8,216,271.7,215.8,271.9L215.8,271.9z"/>
				<path id="path335" class="st1" d="M225.4,268.2L225.4,268.2L225.4,268.2l-0.3-0.4l0-0.1l0-0.1c-0.2-0.1-0.1,0-0.1-0.2l-0.1-0.1
					c-0.1-0.1-1.9-2.6-2.1-3c-0.6,0.1-1.9,0.9-2.4,0.9c-0.4,0-2.2-0.5-2.7-0.6c-1.2-0.3-1.5,0-2.4,0.5c-0.4,0.2-1.9,0.9-2.1,1.1
					c0.1,0.4,0.7,0.7,1.3,0.8c0.6,0,1.1-0.2,1.6-0.4c1.9-0.8,0.6-0.5,2.6,0.4l0,0.1l0,0c0.4,0.2,2.7,1.6,3.2,2
					c0.3,0.3,0.4,0.6,0.9,0.9c0.5-0.1,1.3-0.3,1.7-0.5c0.7-0.3,0.9-0.7,1.3-0.9C225.6,268.5,225.5,268.4,225.4,268.2L225.4,268.2z"
					/>
				<path id="path337" class="st1" d="M220.7,257.3c0.1-0.6,0.3-1,0.4-1.6c0.1-0.5,0.1-1.5,0.2-1.8c-0.6-0.2-3.7,0-4.7-0.1l-0.2,0
					l0,3.6L220.7,257.3z"/>
				<path id="path339" class="st1" d="M210.9,253.8l0,0.8c0,0.4,0.1,0.9,0.2,1.3c0.1,0.4,0.3,0.9,0.2,1.2l0.1,0.1l4.2,0l0-3.5
					C213.4,253.8,212.7,253.8,210.9,253.8L210.9,253.8z"/>
				<path id="path341" class="st1" d="M210.7,257.3c-0.3-1.3-0.5-2.2-0.5-3.6l-3.2,0c0.1,1.7,0.3,2.1,0.8,3.5L210.7,257.3z"/>
				<path id="path343" class="st1" d="M224.8,253.8l-2.8,0c0,1.4-0.2,2.3-0.5,3.5l2.5,0C224.4,255.8,224.7,255.8,224.8,253.8
					L224.8,253.8z"/>
				<path id="path345" class="st1" d="M220.1,259c0.2-0.3,0.3-0.8,0.4-1.1l-4.1,0l0,2.1l3.2,0C219.7,259.7,219.9,259.4,220.1,259
					L220.1,259z"/>
				<path id="path347" class="st1" d="M215.7,257.9l-4,0c0.2,0.7,0.6,1.6,1,2.1l3,0L215.7,257.9z"/>
				<path id="path349" class="st1" d="M210.9,257.9l-2.7,0c0.3,0.6,0.7,1.1,1.2,1.6c0.1,0.1,0.2,0.2,0.3,0.3
					c0.2,0.2,0.2,0.2,0.6,0.2c0.5,0,1,0,1.5,0C211.6,259.5,211.1,258.9,210.9,257.9L210.9,257.9z"/>
				<path id="path351" class="st1" d="M222,260c0.4-0.2,1.5-1.6,1.7-2.1h-2.3c-0.1,0.3-0.3,0.8-0.4,1.1c-0.1,0.3-0.5,0.8-0.5,1
					C220.9,260,221.7,260.1,222,260L222,260z"/>
				<path id="path353" class="st1" d="M217.6,262.2c0.3-0.1,0.4,0,0.5-0.2c0.2-0.3,0.9-1.1,1-1.4l-2.7,0
					C216.5,262.5,216,262.6,217.6,262.2L217.6,262.2z"/>
				<path id="path355" class="st1" d="M214.2,262.2c0.2,0.2,1.1,0.2,1.4,0.2l0-1.7l-2.6,0c0.1,0.2,0.3,0.5,0.4,0.7L214.2,262.2z"/>
				<path id="path357" class="st1" d="M213.7,273.9c-0.1,0.2-0.8,0.9-0.9,1.1c0.2,0.3,0.8,0.8,1.3,0.3c0.1-0.2,0.7-1,0.8-1.3
					C214.9,273.5,214.1,273.4,213.7,273.9L213.7,273.9z"/>
				<path id="path359" class="st1" d="M213.8,272.6c-0.2-0.1-0.2-0.1-0.3-0.2c-0.3,0.3-0.3,0.3-0.8,0.2l0,0.3c0,0.1,0.1,0.1-0.1,0.1
					c-0.3,0.1-0.2-0.1-0.2-0.2l-0.6,0.8c-0.7,0.8,0.2,1.1,0.5,1.1c0.2-0.2,0.2-0.3,0.4-0.5l0.4-0.5
					C213.4,273.2,213.8,272.9,213.8,272.6L213.8,272.6z"/>
				<path id="path361" class="st1" d="M219.9,272.5c-0.1,0.3-0.5,0.2-0.5-0.3c0,0.3-0.3,0.4-0.6,0.5l0.1,0.1l1.4,1
					c0.8,0.6,1.3-0.4,1.2-0.8l0,0l-0.1-0.1l-0.1-0.1l0-0.1c-0.2-0.2-0.3-0.3-0.5-0.3C220.3,272.7,220.3,272.7,219.9,272.5
					L219.9,272.5z"/>
				<path id="path363" class="st1" d="M218.8,272.7L218.8,272.7"/>
				<path id="path365" class="st1" d="M219.4,271.5l-0.1,0.3c-0.4-0.4-0.9-0.4-1,0.3c-0.2-0.4-0.1-0.7-0.6-0.5l0-0.5l-0.2,0l0,0.5
					c0.1,0.2,0.3,0.2,0.4,0.4c0.4,0.1,0.8,0.7,1.1,0.8c0.3-0.1,0.5-0.3,0.6-0.5c0.1,0.5,0.5,0.6,0.5,0.3c0.4,0.2,0.4,0.2,0.8,0l0,0
					l0,0l-1.4-1.1C219.4,271.5,219.1,271.4,219.4,271.5L219.4,271.5z M218.6,272.3c-0.1-0.1,0-0.4,0-0.5c0.2-0.1,0.2-0.1,0.4,0
					l0,0.4C218.9,272.3,218.7,272.5,218.6,272.3L218.6,272.3z"/>
				<path id="path367" class="st1" d="M211,270.6c-0.5-0.6-0.9-0.2-1.2,0.3c-0.4,0.6-0.5,0.6,0,1.2l0.1-0.1l0.8-1
					C210.8,270.8,210.9,270.8,211,270.6L211,270.6z"/>
				<path id="path369" class="st1" d="M210.5,272.4c0.3,0.4,0.7,0.3,0.9-0.1l0.2,0.2l0.1,0l0,0l0.1-0.1l0-0.1l0.3-0.4l0.1-0.1
					l0.1-0.2l0-0.1c-0.1-0.1,0.1-0.1-0.2-0.2c-0.3-0.1-0.5,0-0.6,0.2l0-0.8c-0.1,0.1-0.2,0.3-0.4,0.4c-0.1,0.2,0,0-0.1,0.2l-0.1,0.2
					c0.4,0.1,0.4,0.2,0.3,0.6c-0.3,0-0.4,0.1-0.5-0.3l-0.3,0.4C210.5,272.4,210.5,272.4,210.5,272.4L210.5,272.4z M211.7,272
					c0-0.2,0.2-0.2,0.3-0.2l-0.3,0.4C211.8,272.1,211.7,272.3,211.7,272L211.7,272z"/>
				<path id="path371" class="st1" d="M210.5,272.4L210.5,272.4"/>
				<path id="path373" class="st1" d="M212.1,260.6l-1.5,0c0.2,0.2,1.8,1.2,2.3,1.2C212.8,261.7,212.2,260.6,212.1,260.6
					L212.1,260.6z"/>
				<path id="path375" class="st1" d="M215.1,272.5L215.1,272.5L215.1,272.5c0,0,0.1,0.1,0.3,0.1l0-1l-0.4,0c-0.3,0-0.4,0-0.5,0.2
					l-0.1-0.1c-0.2-0.2-0.2-0.1-0.4-0.2c0.2,0.2,0.4,0.4,0.5,0.9l0.1,0.2C214.8,272.7,214.9,272.6,215.1,272.5L215.1,272.5z"/>
				<path id="path377" class="st1" d="M211.5,272.3c-0.2,0.4-0.6,0.5-0.9,0.1l0,0l0,0c0,0,0-0.1-0.1,0c-0.5,0.3,0.1,1,0.7,0.9
					c0.3-0.6,0.5-0.5,0.6-0.8L211.5,272.3z"/>
				<path id="path379" class="st1" d="M212.2,271.6c0.3,0.1,0.2,0.1,0.2,0.2l0,0c0.1-0.4,0.2-0.6-0.1-0.9c-0.4-0.3-0.7-0.1-0.8,0.1
					l0,0.8C211.7,271.6,211.9,271.5,212.2,271.6L212.2,271.6z"/>
				<path id="path381" class="st1" d="M220.1,260.6c-0.1,0.2-0.6,1-0.7,1.1c0.5-0.1,1.6-0.8,1.8-1.1L220.1,260.6z"/>
				<path id="path383" class="st1" d="M216.2,273c0.3,0,0.2,0,0.2-0.4c0.4,0.1,0.6,0,0.8-0.3c-0.1-0.2-0.1-0.1-0.2-0.1
					c-0.1,0.2-0.2,0.2-0.5,0.1c-0.1-0.2-0.1-0.2,0-0.5l-0.2-0.2C216.2,272,216.1,272.6,216.2,273L216.2,273z"/>
				<path id="path385" class="st1" d="M215.9,271.5L215.9,271.5c-0.2-0.2,0-0.1-0.2-0.2c-0.4,0.2-0.2,0.5-0.2,0.5
					c0.1,0.3,0,0.5,0.1,0.7c0.2,0,0.3,0.1,0.4,0c0-0.5-0.3,0.2-0.2-0.7C216,271.7,216.2,271.8,215.9,271.5L215.9,271.5z"/>
				<path id="path387" class="st1" d="M212.6,273c0.1-0.1,0,0,0.1-0.1l0-0.3c0.5,0.1,0.5,0.1,0.8-0.2c0.1,0.1,0.1,0.1,0.3,0.2
					c-0.1-0.3-0.2-0.5-0.5-0.5c-0.1,0.2-0.3,0.4-0.4,0.2l-0.2,0.3l-0.1,0.1l-0.1,0.1C212.4,272.9,212.3,273.1,212.6,273L212.6,273z"
					/>
				<path id="path389" class="st1" d="M213.2,272.1L213.2,272.1"/>
				<path id="path391" class="st1" d="M211.2,272.4c0.1-0.3,0.1-0.5-0.3-0.6c-0.1,0.1-0.1,0.1-0.2,0.3
					C210.8,272.5,210.9,272.4,211.2,272.4L211.2,272.4z"/>
				<path id="path393" class="st1" d="M218.6,271.9c-0.1,0.1-0.2,0.4,0,0.5c0.2,0.2,0.3,0,0.5-0.1l0-0.4
					C218.8,271.8,218.8,271.8,218.6,271.9L218.6,271.9z"/>
				<path id="path395" class="st1" d="M221.1,272c0.1-0.3,0-0.1,0.2-0.1c0.2,0,0.1,0,0.2-0.2c-0.3-0.1-0.2-0.1-0.6,0l-0.1,0.2
					c0.2,0.2,0.5,0.4,0.7,0.6C221.4,272,221.4,272.1,221.1,272L221.1,272z"/>
				<path id="path397" class="st1" d="M216.5,272.3c0.3,0.1,0.4,0.1,0.5-0.1l0,0l-0.2-0.2c-0.1-0.1-0.1-0.1-0.3-0.2
					C216.4,272.1,216.4,272.1,216.5,272.3L216.5,272.3z"/>
				<path id="path399" class="st1" d="M215.2,271.1c0,0-0.1-0.1-0.1,0.2c0,0.2,0,0.1,0.1,0.1l0.3,0l0-0.2L215.2,271.1z"/>
				<path id="path401" class="st1" d="M213.2,272.1L213.2,272.1c-0.3,0-0.3,0-0.4,0.1l-0.1,0.1C212.9,272.5,213.2,272.3,213.2,272.1
					L213.2,272.1z"/>
				<path id="path403" class="st1" d="M211.8,272.2l0.3-0.4c-0.1,0-0.3,0-0.3,0.2C211.7,272.3,211.8,272.1,211.8,272.2L211.8,272.2z
					"/>
				<path id="path405" class="st1" d="M216.4,253.2l0.2,0c1-0.1,4.1,0.1,4.7-0.1c-0.1-0.3-0.1-1.3-0.2-1.8c-0.1-0.6-0.2-1.1-0.4-1.6
					l-4.3-0.1L216.4,253.2z"/>
				<path id="path407" class="st1" d="M215.7,249.7l-4.2,0l-0.1,0.1c0,0.4-0.2,0.8-0.2,1.2c-0.1,0.4-0.1,0.9-0.2,1.3l0,0.8
					c1.8,0,2.5,0,4.7,0L215.7,249.7z"/>
				<path id="path409" class="st1" d="M210.7,249.7l-2.8,0c-0.5,1.5-0.7,1.8-0.8,3.5l3.2,0C210.2,251.9,210.4,250.9,210.7,249.7
					L210.7,249.7z"/>
				<path id="path411" class="st1" d="M222,253.2l2.8,0c-0.1-2-0.4-2.1-0.8-3.5l-2.5,0C221.8,250.9,222,251.9,222,253.2L222,253.2z"
					/>
				<path id="path413" class="st1" d="M220.1,247.9c-0.2-0.3-0.4-0.7-0.5-1l-3.2,0l0,2.1l4.1,0C220.4,248.7,220.2,248.3,220.1,247.9
					L220.1,247.9z"/>
				<path id="path415" class="st1" d="M211.7,249.1l4,0l0-2.1l-3,0C212.2,247.5,211.9,248.3,211.7,249.1L211.7,249.1z"/>
				<path id="path417" class="st1" d="M211.8,246.9c-0.5,0-1,0-1.5,0c-0.4,0-0.4,0-0.6,0.2c-0.1,0.1-0.2,0.2-0.3,0.3
					c-0.4,0.5-0.9,1-1.2,1.6l2.7,0C211.1,248.1,211.6,247.5,211.8,246.9L211.8,246.9z"/>
				<path id="path419" class="st1" d="M220.9,248c0.1,0.3,0.3,0.8,0.4,1.1l2.3,0c-0.2-0.5-1.3-1.9-1.7-2.1c-0.2-0.1-1.1,0-1.5,0
					C220.5,247.2,220.8,247.7,220.9,248L220.9,248z"/>
				<path id="path421" class="st1" d="M216.4,246.4l2.7,0c-0.1-0.3-0.8-1.1-1-1.4c-0.2-0.2-0.2-0.2-0.5-0.2
					C216,244.4,216.5,244.5,216.4,246.4L216.4,246.4z"/>
				<path id="path423" class="st1" d="M215.6,244.6c-0.3,0-1.2,0-1.4,0.2l-0.8,0.9c-0.1,0.2-0.3,0.4-0.4,0.7l2.6,0L215.6,244.6z"/>
				<path id="path425" class="st1" d="M212.9,245.1c-0.5,0-2.1,1-2.3,1.2l1.5,0C212.2,246.3,212.8,245.3,212.9,245.1L212.9,245.1z"
					/>
				<path id="path427" class="st1" d="M221.2,246.4c-0.2-0.3-1.4-1-1.8-1.1c0.1,0.1,0.6,0.9,0.7,1.1L221.2,246.4z"/>
				<path id="path1247" class="st1" d="M208.9,266.7L208.9,266.7l0.1-0.2l0-0.1l0.1-0.3l0.1-0.1c0-0.5,0.7-1.8,0.8-2.5
					c-0.4-0.2-0.3-0.2-0.5-0.4c-0.2-0.1-0.3-0.2-0.5-0.4c-0.2-0.2-0.3-0.3-0.5-0.4l-0.3-0.2l-3.2-2.5c-0.3-0.3-0.7-0.5-1-0.7l-2-1.5
					l-0.1-0.1l-0.1,0l-0.1-0.1l0,0c0.1,0.2,0,0,0,0c-0.6-0.4-1.4-1.1-1.6-1.2l0,11.2c0.3,0.2,4.7,1.8,5.7,2.2l2,0.7l0.9-2.8l0-0.1
					l0-0.1l0-0.1l0-0.1l0-0.1L208.9,266.7L208.9,266.7z"/>
				<path id="path1249" class="st1" d="M230.7,258.8c-0.3,0.2-0.8,0.5-1.1,0.6l0,0l-0.1,0.1l-0.1,0l-0.1,0.1l-0.1,0.1l0,0l-0.2,0.1
					l0,0l-0.3,0.2l0,0l-0.1,0l-0.1,0.1l0,0l-0.1,0.1c-0.2,0.1,0.1-0.1-0.1,0l-0.1,0.1c-0.6,0.5-5.2,3.2-5.5,3.5l2.5,3.6l0,0.1
					c0.2,0.1,0.8,0.9,0.9,1.2c0.3,0.4,0.5,0.7,0.8,1.1c0.1-0.1,0.4-0.3,0.6-0.4l4-2.7v-8.4C231.5,258.3,231.1,258.6,230.7,258.8
					L230.7,258.8z"/>
				<path id="path1251" class="st1" d="M215.1,272.5L215.1,272.5"/>
				<path id="path1253" class="st1" d="M220.5,269.3l-1.8-1.2l-0.2-0.1l-0.1-0.1l-0.1,0l-0.1-0.1c-0.4-0.1-0.7-0.4-1.1-0.6
					c-0.5-0.3-2.1,1.2-3.8,0.5c-0.3-0.1-0.8-0.5-0.9-0.8c-0.8-1.4,1.6-1.7,2.3-2.3l-4.2-0.3l-0.9,2.6c-0.2,0.6-0.4,1.1-0.6,1.7
					c-0.2,0.6-0.1,0.7,0.7,1.3c0.3-0.2,0.6-0.4,1.2-0.3c0.7,0.2,0.3,0.5,0.9,0.4c0.9-0.1,1.5,0.5,1.6,1.3c0.3,0.1,0.4,0.1,0.5,0.2
					l0.1,0c0.2,0,0.2,0,0.4,0.2l0.1,0.1c0.1-0.2,0.2-0.3,0.5-0.2l0.4,0l0,1c-0.2,0-0.3,0-0.3-0.1c-0.2,0.1-0.3,0.1-0.6,0.1l0,0.2
					c1.1,0.3,1.3,1.2,0.9,2c0.2,0.2,0.3,0.3,0.5,0.4c0.3,0.3,1.1,1.1,1.8,0.1c-0.1-0.2-0.9-0.8-1.2-1c-0.2-0.1-0.4-0.3-0.6-0.5
					c-0.3-0.2-0.3-0.3-0.1-0.6c0.4-0.1,0.4,0,0.6,0.2l1,0.8c0.2,0.1,0.3,0.2,0.5,0.4c0.5,0.4,0.7,0.7,1.1,0.7c0.5,0,0.9-0.4,0.9-0.9
					l-1.2-0.9c-0.1-0.1-0.1-0.1-0.3-0.2l-0.9-0.7c-0.3-0.1-0.2-0.1-0.4-0.3c-0.1,0.3-0.4,0.3-0.8,0.3c0,0.4,0.1,0.4-0.2,0.4
					c-0.1-0.4,0-1,0.1-1.3c-0.2-0.9,0.6-0.3,0.9-0.1l0-0.5l0.2,0l0,0.5c0.5-0.2,0.5,0.1,0.6,0.5c0.1-0.7,0.6-0.7,1-0.3l0.1-0.3
					c-0.3-0.1,0,0-0.1-0.1l-1.2-0.9c-0.8-0.6-0.9-0.6-0.8-1.1c0.5-0.1,0.7,0.2,1,0.5l2.6,1.9l0.1-0.2c0.3-0.1,0.3-0.1,0.6,0
					c0,0.2,0,0.2-0.2,0.2c-0.2,0-0.1-0.2-0.2,0.1c0.4,0.1,0.3,0,0.4,0.4l0,0c0.7,0.4,1.1-0.5,0.9-1.2
					C222.3,270.4,221.1,269.8,220.5,269.3L220.5,269.3z M215.2,271.4c0,0-0.1,0.1-0.1-0.1c0-0.2,0-0.1,0.1-0.2l0.3,0.1l0,0.2
					L215.2,271.4z M215.8,271.9c0,0.9,0.2,0.2,0.2,0.7c-0.2,0.1-0.2,0.1-0.4,0c-0.1-0.2,0-0.5-0.1-0.7c0,0-0.2-0.3,0.2-0.5
					c0.2,0.1,0,0,0.1,0.2l0,0C216.2,271.8,216,271.7,215.8,271.9L215.8,271.9z"/>
				<path id="path1255" class="st1" d="M225.4,268.2L225.4,268.2L225.4,268.2l-0.3-0.4l0-0.1l0-0.1c-0.2-0.1-0.1,0-0.1-0.2l-0.1-0.1
					c-0.1-0.1-1.9-2.6-2.1-3c-0.6,0.1-1.9,0.9-2.4,0.9c-0.4,0-2.2-0.5-2.7-0.6c-1.2-0.3-1.5,0-2.4,0.5c-0.4,0.2-1.9,0.9-2.1,1.1
					c0.1,0.4,0.7,0.7,1.3,0.8c0.6,0,1.1-0.2,1.6-0.4c1.9-0.8,0.6-0.5,2.6,0.4l0,0.1l0,0c0.4,0.2,2.7,1.6,3.2,2
					c0.3,0.3,0.4,0.6,0.9,0.9c0.5-0.1,1.3-0.3,1.7-0.5c0.7-0.3,0.9-0.7,1.3-0.9C225.6,268.5,225.5,268.4,225.4,268.2L225.4,268.2z"
					/>
				<path id="path1257" class="st1" d="M220.7,257.3c0.1-0.6,0.3-1,0.4-1.6c0.1-0.5,0.1-1.5,0.2-1.8c-0.6-0.2-3.7,0-4.7-0.1l-0.2,0
					l0,3.6L220.7,257.3z"/>
				<path id="path1259" class="st1" d="M210.9,253.8l0,0.8c0,0.4,0.1,0.9,0.2,1.3c0.1,0.4,0.3,0.9,0.2,1.2l0.1,0.1l4.2,0l0-3.5
					C213.4,253.8,212.7,253.8,210.9,253.8L210.9,253.8z"/>
				<path id="path1261" class="st1" d="M210.7,257.3c-0.3-1.3-0.5-2.2-0.5-3.6l-3.2,0c0.1,1.7,0.3,2.1,0.8,3.5L210.7,257.3z"/>
				<path id="path1263" class="st1" d="M224.8,253.8l-2.8,0c0,1.4-0.2,2.3-0.5,3.5l2.5,0C224.4,255.8,224.7,255.8,224.8,253.8
					L224.8,253.8z"/>
				<path id="path1265" class="st1" d="M220.1,259c0.2-0.3,0.3-0.8,0.4-1.1l-4.1,0l0,2.1l3.2,0C219.7,259.7,219.9,259.4,220.1,259
					L220.1,259z"/>
				<path id="path1267" class="st1" d="M215.7,257.9l-4,0c0.2,0.7,0.6,1.6,1,2.1l3,0L215.7,257.9z"/>
				<path id="path1269" class="st1" d="M210.9,257.9l-2.7,0c0.3,0.6,0.7,1.1,1.2,1.6c0.1,0.1,0.2,0.2,0.3,0.3
					c0.2,0.2,0.2,0.2,0.6,0.2c0.5,0,1,0,1.5,0C211.6,259.5,211.1,258.9,210.9,257.9L210.9,257.9z"/>
				<path id="path1271" class="st1" d="M222,260c0.4-0.2,1.5-1.6,1.7-2.1h-2.3c-0.1,0.3-0.3,0.8-0.4,1.1c-0.1,0.3-0.5,0.8-0.5,1
					C220.9,260,221.7,260.1,222,260L222,260z"/>
				<path id="path1273" class="st1" d="M217.6,262.2c0.3-0.1,0.4,0,0.5-0.2c0.2-0.3,0.9-1.1,1-1.4l-2.7,0
					C216.5,262.5,216,262.6,217.6,262.2L217.6,262.2z"/>
				<path id="path1275" class="st1" d="M214.2,262.2c0.2,0.2,1.1,0.2,1.4,0.2l0-1.7l-2.6,0c0.1,0.2,0.3,0.5,0.4,0.7L214.2,262.2z"/>
				<path id="path1277" class="st1" d="M213.7,273.9c-0.1,0.2-0.8,0.9-0.9,1.1c0.2,0.3,0.8,0.8,1.3,0.3c0.1-0.2,0.7-1,0.8-1.3
					C214.9,273.5,214.1,273.4,213.7,273.9L213.7,273.9z"/>
				<path id="path1279" class="st1" d="M213.8,272.6c-0.2-0.1-0.2-0.1-0.3-0.2c-0.3,0.3-0.3,0.3-0.8,0.2l0,0.3
					c0,0.1,0.1,0.1-0.1,0.1c-0.3,0.1-0.2-0.1-0.2-0.2l-0.6,0.8c-0.7,0.8,0.2,1.1,0.5,1.1c0.2-0.2,0.2-0.3,0.4-0.5l0.4-0.5
					C213.4,273.2,213.8,272.9,213.8,272.6L213.8,272.6z"/>
				<path id="path1281" class="st1" d="M219.9,272.5c-0.1,0.3-0.5,0.2-0.5-0.3c0,0.3-0.3,0.4-0.6,0.5l0.1,0.1l1.4,1
					c0.8,0.6,1.3-0.4,1.2-0.8l0,0l-0.1-0.1l-0.1-0.1l0-0.1c-0.2-0.2-0.3-0.3-0.5-0.3C220.3,272.7,220.3,272.7,219.9,272.5
					L219.9,272.5z"/>
				<path id="path1283" class="st1" d="M218.8,272.7L218.8,272.7"/>
				<path id="path1285" class="st1" d="M219.4,271.5l-0.1,0.3c-0.4-0.4-0.9-0.4-1,0.3c-0.2-0.4-0.1-0.7-0.6-0.5l0-0.5l-0.2,0l0,0.5
					c0.1,0.2,0.3,0.2,0.4,0.4c0.4,0.1,0.8,0.7,1.1,0.8c0.3-0.1,0.5-0.3,0.6-0.5c0.1,0.5,0.5,0.6,0.5,0.3c0.4,0.2,0.4,0.2,0.8,0l0,0
					l0,0l-1.4-1.1C219.4,271.5,219.1,271.4,219.4,271.5L219.4,271.5z M218.6,272.3c-0.1-0.1,0-0.4,0-0.5c0.2-0.1,0.2-0.1,0.4,0
					l0,0.4C218.9,272.3,218.7,272.5,218.6,272.3L218.6,272.3z"/>
				<path id="path1287" class="st1" d="M211,270.6c-0.5-0.6-0.9-0.2-1.2,0.3c-0.4,0.6-0.5,0.6,0,1.2l0.1-0.1l0.8-1
					C210.8,270.8,210.9,270.8,211,270.6L211,270.6z"/>
				<path id="path1289" class="st1" d="M210.5,272.4c0.3,0.4,0.7,0.3,0.9-0.1l0.2,0.2l0.1,0l0,0l0.1-0.1l0-0.1l0.3-0.4l0.1-0.1
					l0.1-0.2l0-0.1c-0.1-0.1,0.1-0.1-0.2-0.2c-0.3-0.1-0.5,0-0.6,0.2l0-0.8c-0.1,0.1-0.2,0.3-0.4,0.4c-0.1,0.2,0,0-0.1,0.2l-0.1,0.2
					c0.4,0.1,0.4,0.2,0.3,0.6c-0.3,0-0.4,0.1-0.5-0.3l-0.3,0.4C210.5,272.4,210.5,272.4,210.5,272.4L210.5,272.4z M211.7,272
					c0-0.2,0.2-0.2,0.3-0.2l-0.3,0.4C211.8,272.1,211.7,272.3,211.7,272L211.7,272z"/>
				<path id="path1291" class="st1" d="M210.5,272.4L210.5,272.4"/>
				<path id="path1293" class="st1" d="M212.1,260.6l-1.5,0c0.2,0.2,1.8,1.2,2.3,1.2C212.8,261.7,212.2,260.6,212.1,260.6
					L212.1,260.6z"/>
				<path id="path1295" class="st1" d="M215.1,272.5L215.1,272.5L215.1,272.5c0,0,0.1,0.1,0.3,0.1l0-1l-0.4,0c-0.3,0-0.4,0-0.5,0.2
					l-0.1-0.1c-0.2-0.2-0.2-0.1-0.4-0.2c0.2,0.2,0.4,0.4,0.5,0.9l0.1,0.2C214.8,272.7,214.9,272.6,215.1,272.5L215.1,272.5z"/>
				<path id="path1297" class="st1" d="M211.5,272.3c-0.2,0.4-0.6,0.5-0.9,0.1l0,0l0,0c0,0,0-0.1-0.1,0c-0.5,0.3,0.1,1,0.7,0.9
					c0.3-0.6,0.5-0.5,0.6-0.8L211.5,272.3z"/>
				<path id="path1299" class="st1" d="M212.2,271.6c0.3,0.1,0.2,0.1,0.2,0.2l0,0c0.1-0.4,0.2-0.6-0.1-0.9c-0.4-0.3-0.7-0.1-0.8,0.1
					l0,0.8C211.7,271.6,211.9,271.5,212.2,271.6L212.2,271.6z"/>
				<path id="path1301" class="st1" d="M220.1,260.6c-0.1,0.2-0.6,1-0.7,1.1c0.5-0.1,1.6-0.8,1.8-1.1L220.1,260.6z"/>
				<path id="path1303" class="st1" d="M216.2,273c0.3,0,0.2,0,0.2-0.4c0.4,0.1,0.6,0,0.8-0.3c-0.1-0.2-0.1-0.1-0.2-0.1
					c-0.1,0.2-0.2,0.2-0.5,0.1c-0.1-0.2-0.1-0.2,0-0.5l-0.2-0.2C216.2,272,216.1,272.6,216.2,273L216.2,273z"/>
				<path id="path1305" class="st1" d="M215.9,271.5L215.9,271.5c-0.2-0.2,0-0.1-0.2-0.2c-0.4,0.2-0.2,0.5-0.2,0.5
					c0.1,0.3,0,0.5,0.1,0.7c0.2,0,0.3,0.1,0.4,0c0-0.5-0.3,0.2-0.2-0.7C216,271.7,216.2,271.8,215.9,271.5L215.9,271.5z"/>
				<path id="path1307" class="st1" d="M212.6,273c0.1-0.1,0,0,0.1-0.1l0-0.3c0.5,0.1,0.5,0.1,0.8-0.2c0.1,0.1,0.1,0.1,0.3,0.2
					c-0.1-0.3-0.2-0.5-0.5-0.5c-0.1,0.2-0.3,0.4-0.4,0.2l-0.2,0.3l-0.1,0.1l-0.1,0.1C212.4,272.9,212.3,273.1,212.6,273L212.6,273z"
					/>
				<path id="path1309" class="st1" d="M213.2,272.1L213.2,272.1"/>
				<path id="path1311" class="st1" d="M211.2,272.4c0.1-0.3,0.1-0.5-0.3-0.6c-0.1,0.1-0.1,0.1-0.2,0.3
					C210.8,272.5,210.9,272.4,211.2,272.4L211.2,272.4z"/>
				<path id="path1313" class="st1" d="M218.6,271.9c-0.1,0.1-0.2,0.4,0,0.5c0.2,0.2,0.3,0,0.5-0.1l0-0.4
					C218.8,271.8,218.8,271.8,218.6,271.9L218.6,271.9z"/>
				<path id="path1315" class="st1" d="M221.1,272c0.1-0.3,0-0.1,0.2-0.1c0.2,0,0.1,0,0.2-0.2c-0.3-0.1-0.2-0.1-0.6,0l-0.1,0.2
					c0.2,0.2,0.5,0.4,0.7,0.6C221.4,272,221.4,272.1,221.1,272L221.1,272z"/>
				<path id="path1317" class="st1" d="M216.5,272.3c0.3,0.1,0.4,0.1,0.5-0.1l0,0l-0.2-0.2c-0.1-0.1-0.1-0.1-0.3-0.2
					C216.4,272.1,216.4,272.1,216.5,272.3L216.5,272.3z"/>
				<path id="path1319" class="st1" d="M215.2,271.1c0,0-0.1-0.1-0.1,0.2c0,0.2,0,0.1,0.1,0.1l0.3,0l0-0.2L215.2,271.1z"/>
				<path id="path1321" class="st1" d="M213.2,272.1L213.2,272.1c-0.3,0-0.3,0-0.4,0.1l-0.1,0.1
					C212.9,272.5,213.2,272.3,213.2,272.1L213.2,272.1z"/>
				<path id="path1323" class="st1" d="M211.8,272.2l0.3-0.4c-0.1,0-0.3,0-0.3,0.2C211.7,272.3,211.8,272.1,211.8,272.2L211.8,272.2
					z"/>
				<path id="path1325" class="st1" d="M216.4,253.2l0.2,0c1-0.1,4.1,0.1,4.7-0.1c-0.1-0.3-0.1-1.3-0.2-1.8
					c-0.1-0.6-0.2-1.1-0.4-1.6l-4.3-0.1L216.4,253.2z"/>
				<path id="path1327" class="st1" d="M215.7,249.7l-4.2,0l-0.1,0.1c0,0.4-0.2,0.8-0.2,1.2c-0.1,0.4-0.1,0.9-0.2,1.3l0,0.8
					c1.8,0,2.5,0,4.7,0L215.7,249.7z"/>
				<path id="path1329" class="st1" d="M210.7,249.7l-2.8,0c-0.5,1.5-0.7,1.8-0.8,3.5l3.2,0C210.2,251.9,210.4,250.9,210.7,249.7
					L210.7,249.7z"/>
				<path id="path1331" class="st1" d="M222,253.2l2.8,0c-0.1-2-0.4-2.1-0.8-3.5l-2.5,0C221.8,250.9,222,251.9,222,253.2L222,253.2z
					"/>
				<path id="path1333" class="st1" d="M220.1,247.9c-0.2-0.3-0.4-0.7-0.5-1l-3.2,0l0,2.1l4.1,0
					C220.4,248.7,220.2,248.3,220.1,247.9L220.1,247.9z"/>
				<path id="path1335" class="st1" d="M211.7,249.1l4,0l0-2.1l-3,0C212.2,247.5,211.9,248.3,211.7,249.1L211.7,249.1z"/>
				<path id="path1337" class="st1" d="M211.8,246.9c-0.5,0-1,0-1.5,0c-0.4,0-0.4,0-0.6,0.2c-0.1,0.1-0.2,0.2-0.3,0.3
					c-0.4,0.5-0.9,1-1.2,1.6l2.7,0C211.1,248.1,211.6,247.5,211.8,246.9L211.8,246.9z"/>
				<path id="path1339" class="st1" d="M220.9,248c0.1,0.3,0.3,0.8,0.4,1.1l2.3,0c-0.2-0.5-1.3-1.9-1.7-2.1c-0.2-0.1-1.1,0-1.5,0
					C220.5,247.2,220.8,247.7,220.9,248L220.9,248z"/>
				<path id="path1341" class="st1" d="M216.4,246.4l2.7,0c-0.1-0.3-0.8-1.1-1-1.4c-0.2-0.2-0.2-0.2-0.5-0.2
					C216,244.4,216.5,244.5,216.4,246.4L216.4,246.4z"/>
				<path id="path1343" class="st1" d="M215.6,244.6c-0.3,0-1.2,0-1.4,0.2l-0.8,0.9c-0.1,0.2-0.3,0.4-0.4,0.7l2.6,0L215.6,244.6z"/>
				<path id="path1345" class="st1" d="M212.9,245.1c-0.5,0-2.1,1-2.3,1.2l1.5,0C212.2,246.3,212.8,245.3,212.9,245.1L212.9,245.1z"
					/>
				<path id="path1347" class="st1" d="M221.2,246.4c-0.2-0.3-1.4-1-1.8-1.1c0.1,0.1,0.6,0.9,0.7,1.1L221.2,246.4z"/>
			</g>
		</g>
	</g>
</g>
<g id="layer6">
	<g id="layer1-8" transform="matrix(0.16731503,0.04267544,-0.04207155,0.16971668,135.31975,11.728323)">
		<g id="g1049">
			<g id="g1047">
				<path id="path479" class="st1" d="M1740.2,618.8l-4.1-41.6l-78.5,7.5l0.7,7.9l3.4,33.8L1740.2,618.8z"/>
				<path id="path481" class="st1" d="M1588.5,658.9l2.1,20.9l69.3-6.8l-8.7-87.8l-69.3,6.7L1588.5,658.9z"/>
				<path id="path483" class="st1" d="M1662.2,632.6l4,39.9l13.5-1.4l22.7-2.2l-2.2-22.7l-1.7-17.1L1662.2,632.6z"/>
				<path id="path485" class="st1" d="M1715.3,523.3l-90.8,8.7c-68.7,6.6-70.7,0.4-66.8,40.5l10.9,110.6l2.1,20.9l198.4-19.2
					l-7.2-72.4C1752.3,514.8,1762.1,518.9,1715.3,523.3L1715.3,523.3z M1625.7,547.4c4.5-0.4,8.5,2.9,8.9,7.3
					c0.4,4.5-2.8,8.4-7.3,8.9c-4.5,0.4-8.5-2.8-8.9-7.3C1617.9,551.8,1621.2,547.8,1625.7,547.4z M1601.8,549.7
					c4.5-0.4,8.5,2.9,8.9,7.3c0.4,4.5-2.8,8.4-7.3,8.9c-4.5,0.4-8.5-2.8-8.9-7.3C1594.1,554.1,1597.3,550.1,1601.8,549.7z M1578,552
					c4.5-0.4,8.5,2.9,8.9,7.3c0.4,4.5-2.8,8.4-7.3,8.9c-4.5,0.4-8.5-2.8-8.9-7.3C1570.3,556.4,1573.5,552.4,1578,552z M1578.3,694.7
					l-9.3-95.3l-2-19.7l181.4-17.4l11.4,115.1L1578.3,694.7z"/>
				<path id="path487" class="st1" d="M1741.9,636.7l-1.1-11.6l-34.5,3.2l1.1,9.8l1.6,16.6l1.2,13.4l34.5-3.2l-1.3-11.7
					L1741.9,636.7z"/>
				<path id="path1399" class="st1" d="M1740.2,618.8l-4.1-41.6l-78.5,7.5l0.7,7.9l3.4,33.8L1740.2,618.8z"/>
				<path id="path1401" class="st1" d="M1588.5,658.9l2.1,20.9l69.3-6.8l-8.7-87.8l-69.3,6.7L1588.5,658.9z"/>
				<path id="path1403" class="st1" d="M1662.2,632.6l4,39.9l13.5-1.4l22.7-2.2l-2.2-22.7l-1.7-17.1L1662.2,632.6z"/>
				<path id="path1405" class="st1" d="M1715.3,523.3l-90.8,8.7c-68.7,6.6-70.7,0.4-66.8,40.5l10.9,110.6l2.1,20.9l198.4-19.2
					l-7.2-72.4C1752.3,514.8,1762.1,518.9,1715.3,523.3L1715.3,523.3z M1625.7,547.4c4.5-0.4,8.5,2.9,8.9,7.3
					c0.4,4.5-2.8,8.4-7.3,8.9c-4.5,0.4-8.5-2.8-8.9-7.3C1617.9,551.8,1621.2,547.8,1625.7,547.4z M1601.8,549.7
					c4.5-0.4,8.5,2.9,8.9,7.3c0.4,4.5-2.8,8.4-7.3,8.9c-4.5,0.4-8.5-2.8-8.9-7.3C1594.1,554.1,1597.3,550.1,1601.8,549.7z M1578,552
					c4.5-0.4,8.5,2.9,8.9,7.3c0.4,4.5-2.8,8.4-7.3,8.9c-4.5,0.4-8.5-2.8-8.9-7.3C1570.3,556.4,1573.5,552.4,1578,552z M1578.3,694.7
					l-9.3-95.3l-2-19.7l181.4-17.4l11.4,115.1L1578.3,694.7z"/>
				<path id="path1407" class="st1" d="M1741.9,636.7l-1.1-11.6l-34.5,3.2l1.1,9.8l1.6,16.6l1.2,13.4l34.5-3.2l-1.3-11.7
					L1741.9,636.7z"/>
			</g>
		</g>
	</g>
</g>
<g id="layer7">
	<g id="layer1-84" transform="matrix(0.12357026,-0.03380452,0.03332618,0.125344,137.9665,20.055514)">
		<path id="path1241" class="st1" d="M2311.4,1831.4h2.9c2.7-2.7,5-12.3,6.2-16.7c6.6,0.6,2.3,1.8,9.2-6.3c2.8-3.3,4.8-6.1,7.3-9.5
			c8.9-12.2,5.4-6.2,9.8-24c4.1-16.6,35.8-155.5,38.5-163.2l12-0.1c1.4,8-2.9,21.4,7.2,22c10.9,0.7,7.2-13.3,8-21.9
			c2.7-0.1,6.8-0.5,8.8,0.4c1.1,1,35.3,148.2,38.8,163.2c1.1,4.6,2,9.1,3.1,13.6c0.8,3,17.6,25.5,19.7,26.1l1.9,0.1l0.5,0l0.5,0.1
			l0.5,0.1c2.7,8.3,2.7,13.5,6.6,16.2h2.3l1.9-1.6c0.5-4.7-2.6-12.5-3.8-17.1c1.6-1,4.2-1.7,6.7-2.3l-47.6-198.6l27.2-0.2
			c4,5,0.8,7.6,12.3,7.4c3.9-0.1,4.7-0.3,6.5-3.1c3.7-5.7,6-18.8-6.5-19.1c-12.2-0.3-9.2,2.2-13,7.3l-28.3,0
			c-3.2-12.8-6.2-25.4-9.2-38.1c-1.6-6.6-3.8-11-1.9-14.2c3.5-6,6.3-6,9.8-20.7c3.2-13.3-1.3-26.4-8-36.9
			c-6.6-10.4-16.9-15.2-28.8-19l-0.1-49l-22.2,0l0,49.7c-25.9,7.7-40.5,33.9-33.9,57.6c5.4,19.4,12.5,17.7,11.3,23.8l-6.9,28.2
			c-1.4,5.6-3,13.5-4.6,18.7l-32.4-0.1c-3.6-5-0.8-7.8-13.6-7.3c-11.5,0.5-9.7,13.5-5.5,19.5c1.9,2.7,2.8,2.7,6.8,2.7
			c13.1,0.1,7.3-5.5,12.3-7.4l30.4,0.1c0.1,2.8-33.1,139.1-35.4,148.7c-2,8.1-11.4,44.7-11.9,50l6.7,2.1
			C2311.3,1823.6,2307.1,1826.7,2311.4,1831.4L2311.4,1831.4z M2367.1,1541.3c-6.6-11.6-6.2-27.6,0-38.6
			c21.8-38.7,76.9-19.9,75.8,19.9c-0.1,5-2.4,17.6-6.9,20.9l-5-19.5c-5.5,0.6-24.3,7.6-27.8,7.6c-5.5,0-20.5-6.9-27.7-7.7l-5.1,21.4
			L2367.1,1541.3z M2403.1,1536.1l16.4,68.1l-7-0.1c-0.4-8.7,2.6-22.3-7.9-21.9c-9.8,0.4-6.3,13.1-7.1,22l-10.5,0L2403.1,1536.1z"/>
	</g>
</g>
<g id="layer8">
	<g id="layer1-86" transform="matrix(0.195154,0.1526883,-0.15052763,0.19795526,39.579519,-1.1713464)">
		<g id="g6147" transform="matrix(5.1109195,0,0,5.1109195,-149.63976,-246.00728)">
			<path id="path1219" class="st1" d="M147.6,35.3c-0.3-0.3-2.2-1.5-3.4-2.2c0.2-0.8,0.4-1.7,0.5-2.2c0.2-1.5,0.4-7.8,0.4-7.8l2.7,0
				c0.1,0,0.5,0.1,1.1,0.4v0.5L149,24l0.2-0.2v-0.3c0.4,0.2,0.8,0.4,1.3,0.6v0.5l0.2,0.2l0.2-0.2v-0.4c0.4,0.2,0.9,0.4,1.4,0.6v0.4
				l0.2,0.2l0.2-0.2V25c0.2,0.1,0.5,0.2,0.7,0.3v0.5l0.2,0.2l0.2-0.2v-0.4c2.5,1.2,5,2.3,5.1,2.2c0.2-0.1-0.5-1.9-0.8-2.3
				c-0.1-0.2-3.4-2.3-6.6-4.3l0-1.6c0-0.5-0.4-1-1-1c-0.5,0-1,0.4-1,1v0.3c-2.4-1.5-4.2-2.8-4.2-2.8s0.2-3.7,0.2-7.4
				c0-3.8-4.1-3.8-4.1,0c0,3.8,0.2,7.4,0.2,7.4s-1.8,1.3-4.2,2.8v-0.3c0-0.5-0.4-1-1-1c-0.5,0-1,0.4-1,1v1.6c-3.2,2-6.5,4.1-6.6,4.3
				c-0.3,0.3-1,2.1-0.8,2.3c0.1,0.1,2.5-1,5.1-2.2v0.4l0.2,0.2l0.2-0.2v-0.5c0.2-0.1,0.5-0.2,0.7-0.3v0.2l0.2,0.2l0.2-0.2v-0.4
				c0.5-0.2,0.9-0.4,1.4-0.6v0.4l0.2,0.2l0.2-0.2v-0.5c0.5-0.2,0.9-0.4,1.3-0.6v0.3l0.2,0.2l0.2-0.2v-0.5c0.6-0.2,0.9-0.4,1.1-0.4
				c0.8,0,2.7,0,2.7,0s0.2,6.3,0.4,7.8c0.1,0.6,0.3,1.4,0.5,2.2c-1.2,0.8-3.1,2-3.4,2.2c-0.5,0.4-0.9,0.7-0.9,1
				c0,0.3-0.2,0.8,0.1,0.8c0.2,0,3.7-1.2,4.9-1.6c0.1,0.2,0.2,0.4,0.2,0.4s0.1-0.1,0.2-0.4c1.2,0.4,4.7,1.6,4.9,1.6
				c0.2,0,0.1-0.5,0.1-0.8C148.5,36,148.1,35.7,147.6,35.3L147.6,35.3z"/>
			<path id="path1221" class="st1" d="M140.9,30.1l-17.1,0l1.2,1.7l15.8,0V30.1z"/>
			<path id="path1223" class="st1" d="M145.8,30.1v1.7l15.8,0l1.2-1.7L145.8,30.1z"/>
		</g>
	</g>
</g>
<g id="layer9">
	<g id="layer1-39" transform="matrix(0.22181601,0,0,0.225,2.5439162,23.83793)">
		<g id="layer1-1" transform="translate(93.515089,-283.74252)">
			<path id="path1237" class="st1" d="M346.6,712.1c-9.4-0.6-17.8,3.3-23.1,10l-16.8-12.4c3.6-6.2,5.6-13.5,5.6-21.4
				c0-4-0.5-7.9-1.5-11.7l37.4-10.2c2.4,3.7,6.4,6.3,10.9,6.6c7.3,0.5,13.2-5,13.2-12.3c0-7.3-5.9-13.6-13.2-14
				c-7.3-0.5-13.2,5-13.2,12.3c0,1.6,0.3,3.1,0.8,4.5l-36.9,10.1c-3.6-10.6-10.8-19.6-20.1-25.6l8.1-15c1.4,0.6,2.9,1,4.4,1.1
				c7,0.5,12.7-4.8,12.7-11.9c0-7-5.7-13.1-12.7-13.6c-7-0.5-12.7,4.8-12.7,11.9c0,4.3,2.2,8.3,5.5,10.8l-8.1,15
				c-5.9-3.2-12.4-5.2-19.4-5.7c-19.7-1.3-36.4,10.3-42.4,27.6l-23.6-8.7l0.2-2.2c0-7.3-5.9-13.6-13.2-14c-7.3-0.5-13.2,5-13.2,12.3
				c0,7.3,5.9,13.6,13.2,14c5.4,0.3,10-2.6,12-7.1l23.6,8.6c-0.9,3.6-1.5,7.3-1.5,11.2c0,12.4,5,23.9,13.2,32.5l-19.5,19.7
				c-2.9-2.5-6.6-4-10.5-4.3c-9.5-0.6-17.3,6.6-17.3,16.1c0,9.5,7.7,17.8,17.3,18.4c9.6,0.6,17.3-6.6,17.3-16.1
				c0-4.4-1.7-8.6-4.4-11.8l19.5-19.7c7.8,7.3,18.1,12.1,29.2,12.8c15.7,1,29.5-6.1,37.5-17.8l16.7,12.3c-2.6,4.2-4.1,9.1-4.1,14.6
				c0,16,13,29.8,29,30.9c16,1.1,29-11,29-27C375.5,727,362.5,713.2,346.6,712.1L346.6,712.1z M276.5,649.4l-1.7,0.3l-2,0.5
				c-1.4,0.3-2.9,0.6-4.6,1.2c-0.8,0.3-1.7,0.5-2.6,0.8c-0.8,0.4-1.7,0.7-2.6,1.1c-1.8,0.6-3.6,1.7-5.5,2.6
				c-1.7,1.1-3.7,2.1-5.4,3.5c-1.8,1.2-3.4,2.7-5.1,4.1c-1.5,1.6-3.1,3.1-4.4,4.8c-1.5,1.6-2.6,3.4-3.8,5.1c-1,1.9-2.2,3.5-2.9,5.3
				c-0.4,0.9-0.8,1.7-1.2,2.6c-0.3,0.9-0.7,1.7-1,2.5c-0.7,1.6-1.1,3.1-1.5,4.5l-0.6,1.9l-0.4,1.7c-0.5,2-0.8,3.2-0.8,3.2
				s-0.2-1.2-0.4-3.4l-0.2-1.8l0-2.1c0-0.8,0-1.6,0-2.4c0-0.9,0.2-1.7,0.3-2.7c0.1-0.9,0.3-1.9,0.4-2.9c0.3-1,0.6-2,0.9-3
				c0.5-2.1,1.5-4.1,2.4-6.3c1.2-2,2.2-4.2,3.8-6.1c1.4-2,3.2-3.8,4.9-5.6c1.9-1.6,3.8-3.3,5.9-4.5c2-1.4,4.3-2.4,6.4-3.4
				c2.2-0.8,4.3-1.6,6.5-2c1-0.2,2.1-0.5,3.1-0.6c1-0.1,2-0.2,2.9-0.3c1,0,1.8-0.2,2.7-0.2c0.9,0,1.7,0.1,2.5,0.1l2.1,0.1l1.8,0.3
				c2.1,0.4,3.3,0.7,3.3,0.7S278.6,649.1,276.5,649.4L276.5,649.4z"/>
		</g>
	</g>
</g>
<g id="layer10">
	<g id="layer1-5" transform="matrix(0.21843018,-0.07414779,0.07309854,0.22156555,71.861648,-1.6582651)">
		<path id="path281" class="st1" d="M1122.3,941c-12.1-16.4-12.1-45.1,0-61.4C1102.4,893.4,1102.4,927.2,1122.3,941z"/>
		<path id="path283" class="st1" d="M1093.5,866.2c-26.9,22-26.9,66.2,0,88.2C1078.5,930.3,1078.5,890.3,1093.5,866.2z"/>
		<path id="path285" class="st1" d="M1109.4,872c-23.3,18.4-23.3,58.2,0,76.6C1096.2,928.2,1096.2,892.3,1109.4,872z"/>
		<path id="path287" class="st1" d="M1253.1,866.2c15,24.1,15,64.1,0,88.2C1280,932.4,1280,888.2,1253.1,866.2z"/>
		<path id="path289" class="st1" d="M1224.3,879.6c12.1,16.4,12.1,45.1,0,61.4C1244.3,927.2,1244.3,893.4,1224.3,879.6z"/>
		<path id="path291" class="st1" d="M1237.2,872c13.2,20.4,13.2,56.2,0,76.6C1260.5,930.2,1260.5,890.4,1237.2,872z"/>
		<path id="path293" class="st1" d="M1211.8,884.7c0-3-2.5-5.5-5.5-5.5l-66.1,0c-3,0-5.5,2.5-5.5,5.5l0,49.2l77,0L1211.8,884.7z
			 M1204,923.6c0,2.1-1.7,3.7-3.7,3.7l-53.8,0c-2.1,0-3.7-1.7-3.7-3.7v-33.9c0-2.1,1.7-3.7,3.7-3.7l53.8,0c2.1,0,3.7,1.7,3.7,3.7
			V923.6z"/>
	</g>
</g>
<g id="layer11">
	<g id="layer1-15" transform="matrix(0.16,0,0,0.16229668,39.927295,12.197403)">
		<g id="g6102" transform="matrix(6.9663027,0,0,6.9663027,-279.52584,-1484.2359)">
			<g id="g6097">
				<path id="path1133" class="st1" d="M185.5,354l1-1.4c0.2,0,0.3,0.1,0.5,0.1c1.2,0,2.2-1,2.2-2.2c0-1.2-1-2.2-2.2-2.2
					c-1.2,0-2.2,1-2.2,2.2c0,0.4,0.1,0.8,0.3,1.1l-1,1.4c-5-3.4-10.8-5.5-14.5-4.3c-0.7,0.2-0.7,0.2-1.1,0.8
					c-12.7,18.2,12.4,34,25.1,18C194.5,363.1,190.6,357.9,185.5,354L185.5,354z M168.5,353.1c-1.7,4.9-0.1,12,3.5,15.8
					C166.4,366,164.6,358.1,168.5,353.1z M170.9,351c4.9,0.2,8.7,1.7,11.8,4.1l-1.9,2.7c-0.3,0.4-0.2,0.9,0.2,1.2
					c0.4,0.3,0.9,0.2,1.2-0.2l1.8-2.6c2.8,2.5,4.5,4.4,7.1,9.7C180.6,364,173.3,359.6,170.9,351L170.9,351z"/>
				<path id="path1135" class="st1" d="M179.4,375.9c-3.6-0.8-6.1-2.3-8.8-3.8c-2.9,0.9-4.1,2.9-4.1,5.7l14.8,0.2
					C180.5,377.5,180.4,376.1,179.4,375.9L179.4,375.9z"/>
			</g>
		</g>
	</g>
</g>
<g id="layer12">
	<g id="layer1-95" transform="matrix(0.2024644,-0.14255851,0.14054114,0.20537057,132.25972,0.50565796)">
		<path id="path207" class="st1" d="M1388.9,1226.5c-3.3,0-6-2.7-6-6c0-2.6,1.7-4.9,4-5.7v-3c-14.9-0.1-29.7-1.1-44.6-2.9
			c0-16,18.2-29.1,41.6-30.8v-2l-17.4,0v-5h2.8l0-57.7h-2.8v-13.6h2.8l39,0h2.8v13.6h-2.8l0,57.7h2.8v5h-17.4v2
			c23.4,1.7,41.6,14.8,41.6,30.8c-14.9,1.9-29.7,2.8-44.6,2.9v3c2.4,0.8,4,3.1,4,5.7C1394.9,1223.8,1392.2,1226.5,1388.9,1226.5z
			 M1488.9,1121.8l-38.6,0l0,39l38.6,0L1488.9,1121.8z M1448.6,1121.8l-37,0v39h37V1121.8z M1288.9,1121.8l38.6,0l0,39l-38.6,0
			V1121.8z M1329.2,1121.8h37v39l-37,0L1329.2,1121.8z"/>
	</g>
</g>
<g id="layer13">
	<g id="layer1-81" transform="matrix(0.22500001,0.00608288,-0.00557618,0.22819048,6.8641121,13.702037)">
		<path id="path1231" class="st1" d="M361.4,769.2c4.2,0.9,8.4,2.1,12.5,3.6c-6.3-6.5-11.4-13.3-15.7-20.1c3.8,0.8,7.5,1.8,11.2,3.2
			c-7.2-7.4-12.6-15.2-16.9-23c3,0.6,6.1,1.4,9,2.5c-10.7-11-15.8-23.3-19.5-33.9c-5.4,16.2-11.5,26.8-18.2,33.9
			c2.6-0.9,5.1-1.6,7.6-2.1c-4.6,9-9.4,16-14.5,21.6c-6.3-7-11.6-14.2-16.1-21.5c4.8,1,9.6,2.4,14.4,4.1
			c-9.2-9.5-16.2-19.5-21.6-29.5c3.9,0.7,7.8,1.8,11.6,3.2c-13.7-14.1-20.3-29.9-25.1-43.5c-6.9,20.8-14.8,34.4-23.4,43.5
			c3.3-1.2,6.6-2.1,9.8-2.7c-6.2,12.3-12.9,21.7-19.8,29.1c4.3-1.5,8.5-2.8,12.7-3.7c-4.8,8.3-9.7,15.4-14.9,21.4
			c-6.8-7.2-12-14.7-16.1-22.2c3,0.6,6.1,1.4,9,2.5c-10.7-11-15.8-23.3-19.5-33.9c-5.4,16.2-11.5,26.8-18.2,33.9
			c2.6-0.9,5.1-1.6,7.6-2.1c-4.9,9.5-10,16.9-15.4,22.6c3.3-1.2,6.6-2.2,9.9-2.9c-4.6,8-9.4,14.5-14.5,19.8
			c3.7-1.3,7.3-2.4,10.9-3.2c-5.6,9.8-11.5,17.7-17.6,24.2c26.2-9.4,51.4-8.9,75.9,0c-3.8-3.9-7.2-7.9-10.4-11.9
			c23.4-6,46.3-5.9,68.6-0.3c-3.3,4.6-6.6,8.6-10,12.2c26.2-9.4,51.4-8.9,75.9,0C372.9,785.8,366.6,777.5,361.4,769.2L361.4,769.2z
			 M325.9,753c-3.6,6.2-7.2,11.4-11,16c-3.6-4.8-6.9-9.6-9.9-14.4c5.4,1.2,10.7,2.7,16,4.6c-1.2-1.3-2.4-2.5-3.6-3.8
			C320.3,754.4,323.1,753.6,325.9,753L325.9,753z M254.8,755c-2.9,5-5.8,9.6-8.7,13.8c-4.7-5.3-8.7-10.7-12.1-16.2
			c3.4,0.7,6.8,1.7,10.1,2.8c-1.1,1.3-2.2,2.5-3.3,3.7C245.5,757.5,250.2,756.1,254.8,755z M237.3,769.2c2.4,0.5,4.9,1.2,7.3,1.9
			c-1.1,1.5-2.1,2.9-3.2,4.3C239.9,773.3,238.6,771.2,237.3,769.2L237.3,769.2z M316.5,771.1c1.9-0.6,3.9-1.1,5.8-1.5
			c-1,1.7-2,3.4-3,5.1C318.4,773.4,317.5,772.3,316.5,771.1L316.5,771.1z"/>
	</g>
</g>
<g id="layer14">
	<g id="layer1-6" transform="matrix(0.19716983,0,0,0.2,147.5865,-12.931659)">
		<g id="g1551">
			<g id="g1549">
				<g id="g6067" transform="matrix(0.26340049,0,0,0.26340049,6.5110673,177.73342)">
					<path id="path1141" class="st1" d="M9188.1,1673.8c-5.2-2.5-39.5-17.9-44.7-20.4c2.9-13.4,5-26.9,6.1-40.3
						c24.5-10.7,49.3-21.8,74.5-33c-1.3-18.2-2.7-36.3-3.9-54.3c-12.2-0.1-24.2-0.2-36.2-0.2c-25.8-1.5-1.5-1.5-26.5-0.2
						c-4.3,0-8.6-0.1-12.8-0.1c-2.9-13.3-6.6-26.1-11.5-38.4c18.9-18.1,37.8-36.3,57-54.6c-8.6-13.7-17.2-27.2-25.7-40.6
						c-15.6,6.2-30.8,12.2-46.2,18.3c-21.4,5.5-2-2.9-20.8,8.3l-4.2,1.6c-7.2-8.3-15.1-16-23.4-23.2c11.3-21.2,22.6-42.6,33.9-63.8
						c-13.4-7.4-26.6-14.7-39.6-21.8c-15,12.6-29.9,25-44.7,37.4c-29.3,2.9-1.4-2-30.9,4.7c-5.3-1.6-10.8-3-16.2-4.2
						c2.4-20,4.8-39.8,7.2-59.7c-15.4-0.7-30.5-1.3-45.6-2.1c-11.1,17.5-22.3,35-33.4,52.4c-23.4,4.4-2.4-1.7-24.2,6.8
						c-3.9,0.6-7.9,1.1-11.8,1.8c-4.9-16.3-9.7-32.5-14.4-48.6c-15.1,5-30,9.9-44.7,14.7c-5,19-10,38-15.1,57
						c-6.2,2.8-12.4,5.7-18.4,8.8l-12.6,6.7l-3.4,1.8c-10.7-10.8-21.2-21.5-31.6-32c-13,9.5-25.8,18.8-38.5,28.2
						c1.7,16.6,3.5,33.4,5.2,50.4c-8.7,7.8-17.2,15.8-25.3,24.4c-14.6-4.8-29-9.4-43.1-14.1c-9.7,12.5-19.5,25-29.2,37.3
						c7.5,12.9,15.3,25.9,23.1,39.2c-7,10.8-13.4,22-19.2,33.3c-16.4,2.1-32.6,4.1-48.6,6.2c-5.6,14.2-11.3,28.5-17,42.7
						c12.1,7.6,24.6,15.3,37.1,23.1c-3,10.8-5.5,21.6-7.4,32.4c-16.5,8.4-32.7,16.8-48.8,25c-1.2,14.7-2.3,29.3-3.3,44.1
						c15.5,1.5,31.3,2.9,47.2,4.5l0.9,10c0,0,0.6,6.3,0.6,6.3c0.7,6.1,1.5,12.2,2.6,18.2c-14.4,14.7-28.7,29.2-42.8,43.5
						c4,13.4,8.1,26.8,12.3,40.4c17.2-5.6,34.5-11.3,52.2-17.2c2.3,4.5,4.6,8.9,7.1,13.2c6.1,14.3,6.1,14.2,5.8,17.7
						c-9.5,18.1-19,36.1-28.5,54.1c9.1,10.4,18.4,21,27.8,31.6c16.6-13.1,33.4-26.4,50.3-39.7c4.9,3.8,9.9,7.3,15.1,10.7l0.3-0.3
						l6,4.1c7.6,5.2,0,0.1,7.6,5.2l-2.3,14.9c-2.6,17.2-5.3,34.5-8,51.8c14,5.3,28.1,10.7,42.5,16c12.7-19.5,25.4-39.2,38.3-59.1
						c11.2,1.9,22.7,3.2,34.3,3.7l2.1,9.4c-0.7,15.7-2.3,2.4,3.3,14.9c3.2,14.2,6.3,28.4,9.5,42.8c17-1.3,34.1-2.8,51.6-4.3
						c5.8-24,11.5-47.9,17.2-71.9c13.9-3.5,27.8-8,41.6-13.5c3.2,4.1,6.6,8.3,9.9,12.4c6.9,15.8-2.4,3.3,12.6,15.8
						c7,8.7,13.8,17.2,20.8,26c17.2-9.3,34.5-18.5,51.9-27.9c-4.1-24.5-8.2-48.6-12.1-72.5c11.7-8.5,22.8-17.7,33.6-27.5
						c21.9,10,44.3,20.2,67.2,30.5c13.7-15.6,27.5-31.3,41.2-47c-14.5-20.1-28.9-39.8-43-59.3c9.2-13.5,17.4-27.5,24.7-41.9
						c25.6-0.9,51.6-1.9,78.2-3c6.4-18.2,12.8-36.3,19.3-54.6C9221.7,1690.9,9211.1,1685.2,9188.1,1673.8z M9006.7,1636.2
						c-9.4,53.7-40.2,103.4-81.4,138.1c-40.5,34.3-91.1,53.6-138.9,50.8c-50-7.4-54.1-22.5-60.6-17.3
						c-18.4-10.4-33.5-24.9-44.7-42.5c-21.1-32.9-28.4-77.3-18-124.3c10.4-47,36.5-89.4,70.8-121.3c34.9-32.4,78.3-54.4,125-58.3
						c46.8-3.8,88.4,12.6,115.6,43.2C9002.7,1536.3,9016.1,1582.5,9006.7,1636.2z"/>
					<path id="path1143" class="st1" d="M8900.5,1339.8c-1.9-6.5-3.9-13-5.8-19.5l-23.9,7.9c1.8,6.1,3.6,12.2,5.5,18.4
						c7.1-1.1,14.3-1.9,21.4-2.4L8900.5,1339.8z"/>
					<path id="path1145" class="st1" d="M9019.4,1348.7c1.6-12.9,3.1-25.8,4.7-38.7c-10.2-0.5-20.3-0.9-30.2-1.4
						c-1.8,14.9-3.6,29.8-5.4,44.8c6.2,1.8,12.2,3.8,18.1,6.1C9010.9,1356,9015.2,1352.3,9019.4,1348.7L9019.4,1348.7z"/>
					<path id="path1147" class="st1" d="M8589.2,1847.9c-6.7,2.2-13.4,4.4-20.1,6.6l5.5,17.9c6.8-2.2,13.6-4.5,20.4-6.7l2.4-4.6
						C8594.6,1856.8,8591.8,1852.4,8589.2,1847.9L8589.2,1847.9z"/>
					<path id="path1149" class="st1" d="M9148.4,1353.6c-13.4-7.4-26.6-14.7-39.6-21.8l-4.3,3.6l14.7,8.1
						c-11.3,21.2-22.6,42.5-33.9,63.8c4.2,3.6,8.3,7.3,12.2,11.1c6.8-2.7,13.9-5.5,20.8-8.2
						C9128.3,1391.4,9138.4,1372.4,9148.4,1353.6L9148.4,1353.6z"/>
					<path id="path1151" class="st1" d="M9177.8,1507.5c18.9-18,37.9-36.2,56.9-54.5c-8.6-13.7-17.2-27.3-25.7-40.6l-18.2,7.3
						c4.9,7.7,9.8,15.5,14.7,23.3c-19.1,18.3-38,36.5-56.9,54.6c3.6,9,6.4,18.5,8.9,28.1c8.8,0,17.6,0,26.5,0.1
						C9182.1,1519.5,9180.1,1513.4,9177.8,1507.5L9177.8,1507.5z"/>
					<path id="path1153" class="st1" d="M8759.6,1965.4c-12.7,19.6-25.2,39.1-37.8,58.3c9.5,3.6,19,7.2,28.7,10.8
						c11.1-17.1,22.2-34.3,33.4-51.6c-1.1-4.9-2.2-10-3.3-14.9C8773.5,1967.4,8766.5,1966.6,8759.6,1965.4L8759.6,1965.4z"/>
					<path id="path1155" class="st1" d="M8877.8,1960c-5.7,23.9-11.5,47.9-17.2,71.9c-8.5,0.8-16.9,1.4-25.2,2.2l2.7,12.2
						c17-1.3,34.2-2.8,51.6-4.3c5.8-24,11.6-47.9,17.2-71.9c6.5-1.7,13-3.7,19.5-5.8c-4.2-5.2-8.5-10.6-12.7-15.8
						C8901.9,1953.1,8889.9,1957,8877.8,1960L8877.8,1960z"/>
					<path id="path1157" class="st1" d="M8551.3,1737.6l-1.6,23.5l12.8,1.2l-2-24L8551.3,1737.6z"/>
					<path id="path1159" class="st1" d="M8772.3,1374.5L8758,1385l2,2c5.3-3,10.7-5.9,16.1-8.6L8772.3,1374.5z"/>
					<path id="path1161" class="st1" d="M9036,1873c-10.7,9.8-21.9,19-33.6,27.5c4,23.9,8.1,48,12.1,72.4l-37.1,20l14.4,18
						c17.2-9.2,34.5-18.5,51.9-27.8c-4.1-24.5-8.1-48.6-12.1-72.5c10.8-7.9,21.2-16.4,31.2-25.3
						C9053.8,1881.1,9044.9,1877,9036,1873z"/>
					<path id="path1163" class="st1" d="M8667.4,1924.9l-6.4-3.8c-12.7,10-25.4,20-38,29.9c5.7,6.5,11.4,13,17.2,19.5
						c10.8-8.5,21.6-17,32.5-25.6c0.8-4.9,1.5-10,2.3-14.9L8667.4,1924.9z"/>
					<path id="path1165" class="st1" d="M9194.1,1633.6c24.5-10.7,49.3-21.8,74.5-33c-1.3-18.2-2.6-36.3-3.8-54.3l-28.5-0.2
						c1,14.7,2.1,29.5,3.2,44.4c-25.2,11.2-50,22.2-74.5,33c-0.9,12.5-3,25.1-5.5,37.6c16.4,7.8,32.8,15.7,49.7,23.8l-0.9,2.6
						c5.5,2.6,10.8,5.1,16.4,7.8c-6.9,19.1-13.5,38-20.2,57.1c-26.6,1.1-52.6,2.1-78.2,3c-7.3,14.3-15.5,28.4-24.7,41.9
						c14.1,19.4,28.5,39.2,43,59.3c-13.1,14.9-26.2,29.8-39.2,44.8l27.2,12.3c13.7-15.6,27.4-31.3,41.2-47
						c-14.6-20.1-28.9-39.9-43-59.3c9.2-13.5,17.4-27.6,24.7-41.9c25.6-1,51.6-1.9,78.2-3c6.7-19.1,13.4-38,20.2-57.1
						c-22.4-10.6-44.3-21.1-65.7-31.4C9190.9,1660.4,9193.1,1646.9,9194.1,1633.6L9194.1,1633.6z"/>
					<path id="path1167" class="st1" d="M8725.8,1785.8c-21.1-32.9-28.4-77.3-18-124.3c10.4-47.1,36.5-89.4,70.8-121.3
						c34.8-32.4,78.3-54.5,125-58.3c16.2-1.3,31.7-0.2,46.3,3.1c-22.1-10.6-47.9-15.4-75.5-13.1c-46.8,3.8-90.2,25.9-125,58.3
						c-34.3,31.9-60.4,74.3-70.8,121.3c-10.4,47-3.1,91.4,18,124.3c7.9,12.3,17.7,23.1,29.3,32.1c10,5.7,21.1,10,33.1,12.9
						C8745.7,1811.2,8734.5,1799.5,8725.8,1785.8L8725.8,1785.8z"/>
				</g>
			</g>
		</g>
	</g>
</g>
<g id="layer15">
	<g id="layer1-2" transform="matrix(0.14999874,0,0,0.15215186,70.966208,-0.01658045)">
		<g id="g6421" transform="translate(186.72024,-107.34524)">
			<path id="path1353" class="st1" d="M1398.4,289.2c-14.6,0-26.5,11.9-26.5,26.5c0,14.6,11.9,26.5,26.5,26.5
				c14.6,0,26.5-11.9,26.5-26.5C1424.9,301,1413,289.2,1398.4,289.2z"/>
			<path id="path1355" class="st1" d="M1467.8,309.4c-0.7-4.8-2.8-10.9-4.5-15.3c-1-2.5-2-4.5-3.2-6.7
				c-7.4-13.6-17.1-22.3-29.9-29.7l-3.3-1.7c-2.3-1.2-4.3-2-6.8-3.1c-1.2-0.5-2.4-0.9-3.6-1.4c-2.1-0.8-7.4-2.4-9.7-2.9l-1.9-0.5
				c-1.2-0.4-2.9-0.5-4.1-0.8c-1.5-0.4-3.6-0.5-4.3-0.7c-1.3-0.3-2.9-0.5-4.2-0.7c-0.7-0.1-3.5-0.3-5.8-0.5H1365
				c-2.6,0.3-6.1,0.7-8.4,1.1c-1.8,0.4-3.8,0.8-5.6,1.2l-10.4,3.1c-1.6,0.6-3.2,1.3-4.7,1.9c-14.4,6.3-28.2,18.5-35,32.6
				c-1.6,3.2-1.8,3.8-3.1,7.2l-0.9,2.4c-0.8,2.7-2.4,8.1-2.6,10.9c-0.1,1.2-0.3,1.9-0.3,3.2c0,3.8,0.5,5,1.7,8.4l-0.3,1.2l-2.1,3
				c-4.1,5.7-10.3,13.2-14.9,18.8c-2.8,3.4-6.1,7.9-8.4,11.9c-2.2,3.8-1.8,4-1.8,8.2l0.6,1.2c1,1.4,2.8,2.5,4.3,3.3l3.4,1.7l4.4,0.7
				l1.1,0.2c4.8,1.6,2.3,5.1,1.6,7.8c-0.4,1.6-0.2,1.9-1,3.3c-1.2,2-4.3,4.4-2.2,7.6l0,0.1l0.1,0.1l1.9,1.9l1.2,1.1
				c1,0.8,2,1.1,0.8,2.6l-2.2,2.5c-2.6,3.1-1.1,3.7,0.8,5.9c1.2,1.4,3.1,3.4,3.7,5.7c0.7,2.8-0.6,5.3-1.4,7.5
				c-1.6,4.8-4,10.3-1.5,15.1c1.8,3.7,5.9,7.2,10,8.7c3,1.2,4.1,1.3,7.9,1.3c9.4,0,18.6,0.3,27.9,0.2l1.7,0.6
				c2.3,2.6,4.1,8.3,4.8,11.5l2.7,14.1h108.5l-1.7-8.9c-0.4-1.9-1-6.7-1.4-8c-0.3-0.9-1.3-7.9-1.6-9.4l-2-14.4
				c-0.1-1.7-0.3-3.3-0.5-5l-0.4-5.1c-0.2-5.7-0.8-9.3,1-15c1.5-4.8,4.8-10.5,7.5-14.5l6.7-9.7c0.7-1.2,1.4-2.1,2.2-3.3
				c4-6.6,4.2-8,6.8-15.2l1.9-6.4l0.6-2.1l0.5-2.2l0.4-2.3c0.4-1.5,0.6-3,0.9-4.6l0.2-1.9v-26L1467.8,309.4z M1449.8,329.2l-9.3,0.6
				c-0.6,1.8-1.4,3.6-2.2,5.4l6.3,7l-4,6l-8.9-3.1c-1.2,1.3-2.4,2.6-3.7,3.7l3.1,8.7l-6,4.1l-7-6.1c-1.7,0.9-3.5,1.6-5.4,2.2
				l-0.5,9.3l-7.1,1.4l-4-8.4c-1.7,0.1-3.5,0.1-5.2,0l-4,8.4l-7.1-1.4l-0.6-9.3c-1.8-0.6-3.6-1.4-5.4-2.2l-7,6.3l-6-4l3.1-8.9
				c-1.3-1.1-2.6-2.4-3.7-3.7l-8.7,3.1l-4.1-6l6.1-7c-0.9-1.7-1.6-3.5-2.2-5.4l-9.3-0.5l-1.4-7.1l8.4-4.1c-0.1-1.7-0.1-3.5,0-5.2
				l-8.4-4l1.4-7.1l9.2-0.6c0.6-1.8,1.4-3.6,2.2-5.4l-6.3-7l4-6l8.9,3.1c1.1-1.3,2.4-2.6,3.7-3.7l-3.1-8.7l6-4.1l7,6.1
				c1.7-0.9,3.5-1.6,5.3-2.2l0.5-9.3l7.1-1.4l4.1,8.3c1.7-0.1,3.5-0.1,5.2,0l4-8.4l7.1,1.4l0.6,9.3c1.8,0.6,3.6,1.4,5.4,2.2l7-6.3
				l6,4l-3.1,8.9c1.3,1.1,2.6,2.4,3.7,3.7l8.8-3.1l4.1,6l-6.1,7c0.9,1.7,1.6,3.5,2.2,5.4l9.3,0.5l1.4,7.1l-8.3,4.1
				c0.1,1.7,0.1,3.5,0,5.2l8.4,4L1449.8,329.2z"/>
		</g>
	</g>
</g>
<g id="layer16">
	<g id="layer1-0" transform="matrix(0.12769306,0.01713552,-0.01578648,0.12894995,158.68873,8.1866851)">
		<g id="g7754" transform="matrix(8.4430222,0,0,8.4430222,366.54537,-2707.3927)">
			<path id="path493" class="st1" d="M343.3,425.2h2.9c0.3,0.9,1.1,1.5,2.1,1.5l6.5,0c1,0,1.8-0.6,2.1-1.5h2.9
				c0.6,0,1.1-0.5,1.1-1.1c0-0.5-0.4-1-0.9-1l0-0.2c0-3.2-1.8-5.9-4.4-7.3v4.8c0,0.4-0.3,0.7-0.7,0.7c-0.4,0-0.7-0.3-0.7-0.7V415
				c-0.6-0.2-1.3-0.3-1.9-0.4l0,6.5c0,0.4-0.3,0.7-0.7,0.7c-0.4,0-0.7-0.3-0.7-0.7l0-6.5c-0.7,0.1-1.3,0.2-1.9,0.4l0,5.4
				c0,0.4-0.3,0.7-0.7,0.7s-0.7-0.3-0.7-0.7v-4.8c-2.6,1.4-4.4,4.2-4.4,7.3l0,0.2c-0.5,0.1-0.9,0.5-0.9,1
				C342.2,424.7,342.7,425.2,343.3,425.2L343.3,425.2z"/>
			<path id="path495" class="st1" d="M351.5,433.2c-2.1,0-4-0.9-4.9-2.3h0l0,7.2l9.8,0v-7.2h0C355.4,432.3,353.6,433.2,351.5,433.2
				L351.5,433.2z"/>
			<path id="path497" class="st1" d="M344.5,431.1c-3,2.3-4.6,5.9-5,10.8l5,0L344.5,431.1z"/>
			<path id="path499" class="st1" d="M358.3,431.1l0,10.8l5,0C363,437.1,361.3,433.5,358.3,431.1L358.3,431.1z"/>
			<path id="path501" class="st1" d="M359.4,446.9c0-1,0.8-1.8,1.8-1.8h1.9c-0.6-1-1.8-1.7-3-1.7c-1.3,0-2.4,0.7-3,1.7l-15.7,0
				c-1,0-1.8,0.8-1.8,1.8c0,1,0.8,1.8,1.8,1.8l15.6,0c0.6,1.1,1.8,1.8,3.1,1.8c1.3,0,2.5-0.7,3.1-1.8l-2,0
				C360.3,448.8,359.4,447.9,359.4,446.9L359.4,446.9z"/>
			<path id="path1413" class="st1" d="M343.3,425.2h2.9c0.3,0.9,1.1,1.5,2.1,1.5l6.5,0c1,0,1.8-0.6,2.1-1.5h2.9
				c0.6,0,1.1-0.5,1.1-1.1c0-0.5-0.4-1-0.9-1l0-0.2c0-3.2-1.8-5.9-4.4-7.3v4.8c0,0.4-0.3,0.7-0.7,0.7c-0.4,0-0.7-0.3-0.7-0.7V415
				c-0.6-0.2-1.3-0.3-1.9-0.4l0,6.5c0,0.4-0.3,0.7-0.7,0.7c-0.4,0-0.7-0.3-0.7-0.7l0-6.5c-0.7,0.1-1.3,0.2-1.9,0.4l0,5.4
				c0,0.4-0.3,0.7-0.7,0.7s-0.7-0.3-0.7-0.7v-4.8c-2.6,1.4-4.4,4.2-4.4,7.3l0,0.2c-0.5,0.1-0.9,0.5-0.9,1
				C342.2,424.7,342.7,425.2,343.3,425.2L343.3,425.2z"/>
			<path id="path1415" class="st1" d="M351.5,433.2c-2.1,0-4-0.9-4.9-2.3h0l0,7.2l9.8,0v-7.2h0C355.4,432.3,353.6,433.2,351.5,433.2
				L351.5,433.2z"/>
			<path id="path1417" class="st1" d="M344.5,431.1c-3,2.3-4.6,5.9-5,10.8l5,0L344.5,431.1z"/>
			<path id="path1419" class="st1" d="M358.3,431.1l0,10.8l5,0C363,437.1,361.3,433.5,358.3,431.1L358.3,431.1z"/>
			<path id="path1421" class="st1" d="M359.4,446.9c0-1,0.8-1.8,1.8-1.8h1.9c-0.6-1-1.8-1.7-3-1.7c-1.3,0-2.4,0.7-3,1.7l-15.7,0
				c-1,0-1.8,0.8-1.8,1.8c0,1,0.8,1.8,1.8,1.8l15.6,0c0.6,1.1,1.8,1.8,3.1,1.8c1.3,0,2.5-0.7,3.1-1.8l-2,0
				C360.3,448.8,359.4,447.9,359.4,446.9L359.4,446.9z"/>
		</g>
	</g>
</g>
<g id="layer17">
	<g id="layer1-30" transform="matrix(0.17266313,0.00567671,-0.00719165,0.17462209,103.21431,-6.2659902)">
		<g id="g7629">
			<path id="path453" class="st1" d="M1991.4,206.3l-40.6,0l0,11l40.4,0L1991.4,206.3z"/>
			<path id="path455" class="st1" d="M1975.8,350.1c3.1-21.5,5.8-42.1,12.8-58.6l-35.6,0c7.4,18,10.6,38,12.8,58.6L1975.8,350.1z"/>
			<path id="path457" class="st1" d="M1990.9,232.5l0-13l-40.1,0l0,2.4l1.4,65.6l37.5,0L1990.9,232.5z"/>
			<path id="path459" class="st1" d="M1991.7,145.1c-2.3-11.7-8.7-63.2-21-60.9c-12.4-2.2-18.7,49.3-21,60.9l21,0L1991.7,145.1z"/>
			<path id="path461" class="st1" d="M1991.5,203.2l1.2-55.4l-43.4,0l1.2,55.4L1991.5,203.2z"/>
			<path id="path463" class="st1" d="M1976.9,352.1l-6,0.1l-6-0.1c-5.7,17.3-10.6-5.1-14.5-14.8c-0.4,9-3.2,16.3-7.2,22.7
				c8.6-1.4,17.8,2.7,27.5,9.1v0.4l0.3-0.2l0.3,0.2v-0.4c9.7-6.4,18.9-10.6,27.5-9.1c-4-6.4-6.8-13.7-7.2-22.7
				C1987.4,347,1982.6,369.4,1976.9,352.1L1976.9,352.1z"/>
			<path id="path465" class="st1" d="M1978.7,351.9c0.9,3.9,2.6,4.2,5,1.7c4.5-17.5,9.7-34.3,18.2-47.3l-11.1-12.6
				C1983.5,313.9,1980.1,333.2,1978.7,351.9z"/>
			<path id="path467" class="st1" d="M1963.2,351.9c-1.5-18.8-4.9-38-12-58.2l-11.1,12.6c8.5,13,13.7,29.8,18.2,47.3
				C1960.5,356.2,1962.2,355.8,1963.2,351.9z"/>
			<path id="path469" class="st1" d="M1916.2,256.8l31.8-0.9l-53.9-61.8l6.6-7.6l-29.4-6l7.3,31l7.4-8.1l34.7,42.8l-34.6,0.2
				l52.8,56.4l10.8-11L1916.2,256.8z"/>
			<path id="path471" class="st1" d="M2041.8,186.5l6.7,7.6l-53.9,61.8l31.8,0.9l-33.4,35.1l10.8,11l52.8-56.4l-34.6-0.2l34.7-42.8
				l7.4,8.1l7.3-31L2041.8,186.5z"/>
			<path id="path1373" class="st1" d="M1991.4,206.3l-40.6,0l0,11l40.4,0L1991.4,206.3z"/>
			<path id="path1375" class="st1" d="M1975.8,350.1c3.1-21.5,5.8-42.1,12.8-58.6l-35.6,0c7.4,18,10.6,38,12.8,58.6L1975.8,350.1z"
				/>
			<path id="path1377" class="st1" d="M1990.9,232.5l0-13l-40.1,0l0,2.4l1.4,65.6l37.5,0L1990.9,232.5z"/>
			<path id="path1379" class="st1" d="M1991.7,145.1c-2.3-11.7-8.7-63.2-21-60.9c-12.4-2.2-18.7,49.3-21,60.9l21,0L1991.7,145.1z"/>
			<path id="path1381" class="st1" d="M1991.5,203.2l1.2-55.4l-43.4,0l1.2,55.4L1991.5,203.2z"/>
			<path id="path1383" class="st1" d="M1976.9,352.1l-6,0.1l-6-0.1c-5.7,17.3-10.6-5.1-14.5-14.8c-0.4,9-3.2,16.3-7.2,22.7
				c8.6-1.4,17.8,2.7,27.5,9.1v0.4l0.3-0.2l0.3,0.2v-0.4c9.7-6.4,18.9-10.6,27.5-9.1c-4-6.4-6.8-13.7-7.2-22.7
				C1987.4,347,1982.6,369.4,1976.9,352.1L1976.9,352.1z"/>
			<path id="path1385" class="st1" d="M1978.7,351.9c0.9,3.9,2.6,4.2,5,1.7c4.5-17.5,9.7-34.3,18.2-47.3l-11.1-12.6
				C1983.5,313.9,1980.1,333.2,1978.7,351.9z"/>
			<path id="path1387" class="st1" d="M1963.2,351.9c-1.5-18.8-4.9-38-12-58.2l-11.1,12.6c8.5,13,13.7,29.8,18.2,47.3
				C1960.5,356.2,1962.2,355.8,1963.2,351.9z"/>
			<path id="path1389" class="st1" d="M1916.2,256.8l31.8-0.9l-53.9-61.8l6.6-7.6l-29.4-6l7.3,31l7.4-8.1l34.7,42.8l-34.6,0.2
				l52.8,56.4l10.8-11L1916.2,256.8z"/>
			<path id="path1391" class="st1" d="M2041.8,186.5l6.7,7.6l-53.9,61.8l31.8,0.9l-33.4,35.1l10.8,11l52.8-56.4l-34.6-0.2l34.7-42.8
				l7.4,8.1l7.3-31L2041.8,186.5z"/>
		</g>
	</g>
</g>
</svg>
