<?xml version="1.0" encoding="UTF-8" standalone="no"?>
<!-- Created with Inkscape (http://www.inkscape.org/) -->

<svg
   xmlns:dc="http://purl.org/dc/elements/1.1/"
   xmlns:cc="http://creativecommons.org/ns#"
   xmlns:rdf="http://www.w3.org/1999/02/22-rdf-syntax-ns#"
   xmlns:svg="http://www.w3.org/2000/svg"
   xmlns="http://www.w3.org/2000/svg"
   xmlns:sodipodi="http://sodipodi.sourceforge.net/DTD/sodipodi-0.dtd"
   xmlns:inkscape="http://www.inkscape.org/namespaces/inkscape"
   width="24.489897mm"
   height="24.368956mm"
   viewBox="0 0 24.489897 24.368956"
   version="1.1"
   id="svg134933"
   inkscape:version="0.92.2 (5c3e80d, 2017-08-06)"
   sodipodi:docname="main_logo.svg">
  <defs
     id="defs134927" />
  <sodipodi:namedview
     id="base"
     pagecolor="#ffffff"
     bordercolor="#666666"
     borderopacity="1.0"
     inkscape:pageopacity="0.0"
     inkscape:pageshadow="2"
     inkscape:zoom="5.6568543"
     inkscape:cx="54.238595"
     inkscape:cy="41.421305"
     inkscape:document-units="mm"
     inkscape:current-layer="g134981"
     showgrid="false"
     showguides="true"
     inkscape:guide-bbox="true"
     inkscape:window-width="1920"
     inkscape:window-height="1017"
     inkscape:window-x="-8"
     inkscape:window-y="-8"
     inkscape:window-maximized="1" />
  <metadata
     id="metadata134930">
    <rdf:RDF>
      <cc:Work
         rdf:about="">
        <dc:format>image/svg+xml</dc:format>
        <dc:type
           rdf:resource="http://purl.org/dc/dcmitype/StillImage" />
        <dc:title></dc:title>
      </cc:Work>
    </rdf:RDF>
  </metadata>
  <g
     inkscape:label="Layer 1"
     inkscape:groupmode="layer"
     id="layer1"
     transform="translate(-67.13002,-97.707743)">
    <g
       id="g135014">
      <g
         id="g134981">
        <path
           inkscape:connector-curvature="0"
           id="path134158"
           style="fill:#253666;fill-rule:evenodd;stroke-width:0.26458332;fill-opacity:1"
           d="m 74.697986,103.65666 0.0767,-0.0594 c 0.009,0 0.0255,-0.0167 0.0428,-0.0415 0.008,-0.009 0.017,-0.0176 0.017,-0.0343 0,-0.0168 -0.009,-0.0344 -0.017,-0.0421 -0.009,-0.0174 -0.0254,-0.0347 -0.0428,-0.0347 -0.0167,0 -0.0424,0.009 -0.0767,0.0347 l -0.0853,0.0505 z m 0.43547,0.21159 -0.29895,-0.15206 c -0.017,0.017 -0.0257,0.0251 -0.0424,0.0343 l -0.0174,0.0164 0.17103,0.22889 -0.18769,0.12705 -0.41011,-0.57613 0.30755,-0.21185 c 0.0508,-0.0421 0.10256,-0.0675 0.13661,-0.0762 0.0338,-0.008 0.0679,-0.008 0.11115,0 0.0334,0.017 0.0595,0.0425 0.0849,0.0762 0.0257,0.0344 0.0428,0.0675 0.0428,0.10192 0,0.0334 0,0.0595 -0.017,0.0929 -0.008,0.026 -0.0168,0.0424 -0.034,0.0592 l 0.3416,0.14436 z m 9.7967,0.5253 0.0688,0.0681 c 0.008,0.008 0.0251,0.0164 0.0421,0.0338 0.017,0.009 0.0254,0.0167 0.0428,0.009 0.017,0 0.0254,-0.009 0.0424,-0.0176 0.0174,-0.0164 0.0257,-0.0337 0.0174,-0.0505 0,-0.0167 -0.0174,-0.0424 -0.0428,-0.0761 l -0.0681,-0.0679 z m -0.1366,0.46585 0.0942,-0.31316 c -0.008,-0.0177 -0.026,-0.0257 -0.0344,-0.0421 l -0.0164,-0.009 -0.20534,0.20315 -0.15296,-0.1611 0.50266,-0.49956 0.25646,0.254 c 0.0508,0.0501 0.0845,0.0932 0.10191,0.12729 0.0177,0.0335 0.0177,0.0672 0.008,0.10932 0,0.0344 -0.0257,0.0685 -0.0507,0.10218 -0.0344,0.0257 -0.0595,0.0422 -0.0939,0.0508 -0.0341,0.009 -0.0681,0.009 -0.10255,0 -0.017,0 -0.0344,-0.009 -0.0598,-0.017 l -0.0852,0.35584 z m -12.92003,1.75305 0.17902,-0.32213 c 0.0343,-0.0675 0.0765,-0.10964 0.12819,-0.12668 0.0515,-0.017 0.11089,-0.009 0.17068,0.0251 0.0681,0.034 0.10192,0.0768 0.11957,0.13626 0.0173,0.0499 0,0.11774 -0.0341,0.20254 l -0.0601,0.10194 0.23045,0.12668 -0.10253,0.19484 z m 0.37534,-0.0511 0.0257,-0.0422 c 0.017,-0.0424 0.0254,-0.0671 0.0254,-0.0932 -0.008,-0.0254 -0.017,-0.0334 -0.0426,-0.0511 -0.017,-0.008 -0.0425,-0.008 -0.0592,-0.008 -0.0174,0.008 -0.0434,0.0341 -0.0601,0.0679 l -0.025,0.0507 z m 0.6827,-1.63383 0.40143,-0.43204 0.11054,0.10158 -0.24778,0.2704 0.0774,0.0765 0.23847,-0.25365 0.10253,0.10157 -0.23045,0.25366 0.10281,0.0932 0.25557,-0.27938 0.11985,0.11028 -0.40949,0.4404 z m 5.16261,-2.36289 -0.24726,0.0418 -0.008,0.12698 -0.22238,0.0431 0.12827,-0.75393 0.23908,-0.0424 0.39306,0.64355 -0.22241,0.0505 z m -0.076,-0.14409 -0.11923,-0.23722 -0.035,0.26233 z m 1.49291,-0.0768 h 0.21344 c 0,0.0347 0.009,0.0598 0.0257,0.0768 0.0167,0.0251 0.0507,0.0428 0.0935,0.0505 0.0344,0 0.0517,-0.008 0.0771,-0.0254 0.0174,-0.008 0.0257,-0.0251 0.0257,-0.0421 0,-0.0251 -0.008,-0.0424 -0.0257,-0.0511 -0.008,-0.017 -0.0514,-0.0334 -0.11081,-0.0511 -0.0939,-0.0245 -0.16206,-0.0588 -0.1964,-0.0926 -0.0428,-0.0424 -0.0598,-0.0845 -0.0598,-0.14399 0.008,-0.0338 0.017,-0.0675 0.0428,-0.10131 0.017,-0.0341 0.0514,-0.0595 0.0939,-0.0765 0.0428,-0.009 0.10218,-0.017 0.17902,-0.017 0.0939,0.008 0.16224,0.0257 0.20499,0.0678 0.0425,0.0334 0.0685,0.0849 0.0766,0.16073 h -0.20449 c -0.008,-0.0337 -0.0173,-0.0505 -0.034,-0.0675 -0.017,-0.017 -0.043,-0.0254 -0.0688,-0.0254 -0.026,0 -0.0511,0 -0.0592,0.008 -0.0177,0.017 -0.026,0.0257 -0.026,0.0424 0,0.008 0.008,0.017 0.017,0.0338 0.009,0.008 0.0344,0.0167 0.0681,0.0251 0.10282,0.0257 0.17095,0.0511 0.20476,0.0768 0.0428,0.025 0.0685,0.0505 0.0858,0.0848 0.0168,0.0338 0.0251,0.0669 0.0251,0.1016 0,0.0505 -0.0164,0.0926 -0.0424,0.12669 -0.0257,0.0334 -0.0685,0.0681 -0.11123,0.0849 -0.0424,0.0164 -0.1016,0.0254 -0.17034,0.0164 -0.11922,-0.008 -0.20473,-0.0332 -0.24715,-0.0843 -0.0428,-0.0428 -0.0688,-0.11055 -0.0772,-0.17841 z m 2.01416,-0.19447 0.34944,0.10158 c 0.0771,0.026 0.12853,0.0598 0.15391,0.10157 0.0257,0.0511 0.0341,0.11089 0.017,0.1778 -0.0254,0.0681 -0.0598,0.11054 -0.11116,0.14399 -0.0512,0.0261 -0.11895,0.0261 -0.20473,0 l -0.11933,-0.0334 -0.0767,0.25434 -0.20537,-0.0595 z m 0.12793,0.35584 0.0511,0.017 c 0.0344,0.008 0.0682,0.008 0.0855,0 0.0257,-0.008 0.0341,-0.0251 0.0424,-0.0511 0.009,-0.0167 0.009,-0.0421 0,-0.0594 -0.0167,-0.0164 -0.0424,-0.0332 -0.0768,-0.0418 l -0.0594,-0.0174 z m 1.71566,0.38069 0.51168,0.30509 -0.0853,0.13591 -0.31591,-0.19481 -0.0511,0.10165 0.29025,0.16875 -0.0771,0.12732 -0.29017,-0.17719 -0.0768,0.11774 0.32425,0.20317 -0.0765,0.136 -0.52099,-0.31316 z m 2.64507,3.37976 -0.13626,-0.2122 -0.11933,0.0338 -0.11983,-0.1865 0.74216,-0.16013 0.12816,0.19482 -0.45214,0.61767 -0.1196,-0.19484 z m 0.10282,-0.12695 0.17031,-0.20325 -0.25646,0.076 z m 0.79351,1.32067 c 0.0511,0 0.10218,0.0427 0.10218,0.10157 0,0.0592 -0.0511,0.11028 -0.10218,0.11028 -0.0598,0 -0.11089,-0.0511 -0.11089,-0.11028 0,-0.0588 0.0511,-0.10157 0.11089,-0.10157 z m -10.63334,-4.75898 c 0.0594,0 0.11123,0.0507 0.11123,0.1093 0,0.0594 -0.0518,0.10194 -0.11123,0.10194 -0.0517,0 -0.10255,-0.0425 -0.10255,-0.10194 0,-0.0586 0.0508,-0.1093 0.10255,-0.1093 z m -4.45484,4.80173 c 0.0598,0 0.11088,0.0505 0.11088,0.10965 0,0.0594 -0.0511,0.10157 -0.11088,0.10157 -0.0595,0 -0.10221,-0.0421 -0.10221,-0.10157 0,-0.0592 0.0428,-0.10965 0.10221,-0.10965 z" />
        <path
           inkscape:connector-curvature="0"
           id="path134160"
           style="fill:#ffd300;fill-rule:evenodd;stroke-width:0.26458332"
           d="m 69.381656,111.88015 -1.50212,-0.86387 6.49438,-3.7515 v 1.72744 z" />
        <path
           inkscape:connector-curvature="0"
           id="path134162"
           style="fill:#0090cc;fill-rule:evenodd;stroke-width:0.26458332"
           d="m 71.131106,112.88771 -1.50212,-0.86384 4.74475,-2.74394 v 1.73635 z" />
        <path
           inkscape:connector-curvature="0"
           id="path134164"
           style="fill:#d50030;fill-rule:evenodd;stroke-width:0.26458332"
           d="m 72.871616,113.89606 -1.49291,-0.86384 2.99503,-1.72831 v 1.72831 z" />
        <path
           inkscape:connector-curvature="0"
           id="path134166"
           style="fill:#253666;fill-rule:evenodd;stroke-width:0.26458332;fill-opacity:1"
           d="m 75.628366,107.98448 -1.25445,-0.71978 5.00034,-2.88792 1.24663,0.71977 z" />
        <path
           inkscape:connector-curvature="0"
           id="path134168"
           style="fill:#253666;fill-rule:evenodd;stroke-width:0.26458332;fill-opacity:1"
           d="m 74.373736,109.27966 v -0.28736 l 6.50256,-3.75177 1.49413,0.87218 -4.99288,2.87959 -1.2541,-0.72012 z" />
        <path
           inkscape:connector-curvature="0"
           id="path134170"
           style="fill:#253666;fill-rule:evenodd;stroke-width:0.26458332;fill-opacity:1"
           d="m 74.373736,111.30402 v -0.28747 l 8.24412,-4.75967 1.50125,0.86384 -4.921049,2.92658 -1.325231,-0.76772 z"
           sodipodi:nodetypes="ccccccc" />
        <path
           inkscape:connector-curvature="0"
           id="path134172"
           style="fill:#253666;fill-rule:evenodd;stroke-width:0.26458332;fill-opacity:1"
           d="m 85.76965,113.84714 -1.402864,-0.81492 -4.99253,2.88695 v -1.44735 l -1.2541,0.71951 -0.24749,-0.14433 6.492897,-3.68462 2.88608,1.67545 z"
           sodipodi:nodetypes="ccccccccc" />
        <path
           inkscape:connector-curvature="0"
           id="path134174"
           style="fill:#253666;fill-rule:evenodd;stroke-width:0.26458332;fill-opacity:1"
           d="m 84.366866,111.01628 -4.99261,2.8796 v -1.44024 l -3.00374,1.72768 -0.24714,-0.14372 8.24349,-4.75994 4.666969,2.65671 -1.531755,0.90052 z"
           sodipodi:nodetypes="ccccccccc" />
        <path
           inkscape:connector-curvature="0"
           id="path134176"
           style="fill:#253666;fill-rule:evenodd;stroke-width:0.26458332;fill-opacity:1"
           d="m 89.366784,111.74251 -4.99992,-2.78203 -4.992608,2.93682 v -1.34256 l -4.631193,2.93228 -0.25278,-0.18695 9.876581,-6.00962 6.357486,3.65975 z"
           sodipodi:nodetypes="ccccccccc" />
        <path
           inkscape:connector-curvature="0"
           id="path134178"
           style="fill:#253666;fill-rule:evenodd;stroke-width:0.26458332;fill-opacity:1"
           d="m 85.706556,114.8693 c 0.0601,0 0.10247,0.0424 0.10247,0.10123 0,0.0598 -0.0424,0.11089 -0.10247,0.11089 -0.0592,0 -0.11063,-0.0511 -0.11063,-0.11089 0,-0.0588 0.0515,-0.10123 0.11063,-0.10123 z m -0.66567,1.14322 -0.17902,0.17777 0.0598,0.1102 -0.15364,0.15277 -0.31591,-0.68607 0.17068,-0.16917 0.69133,0.31282 -0.162,0.16137 z m -0.13652,-0.0762 -0.23882,-0.12729 0.12819,0.23757 z m -1.19468,1.27018 -0.28183,-0.16912 c -0.0164,0.009 -0.0251,0.0167 -0.0425,0.0251 l -0.0167,0.0177 0.14494,0.24532 -0.18735,0.10991 -0.36769,-0.60984 0.31588,-0.1855 c 0.0601,-0.0341 0.10255,-0.0598 0.14531,-0.0681 0.0341,-0.009 0.0685,0 0.10255,0.008 0.0334,0.0167 0.0678,0.0421 0.0935,0.0845 0.0174,0.0338 0.0257,0.0681 0.0257,0.10195 0,0.0337 -0.008,0.0678 -0.0257,0.0929 -0.008,0.026 -0.017,0.0418 -0.034,0.0588 l 0.33293,0.17007 z m -0.40947,-0.24532 0.0768,-0.0511 c 0.008,0 0.0257,-0.0164 0.0428,-0.0331 0.0168,-0.009 0.0168,-0.0257 0.0254,-0.0425 0,-0.009 -0.009,-0.0257 -0.0173,-0.0428 -0.008,-0.017 -0.0251,-0.025 -0.0425,-0.0335 -0.0167,0 -0.0424,0.008 -0.0767,0.0251 l -0.0853,0.0511 z m -1.88624,0.48255 0.64056,-0.21151 0.0511,0.16944 -0.21344,0.0678 0.16235,0.51633 -0.20571,0.0679 -0.17032,-0.51694 -0.21283,0.0765 z m -1.53593,0.762 0.20474,-0.0422 c 0.009,0.0338 0.0176,0.0598 0.0343,0.0762 0.0257,0.0254 0.0601,0.0337 0.10255,0.0337 0.0341,-0.008 0.0511,-0.0164 0.0679,-0.0337 0.0177,-0.0164 0.026,-0.034 0.0177,-0.0508 0,-0.0167 -0.008,-0.0341 -0.0257,-0.0507 -0.0168,-0.009 -0.0598,-0.0164 -0.11986,-0.0251 -0.0939,-0.009 -0.17039,-0.0341 -0.2128,-0.0595 -0.043,-0.0338 -0.0687,-0.0756 -0.0771,-0.12668 -0.008,-0.0428 0,-0.0766 0.017,-0.11089 0.017,-0.0332 0.0427,-0.0669 0.0848,-0.0846 0.0431,-0.0251 0.0942,-0.0422 0.17129,-0.0508 0.0939,-0.008 0.16232,-0.008 0.21307,0.0257 0.0511,0.0251 0.0855,0.0765 0.10221,0.14398 l -0.20439,0.0421 c -0.009,-0.0331 -0.0257,-0.0505 -0.043,-0.0681 -0.017,-0.008 -0.0428,-0.0164 -0.0768,-0.008 -0.0251,0 -0.0424,0.008 -0.0511,0.0177 -0.017,0.0167 -0.017,0.0337 -0.017,0.0418 0,0.017 0.009,0.0257 0.017,0.0341 0.0176,0.008 0.0424,0.008 0.0768,0.0174 0.10308,0.008 0.17094,0.0167 0.2137,0.0334 0.0428,0.0177 0.0765,0.0424 0.10221,0.0681 0.0257,0.0251 0.034,0.0588 0.0424,0.10097 0,0.0428 0,0.0852 -0.0248,0.12758 -0.0177,0.0415 -0.0517,0.0762 -0.0948,0.10192 -0.0425,0.0245 -0.0932,0.0421 -0.16171,0.0505 -0.1196,0.0168 -0.21371,0 -0.26514,-0.0337 -0.0505,-0.0425 -0.0848,-0.10229 -0.0935,-0.17005 z m -1.28818,0.0765 -0.24775,-0.0337 -0.0515,0.11051 -0.22143,-0.0257 0.3497,-0.67796 0.23847,0.034 0.17962,0.73689 -0.23071,-0.0251 z m -0.026,-0.16042 -0.0515,-0.26233 -0.10218,0.24495 z m -1.63015,-0.4999 c 0.0598,0 0.10282,0.0505 0.10282,0.10965 0,0.0598 -0.043,0.10221 -0.10282,0.10221 -0.0592,0 -0.11062,-0.0424 -0.11062,-0.10221 0,-0.0592 0.0515,-0.10965 0.11062,-0.10965 z m -1.42504,-0.96543 0.29019,0.16076 c 0.0517,0.0254 0.0939,0.0598 0.11957,0.0929 0.026,0.0422 0.0427,0.0765 0.0511,0.11861 0.008,0.0425 0,0.0855 -0.008,0.12705 -0.009,0.0426 -0.0261,0.0848 -0.0508,0.12729 -0.0344,0.0678 -0.0691,0.11862 -0.11149,0.14399 -0.0341,0.0254 -0.0682,0.0424 -0.11092,0.0588 -0.0428,0.009 -0.0768,0.009 -0.11115,0 -0.0508,-0.0164 -0.0939,-0.0251 -0.1279,-0.0505 l -0.28131,-0.15232 z m 0.1108,0.24495 -0.18761,0.33917 0.0511,0.0341 c 0.043,0.0168 0.069,0.0341 0.0939,0.0341 0.0176,0 0.0427,-0.009 0.0601,-0.0256 0.0254,-0.0171 0.0511,-0.0508 0.0765,-0.10192 0.0344,-0.0669 0.0515,-0.11864 0.0431,-0.15243 -0.009,-0.0422 -0.0344,-0.0675 -0.0855,-0.10123 z m -1.43338,-0.65199 0.10221,-0.24529 -0.22204,0.14406 z m -0.0687,0.14409 -0.18745,-0.16049 -0.10219,0.0675 -0.17068,-0.15235 0.66567,-0.36425 0.17901,0.1611 -0.26453,0.71142 -0.17092,-0.1524 z m -1.02372,-1.44769 c 0.0598,0 0.11123,0.0424 0.11123,0.10123 0,0.0592 -0.0514,0.11028 -0.11123,0.11028 -0.0597,0 -0.10245,-0.0511 -0.10245,-0.11028 0,-0.0588 0.0428,-0.10123 0.10245,-0.10123 z" />
        <path
           inkscape:connector-curvature="0"
           id="path134182"
           style="fill:#253666;fill-rule:evenodd;stroke-width:0.26458332;fill-opacity:1"
           d="m 82.054536,121.77149 c -1.06675,-0.8468 -1.53662,-1.75305 -0.68297,-2.79495 -0.39211,-0.093 -0.99827,-0.008 -1.33093,0.30474 -0.38439,-0.10157 -0.62318,-0.12668 -0.93909,-0.0845 0.59748,0.26295 1.54427,2.39671 2.14209,2.5658 0.22204,0.0598 0.4181,0.0932 0.8109,0.009 z m -0.97324,0.076 c -0.19667,0.13563 -0.95576,0.31369 -1.29686,0.1697 -1.08368,-0.44074 -1.28008,-2.59151 -2.41496,-3.04061 0.3922,-0.093 1.20275,0.0505 1.56139,0.33049 0.85357,0.66093 1.41671,2.43041 2.15043,2.54042 z m -1.59597,0.22889 c -0.68236,0.008 -1.68931,-0.13565 -1.98853,-0.31379 -0.21309,0.0768 -0.40915,0.0932 -0.80187,0.009 0.74279,-0.5928 1.19467,-1.21098 1.10942,-1.88844 0.52038,0.1778 0.87069,1.7866 1.68098,2.19329 z" />
        <path
           inkscape:connector-curvature="0"
           id="path134184"
           style="fill:#253666;fill-rule:evenodd;stroke-width:0.26458332;fill-opacity:1"
           d="m 81.712826,100.03211 c 0.23881,0.48326 0.72512,0.66902 1.33128,0.43214 -0.21344,-0.43214 -0.66532,-0.618518 -1.33128,-0.43214 z m 2.85914,0.61827 c -0.40105,-0.27103 -0.86228,-0.45751 -1.35752,-0.37261 -0.25612,-0.465508 -0.2893,-1.075418 -0.14436,-1.794928 1.22872,0.33856 1.42478,1.05031 1.50188,2.167538 z m 0.3841,0.39826 c -0.60614,1.05841 -1.97176,1.10053 -2.85885,0.43986 0.78491,-0.76192 1.40808,-1.47306 2.85885,-0.43986 z m -0.0347,0.54181 c -0.42654,0.10123 -0.8109,0.415 -1.22838,0.74512 0.71694,0.66902 1.87753,0.82978 2.62829,0.16137 h -0.008 c -0.68266,-0.16971 -1.12682,-0.48313 -1.39161,-0.90649 z m 1.49378,0.86384 c 0.0939,-1.4233 0.14494,-2.30354 -1.21198,-2.854218 -0.43484,1.355408 -0.17901,2.370978 1.21198,2.854218 z m 1.4418,0.98245 c 0.36761,-1.05841 0.46122,-1.7866 -0.52872,-2.58284 -0.41807,0.60984 -0.62283,1.18589 -0.57147,1.719 0.49466,0.10157 0.83566,0.45741 1.10019,0.86384 z m 0.20537,0.50826 c -0.97288,0.73679 -2.24462,0.24495 -2.79935,-0.7031 1.01529,-0.39807 1.86886,-0.81309 2.79935,0.7031 z m -0.27287,0.47445 c -0.43585,-0.0678 -0.91371,0.0673 -1.42542,0.20291 0.40116,0.89728 1.39968,1.49879 2.35519,1.1856 v -0.008 c -0.5634,-0.42371 -0.85331,-0.88956 -0.92977,-1.38018 z m 1.06611,1.38851 c -1.08376,-0.98245 -0.92152,-2.02409 0,-3.09941 1.03259,1.03256 0.6482,1.82891 0,3.09941 z m 0.94742,1.46473 c 0.75113,-0.83002 1.12654,-1.46473 0.52038,-2.58283 -0.61388,0.39862 -1.03232,0.84717 -1.18631,1.35543 0.41011,0.29639 0.58912,0.75356 0.66593,1.2274 z m -0.0168,0.55137 c -1.17788,0.30414 -2.15067,-0.64426 -2.29598,-1.73673 1.09247,0.0258 2.03954,-0.0167 2.29598,1.73673 z m -0.45249,0.32144 c -0.37595,-0.23688 -0.87062,-0.29641 -1.39126,-0.36393 0.0173,0.98218 0.69993,1.92225 1.70722,1.99845 -0.29051,-0.50054 -0.46093,-1.06736 -0.31596,-1.63452 z m 0.46093,1.71037 c -0.61449,-1.32969 -0.0598,-2.22697 1.21134,-2.85422 0.54663,1.35544 -0.11956,1.9312 -1.21134,2.85422 z m 1.39933,1.04998 c 0.32433,-0.33854 0.47823,-0.78738 0.4101,-1.49045 -0.72575,0.12731 -1.28878,0.37295 -1.63015,0.78832 z m -3.034457,1.97763 c 0.13626,0.42404 0.406137,0.74085 0.832917,0.96173 -0.0598,-0.47419 0.0167,-1.14417 0.23907,-1.62645 z m 0.926787,1.06298 c -0.0511,-1.47333 0.81116,-2.07483 2.22724,-2.15974 -0.0257,1.45664 -0.86165,1.73638 -2.22724,2.15974 z m -0.38474,1.69334 c 1.11811,-0.0334 1.8355,-0.21159 2.21925,-1.42198 -0.71705,-0.16978 -1.33091,-0.16171 -1.80046,0.084 0.0768,0.49982 -0.12793,0.94901 -0.41879,1.33802 z m -0.41748,0.37287 c -1.03267,-0.63494 -1.03267,-1.99834 -0.35005,-2.86255 0.74277,0.80468 1.43346,1.45701 0.35005,2.86255 z m -0.56341,-0.0762 c -0.0851,-0.44039 -0.39245,-0.83005 -0.69937,-1.25349 -0.70003,0.69475 -0.89633,1.84603 -0.25612,2.61689 0.19633,-0.67797 0.52864,-1.11746 0.95549,-1.3634 z m -0.88736,1.49879 c 1.42471,0.13565 2.30373,0.21222 2.89285,-1.11749 -1.33987,-0.47419 -2.36386,-0.25461 -2.89285,1.11749 z m -1.02399,1.40653 c 1.04998,0.40544 1.77475,0.52432 2.60268,-0.44075 -0.59745,-0.44048 -1.16893,-0.66937 -1.69828,-0.62695 -0.12763,0.48323 -0.48657,0.82176 -0.9044,1.0677 z m -0.52062,0.18549 c -0.69977,-0.99052 -0.17041,-2.24366 0.80219,-2.77764 0.3583,1.03296 0.74242,1.89679 -0.80219,2.77764 z m -0.47797,-0.29551 c 0.0855,-0.44101 -0.0424,-0.91556 -0.162,-1.4319 -0.90466,0.37235 -1.53654,1.35507 -1.24637,2.32024 v -0.008 c 0.44391,-0.55041 0.91344,-0.82108 1.40837,-0.88 z m -1.40837,1.03233 c 1.01565,-1.04998 2.05692,-0.85543 3.09795,0.10131 -1.06667,0.99922 -1.84325,0.58509 -3.09795,-0.10131 z m -2.04788,0.87254 c -0.25585,-1.19459 0.7167,-2.13376 1.81777,-2.2443 -0.0684,1.08405 -0.0511,2.03242 -1.81777,2.2443 z m 0.54637,0.0254 c 0.81089,0.77928 1.43338,1.177 2.56799,0.60957 -0.37481,-0.63494 -0.81029,-1.06674 -1.32257,-1.23645 -0.29827,0.39799 -0.7592,0.56743 -1.24542,0.62688 z"
           sodipodi:nodetypes="cccccccccccccccccccccccccccccccccccccccccccccccccccccccccccccccccccccccccccccccccccccccccccccccccc" />
        <path
           inkscape:connector-curvature="0"
           id="path134186"
           style="fill:#253666;fill-rule:evenodd;stroke-width:0.26458332;fill-opacity:1"
           d="m 77.036476,100.03211 c -0.23881,0.48326 -0.72504,0.66902 -1.33093,0.43214 0.20473,-0.43214 0.66505,-0.618518 1.33093,-0.43214 z m -2.85914,0.61827 c 0.40116,-0.27103 0.85365,-0.45751 1.34858,-0.37261 0.26514,-0.465508 0.2899,-1.075418 0.14531,-1.794928 -1.22066,0.33856 -1.41671,1.05031 -1.49389,2.167538 z m -0.38402,0.39826 c 0.60643,1.05841 1.96305,1.10053 2.85044,0.43986 -0.77711,-0.76192 -1.39933,-1.47306 -2.85044,-0.43986 z m 0.0257,0.54181 c 0.43548,0.10123 0.81055,0.415 1.22899,0.74512 -0.71705,0.66902 -1.86859,0.82978 -2.6284,0.16137 h 0.008 c 0.68289,-0.16971 1.13512,-0.48313 1.39097,-0.90649 z m -1.48484,0.86384 c -0.10226,-1.4233 -0.14528,-2.30354 1.20327,-2.854218 0.43521,1.355408 0.17965,2.370978 -1.20327,2.854218 z m -1.4418,0.98245 c -0.36769,-1.05841 -0.46955,-1.7866 0.52872,-2.58284 0.40939,0.60984 0.62283,1.18589 0.56303,1.719 -0.48622,0.10157 -0.83626,0.45741 -1.09175,0.86384 z m -0.2051,0.50826 c 0.96393,0.73679 2.23568,0.24495 2.79908,-0.7031 -1.01529,-0.39807 -1.86894,-0.81309 -2.79908,0.7031 z m 0.27323,0.47445 c 0.43511,-0.0678 0.9044,0.0673 1.41669,0.20291 -0.4014,0.89728 -1.39965,1.49879 -2.35612,1.1856 l 0.009,-0.008 c 0.56315,-0.42371 0.85305,-0.88956 0.93049,-1.38018 z m -1.07508,1.38851 c 1.09212,-0.98245 0.92951,-2.02409 0,-3.09941 -1.02486,1.03256 -0.64047,1.82891 0,3.09941 z m -0.94742,1.46473 c -0.75112,-0.83002 -1.12654,-1.46473 -0.52072,-2.58283 0.62256,0.39862 1.041,0.84717 1.19464,1.35543 -0.40949,0.29639 -0.58851,0.75356 -0.67392,1.2274 z m 0.0167,0.55137 c 1.17764,0.30414 2.15887,-0.64426 2.30442,-1.73673 -1.09247,0.0258 -2.03989,-0.0167 -2.30442,1.73673 z m 0.4612,0.32144 c 0.37507,-0.23688 0.86974,-0.28834 1.39099,-0.36393 -0.0173,0.98218 -0.70837,1.92225 -1.70722,1.99845 0.29051,-0.50054 0.46085,-1.06736 0.31623,-1.63452 z m -0.46953,1.71037 c 0.62283,-1.32969 0.0594,-2.22697 -1.21232,-2.85422 -0.54539,1.35544 0.11959,1.9312 1.21232,2.85422 z m -1.39097,1.04998 c -0.3247,-0.33854 -0.47797,-0.78738 -0.40923,-1.49045 0.72512,0.12731 1.27955,0.37295 1.62057,0.78832 z m 3.04673,1.93085 c -0.1452,0.42404 -0.42677,0.78763 -0.84521,1.00851 0.06,-0.47419 -0.0168,-1.14417 -0.24715,-1.62645 z m -0.94742,1.10976 c 0.0514,-1.47333 -0.80256,-2.07483 -2.22724,-2.15974 0.0341,1.45664 0.86998,1.73638 2.22724,2.15974 z m 0.38404,1.69334 c -1.11847,-0.0334 -1.83515,-0.21159 -2.21893,-1.42198 0.71679,-0.16978 1.33155,-0.16171 1.80917,0.084 -0.0768,0.49982 0.11959,0.94901 0.40976,1.33802 z m 0.41818,0.37287 c 1.041,-0.63494 1.03259,-1.99834 0.34996,-2.86255 -0.73435,0.80468 -1.42505,1.45701 -0.34996,2.86255 z m 0.56303,-0.0762 c 0.0936,-0.44039 0.40116,-0.83005 0.70871,-1.25349 0.69096,0.69475 0.88736,1.84603 0.24715,2.61689 -0.1964,-0.67797 -0.52038,-1.11746 -0.95586,-1.3634 z m 0.88739,1.49879 c -1.41637,0.13565 -2.2954,0.21222 -2.89285,-1.11749 1.33987,-0.47419 2.37254,-0.25461 2.89285,1.11749 z m 1.03266,1.40653 c -1.0497,0.40544 -1.78342,0.52432 -2.60268,-0.44075 0.58913,-0.44048 1.1606,-0.66937 1.69794,-0.62695 0.1193,0.48323 0.47797,0.82176 0.90474,1.0677 z m 0.51229,0.18549 c 0.70837,-0.99052 0.17068,-2.24366 -0.79386,-2.77764 -0.36673,1.03296 -0.75109,1.89679 0.79386,2.77764 z m 0.47789,-0.29551 c -0.0854,-0.44101 0.0425,-0.91556 0.16198,-1.4319 0.9131,0.37235 1.54498,1.35507 1.25508,2.32024 v -0.008 c -0.44416,-0.55045 -0.92205,-0.82112 -1.41706,-0.88004 z m 1.41706,1.03233 c -1.02434,-1.04998 -2.05693,-0.85543 -3.10724,0.10131 1.06674,0.99922 1.85216,0.58509 3.10724,-0.10131 z m 2.03927,0.87254 c 0.26419,-1.19459 -0.71739,-2.13376 -1.81811,-2.2443 0.0687,1.08405 0.0511,2.03242 1.81811,2.2443 z m -0.5461,0.0254 c -0.80248,0.77928 -1.42539,1.177 -2.56921,0.60957 0.3841,-0.63494 0.81958,-1.06674 1.32318,-1.23645 0.30729,0.39799 0.7678,0.56743 1.24603,0.62688 z" />
        <g
           id="g135087"
           transform="translate(0.07546807,0.00943525)" />
      </g>
      <path
         d="m 79.365498,97.707743 0.401426,0.82108 0.869976,-0.2958 -0.298238,0.87219 0.819229,0.39773 -0.819229,0.40632 0.298238,0.864437 -0.869976,-0.29675 -0.401426,0.82145 -0.409469,-0.82145 -0.861669,0.29675 0.289931,-0.864437 -0.818648,-0.40632 0.818648,-0.39773 -0.289931,-0.87219 0.861669,0.2958 z m 0.09414,1.70257 1.092094,-1.09247 -0.810287,0.27041 z m 0.04302,0.0926 h 1.544346 l -0.768402,-0.37201 z m -0.04302,0.10218 1.092094,1.092117 -0.273129,-0.813087 z m -0.09414,0.0421 v 1.540927 l 0.375946,-0.7706 z m -0.101917,-0.0421 -1.09273,1.092117 0.810895,-0.27972 z m -0.04276,-0.10218 h -1.544638 l 0.776499,0.38121 z m 0.04276,-0.0926 -1.09273,-1.09247 0.281834,0.81309 z m 0.101917,-0.0431 -0.0084,-1.54119 -0.366659,0.76224 z"
         style="fill:#253666;fill-rule:evenodd;stroke-width:0.26458332;fill-opacity:1"
         id="path134180"
         inkscape:connector-curvature="0" />
    </g>
  </g>
</svg>
