<svg xmlns="http://www.w3.org/2000/svg" viewBox="0 0 52.1 103.99"><defs><style>.cls-1,.cls-2{fill:none;stroke:#7f7e7c;stroke-miterlimit:22.93;stroke-width:0.25px;}.cls-1{fill-rule:evenodd;}</style></defs><title>pattern</title><g id="Слой_2" data-name="Слой 2"><g id="Layer_1" data-name="Layer 1"><path class="cls-1" d="M31.55,4.31l.51.5m-1.93.13v.67"/><path class="cls-1" d="M34.41,3.18q1.13-.41,2.29-.76a1.21,1.21,0,1,1-2.29.76ZM41,1.67a1.21,1.21,0,1,0,1.21,1.21A1.21,1.21,0,0,0,41,1.67Zm0-.39v.39M39.83,2.88h-3M40.19,2l-.45-.45M41.9,2,43,1m-.72,1.93h1.52m-1.87.85L43,4.81M41,4.09V5.61m-.85-1.87L39.11,4.81M34.73,3.74,33.66,4.81m1.93-.72V5.61m.86-1.87,1.07,1.07"/><path class="cls-1" d="M50.75,2.88A1.21,1.21,0,0,1,52,1.67h0V4.09h0a1.21,1.21,0,0,1-1.21-1.21ZM46.5,1.67a1.21,1.21,0,1,1-1.21,1.21A1.21,1.21,0,0,1,46.5,1.67ZM52,.12V1.67M46.5.41V1.67m1.21,1.21h3M47.36,2,48.43,1M45.65,2,44.57,1m.72,1.93H43.77m1.87.85L44.57,4.81m1.93-.72V5.61m.85-1.87,1.07,1.07M51.1,2,50,1M52,4.09V5.61M51.1,3.74,50,4.81"/><path class="cls-1" d="M19.22,15a1.21,1.21,0,1,1,1.21-1.21A1.21,1.21,0,0,1,19.22,15ZM18,13.8H16.9m2.31-1.21v-.8m0,.8v-.8m-.85,1.15-.24-.24m1.95.24,1.07-1.07m-.72,1.93h1.52m-1.87.85,1.07,1.07M19.22,15v1.52m-.85-1.87-1.07,1.07m-2-.39.39.39"/><path class="cls-1" d="M30.13,15a1.21,1.21,0,1,0-1.21-1.21A1.21,1.21,0,0,0,30.13,15ZM23.5,8.64q1-.63,2-1.22a1.21,1.21,0,1,1-2,1.22Zm5.42,5.15a1.21,1.21,0,1,0,1.21-1.21,1.21,1.21,0,0,0-1.21,1.21ZM24.67,15a1.21,1.21,0,1,0-1.21-1.21A1.21,1.21,0,0,0,24.67,15Zm4.25-6.67a1.21,1.21,0,1,0,1.21-1.21,1.21,1.21,0,0,0-1.21,1.21Zm1.21,4.25v-3M25.88,13.8h3m-4.25-1.21v-3m1.21-1.21h3m-4.25,4.25V11.07m.85-1.87,1.07,1.07M23.82,9.19l-1.07,1.07m2.78-2.78.27-.27m3.48,2L28.2,10.27M31,9.19l1.07,1.07m-.72-1.93h1.52M31,7.48l1.07-1.07m-1.93.72V5.61m-.85,1.87L28.2,6.41m-2.67,6.53,1.07-1.07m-2.78,1.07-1.07-1.07m.72,1.93H21.95m1.87.85-1.07,1.07M24.67,15v1.52m.85-1.87,1.07,1.07m2.67-2.78L28.2,11.87M31,12.94l1.07-1.07m-.72,1.93h1.52M31,14.65l1.07,1.07M30.13,15v1.52m-.85-1.87L28.2,15.72"/><path class="cls-1" d="M35.59,15A1.21,1.21,0,1,1,36.8,13.8,1.21,1.21,0,0,1,35.59,15ZM36.8,13.8a1.21,1.21,0,1,1-1.21-1.21A1.21,1.21,0,0,1,36.8,13.8ZM41,15a1.21,1.21,0,1,1,1.21-1.21A1.21,1.21,0,0,1,41,15ZM36.8,8.34a1.21,1.21,0,1,1-1.21-1.21A1.21,1.21,0,0,1,36.8,8.34ZM41,9.55a1.21,1.21,0,1,1,1.21-1.21A1.21,1.21,0,0,1,41,9.55Zm-5.46,3v-3m4.25,4.25h-3M41,12.59v-3M39.83,8.34h-3M41,12.59V11.07m-.85-1.87-1.07,1.07M41.9,9.19,43,10.27m-.72-1.93h1.52M41.9,7.48,43,6.41M41,7.13V5.61m-.85,1.87L39.11,6.41M36.44,9.19l1.07,1.07M34.73,9.19l-1.07,1.07m.72-1.93H32.86m1.87-.85L33.66,6.41m1.93.72V5.61m.86,1.87,1.07-1.07m2.67,6.53-1.07-1.07m2.78,1.07L43,11.87m-.72,1.93h1.52m-1.87.85L43,15.72M41,15v1.52m-.85-1.87-1.07,1.07m-2.67-2.78,1.07-1.07m-2.78,1.07-1.07-1.07m.72,1.93H32.86m1.87.85-1.07,1.07M35.59,15v1.52m.85-1.87,1.07,1.07"/><path class="cls-1" d="M52,15h0a1.21,1.21,0,1,1,0-2.42h0A1.21,1.21,0,1,0,52,15ZM46.5,15a1.21,1.21,0,1,0-1.21-1.21A1.21,1.21,0,0,0,46.5,15Zm4.25-6.67A1.21,1.21,0,0,0,52,9.55h0V7.13h0a1.21,1.21,0,0,0-1.21,1.21ZM46.5,9.55a1.21,1.21,0,1,0-1.21-1.21A1.21,1.21,0,0,0,46.5,9.55Zm5.46,3v-3M47.71,13.8h3M46.5,12.59v-3m1.21-1.21h3M46.5,12.59V11.07m.85-1.87,1.07,1.07M45.65,9.19l-1.07,1.07m.72-1.93H43.77m1.87-.85L44.57,6.41m1.93.72V5.61m.85,1.87,1.07-1.07M51.1,9.19,50,10.27M52,7.13V5.61M51.1,7.48,50,6.41m-2.67,6.53,1.07-1.07m-2.78,1.07-1.07-1.07m.72,1.93H43.77m1.87.85-1.07,1.07M46.5,15v1.52m.85-1.87,1.07,1.07m2.67-2.78L50,11.87M52,15v1.52m-.85-1.87L50,15.72"/><path class="cls-1" d="M8.3,36.83a1.21,1.21,0,1,0-1.21-1.21A1.21,1.21,0,0,0,8.3,36.83Zm-5.9-.08q.36-1.16.76-2.29a1.21,1.21,0,1,1-.76,2.29Zm4.69-1.12A1.21,1.21,0,1,0,8.3,34.41a1.21,1.21,0,0,0-1.21,1.21Zm0-5.46A1.21,1.21,0,1,0,8.3,29a1.21,1.21,0,0,0-1.21,1.21ZM8.3,34.41v-3M4.06,35.62h3M4.93,30.17H7.09M4.29,31.6l.49.49M7.45,31,6.37,32.09M9.16,31l1.07,1.07m-.72-1.93H11m-1.87-.85,1.07-1.07M8.3,29V27.44m-.86,1.87L6.37,28.24M3.7,34.77l1.07-1.07M2.85,36.83v1.52m.85-1.87,1.07,1.07m2.67-2.78L6.37,33.69m2.78,1.07,1.07-1.07m-.72,1.93H11m-1.87.85,1.07,1.07M8.3,36.83v1.52m-.85-1.87L6.37,37.55"/><path class="cls-1" d="M13.76,36.83A1.21,1.21,0,1,1,15,35.62a1.21,1.21,0,0,1-1.21,1.21ZM15,35.62a1.21,1.21,0,1,1-1.21-1.21A1.21,1.21,0,0,1,15,35.62Zm4.25,1.21a1.21,1.21,0,1,1,1.21-1.21,1.21,1.21,0,0,1-1.21,1.21ZM15,30.17A1.21,1.21,0,1,1,13.76,29,1.21,1.21,0,0,1,15,30.17Zm4.25,1.21a1.21,1.21,0,1,1,1.21-1.21,1.21,1.21,0,0,1-1.21,1.21Zm-5.46,3v-3M18,35.62H15m4.25-1.21v-3M18,30.17H15m4.25,4.25V32.89M18.36,31l-1.07,1.07M20.07,31l1.07,1.07m-.72-1.93h1.52m-1.87-.85,1.07-1.07M19.22,29V27.44m-.85,1.87-1.07-1.07M14.61,31l1.07,1.07M12.91,31,11.83,32.1m.72-1.93H11m1.87-.85-1.07-1.07m1.93.72V27.44m.86,1.87,1.07-1.07m2.67,6.53-1.07-1.07m2.78,1.07,1.07-1.07m-.72,1.93h1.52m-1.87.85,1.07,1.07m-1.93-.72v1.52m-.85-1.87-1.07,1.07m-2.67-2.78,1.07-1.07m-2.78,1.07-1.07-1.07m.72,1.93H11m1.87.85-1.07,1.07m1.93-.72v1.52m.85-1.87,1.07,1.07"/><path class="cls-1" d="M30.13,36.83a1.21,1.21,0,1,0-1.21-1.21,1.21,1.21,0,0,0,1.21,1.21Zm-1.21-1.21a1.21,1.21,0,1,0,1.21-1.21,1.21,1.21,0,0,0-1.21,1.21Zm-4.25,1.21a1.21,1.21,0,1,0-1.21-1.21,1.21,1.21,0,0,0,1.21,1.21Zm4.25-6.67A1.21,1.21,0,1,0,30.13,29a1.21,1.21,0,0,0-1.21,1.21Zm-4.25,1.21a1.21,1.21,0,1,0-1.21-1.21,1.21,1.21,0,0,0,1.21,1.21Zm5.46,3v-3m-4.25,4.25h3m-4.25-1.21v-3m1.21-1.21h3m-4.25,4.25V32.89M25.53,31l1.07,1.07M23.82,31l-1.07,1.07m.72-1.93H21.95m1.87-.85-1.07-1.07m1.93.72V27.44m.85,1.87,1.07-1.07M29.28,31,28.2,32.09M31,31l1.07,1.07m-.72-1.93h1.52M31,29.31l1.07-1.07M30.13,29V27.44m-.85,1.87L28.2,28.24m-2.67,6.53,1.07-1.07m-2.78,1.07-1.07-1.07m.72,1.93H21.95m1.87.85-1.07,1.07m1.93-.72v1.52m.85-1.87,1.07,1.07m2.67-2.78L28.2,33.69M31,34.77l1.07-1.07m-.72,1.93h1.52M31,36.48l1.07,1.07m-1.93-.72v1.52m-.85-1.87L28.2,37.55"/><path class="cls-1" d="M35.59,36.83a1.21,1.21,0,1,1,1.21-1.21,1.21,1.21,0,0,1-1.21,1.21ZM42.08,35a19.69,19.69,0,0,0-2,1.34,1.21,1.21,0,1,1,2-1.34Zm-5.29.62a1.21,1.21,0,1,1-1.21-1.21,1.21,1.21,0,0,1,1.21,1.21Zm0-5.46A1.21,1.21,0,1,1,35.59,29a1.21,1.21,0,0,1,1.21,1.21ZM41,31.37a1.21,1.21,0,1,1,1.21-1.21A1.21,1.21,0,0,1,41,31.37Zm-5.46,3v-3m4.25,4.25h-3M41,34.41v-3m-1.21-1.21h-3M41,34.41V32.89M40.19,31l-1.07,1.07M41.9,31,43,32.1m-.72-1.93h1.52m-1.87-.85L43,28.24M41,29V27.44m-.85,1.87-1.07-1.07M36.44,31l1.07,1.07M34.73,31l-1.07,1.07m.72-1.93H32.86m1.87-.85-1.07-1.07m1.93.72V27.44m.85,1.87,1.07-1.07m2.67,6.53-1.07-1.07m2.78,1.07L43,33.69m-6.53,1.07,1.07-1.07m-2.78,1.07-1.07-1.07m.72,1.93H32.86m1.87.85-1.07,1.07m1.93-.72v1.52m.85-1.87,1.07,1.07"/><path class="cls-1" d="M52,36.83h0a1.21,1.21,0,0,1-1.17-.89,1.21,1.21,0,0,0,1.17.89Zm-5.38,0,.59-.2a1.2,1.2,0,0,1-.59.2Zm4.17-6.66A1.21,1.21,0,0,0,52,31.37h0V29h0a1.21,1.21,0,0,0-1.21,1.21ZM46.5,31.37a1.21,1.21,0,1,0-1.21-1.21,1.21,1.21,0,0,0,1.21,1.21Zm5.46,1v-1M46.5,33.1V31.37m1.21-1.21h3M46.5,33.1v-.21M47.36,31l1.07,1.07M45.65,31l-1.07,1.07m.72-1.93H43.77m1.87-.85-1.07-1.07M46.5,29V27.44m.85,1.87,1.07-1.07M51.1,31,50,32.09M52,29V27.44m-.85,1.87L50,28.24m-5.4,5.52-.06-.06m1.93,3.16v1.49m.93-1.8,1,1M52,36.83v1.52m-.85-1.87L50,37.55"/><path class="cls-1" d="M7.39,25.5q.59-1,1.23-2a1.21,1.21,0,1,1-1.23,2Zm1.77-1.65,1.07-1.07m-.72,1.93H11m-1.87.85,1.07,1.07M8.3,25.92v1.52m-.86-1.87-.23.23"/><path class="cls-1" d="M13.76,18A1.21,1.21,0,1,0,15,19.25,1.21,1.21,0,0,0,13.76,18ZM15,19.25a1.21,1.21,0,1,0-1.21,1.21A1.21,1.21,0,0,0,15,19.25ZM19.22,18a1.21,1.21,0,1,0,1.21,1.21A1.21,1.21,0,0,0,19.22,18ZM15,24.71a1.21,1.21,0,1,0-1.21,1.21A1.21,1.21,0,0,0,15,24.71Zm4.25-1.21a1.21,1.21,0,1,0,1.21,1.21,1.21,1.21,0,0,0-1.21-1.21Zm-5.46-3v3M18,19.25H15m4.25,1.21v3M18,24.71H15m4.25-4.25V22m-.85,1.87-1.07-1.07m2.78,1.07,1.07-1.07m-.72,1.93h1.52m-1.87.85,1.07,1.07m-1.93-.72v1.52m-.85-1.87-1.07,1.07m-2.67-2.78,1.07-1.07m-2.78,1.07-1.07-1.07m.72,1.93H11m1.87.85-1.07,1.07m1.93-.72v1.52m.86-1.87,1.07,1.07m2.67-6.53-1.07,1.07m2.78-1.07,1.07,1.07m-.72-1.93h1.52m-1.87-.85,1.07-1.07M19.22,18V16.52m-.85,1.87-1.07-1.07m-2.67,2.78,1.07,1.07m-2.78-1.07-1.07,1.07m.72-1.93h-.79m1.14-.85-.23-.23M13.76,18v-1.1m.86,1.46,1.07-1.07"/><path class="cls-1" d="M30.13,18a1.21,1.21,0,1,1-1.21,1.21A1.21,1.21,0,0,1,30.13,18Zm-1.21,1.21a1.21,1.21,0,1,1,1.21,1.21,1.21,1.21,0,0,1-1.21-1.21ZM24.67,18a1.21,1.21,0,1,1-1.21,1.21A1.21,1.21,0,0,1,24.67,18Zm4.25,6.67a1.21,1.21,0,1,1,1.21,1.21,1.21,1.21,0,0,1-1.21-1.21ZM24.67,23.5a1.21,1.21,0,1,1-1.21,1.21,1.21,1.21,0,0,1,1.21-1.21Zm5.46-3v3m-4.25-4.25h3m-4.25,1.21v3m1.21,1.21h3m-4.25-4.25V22m.85,1.87,1.07-1.07m-2.78,1.07-1.07-1.07m.72,1.93H21.95m1.87.85-1.07,1.07m1.93-.72v1.52m.85-1.87,1.07,1.07m2.67-2.78L28.2,22.78M31,23.85l1.07-1.07m-.72,1.93h1.52M31,25.56l1.07,1.07m-1.93-.72v1.52m-.85-1.87L28.2,26.64m-2.67-6.53,1.07,1.07m-2.78-1.07-1.07,1.07m.72-1.93H21.95m1.87-.85-1.07-1.07m1.93.72V16.52m.85,1.87,1.07-1.07m2.67,2.78L28.2,21.18M31,20.11l1.07,1.07m-.72-1.93h1.52M31,18.4l1.07-1.07M30.13,18V16.52m-.85,1.87L28.2,17.32"/><path class="cls-1" d="M35.59,18a1.21,1.21,0,1,0,1.21,1.21A1.21,1.21,0,0,0,35.59,18Zm1.21,1.21a1.21,1.21,0,1,0-1.21,1.21,1.21,1.21,0,0,0,1.21-1.21ZM41,18a1.21,1.21,0,1,0,1.21,1.21A1.21,1.21,0,0,0,41,18ZM36.8,24.71a1.21,1.21,0,1,0-1.21,1.21,1.21,1.21,0,0,0,1.21-1.21ZM41,23.5a1.21,1.21,0,1,0,1.21,1.21A1.21,1.21,0,0,0,41,23.5Zm-5.46-3v3m4.25-4.25h-3M41,20.46v3m-1.21,1.21h-3M41,20.46V22m-.85,1.87-1.07-1.07m2.78,1.07L43,22.78m-.72,1.93h1.52m-1.87.85L43,26.64M41,25.92v1.52m-.85-1.87-1.07,1.07m-2.67-2.78,1.07-1.07m-2.78,1.07-1.07-1.07m.72,1.93H32.86m1.87.85-1.07,1.07m1.93-.72v1.52m.85-1.87,1.07,1.07m2.67-6.53-1.07,1.07m2.78-1.07L43,21.18m-.72-1.93h1.52M41.9,18.4,43,17.32M41,18V16.52m-.85,1.87-1.07-1.07m-2.67,2.78,1.07,1.07m-2.78-1.07-1.07,1.07m.72-1.93H32.86m1.87-.85-1.07-1.07m1.93.72V16.52m.85,1.87,1.07-1.07"/><path class="cls-1" d="M52,18h0a1.21,1.21,0,0,0,0,2.42h0A1.21,1.21,0,0,1,52,18ZM46.5,18a1.21,1.21,0,1,1-1.21,1.21A1.21,1.21,0,0,1,46.5,18Zm4.25,6.67A1.21,1.21,0,0,1,52,23.5h0v2.42h0a1.21,1.21,0,0,1-1.21-1.21ZM46.5,23.5a1.21,1.21,0,1,1-1.21,1.21A1.21,1.21,0,0,1,46.5,23.5Zm5.46-3v3m-4.25-4.25h3M46.5,20.46v3m1.21,1.21h3M46.5,20.46V22m.85,1.87,1.07-1.07m-2.78,1.07-1.07-1.07m.72,1.93H43.77m1.87.85-1.07,1.07m1.93-.72v1.52m.85-1.87,1.07,1.07m2.67-2.78L50,22.78M52,25.92v1.52m-.85-1.87L50,26.64m-2.67-6.53,1.07,1.07m-2.78-1.07-1.07,1.07m.72-1.93H43.77m1.87-.86-1.07-1.07M46.5,18V16.52m.85,1.87,1.07-1.07m2.67,2.78L50,21.18M52,18V16.52M51.1,18.4,50,17.32"/><path class="cls-1" d="M8.62,80.44a1.21,1.21,0,1,0-1.23-2,1.21,1.21,0,1,1,1.23,2ZM7.09,73.82A1.21,1.21,0,1,0,8.3,72.61a1.21,1.21,0,0,0-1.21,1.21ZM8.3,78.07V75M4.93,73.82H7.09M4.28,72.38l.49-.49m2.67,2.78L6.37,75.75m2.78-1.07,1.07,1.07m-.72-1.93H11M9.16,73l1.07-1.07m-1.93.72V71.09M7.45,73,6.37,71.89m1.07,6.53-.23-.23m1.94.23,1.07-1.07m-.72,1.93H11m-1.87.85,1.07,1.07"/><path class="cls-1" d="M13.76,80.49A1.21,1.21,0,1,1,15,79.28a1.21,1.21,0,0,1-1.21,1.21ZM15,79.28a1.21,1.21,0,1,1-1.21-1.21A1.21,1.21,0,0,1,15,79.28Zm4.25,1.21a1.21,1.21,0,1,1,1.21-1.21,1.21,1.21,0,0,1-1.21,1.21ZM15,73.82a1.21,1.21,0,1,1-1.21-1.21A1.21,1.21,0,0,1,15,73.82ZM19.22,75a1.21,1.21,0,1,1,1.21-1.21A1.21,1.21,0,0,1,19.22,75Zm-5.46,3V75M18,79.28H15m4.25-1.21V75M18,73.82H15m4.25,4.25V76.55m-.85-1.87-1.07,1.07m2.78-1.07,1.07,1.07m-.72-1.93h1.52M20.07,73l1.07-1.07m-1.93.72V71.09M18.36,73l-1.07-1.07m-2.67,2.78,1.07,1.07m-2.78-1.07-1.07,1.07m.72-1.93H11M12.91,73l-1.07-1.07m1.93.72V71.09M14.62,73l1.07-1.07m2.67,6.53-1.07-1.07m2.78,1.07,1.07-1.07m-.72,1.93h1.52m-1.87.85,1.07,1.07m-1.93-.72V82m-.85-1.87-1.07,1.07m-2.67-2.78,1.07-1.07m-2.78,1.07-1.07-1.07m.72,1.93H11m1.87.85-1.07,1.07m1.93-.72V82m.85-1.87,1.07,1.07"/><path class="cls-1" d="M30.13,80.49a1.21,1.21,0,1,0-1.21-1.21,1.21,1.21,0,0,0,1.21,1.21Zm-1.21-1.21a1.21,1.21,0,1,0,1.21-1.21,1.21,1.21,0,0,0-1.21,1.21Zm-4.25,1.21a1.21,1.21,0,1,0-1.21-1.21,1.21,1.21,0,0,0,1.21,1.21Zm4.25-6.67a1.21,1.21,0,1,0,1.21-1.21,1.21,1.21,0,0,0-1.21,1.21ZM24.67,75a1.21,1.21,0,1,0-1.21-1.21A1.21,1.21,0,0,0,24.67,75Zm5.46,3V75m-4.25,4.25h3m-4.25-1.21V75m1.21-1.21h3m-4.25,4.25V76.55m.85-1.87,1.07,1.07m-2.78-1.07-1.07,1.07m.72-1.93H21.95M23.82,73l-1.07-1.07m1.93.72V71.09M25.53,73l1.07-1.07m2.67,2.78L28.2,75.75M31,74.67l1.07,1.07m-.72-1.93h1.52M31,73l1.07-1.07m-1.93.72V71.09M29.28,73,28.2,71.89m-2.67,6.53,1.07-1.07m-2.78,1.07-1.07-1.07m.72,1.93H21.95m1.87.85-1.07,1.07m1.93-.72V82m.85-1.87,1.07,1.07m2.67-2.78L28.2,77.35M31,78.42l1.07-1.07m-.72,1.93h1.52M31,80.13l1.07,1.07m-1.93-.72V82m-.85-1.87L28.2,81.21"/><path class="cls-1" d="M35.59,80.49a1.21,1.21,0,1,1,1.21-1.21,1.21,1.21,0,0,1-1.21,1.21Zm1.21-1.21a1.21,1.21,0,1,1-1.21-1.21,1.21,1.21,0,0,1,1.21,1.21ZM41,80.49a1.21,1.21,0,1,1,1.21-1.21A1.21,1.21,0,0,1,41,80.49ZM36.8,73.82a1.21,1.21,0,1,1-1.21-1.21,1.21,1.21,0,0,1,1.21,1.21ZM41,75a1.21,1.21,0,1,1,1.21-1.21A1.21,1.21,0,0,1,41,75Zm-5.46,3V75m4.25,4.25h-3M41,78.07V75m-1.21-1.21h-3M41,78.07V76.55m-.85-1.87-1.07,1.07m2.78-1.07L43,75.75m-.72-1.93h1.52M41.9,73,43,71.89M41,72.61V71.09M40.19,73l-1.07-1.07m-2.67,2.78,1.07,1.07m-2.78-1.07-1.07,1.07m.72-1.93H32.86M34.73,73l-1.07-1.07m1.93.72V71.09M36.44,73l1.07-1.07m2.67,6.53-1.07-1.07m2.78,1.07L43,77.35m-.72,1.93h1.52m-1.87.85L43,81.21M41,80.49V82m-.85-1.87-1.07,1.07m-2.67-2.78,1.07-1.07m-2.78,1.07-1.07-1.07m.72,1.93H32.86m1.87.85-1.07,1.07m1.93-.72V82m.85-1.87,1.07,1.07"/><path class="cls-1" d="M52,80.49h0a1.21,1.21,0,1,1,0-2.42h0a1.21,1.21,0,1,0,0,2.42Zm-5.46,0a1.21,1.21,0,1,0-1.21-1.21,1.21,1.21,0,0,0,1.21,1.21Zm4.25-6.67A1.21,1.21,0,0,0,52,75h0V72.61h0a1.21,1.21,0,0,0-1.21,1.21ZM46.5,75a1.21,1.21,0,1,0-1.21-1.21A1.21,1.21,0,0,0,46.5,75Zm5.46,3V75m-4.25,4.25h3M46.5,78.07V75m1.21-1.21h3M46.5,78.07V76.55m.85-1.87,1.07,1.07m-2.78-1.07-1.07,1.07m.72-1.93H43.77M45.65,73l-1.07-1.07m1.93.72V71.09M47.36,73l1.07-1.07m2.67,2.78L50,75.75M52,72.61v-1M51.1,73,50,71.89m-2.67,6.53,1.07-1.07m-2.78,1.07-1.07-1.07m.72,1.93H43.77m1.87.85-1.07,1.07m1.93-.72V82m.85-1.87,1.07,1.07m2.67-2.78L50,77.35M52,80.49V82m-.85-1.87L50,81.21"/><path class="cls-1" d="M8.3,61.7a1.21,1.21,0,1,1-1.21,1.21A1.21,1.21,0,0,1,8.3,61.7ZM3.16,69.53q-.41-1.13-.76-2.29a1.21,1.21,0,1,1,.76,2.29Zm3.93-6.62A1.21,1.21,0,1,1,8.3,64.12a1.21,1.21,0,0,1-1.21-1.21ZM2.85,61.7a1.21,1.21,0,1,1-1.21,1.21A1.21,1.21,0,0,1,2.85,61.7Zm4.25,6.67A1.21,1.21,0,1,1,8.3,69.57a1.21,1.21,0,0,1-1.21-1.21ZM8.3,64.12v3M4.06,62.91h3M2.85,64.12v3m1.21,1.21h3M2.85,64.12v1.52m.85,1.87,1.07-1.07M3.7,69.22l1.07,1.07m2.67-2.78L6.37,66.43m2.78,1.07,1.07-1.07m-.72,1.93H11m-1.87.85,1.07,1.07M8.3,69.57v1.52m-.85-1.87L6.37,70.29M3.7,63.76l1.07,1.07M2,63.76l-.43.43m.07-1.28H1.27M2,62.05.92,61m1.93.72V60.18m.85,1.87L4.78,61m2.67,2.78L6.37,64.84m2.78-1.07,1.07,1.07m-.72-1.93H11m-1.87-.85L10.23,61M8.3,61.7V60.18m-.86,1.87L6.37,61"/><path class="cls-1" d="M13.76,61.7A1.21,1.21,0,1,0,15,62.91a1.21,1.21,0,0,0-1.21-1.21ZM15,62.91a1.21,1.21,0,1,0-1.21,1.21A1.21,1.21,0,0,0,15,62.91Zm4.25-1.21a1.21,1.21,0,1,0,1.21,1.21,1.21,1.21,0,0,0-1.21-1.21ZM15,68.36a1.21,1.21,0,1,0-1.21,1.21A1.21,1.21,0,0,0,15,68.36Zm4.25-1.21a1.21,1.21,0,1,0,1.21,1.21,1.21,1.21,0,0,0-1.21-1.21Zm-5.46-3v3M18,62.91H15m4.25,1.21v3M18,68.36H15m4.25-4.25v1.52m-.85,1.87-1.07-1.07m2.78,1.07,1.07-1.07m-.72,1.93h1.52m-1.87.85,1.07,1.07m-1.93-.72v1.52m-.85-1.87-1.07,1.07m-2.67-2.78,1.07-1.07m-2.78,1.07-1.07-1.07m.72,1.93H11m1.87.85-1.07,1.07m1.93-.72v1.52m.85-1.87,1.07,1.07m2.67-6.53-1.07,1.07m2.78-1.07,1.07,1.07m-.72-1.93h1.52m-1.87-.85L21.15,61m-1.93.72V60.18m-.85,1.87L17.29,61m-2.67,2.78,1.07,1.07m-2.78-1.07-1.07,1.07m.72-1.93H11m1.87-.85L11.83,61m1.93.72V60.18m.86,1.87L15.69,61"/><path class="cls-1" d="M30.13,61.7a1.21,1.21,0,1,1-1.21,1.21,1.21,1.21,0,0,1,1.21-1.21Zm-1.21,1.21a1.21,1.21,0,1,1,1.21,1.21,1.21,1.21,0,0,1-1.21-1.21ZM24.67,61.7a1.21,1.21,0,1,1-1.21,1.21,1.21,1.21,0,0,1,1.21-1.21Zm4.25,6.67a1.21,1.21,0,1,1,1.21,1.21,1.21,1.21,0,0,1-1.21-1.21Zm-4.25-1.21a1.21,1.21,0,1,1-1.21,1.21,1.21,1.21,0,0,1,1.21-1.21Zm5.46-3v3m-4.25-4.25h3m-4.25,1.21v3m1.21,1.21h3m-4.25-4.25v1.52m.85,1.87,1.07-1.07m-2.78,1.07-1.07-1.07m.72,1.93H21.95m1.87.85-1.07,1.07m1.93-.72v1.52m.85-1.87,1.07,1.07m2.67-2.78L28.2,66.43M31,67.51l1.07-1.07m-.72,1.93h1.52M31,69.22l1.07,1.07m-1.93-.72v1.52m-.85-1.87L28.2,70.29m-2.67-6.53,1.07,1.07m-2.78-1.07-1.07,1.07m.72-1.93H21.95m1.87-.85L22.74,61m1.93.72V60.18m.85,1.87L26.6,61m2.67,2.78L28.2,64.84M31,63.76l1.07,1.07m-.72-1.93h1.52M31,62.05,32.06,61m-1.93.72V60.18m-.85,1.87L28.2,61"/><path class="cls-1" d="M35,61.86a1.21,1.21,0,1,0,1.34,2,1.21,1.21,0,1,1-1.34-2Zm6.38,2.21q-.38-.34-.74-.7t-.73-.79a1.21,1.21,0,1,1,1.48,1.48Zm-1.28,3.56a19.79,19.79,0,0,0,2,1.34,1.21,1.21,0,1,1-2-1.34Zm-3.28.72a1.21,1.21,0,1,0-1.21,1.21,1.21,1.21,0,0,0,1.21-1.21Zm-1.21-4.25v3m4.25,1.21h-3m5.1.85L43,70.29M41,69.57v1.52m-.85-1.87-1.07,1.07m-2.67-2.78,1.07-1.07m-2.78,1.07-1.07-1.07m.72,1.93H32.86m1.87.85-1.07,1.07m1.93-.72v1.52m.86-1.87,1.07,1.07m4.38-6.53L43,64.84m-.72-1.93h1.52m-1.87-.85L43,61M41,61.7V60.18m-.85,1.87L39.11,61m-4.38,2.78-1.07,1.07m.72-1.93H32.86m1.87-.85L33.66,61"/><path class="cls-1" d="M52,61.7h0a1.21,1.21,0,1,0,0,2.42h0a1.21,1.21,0,1,1,0-2.42Zm0,6.39q-.6,0-1.19,0A1.21,1.21,0,0,1,52,67.15h0v.94Zm-4.81-.74-.59-.2a1.2,1.2,0,0,1,.59.2ZM46.5,61.7a1.21,1.21,0,1,1-1.21,1.21A1.21,1.21,0,0,1,46.5,61.7ZM52,64.12v3m-4.25-4.25h3M46.5,64.12v3m0-3v1.52m.93,1.8,1-1m-3.8,3.8-.06.06m1.93.59v.21m4.6-3.58L50,66.43m-2.67-2.67,1.07,1.07m-2.78-1.07-1.07,1.07m.72-1.93H43.77m1.87-.85L44.57,61m1.93.72V60.18m.85,1.87L48.43,61m2.67,2.78L50,64.84M52,61.7V60.18m-.85,1.87L50,61"/><path class="cls-1" d="M8.3,39.87a1.21,1.21,0,1,1-1.21,1.21A1.21,1.21,0,0,1,8.3,39.87ZM7.09,41.08A1.21,1.21,0,1,1,8.3,42.29a1.21,1.21,0,0,1-1.21-1.21ZM2.85,39.87a1.21,1.21,0,1,1-1.21,1.21,1.21,1.21,0,0,1,1.21-1.21Zm4.25,6.67A1.21,1.21,0,1,1,8.3,47.74a1.21,1.21,0,0,1-1.21-1.21ZM2.85,45.33a1.21,1.21,0,1,1-1.21,1.21,1.21,1.21,0,0,1,1.21-1.21Zm5.46-3v3M4.06,41.08h3M2.85,42.29v3m1.21,1.21h3M2.85,42.29v1.52m.85,1.87,1.07-1.07M2,45.68.92,44.61m.72,1.93H.41M2,47.39.92,48.47m1.93-.72v1.52m.85-1.87,1.07,1.07m2.67-2.78L6.37,44.61m2.78,1.07,1.07-1.07m-.72,1.93H11m-1.87.85,1.07,1.07M8.3,47.74v1.52m-.85-1.87L6.37,48.47M3.7,41.93,4.78,43M2,41.93.92,43m.72-1.93H1.27M2,40.22l-.43-.43m1.28.07V38.35m.85,1.87,1.07-1.07m2.67,2.78L6.37,43m2.78-1.07L10.23,43m-.72-1.93H11m-1.87-.85,1.07-1.07m-1.93.72V38.35m-.85,1.87L6.37,39.15"/><path class="cls-1" d="M13.76,39.87A1.21,1.21,0,1,0,15,41.08a1.21,1.21,0,0,0-1.21-1.21ZM15,41.08a1.21,1.21,0,1,0-1.21,1.21A1.21,1.21,0,0,0,15,41.08Zm4.25-1.21a1.21,1.21,0,1,0,1.21,1.21,1.21,1.21,0,0,0-1.21-1.21ZM15,46.54a1.21,1.21,0,1,0-1.21,1.21A1.21,1.21,0,0,0,15,46.54Zm4.25-1.21a1.21,1.21,0,1,0,1.21,1.21,1.21,1.21,0,0,0-1.21-1.21Zm-5.46-3v3M18,41.08H15m4.25,1.21v3M18,46.54H15m4.25-4.25v1.52m-.85,1.87-1.07-1.07m2.78,1.07,1.07-1.07m-.72,1.93h1.52m-1.87.85,1.07,1.07m-1.93-.72v1.52m-.85-1.87-1.07,1.07m-2.67-2.78,1.07-1.07m-2.78,1.07-1.07-1.07m.72,1.93H11m1.87.85-1.07,1.07m1.93-.72v1.52m.86-1.87,1.07,1.07m2.67-6.53L17.29,43m2.78-1.07L21.15,43m-.72-1.93h1.52m-1.87-.85,1.07-1.07m-1.93.72V38.35m-.85,1.87-1.07-1.07m-2.67,2.78L15.69,43m-2.78-1.07L11.83,43m.72-1.93H11m1.87-.85-1.07-1.07m1.93.72V38.35m.86,1.87,1.07-1.07"/><path class="cls-1" d="M30.13,39.87a1.21,1.21,0,1,1-1.21,1.21,1.21,1.21,0,0,1,1.21-1.21Zm-1.21,1.21a1.21,1.21,0,1,1,1.21,1.21,1.21,1.21,0,0,1-1.21-1.21Zm-4.25-1.21a1.21,1.21,0,1,1-1.21,1.21,1.21,1.21,0,0,1,1.21-1.21Zm4.25,6.67a1.21,1.21,0,1,1,1.21,1.21,1.21,1.21,0,0,1-1.21-1.21Zm-4.25-1.21a1.21,1.21,0,1,1-1.21,1.21,1.21,1.21,0,0,1,1.21-1.21Zm5.46-3v3m-4.25-4.25h3m-4.25,1.21v3m1.21,1.21h3m-4.25-4.25v1.52m.85,1.87,1.07-1.07m-2.78,1.07-1.07-1.07m.72,1.93H21.95m1.87.85-1.07,1.07m1.93-.72v1.52m.85-1.87,1.07,1.07m2.67-2.78L28.2,44.61M31,45.68l1.07-1.07m-.72,1.93h1.52M31,47.39l1.07,1.07m-1.93-.72v1.52m-.85-1.87L28.2,48.47m-2.67-6.53L26.6,43m-2.78-1.07L22.74,43m.72-1.93H21.95m1.87-.85-1.07-1.07m1.93.72V38.35m.85,1.87,1.07-1.07m2.67,2.78L28.2,43M31,41.93,32.06,43m-.72-1.93h1.52M31,40.22l1.07-1.07m-1.93.72V38.35m-.85,1.87L28.2,39.15"/><path class="cls-1" d="M35.59,39.87A1.21,1.21,0,0,0,35,42.12a1.21,1.21,0,1,1,1.34-2,1.2,1.2,0,0,0-.73-.25Zm5,.74q.36-.36.75-.7a1.21,1.21,0,1,1-1.48,1.48q.35-.4.73-.78Zm-4,6.51.14-.41a1.2,1.2,0,0,1-.14.41ZM41,45.33a1.21,1.21,0,1,0,1.21,1.21A1.21,1.21,0,0,0,41,45.33Zm0-3v3m-1.21,1.21h-3M41,42.29v1.52m-.85,1.87-1.07-1.07m2.78,1.07L43,44.61m-.72,1.93h1.52m-1.87.85L43,48.47M41,47.74v1.52m-.85-1.87-1.07,1.07m-5.38-3.78-.07-.07m-.56,1.93h-.24m3.68.95,1,1m2.67-6.53L39.11,43m2.78-1.07L43,43m-.72-1.93h1.52m-1.87-.85L43,39.15m-8.24,2.78L33.66,43m.72-1.93H32.86m1.87-.85-1.07-1.07m1.93.72V38.35"/><path class="cls-1" d="M52,39.87h0a1.21,1.21,0,0,0,0,2.42h0a1.21,1.21,0,0,1,0-2.42Zm-5.46,0a1.21,1.21,0,1,1-1.21,1.21,1.21,1.21,0,0,1,1.21-1.21Zm4.25,6.67A1.21,1.21,0,0,1,52,45.33h0v2.42h0a1.21,1.21,0,0,1-1.21-1.21ZM46.5,45.33a1.21,1.21,0,1,1-1.21,1.21,1.21,1.21,0,0,1,1.21-1.21Zm5.46-3v3m-4.25-4.25h3M46.5,42.29v3m1.21,1.21h3M46.5,42.29v1.52m.85,1.87,1.07-1.07m-2.78,1.07-1.07-1.07m.72,1.93H43.77m1.87.85-1.07,1.07m1.93-.72v1.52m.85-1.87,1.07,1.07m2.67-2.78L50,44.61M52,47.74v1.52m-.85-1.87L50,48.47m-2.67-6.53L48.43,43m-2.78-1.07L44.57,43m.72-1.93H43.77m1.87-.85-1.07-1.07m1.93.72V38.35m.85,1.87,1.07-1.07m2.67,2.78L50,43M52,39.87V38.35m-.85,1.87L50,39.15"/><path class="cls-1" d="M8.3,58.66a1.21,1.21,0,1,0-1.21-1.21A1.21,1.21,0,0,0,8.3,58.66ZM7.09,57.45A1.21,1.21,0,1,0,8.3,56.24a1.21,1.21,0,0,0-1.21,1.21ZM2.85,58.66a1.21,1.21,0,1,0-1.21-1.21,1.21,1.21,0,0,0,1.21,1.21ZM7.09,52A1.21,1.21,0,1,0,8.3,50.78,1.21,1.21,0,0,0,7.09,52ZM2.85,53.2A1.21,1.21,0,1,0,1.64,52,1.21,1.21,0,0,0,2.85,53.2Zm5.46,3v-3M4.06,57.45h3M2.85,56.24v-3M4.06,52h3M2.85,56.24V54.72m.85-1.87,1.07,1.07M2,52.85.92,53.92M1.64,52H.12M2,51.14.92,50.06m1.93.72V49.26m.85,1.87,1.07-1.07m2.67,2.78L6.37,53.92m2.78-1.07,1.07,1.07M9.51,52H11m-1.87-.86,1.07-1.07m-1.93.72V49.26m-.85,1.87L6.37,50.06M3.7,56.59l1.07-1.07M2,56.59.92,55.52m.72,1.93H.41M2,58.3.92,59.38m1.93-.72v1.52M3.7,58.3l1.07,1.07m2.67-2.78L6.37,55.52m2.78,1.07,1.07-1.07m-.72,1.93H11m-1.87.85,1.07,1.07M8.3,58.66v1.52M7.45,58.3,6.37,59.38"/><path class="cls-1" d="M13.76,58.66A1.21,1.21,0,1,1,15,57.45a1.21,1.21,0,0,1-1.21,1.21ZM15,57.45a1.21,1.21,0,1,1-1.21-1.21A1.21,1.21,0,0,1,15,57.45Zm4.25,1.21a1.21,1.21,0,1,1,1.21-1.21,1.21,1.21,0,0,1-1.21,1.21ZM15,52a1.21,1.21,0,1,1-1.21-1.21A1.21,1.21,0,0,1,15,52Zm4.25,1.21A1.21,1.21,0,1,1,20.43,52a1.21,1.21,0,0,1-1.21,1.21Zm-5.46,3v-3M18,57.45H15m4.25-1.21v-3M18,52H15m4.25,4.25V54.72m-.85-1.87-1.07,1.07m2.78-1.07,1.07,1.07M20.43,52h1.52m-1.87-.85,1.07-1.07m-1.93.72V49.26m-.85,1.87-1.07-1.07m-2.67,2.78,1.07,1.07m-2.78-1.07-1.07,1.07M12.55,52H11m1.87-.86-1.07-1.07m1.93.72V49.26m.85,1.87,1.07-1.07m2.67,6.53-1.07-1.07m2.78,1.07,1.07-1.07m-.72,1.93h1.52m-1.87.85,1.07,1.07m-1.93-.72v1.52m-.85-1.87-1.07,1.07m-2.67-2.78,1.07-1.07m-2.78,1.07-1.07-1.07m.72,1.93H11m1.87.85-1.07,1.07m1.93-.72v1.52m.86-1.87,1.07,1.07"/><path class="cls-1" d="M30.13,58.66a1.21,1.21,0,1,0-1.21-1.21,1.21,1.21,0,0,0,1.21,1.21Zm-1.21-1.21a1.21,1.21,0,1,0,1.21-1.21,1.21,1.21,0,0,0-1.21,1.21Zm-4.25,1.21a1.21,1.21,0,1,0-1.21-1.21,1.21,1.21,0,0,0,1.21,1.21ZM28.92,52a1.21,1.21,0,1,0,1.21-1.21A1.21,1.21,0,0,0,28.92,52ZM24.67,53.2A1.21,1.21,0,1,0,23.46,52a1.21,1.21,0,0,0,1.21,1.21Zm5.46,3v-3m-4.25,4.25h3m-4.25-1.21v-3M25.88,52h3m-4.25,4.25V54.72m.85-1.87,1.07,1.07m-2.78-1.07-1.07,1.07M23.46,52H21.95m1.87-.85-1.07-1.07m1.93.72V49.26m.85,1.87,1.07-1.07m2.67,2.78L28.2,53.92M31,52.85l1.07,1.07M31.34,52h1M31,51.14l1.07-1.07m-1.93.72V49.26m-.85,1.87L28.2,50.06m-2.67,6.53,1.07-1.07m-2.78,1.07-1.07-1.07m.72,1.93H21.95m1.87.85-1.07,1.07m1.93-.72v1.52m.85-1.87,1.07,1.07m2.67-2.78L28.2,55.52M31,56.59l1.07-1.07m-.72,1.93h1.52M31,58.3l1.07,1.07m-1.93-.72v1.52m-.86-1.87L28.2,59.38"/><path class="cls-1" d="M36.65,56.87a1.21,1.21,0,0,1,.14.41,1.21,1.21,0,0,0-.14-.41Zm-.71-3.72q0-.57,0-1.16t0-1.16a1.21,1.21,0,0,1,0,2.31ZM41,58.66a1.21,1.21,0,1,1,1.21-1.21A1.21,1.21,0,0,1,41,58.66Zm0-5.46A1.21,1.21,0,1,1,42.25,52,1.21,1.21,0,0,1,41,53.2Zm-1.21,4.25h-3M41,56.24v-3M39.83,52h-3M41,56.24V54.72m-.85-1.87-1.07,1.07m2.78-1.07L43,53.92M42.25,52h1.52m-1.87-.85L43,50.06M41,50.78V49.26m-.85,1.87-1.07-1.07m-2.67,2.78,1.07,1.07m-1.07-2.78,1.07-1.07m2.67,6.53-1.07-1.07m2.78,1.07L43,55.52m-.72,1.93h1.52m-1.87.85L43,59.38M41,58.66v1.52m-.85-1.87-1.07,1.07M36.54,56.5l1-1m-4.42,1.93h-.24m.87,1.86-.07.07"/><path class="cls-1" d="M52,58.66h0a1.21,1.21,0,0,1,0-2.42h0a1.21,1.21,0,0,0,0,2.42Zm-5.46,0a1.21,1.21,0,1,0-1.21-1.21,1.21,1.21,0,0,0,1.21,1.21ZM50.75,52A1.21,1.21,0,0,0,52,53.2h0V50.78h0A1.21,1.21,0,0,0,50.75,52ZM46.5,53.2A1.21,1.21,0,1,0,45.29,52,1.21,1.21,0,0,0,46.5,53.2Zm5.46,3v-3m-4.25,4.25h3M46.5,56.24v-3M47.71,52h3M46.5,56.24V54.72m.85-1.87,1.07,1.07m-2.78-1.07-1.07,1.07M45.29,52H43.77m1.87-.86-1.07-1.07m1.93.72V49.26m.85,1.87,1.07-1.07m2.67,2.78L50,53.92M52,50.78V49.26m-.85,1.87L50,50.06m-2.67,6.53,1.07-1.07m-2.78,1.07-1.07-1.07m.72,1.93H43.77m1.87.85-1.07,1.07m1.93-.72v1.52m.85-1.87,1.07,1.07m2.67-2.78L50,55.52M52,58.66v1.52M51.1,58.3,50,59.38"/><path class="cls-1" d="M13.76,83.52A1.21,1.21,0,1,0,15,84.73a1.21,1.21,0,0,0-1.21-1.21ZM15,84.73a1.21,1.21,0,1,0-1.21,1.21A1.21,1.21,0,0,0,15,84.73Zm4.25-1.21a1.21,1.21,0,1,0,1.21,1.21,1.21,1.21,0,0,0-1.21-1.21Zm0,5.46a1.21,1.21,0,1,0,1.21,1.21A1.21,1.21,0,0,0,19.22,89Zm-5.46-3V87M18,84.73H15m4.25,1.21v3M18,90.19H16.9m2.31-4.25v1.52m-.85,1.87-1.07-1.07m2.78,1.07,1.07-1.07m-.72,1.93h1.52M20.07,91l1.07,1.07m-1.93-.72v.8M18.36,91l-.24.24M15.3,88.65l.39-.39m2.67-2.67-1.07,1.07m2.78-1.07,1.07,1.07m-.72-1.93h1.52m-1.87-.85,1.07-1.07m-1.93.72V82m-.85,1.87L17.29,82.8m-2.67,2.78,1.07,1.07m-2.78-1.07-.23.23m-.12-1.09h-.79m1.14-.85L11.83,82.8m1.93.72V82m.85,1.87,1.07-1.07"/><path class="cls-1" d="M30.13,83.52a1.21,1.21,0,1,1-1.21,1.21,1.21,1.21,0,0,1,1.21-1.21Zm-1.21,1.21a1.21,1.21,0,1,1,1.21,1.21,1.21,1.21,0,0,1-1.21-1.21Zm-4.25-1.21a1.21,1.21,0,1,1-1.21,1.21,1.21,1.21,0,0,1,1.21-1.21Zm4.25,6.67a1.21,1.21,0,1,1,1.21,1.21,1.21,1.21,0,0,1-1.21-1.21ZM24.67,89a1.21,1.21,0,1,1-1.21,1.21A1.21,1.21,0,0,1,24.67,89Zm5.46-3v3m-4.25-4.25h3m-4.25,1.21v3m1.21,1.21h3m-4.25-4.25v1.52m.85,1.87,1.07-1.07m-2.78,1.07-1.07-1.07m.72,1.93H21.95m1.87.85-1.07,1.07m1.93-.72v1.52M25.53,91l1.07,1.07m2.67-2.78L28.2,88.26M31,89.34l1.07-1.07m-.72,1.93h1.52M31,91l1.07,1.07m-1.93-.72v1.52M29.28,91,28.2,92.12m-2.67-6.53,1.07,1.07m-2.78-1.07-1.07,1.07m.72-1.93H21.95m1.87-.85L22.74,82.8m1.93.72V82m.85,1.87L26.6,82.8m2.67,2.78L28.2,86.66M31,85.59l1.07,1.07m-.72-1.93h1.52M31,83.88l1.07-1.07m-1.93.72V82m-.86,1.87L28.2,82.8"/><path class="cls-1" d="M35.59,83.52a1.21,1.21,0,1,0,1.21,1.21,1.21,1.21,0,0,0-1.21-1.21Zm1.21,1.21a1.21,1.21,0,1,0-1.21,1.21,1.21,1.21,0,0,0,1.21-1.21ZM41,83.52a1.21,1.21,0,1,0,1.21,1.21A1.21,1.21,0,0,0,41,83.52ZM36.8,90.19a1.21,1.21,0,1,0-1.21,1.21,1.21,1.21,0,0,0,1.21-1.21ZM41,89a1.21,1.21,0,1,0,1.21,1.21A1.21,1.21,0,0,0,41,89Zm-5.46-3v3m4.25-4.25h-3M41,85.94v3m-1.21,1.21h-3M41,85.94v1.52m-.85,1.87-1.07-1.07m2.78,1.07L43,88.26m-.72,1.93h1.52M41.9,91,43,92.12M41,91.4v1.52M40.19,91l-1.07,1.07m-2.67-2.78,1.07-1.07m-2.78,1.07-1.07-1.07m.72,1.93H32.86m1.87.85-1.07,1.07m1.93-.72v1.52M36.44,91l1.07,1.07m2.67-6.53-1.07,1.07m2.78-1.07L43,86.66m-.72-1.93h1.52m-1.87-.85L43,82.8M41,83.52V82m-.85,1.87L39.11,82.8m-2.67,2.78,1.07,1.07m-2.78-1.07-1.07,1.07m.72-1.93H32.86m1.87-.85L33.66,82.8m1.93.72V82m.85,1.87,1.07-1.07"/><path class="cls-1" d="M52,83.52h0a1.21,1.21,0,0,0,0,2.42h0a1.21,1.21,0,0,1,0-2.42Zm-5.46,0a1.21,1.21,0,1,1-1.21,1.21,1.21,1.21,0,0,1,1.21-1.21Zm4.25,6.67A1.21,1.21,0,0,1,52,89h0V91.4h0a1.21,1.21,0,0,1-1.21-1.21ZM46.5,89a1.21,1.21,0,1,1-1.21,1.21A1.21,1.21,0,0,1,46.5,89Zm5.46-3v3m-4.25-4.25h3M46.5,85.94v3m1.21,1.21h3M46.5,85.94v1.52m.85,1.87,1.07-1.07m-2.78,1.07-1.07-1.07m.72,1.93H43.77m1.87.85-1.07,1.07m1.93-.72v1.52M47.36,91l1.07,1.07m2.67-2.78L50,88.26M52,91.4v1.52M51.1,91,50,92.12m-2.67-6.53,1.07,1.07m-2.78-1.07-1.07,1.07m.72-1.93H43.77m1.87-.85L44.57,82.8m1.93.72V82m.85,1.87,1.07-1.07m2.67,2.78L50,86.66M52,83.52V82m-.85,1.87L50,82.8"/><path class="cls-1" d="M25.46,96.57q-1-.59-2-1.22a1.21,1.21,0,1,1,2,1.22Zm3.47-.92a1.21,1.21,0,1,0,1.21-1.21,1.21,1.21,0,0,0-1.21,1.21ZM30.13,99V96.86m-4.25-1.21h3m-3.39.85.27.27m-2-2-1.07-1.07m1.93.72V92.92m.85,1.87,1.07-1.07m2.67,2.78L28.2,97.58M31,96.5l1.07,1.07m-.72-1.93h1.52M31,94.79l1.07-1.07m-1.93.72V92.92m-.85,1.87L28.2,93.72m3.35,6,.51-.51"/><path class="cls-1" d="M34.41,100.81a1.21,1.21,0,1,1,2.29.76,1.21,1.21,0,1,0-2.29-.76ZM41,102.31a1.21,1.21,0,1,1,1.21-1.21A1.21,1.21,0,0,1,41,102.31ZM36.8,95.65a1.21,1.21,0,1,1-1.21-1.21,1.21,1.21,0,0,1,1.21,1.21ZM41,96.86a1.21,1.21,0,1,1,1.21-1.21A1.21,1.21,0,0,1,41,96.86Zm-5.46,3v-3m4.25,4.25h-3M41,99.89v-3m-1.21-1.21h-3M41,99.89V98.38m-.85-1.87-1.07,1.07M41.9,96.5,43,97.58m-.72-1.93h1.52m-1.87-.85L43,93.72M41,94.44V92.92m-.85,1.87-1.07-1.07M36.44,96.5l1.07,1.07M34.73,96.5l-1.07,1.07m.72-1.93H32.86m1.87-.85-1.07-1.07m1.93.72V92.92m.85,1.87,1.07-1.07m2.67,6.53-1.07-1.07m2.78,1.07L43,99.17m-.72,1.93h1.52M41.9,102,43,103M41,102.31v.39m-.85-.75-.45.45m-3.3-2.16,1.07-1.07m-2.78,1.07-1.07-1.07"/><path class="cls-1" d="M52,102.31h0a1.21,1.21,0,1,1,0-2.42h0a1.21,1.21,0,1,0,0,2.42Zm-5.46,0a1.21,1.21,0,1,0-1.21-1.21,1.21,1.21,0,0,0,1.21,1.21Zm4.25-6.67A1.21,1.21,0,0,0,52,96.86h0V94.44h0a1.21,1.21,0,0,0-1.21,1.21ZM46.5,96.86a1.21,1.21,0,1,0-1.21-1.21,1.21,1.21,0,0,0,1.21,1.21Zm5.46,3v-3m-4.25,4.25h3M46.5,99.89v-3m1.21-1.21h3M46.5,99.89V98.38m.85-1.87,1.07,1.07M45.65,96.5l-1.07,1.07m.72-1.93H43.77m1.87-.85-1.07-1.07m1.93.72V92.92m.85,1.87,1.07-1.07M51.1,96.5,50,97.58M52,94.44V92.92m-.85,1.87L50,93.72m-2.67,6.53,1.07-1.07m-2.78,1.07-1.07-1.07m.72,1.93H43.77m1.87.85L44.57,103m1.93-.72v1.26m.85-1.62L48.43,103m2.67-2.78L50,99.17M52,102.31v1.52M51.1,102,50,103"/><line class="cls-2" x1="51.96" y1="103.86" x2="51.96" y2="103.83"/><path class="cls-1" d="M40.61,40.61A16,16,0,0,1,52,35.9V68.09A16.1,16.1,0,0,1,40.61,40.61ZM15.32,15.32A51.71,51.71,0,0,1,52,.12v32.2a19.67,19.67,0,0,0,0,39.33v32.2A51.87,51.87,0,0,1,15.32,15.32Z"/></g></g></svg>