<svg xmlns="http://www.w3.org/2000/svg" xmlns:xlink="http://www.w3.org/1999/xlink" width="203" height="251.563"><defs><linearGradient id="k"><stop offset="0" stop-opacity="0"/><stop offset=".276" stop-opacity=".42"/><stop offset=".601" stop-opacity=".319"/><stop offset="1" stop-opacity=".622"/></linearGradient><linearGradient id="s"><stop offset="0" stop-opacity="0"/><stop offset=".5" stop-opacity=".502"/><stop offset="1" stop-opacity="0"/></linearGradient><linearGradient id="a"><stop offset="0" stop-opacity="0"/><stop offset=".5" stop-opacity=".502"/><stop offset="1" stop-opacity="0"/></linearGradient><linearGradient id="b"><stop offset="0" stop-opacity="0"/><stop offset=".5" stop-opacity=".502"/><stop offset="1" stop-opacity="0"/></linearGradient><linearGradient xlink:href="#b" id="O" gradientUnits="userSpaceOnUse" gradientTransform="matrix(.5 0 0 .5 8.572 460.934)" x1="667.923" y1="107.435" x2="703.864" y2="122.991"/><clipPath id="n"><path transform="rotate(45)" fill="#edaa0f" d="M405.533 79.458h267.185v101.52H405.533z"/></clipPath><linearGradient id="c"><stop offset="0" stop-opacity="0"/><stop offset=".5" stop-opacity=".319"/><stop offset="1" stop-opacity="0"/></linearGradient><linearGradient id="d"><stop offset="0" stop-opacity="0"/><stop offset=".5" stop-opacity=".502"/><stop offset="1" stop-opacity="0"/></linearGradient><linearGradient id="e"><stop offset="0" stop-opacity="0"/><stop offset=".5" stop-opacity=".502"/><stop offset="1" stop-opacity="0"/></linearGradient><linearGradient id="f"><stop offset="0" stop-opacity="0"/><stop offset=".5" stop-opacity=".502"/><stop offset="1" stop-opacity="0"/></linearGradient><linearGradient id="g"><stop offset="0" stop-opacity="0"/><stop offset=".5" stop-opacity=".502"/><stop offset="1" stop-opacity="0"/></linearGradient><linearGradient id="h"><stop offset="0" stop-opacity="0"/><stop offset=".5" stop-opacity=".462"/><stop offset="1" stop-opacity="0"/></linearGradient><clipPath id="q"><path fill="#edaa0f" d="M298.99 325.058h89.904V599.82H298.99z"/></clipPath><linearGradient id="i"><stop offset="0" stop-opacity="0"/><stop offset=".5" stop-opacity=".502"/><stop offset="1" stop-opacity="0"/></linearGradient><linearGradient id="j"><stop offset="0" stop-opacity="0"/><stop offset=".5" stop-opacity=".502"/><stop offset="1" stop-opacity="0"/></linearGradient><clipPath id="p"><path transform="rotate(-45)" fill="#edaa0f" d="M-241.703 525.246h295.47v125.259h-295.47z"/></clipPath><linearGradient xlink:href="#b" id="C" gradientUnits="userSpaceOnUse" gradientTransform="matrix(.5 0 0 .5 8.572 460.934)" x1="671.048" y1="108.56" x2="701.864" y2="121.741"/><linearGradient xlink:href="#h" id="M" gradientUnits="userSpaceOnUse" gradientTransform="matrix(.5 0 0 .5 -458.003 -691.027)" x1="670.716" y1="108.536" x2="703.115" y2="122.863"/><linearGradient xlink:href="#j" id="K" gradientUnits="userSpaceOnUse" gradientTransform="translate(-929.927 -697.652) scale(1.16698)" x1="670.34" y1="110.385" x2="696.708" y2="133.471"/><linearGradient xlink:href="#d" id="F" gradientUnits="userSpaceOnUse" gradientTransform="matrix(.5 0 0 .5 8.572 460.934)" x1="670.296" y1="109.655" x2="702.956" y2="121.851"/><linearGradient xlink:href="#c" id="u" gradientUnits="userSpaceOnUse" gradientTransform="matrix(.5 0 0 .5 8.572 460.934)" x1="648.923" y1="97.185" x2="701.114" y2="122.491"/><linearGradient xlink:href="#k" id="w" gradientUnits="userSpaceOnUse" gradientTransform="matrix(.5 0 0 .5 8.572 460.934)" x1="701.673" y1="123.435" x2="647.364" y2="94.491"/><linearGradient id="l"><stop offset="0" stop-opacity="0"/><stop offset=".5" stop-opacity=".502"/><stop offset="1" stop-opacity="0"/></linearGradient><clipPath id="t"><use xlink:href="#m" transform="matrix(1 0 0 -1 6.983 887.688)" width="100%" height="100%"/></clipPath><clipPath id="v"><path d="M401.123 524.056c17.17-17.07-3.76-65.968-46.747-109.209-42.988-43.24-91.74-64.434-108.91-47.364-17.171 17.07 3.736 65.946 46.724 109.187 42.988 43.24 91.762 64.456 108.933 47.386zm-2.468-2.482c-15.8 15.707-62.358-5.502-103.983-47.372-41.625-41.87-62.539-88.53-46.74-104.237 15.8-15.707 62.336 5.48 103.962 47.35 41.625 41.87 62.56 88.552 46.761 104.26z" fill="#fff" stroke="#000"/></clipPath><clipPath id="x"/><clipPath id="y"><use clip-path="url(#n)" xlink:href="#o" width="600" height="400"/></clipPath><clipPath id="A"><path transform="rotate(45)" fill="#edaa0f" d="M405.533 79.458h267.185v101.52H405.533z"/></clipPath><clipPath id="B"><use clip-path="url(#n)" xlink:href="#o" width="600" height="400"/></clipPath><clipPath id="D"><path fill="#edaa0f" d="M298.99 325.058h89.904V599.82H298.99z"/></clipPath><clipPath id="E"><use clip-path="url(#n)" xlink:href="#o" width="600" height="400"/></clipPath><clipPath id="G"><use clip-path="url(#n)" xlink:href="#o" width="600" height="400"/></clipPath><clipPath id="I"><path transform="rotate(-45)" fill="#edaa0f" d="M-241.703 525.246h295.47v125.259h-295.47z"/></clipPath><clipPath id="J"><use height="400" width="600" clip-path="url(#p)" xlink:href="#m" transform="rotate(-167.474)"/></clipPath><clipPath id="L"><use clip-path="url(#q)" xlink:href="#r" width="600" height="400" transform="rotate(-160.87 0 0)"/></clipPath><clipPath id="N"><use xlink:href="#m" clip-path="url(#clipPath5388-57)" width="600" height="400" transform="scale(-1 1) rotate(12.917 -113.661 -2443.241)"/></clipPath><clipPath id="P"><path transform="rotate(45)" fill="#edaa0f" d="M550.45 119.773h54.981v20.891H550.45z"/></clipPath><linearGradient xlink:href="#b" id="z" gradientUnits="userSpaceOnUse" gradientTransform="matrix(.5 0 0 .5 8.572 460.934)" x1="667.923" y1="107.435" x2="703.864" y2="122.991"/><linearGradient xlink:href="#b" id="H" gradientUnits="userSpaceOnUse" gradientTransform="matrix(.5 0 0 .5 8.572 460.934)" x1="667.923" y1="107.435" x2="703.864" y2="122.991"/></defs><path d="M.5.496v208c0 10.01 7.65 21.81 21.76 21.75l59.75-.25c5.144-.021 17.398 5.303 19.5 21.5 2.1-16.197 14.354-21.521 19.5-21.5l59.75.25c14.107.06 21.764-11.74 21.74-21.75v-208z" fill="#ed1f29" stroke="#000"/><g transform="translate(-214.461 -339.672)"><path id="r" d="M316.761 343.505c-24.21.192-43.45 49.779-42.967 110.75.484 60.971 20.507 110.216 44.718 110.024 24.21-.192 43.45-49.748 42.967-110.72-.483-60.97-20.507-110.246-44.718-110.054zm.028 3.5c22.278-.177 40.722 47.544 41.19 106.583.468 59.038-17.217 107.014-39.495 107.191-22.278.177-40.722-47.513-41.19-106.552-.468-59.038 17.217-107.046 39.495-107.222z" fill="#fff" stroke="#000" stroke-width=".5"/><path id="m" d="M393.923 364.446c-17.07-17.17-65.968 3.759-109.209 46.747-43.24 42.988-64.434 91.74-47.364 108.91 17.07 17.171 65.946-3.736 109.187-46.724 43.24-42.988 64.456-91.762 47.386-108.933zm-2.482 2.468c15.707 15.8-5.502 62.357-47.372 103.983-41.87 41.625-88.53 62.539-104.237 46.74-15.707-15.8 5.48-62.337 47.35-103.962 41.87-41.625 88.551-62.561 104.259-46.761z" fill="#fff" stroke="#000" stroke-width=".5"/><path style="marker:none" clip-path="url(#t)" transform="matrix(1 0 0 -1 -6.983 887.688)" color="#000" overflow="visible" fill="url(#u)" d="M343.563 506.608h16.617v23.865h-16.617z"/><path id="o" d="M240.219 364.958c-17.17 17.07 3.759 65.968 46.747 109.209 42.988 43.24 91.74 64.434 108.91 47.364s-3.736-65.946-46.724-109.187c-42.988-43.24-91.763-64.456-108.933-47.386zm2.467 2.482c15.8-15.707 62.358 5.502 103.983 47.372 41.626 41.87 62.54 88.53 46.74 104.237-15.8 15.707-62.336-5.48-103.961-47.35-41.625-41.87-62.561-88.552-46.762-104.26z" fill="#fff" stroke="#000" stroke-width=".5"/><path style="marker:none" clip-path="url(#v)" transform="rotate(180 320.67 444.507)" color="#000" overflow="visible" fill="url(#w)" d="M335.563 502.233h24.617v28.24h-24.617z"/><use xlink:href="#r" clip-path="url(#x)" width="600" height="400"/><path style="marker:none" clip-path="url(#y)" transform="scale(1 -1) rotate(49.048 1318.168 -14.684)" color="#000" overflow="visible" fill="url(#z)" d="M343.563 506.608h16.617v23.865h-16.617z"/><g transform="translate(.288 -.48)"><path d="M250.503 415.214l41.164 61.872 96.217-18.435-4.04-15.153-127.028-34.345z" fill="#fef200"/><path d="M355.08 479.597s15.037 7.32 18.58 13.212c3.544 5.89 4 16.305-1.874 21.696-5.874 5.391-26.349 18.711-32.5 28.929-26.227 17.904-21.448 3.974-23.929-2.5 3.916-6.918 5.918-12.916 5.795-18.01-.417-17.26-17.403-23.524-29.595-21.827-14.342 1.997-32.414 24.51-33.173 37.21.117 4.97 4.301 11.253-2.515 13.72-6.541 2.367-16.94 1.057-20.096-25.032-1.665-13.768-2.812-30.407.909-43.788 1.706-6.135 6.068-13.495 11.39-16.691 3.24-1.945 10.799-2.295 15.69-1.952 5.623.396 8.745-2.428 8.649-8.06" fill="#fef200" stroke="#000" stroke-width=".5"/><path d="M319.713 447.594a14.458 15.973 9.478 0 1-2.234 22.454 14.458 15.973 9.478 0 1-20.375-1.7 14.458 15.973 9.478 0 1 2.184-22.459" fill="#fff" stroke="#000" stroke-width=".5"/><path d="M303.294 454.688l3.887 3.62-3.519.658 1.137 6.312.097-5.326 4.752-.962-2.737-3 3.317-.117.821 1.2 4.925-3.726 2.083-4.238c-2.882-4.13-7.929-3.122-10.975-3.463l-3.836 3.711z" fill="#a3a4a6"/><path d="M296.017 461.651c.227 3.253 1.611 5.773 3.93 7.613 2.283 1.81 4.95 2.848 8.438 2.791 3.079-.05 6.402-1.266 8.734-3.77 1.609-1.726 2.62-4.045 3.268-6.955-2.122 6.933-6.963 9.736-12.103 9.878-2.745.076-5.186-.546-7.565-2.309-2.445-1.812-3.948-4.014-4.702-7.248z" fill="#c5c5c5"/><path d="M318.057 449.11c-2.882-4.132-7.929-3.123-10.975-3.464" fill="none" stroke="#000" stroke-width=".5"/><path d="M298.01 463.165c.353 2.39 1.584 4.173 3.644 5.401 2.028 1.209 4.413 1.925 7.372 1.686 2.612-.211 5.375-1.4 7.233-3.381 1.28-1.367 2.025-3.137 2.432-5.324-1.205 3.106-2.613 5.058-4.8 6.328-1.504.873-3.216 1.494-4.992 1.655-2.328.212-4.432-.177-6.539-1.345-2.166-1.2-3.55-2.674-4.35-5.02z" fill="#c5c5c5"/><path d="M301.725 465.278c.568 1.2 1.215 1.793 2.654 2.352 1.416.55 3.168.907 5.189.695 1.784-.188 3.751-1.045 4.978-2.106.846-.731 1.316-1.413 1.783-2.635-1.128 1.61-2.014 2.507-3.483 3.217-1.01.488-2.169.856-3.382.992-1.59.179-3.04.047-4.509-.48-1.51-.541-2.39-.94-3.23-2.035z" fill="#c5c5c5"/><path d="M385.914 455.072c-4.477-1.77-8.52-3.642-15.268-3.839-12.155-.354-24.45 11.739-33.572 11.875-1.424.021-5.863 2.442-6.696-12.679-.242-4.393-3.612-6.624-7.321-5.892l-5.447 10.178c-.66 2.215 2.557 1.69 3.587 2.684.824.794 1.026 3.524.81 4.11-.217.585-2.85 6.538-2.782 7.527.069.99-1.368 8.823 14.458 8.334 6.092-.188 17.536 2.888 29.042 2.828 16.53-.086 32.94-3.75 32.478-17.496-.906-26.917-18.862-47.21-32.226-60.083l-68.564-8.208c-19.19.595-44.429 7.747-51.139 13.637-6.452 5.664-6.698 10.372-6.483 15.808.339 8.567 4.243 12.585 8.756 17.148 11.063 11.186 25.662 14.258 41.08 21.792 1.81.884 5.601.006 6.43-1.83 1.97-4.369 3.12-11.18 5.223-12.099 2.103-.919 2.076 1.639 4.83.69 2.755-.949 7.058-10.618 7.058-10.618.209-2.346-3.985-3.665-6.219-3.51-2.233.156-4.204.213-6.964 1.786-2.76 1.574-7.123 6.88-8.393 8.393-1.27 1.514-2.076 2.143-3.303 2.143-1.228 0-2.347-.758-3.929-2.947-1.582-2.188-8.162-14.497-11.16-19.732-3-5.235-6.802-7.823-10.09-9.643-3.288-1.819-8.66-1.964-8.66-1.964" fill="#fef200" stroke="#000" stroke-width=".5"/><ellipse ry="1.564" rx="2.098" cy="238.49" cx="452.898" transform="matrix(.90297 .4297 -.44614 .89496 0 0)"/><path d="M320.204 373.166l10.354 1.705 4.672 25.822-23.36-.82z" fill="#fef200"/><path d="M355.99 449.453c11.345-12.766 10.259-33.001 7.403-46.555-3.236-15.359-19.182-27.143-26.027-29.464.872-2.957.952-10.844-5.402-10.893-3.867-.03-10.268 6.962-9.955 14.955" fill="#fef200" stroke="#000" stroke-width=".5"/><path d="M363.929 407.184c2.448 13.69 2.35 30.32-8.304 42.946-4.176 4.949-6.751 7.097-6.751 7.097 2.406-3.661 3.986-8.194 4.608-11.53l2.39 1.123c5.511-8.728 6.142-18.09 5.016-28.609l2.904.454c-1.407-8.066-2.368-9.074-1.677-10.522.583-.667 1.814-.96 1.814-.96zM258.578 542.218c-.873-4.283-1.21-14.022.638-19.044-11.215 9.986-9.461 17.052-.638 19.044z" fill="#e99713" fill-opacity=".798"/><path d="M257.953 538.2c-.873-4.283-.586-10.004 1.263-15.026" fill="none" stroke="#000" stroke-width=".5"/><path d="M269.29 470.184s6.9 6.904 5.877 16.707c-.984 6.77-3.233 12.425-6.225 18.686 2.3-5.89 4.843-13.645 4.887-20.83.031-4.999-.738-9.846-4.539-14.563z" fill="#edaa0f"/><path d="M263.732 517.414c6.24-13.905 16.448-35.907 4.322-48.157" fill="none" stroke="#000" stroke-width=".5"/><path d="M343.942 402.668c-.882 6.443-4.207 8.24-7.323 11.41-.177-1.306.675-2.192-.249-3.347 3.517-1.275 5.601-3.89 7.572-8.063z" fill="#e99713" fill-opacity=".798"/><path d="M336.619 414.078c3.841-3.909 8.48-7.36 7.765-17.615" fill="none" stroke="#000" stroke-width=".5"/><path d="M280.05 428.472c3.21-9.906 6.903-20.219 15.383-28.478-3.318 3.997-6.141 7.935-8.204 12.79l.977 1.471c-1.783 1.837-2.787 3.07-4.116 6.2l1.285.663c-1.608 2.217-4.134 7.775-5.546 11.398l1.11.434c-1.054 2.745-1.953 5.212-2.278 6.644 0 0-.045-6.562 1.389-11.122z" fill="#e99713" fill-opacity=".798"/><path d="M280.05 428.472c3.21-9.906 6.903-20.219 15.383-28.478" fill="none" stroke="#000" stroke-width=".5"/><path d="M303.504 377.744c-2.525-.585-13.058 1.216-14.205 7.607-.54 3.006 1.468 6.366 5.903 4.483" fill="#fef200" stroke="#000" stroke-width=".5"/><path d="M322.59 372.139c-9.349-.503-28.081 5.606-27.768 21.83.157 8.195 2.752 12.28 5.282 14.316.942-.771 1.087-.54 1.844-.28 1.15.395 1.935 1.025 3.052 3.84 2.595 6.541 1.997 10.896 2.48 16.676.014.163 2.84-.9 3.06-.736" fill="#fef200" stroke="#000" stroke-width=".5"/><path d="M322.35 384.278c-3.337 6.379-5.733 10.778-7.576 17.488 0 0 .364 2.418-1.735 2.139-2.1-.28-4.758.117-5.401.555-.644.437-2.097 1.061-1.97 1.745 0 0-4.906-1.19-6.176 1.331.316.043.052 1.422.71.711 1.188-1.284 2.6.054 3.673 1.008.323-1.2 2.832-.45 4.304-.557.96-1.474 4.832-1.53 6.997-1.327-.548 6.124-.954 13.355 1.408 17.19-.543-4.57-1.021-15.871 2.652-17.63.644-.747 1.456-1.329 2.036-6.045.83-6.747 1.078-16.608 1.078-16.608z" fill="#e99713" fill-opacity=".798"/><path d="M317.95 428.413c1.746-.804 3.304-1.796 4.151-3.498a81.365 81.365 0 0 1-.36-4.398M327.133 426.479s1.973.288 2.919.008c2.626-.777 6.108-3.223 6.314-5.954.21-2.8.355-5.587.304-8.519-.06-3.503-4.527-5.009-4.527-5.009" fill="none" stroke="#000" stroke-width=".5"/><path d="M307.437 428.509c.156-1.224 3.15-3.772 7.17-4.333.626-.087 1.405-.26 1.706.336.35.696-.489 1.087-.136 1.927.409.971.951 1.29 2.35 1.657-2.98 1.994-8 1.82-11.09.413z" fill="#ff7818" stroke="#000" stroke-width=".5"/><path d="M333.35 421.26c-.488-5.038-4.032-10.468-7.685-10.402-2.078.122-3.694 2.935-3.694 2.935-.52 1.436-.708 5.576-.203 6.795 3.286.176 3.903 2.823 4.674 4.486l1.903.203" fill="#ff7818" stroke="#000" stroke-width=".5" stroke-linejoin="bevel"/><path d="M327.04 426.418c-1.114-.387-2.15-1.183-2.693-2.237 1.214.48 3.39 1.04 4.445 1.163.266.031-1.577 1.135-1.751 1.074z" fill="#fff" stroke="#000" stroke-width=".5"/><path d="M333.322 421.224l-.432-2.151c-3.234-1.75-2.444-3.24-2.657-5.53-.083-.077-1.014-1.137-1.096-1.21-1.308-1.148-2.491-1.529-3.515-1.445-1.904.155-3.254 1.92-3.81 3.34 2.145.36 2.621 1.604 2.739 3.984.121 2.468 2.97 5.37 5.643 5.402" fill="#ffc813" stroke="#000" stroke-width=".5" stroke-linejoin="bevel"/><path d="M324.509 411.803c1.295 1.21 2.827 1.691 2.307 4.07-.522 2.382.412 3.28 2.576 3.991" fill="none" stroke="#edaa0f" stroke-width=".5" stroke-linecap="round" stroke-linejoin="bevel"/><path d="M329.95 424.05c-1.21-.571-2.22-1.782-2.57-3.106 1.355.915 2.436 1.57 3.673 1.91z" fill="#fff" stroke="#000" stroke-width=".5"/><path d="M325.268 372.72c1.231-4.683 4.915-8.176 7.812-7.456 2.898.72 2.926 6.969.179 9.464 2.917-5.24-3.883-8.72-7.991-2.009z" fill="#edaa0f"/><path d="M325.268 372.72c1.231-4.683 4.915-8.176 7.812-7.456 2.898.72 2.926 6.969.179 9.464M308.214 379.148c-6.351 8.05-6.976 19.693-3.393 25.893.482.833 1.824 2.547 2.706 2.728 1.099-1.024 5.194-1.487 7.853-1.292-2.45-4.675 1.136-10.856 7.834-23.936" fill="none" stroke="#000" stroke-width=".5"/><path d="M307.353 407.693c-.192.006-2.006-.92-3.164-.873-2.12.087-3.178.19-4.046 1.355" fill="none" stroke="#000" stroke-width=".5"/><path d="M322.063 424.52c.437-.118.998-.356 1.741-1.229-1.088.25-1.476-.257-1.871-.281z" fill="#fff" stroke="#000" stroke-width=".5"/><g stroke="#000"><path d="M322.446 446.24c-3.234-1.434-4.373-.677-6.787-.143.718-1.676 3.523-3.272 7.23-2.55 1.89.733.482 2.013-.443 2.692z" fill="#fff" stroke-width=".414"/><path d="M321.404 448.336c-3.235-1.433-5.257-.405-7.67.129.718-1.676 4.406-3.544 8.112-2.822 1.89.733.482 2.014-.442 2.693z" fill="#fff" stroke-width=".414"/><path d="M320.254 450.683c-3.235-1.433-5.325-.133-7.739.4.719-1.675 4.475-3.815 8.181-3.093 1.891.733.482 2.014-.442 2.693z" fill="#fff" stroke-width=".414"/><path d="M318.906 452.918c-3.235-1.433-4.442.342-6.856.876.719-1.675 3.592-4.29 7.298-3.57 1.891.734.482 2.015-.442 2.694z" fill="#fff" stroke-width=".414"/><path d="M317.897 455.406c-2.011-1.297-3.354-.949-5.564.469.718-1.676 2.3-3.884 6.007-3.162 1.89.733.482 2.014-.443 2.693z" fill="#fff" stroke-width=".414"/><path d="M322.216 454.704c-.648-1.483-1.664-1.676-2.82-1.76M323.198 452.486c-.648-1.482-1.665-1.676-2.821-1.76M324.764 449.724c-.66-1.172-2.163-1.443-3.095-1.308M325.749 447.286c-.817-.921-2.098-1.159-2.878-1.082" fill="none" stroke-width=".5" stroke-linecap="round"/></g><path d="M243.84 549.148s-3.063-2.625-5.09-8.884c-2.027-6.259-3.304-16.205-3.304-16.205 5.642 8.854 6.888 17.508 8.393 25.089z" fill="#e99713" fill-opacity=".798"/><path d="M255.87 552.027c-6.542 2.367-16.942 1.057-20.097-25.032-1.665-13.768-2.812-30.407.909-43.788M363.393 402.898c-3.236-15.359-19.182-27.143-26.027-29.464.872-2.957.952-10.844-5.402-10.893-3.867-.03-10.268 6.962-9.955 14.955" fill="none" stroke="#000" stroke-width=".5"/><path d="M347.098 394.594c-.01-.37 6.797 13.923 5.268 22.143l-1.875-.268c.637 4.773.509 11.823-.803 16.697l-2.59-.447c-1.897 6.504-6.518 13.52-9.553 16.518 5.38-4.085 7.968-6.859 10.535-13.928l3.304.535c1.536-4.857 1.57-11.224.982-16.518l2.5.625c.048-10.08-2.164-18.404-7.768-25.357zM294.286 407.005c-3.167 3.78-5.003 7.56-6.518 11.34l1.25.714c-1.559 5.5-1.18 10.473-.179 15.089.642-5.743-.105-9.782 2.233-16.25l-1.25-.804c1.727-5.067 3.214-7.174 4.464-10.089zM265.09 416.201c3.084.792 4.842 1.915 10.535 2.054l-2.054 1.786c1.734.17 3.231-.368 4.733-.893l.134 2.634 2.276-1.741c-.536 2.283-1.756 3.541-2.99 4.777l-.402-4.152c-2.32.95-4.572.69-5.893.357l1.25-1.964c-3.752-.574-5.324-1.86-7.59-2.858zM293.036 399.505c-4.827-1.056-10.084-.64-15.804.134l-.178 1.562c-7.961.915-15.12 3.623-20.625 6.875 7.607-2.468 15.362-4.995 22.857-5.714v-1.607c4.908-.524 9.137-1.31 13.75-1.25zM270.472 397.677c-12.228 2.757-23.126 6.796-27.198 10.371 3.311-1.453 7.65-3.475 13.286-4.041l-.92-1.28c4.593-1.542 11.378-2.906 16.548-2.703z" fill="#e99713" fill-opacity=".798"/><path d="M294.413 394.411c-19.19.595-44.429 7.747-51.139 13.637" fill="none" stroke="#000" stroke-width=".5"/><path d="M243.527 476.777l.628.416c-1.87 2.924-4.193 7.993-5.361 11.499l1.493.505c-2.093 4.558-2.33 6.6-2.135 9.969-1.01-3.105-.53-5.933.49-8.785l-1.34-.74c1.024-3.585 2.49-8.307 4.808-11.614l-.872-.387c2.964-6.446 8.516-11.078 12.132-10.23-3.296.689-7.626 4.387-9.843 9.367z" fill="#e99713" fill-opacity=".798"/><path d="M319.225 469.036c.137 1.978-1.368 8.823 14.458 8.334 6.092-.188 17.536 2.888 29.042 2.828 16.53-.086 32.94-3.75 32.478-17.496-.896-26.617-18.463-46.757-31.777-59.65" fill="none" stroke="#000" stroke-width=".5"/><path d="M320.247 466.367c-1.591 4.156-2.39 11.492 13.436 11.003 6.092-.188 17.536 2.888 29.042 2.828 10.628-.055 11.09-.281 17.924-1.993l.216-3.496c-4.6 3.97-15.238 4.528-22.327 4.91l.472-2.698c-9.37 2.467-16.443-.266-24.98.103 0 0-7.965-.566-11.252-3.665-1.928-1.82-2.276-4.9-2.53-6.992zM395.203 462.702c-.298-5.168-1.343-10.337-2.46-15.505-2.07-8.684-6.441-15.927-11.383-22.815-3.938-6.733-14.723-17.999-17.666-20.77l.259 1.542c6.705 5.602 11.735 12.672 16.523 19.199l-2.058-.034c4.89 6.98 11.012 13.508 13.244 22.421l-3.237-.347c3.77 7.058 5.284 10.28 6.778 16.309z" fill="#e99713" fill-opacity=".798"/><path d="M363.491 403.115c13.306 12.896 30.818 33.013 31.712 59.587.463 13.746-15.948 17.41-32.478 17.496-11.506.06-22.95-3.016-29.042-2.828-15.826.49-14.32-6.356-14.458-8.334" fill="none" stroke="#000" stroke-width=".5"/><path d="M390 465.576s-.387 2.661-4.464 5.179c-4.078 2.518-21.25 5.357-21.25 5.357l-.536-3.571c-5.774 1.352-11.548 2.334-17.321 2.5l-.09-3.08c-4.767.992-9.074 1.222-14.285.892 4.19.41 8.17 1.16 12.946.045v3.036c5.716-.209 11.722-.49 17.723-2.277l.491 4.062s18.82-3.607 23.036-6.607c4.216-3 3.75-5.535 3.75-5.535zM239.682 415.942s-.664 5.638 1.52 11.657c2.183 6.02 9.472 12.321 9.534 11.488l.859-2.09c4.044 4.247 5.802 6.39 10.482 9.727l1.071-1.292c3.484 3.403 6.313 5.462 10.883 7.989-3.752-1.91-6.833-2.968-10.258-6.478l-1.196 1.347c-5.33-3.966-7.113-5.911-10.762-9.577l-1.04 2.305c-.494.141-8.7-7.403-10.413-12.967-1.712-5.563-.68-12.11-.68-12.11z" fill="#e99713" fill-opacity=".798"/><path d="M245.547 441.004c11.063 11.186 25.662 14.258 41.08 21.792 1.15.561 3.548 1.053 5.628-1.175 1.196-1.28 2.036-3.545 3.114-7 0 0-3.055 5.602-5.737 6.31-2.745.725-6.4-.99-9.668-2.627-3.011-1.509-6.037-3.185-8.474-4.729l-.316 1.904c-6.497-3.162-15.318-8.753-19.032-12.263l-.625 1.552c-2.37-.859-5.97-3.764-5.97-3.764z" fill="#e99713" fill-opacity=".798"/><path d="M305.465 435.493c-2.234.156-5.635.31-8.48 1.722-3.107 1.542-8.63 10.64-12.571 10.662 3.806 2.414 7.376-4.341 10.468-7.548 3.092-3.206 8.156-4.338 10.583-4.836z" fill="#edaa0f"/><path d="M305.465 435.493c-2.297-.286-5.72.149-8.48 1.722-2.76 1.574-7.123 6.88-8.393 8.393-1.27 1.514-2.41 2.373-4.084 2.05M245.547 441.004c11.063 11.186 25.662 14.258 41.08 21.792 1.81.884 5.601.006 6.43-1.83l2.39-6.907" fill="none" stroke="#000" stroke-width=".5"/><path d="M371.216 495.9c1.713 3.745 1.685 9.499-1.262 14.52l-1.01-1.136c-3.031 4.414-4.311 6.043-7.342 8.848L360.334 516c-3.412 4.385-8.585 9.905-11.72 13.361 3.136-2.65 8.644-7.307 11.468-10.584l.884 1.516c3.352-3.337 4.575-3.772 7.851-7.978l1.39.505c5.912-8.07 3.673-14.762 1.01-16.92z" fill="#edaa0f"/><g stroke="#000" stroke-width=".5"><path d="M347.604 485.925c-.09 0-8.542 3.733-13.132 11.238-7.423 12.137-8.546 27.43-16.289 39.522-3.593 5.611-8.955 11.21-8.303 17.84.312 3.168 1.498 6.491 7.059 7.041 5.56.55 12.92-3.824 24.385-1.465.889.333 1.019-.151 1.714-.595 7.18-3.87 22.37-7.921 22.37-7.921-3.28-9.766-32.794-9.198-46.215-3.788" fill="#fef200"/><path d="M343.058 559.34c4.344 2.561 4.855 4.903 6.213 8.12 1.489-2.37 3.442-7.245-1.555-10.95-2.718-1.495-5.169.368-4.658 2.83zM349.361 556.754c3.64 2.909 3.87 5.481 4.693 8.602 1.671-1.975 3.39-6.493-.7-10.535a2.72 2.72 0 0 0-3.993 1.933z" fill="#fff"/><path d="M354.114 555.109c3.315 2.693 3.524 5.074 4.273 7.964 1.408-1.692 2.411-5.95-.398-9.542-1.825-1.631-3.652.21-3.875 1.578zM358.37 553.328c2.86 2.115 3.44 4.846 4.172 7.221 1.197-1.578 2.455-5.507-.785-8.479-1.636-.738-3.286.137-3.387 1.258z" fill="#fff"/><path d="M362.367 552.71c3.253 1.688 3.841 3.654 4.971 5.953.963-1.8 1.008-6.039-2.77-8.539-1.544.2-2.28 1.428-2.201 2.585z" fill="#fff"/><path d="M348.66 556.559c.296-1.78-3.021-4.48-3.66-3.75M352.896 554.745c.238-1.41-2.435-3.55-2.95-2.972M357.27 553.138c.266-1.328-2.73-3.344-3.306-2.8M361.823 551.977c.273-1.328-2.802-3.344-3.395-2.799" fill="none"/></g><path d="M316.44 406.03c-2.072-2.8 1.824-5.176 2.753-4.811 1.017.398 1.403 3.473-.262 5.57" fill="#fff97f" stroke="#000" stroke-width=".5"/><ellipse transform="matrix(.90297 .4297 -.44614 .89496 0 0)" cx="465.552" cy="229.782" rx="1.794" ry="1.564"/><ellipse transform="matrix(.90297 .4297 -.44614 .89496 0 0)" cx="465.203" cy="228.458" rx=".984" ry=".734" fill="#fff97f"/><path d="M325.634 518.715c-1.394 2.383-2.43 5.354-4.344 6.031-.09 3.925-1.684 7.873-3.312 11.844 3.644-5.316 5.65-11.736 7.656-17.875zM296.259 500.496c-5.774-.14-11.373 1.883-16.14 5.38-5.318 3.898-10.762 8.966-15.877 16.896-2.559 3.967-5.127 8.713-6.046 15.287l-.312-3.063c1.698-9.383 7.241-17.202 11.912-22.585 7.805-8.996 16.646-12.197 26.463-11.915zM323.978 444.652c3.523-.16 5.832 2.178 6.062 5.344-1.268-3.02-3.64-4.982-6.01-5.192-.123-.01.067-.119-.052-.152zM346.072 486.996c-8.632 6.536-14.488 16.158-18.625 27.688 1.855-6.092 4.053-12.115 7.562-17.875 3.803-5.64 7.419-7.522 11.063-9.813z" fill="#edaa0f"/><path d="M294.822 393.97c.157 8.194 2.752 12.279 5.282 14.315.942-.771 1.087-.54 1.844-.28 1.15.395 1.935 1.025 3.052 3.84 2.595 6.541 1.997 10.896 2.48 16.676M355.99 449.453c11.345-12.766 10.259-33.001 7.403-46.555" fill="none" stroke="#000" stroke-width=".5"/><path d="M326.035 410.542c2.35.52 3.758 1.993 4.907 3.602 1.555 2.175 2.294 4.639 2.554 7.226-1.577-.36-3.07 1.899-3.926 2.904-.313.368-1.189.892-1.598 1.052-.29.727-1.176 1.134-1.492 1.27.813.484 3.384-.257 4.408-.67 2.32-.936 3.82-2.395 4.303-3.072l-.863-1.466c-.11-3.719-1.515-6.416-2.763-8.128-1.875-2.57-4.78-3.493-5.53-2.718z" fill="#edaa0f"/><path d="M332.143 406.977s4.467 1.505 4.528 5.009c.05 2.93-.095 5.718-.305 8.519-.205 2.73-3.688 5.177-6.314 5.953-.946.28-3.549.78-3.769-.062l2.11-1.076c1.04-.625 1.907-2.41 3.218-3.368.546-.4 1.301-.326 1.739-.721-.488-5.038-4.032-10.468-7.685-10.402" fill="none" stroke="#000" stroke-width=".5" stroke-linejoin="bevel"/><g stroke="#000"><path d="M308.655 441.102c2.735 2.243 2.603 4.299 3.212 6.695 1.173-1.396 1.306-5.317-1.007-8.302-1.506-1.359-2.015.476-2.205 1.607z" fill="#fff" stroke-width=".414"/><path d="M307.252 442.977c2.735 2.243 2.535 4.706 3.144 7.102 1.173-1.396 1.374-5.725-.939-8.71-1.505-1.358-2.015.476-2.205 1.608z" fill="#fff" stroke-width=".414"/><path d="M305.673 445.06c2.736 2.243 2.332 4.027 2.941 6.423 1.173-1.396 1.578-5.045-.735-8.03-1.506-1.359-2.015.476-2.206 1.607z" fill="#fff" stroke-width=".414"/><path d="M304.285 447.27c2.735 2.243 1.855 4.027 1.582 6.423 1.716-1.396 2.936-5.046.623-8.03-1.506-1.359-2.015.475-2.205 1.607z" fill="#fff" stroke-width=".414"/><path d="M303.379 449.35c.815.834.695 2.694.516 4.665 1.173-1.396 2.46-3.347.827-6.332-1.275-1.15-1.744.269-1.711.862.032.593.079.51.368.805z" fill="#fff" stroke-width=".414" stroke-linecap="square"/><path d="M304.132 447.219c-.194-1.606-1.112-2.084-2.195-2.498M305.555 444.933c-.193-1.606-1.111-2.084-2.195-2.497M307.116 442.964c-.193-1.606-1.64-2.493-2.555-2.714M308.641 440.67c-.193-1.606-1.64-2.493-2.554-2.714" fill="none" stroke-width=".5" stroke-linecap="round"/></g></g><use clip-path="url(#A)" xlink:href="#o" width="600" height="400"/><path style="marker:none" clip-path="url(#B)" color="#000" overflow="visible" fill="url(#C)" d="M343.563 506.608h16.617v23.865h-16.617z"/><use clip-path="url(#D)" xlink:href="#r" width="600" height="400"/><path style="marker:none" clip-path="url(#E)" transform="rotate(-113.252 335.327 485.438)" color="#000" overflow="visible" fill="url(#F)" d="M343.563 506.608h16.617v23.865h-16.617z"/><path style="marker:none" clip-path="url(#G)" transform="rotate(49.048 319.278 443.937)" color="#000" overflow="visible" fill="url(#H)" d="M343.563 506.608h16.617v23.865h-16.617z"/><use height="400" width="600" clip-path="url(#I)" xlink:href="#m"/><path style="marker:none" clip-path="url(#J)" transform="rotate(167.474 0 0)" color="#000" overflow="visible" fill="url(#K)" d="M-148.069-591.05h38.783v55.7h-38.783z"/><g stroke="#000" stroke-width=".5"><path d="M234.653 507.189c.67-.74 4.482-1.885 4.276.887-.316 4.237-2.738 3.478-3.84 3.12-.404-.38-1.518-2.238-.436-4.007z" fill="#fef200"/><path d="M238.988 508.088c.709-1.022 5.305-1.531 4.758 1.205-1 4.996-5.106 3.748-5.627 1.737" fill="none"/><path d="M243.693 509.794c1.691-.844 7.138-1.022 5.812 3.08-1.593 4.927-7.374 4.025-7.056-.629" fill="none"/><path d="M256.674 514.959c1.59-.72 7.092-.798 7.275 2.399.111 1.944-.796 5.263-3.725 5.998-2.93.734-4.616-3.09-5.114-4.672" fill="#fef200"/><path d="M249.745 511.179c.138-1.099 6.699-.545 6.882 2.651.112 1.945-1.49 4.948-4.104 5.62-2.613.67-4.804-2.45-4.735-4.032" fill="none"/><path d="M258.978 521.62c-3.204 3.274-3.12 5.81-3.55 8.954-1.867-1.727-3.613-6.675-.106-11.107 1.92-.38 3.288.767 3.656 2.154zM252.286 518.569c-2.578 3.423-2.194 5.767-2.214 8.736-1.94-1.378-4.157-5.758-1.438-10.294 1.807-.675 3.17.54 3.652 1.558zM246.787 515.58c-2.326 3.088-1.98 5.202-1.997 7.88-1.75-1.243-3.75-5.193-1.297-9.284 2.05-.483 2.524.608 3.294 1.405zM242.036 512.761c-2.069 3.265-1.554 5.344-1.356 8.014-1.844-1.097-4.155-4.874-2.04-9.149 1.788-.605 2.596.26 3.396 1.135zM237.494 511.076c-1.49 2.773-.95 4.431-.634 6.588-1.562-.783-3.66-3.716-2.19-7.312 1.26-.714 2.06-.05 2.824.724z" fill="#fff"/></g><path style="marker:none" clip-path="url(#L)" transform="rotate(160.87 0 0)" color="#000" overflow="visible" fill="url(#M)" d="M-123.011-645.353h16.617v23.865h-16.617z"/><path d="M318.183 536.685c-3.593 5.611-9.839 11.588-9.187 18.22.438 3.545 1.865 6.133 7.437 6.535 1.944.14 4.945-.61 6.138-1.459" fill="#fef200" stroke="#000" stroke-width=".5" stroke-linecap="round"/><path style="marker:none" clip-path="url(#N)" transform="scale(-1 1) rotate(12.917 113.661 -2443.241)" color="#000" overflow="visible" fill="url(#O)" d="M337.567 504.777H365.9v28.148h-28.333z"/><use clip-path="url(#P)" xlink:href="#o" width="600" height="400"/></g></svg>