<svg xmlns="http://www.w3.org/2000/svg" viewBox="0 0 52.1 52.1"><defs><style>.cls-1,.cls-2,.cls-3,.cls-4,.cls-5,.cls-6{fill:none;stroke:#4b79bb;stroke-miterlimit:22.93;}.cls-1,.cls-4{stroke-width:0.25px;}.cls-2,.cls-3{stroke-width:0.25px;}.cls-3,.cls-4,.cls-5{fill-rule:evenodd;}.cls-5,.cls-6{stroke-width:0.25px;}</style></defs><title>blue-small</title><g id="Слой_2" data-name="Слой 2"><g id="Layer_1" data-name="Layer 1"><line class="cls-1" x1="2.77" y1="24.97" x2="1.92" y2="24.97"/><circle class="cls-2" cx="3.98" cy="24.97" r="1.21" transform="translate(-16.49 10.13) rotate(-45.01)"/><line class="cls-2" x1="1.92" y1="27.03" x2="2.05" y2="26.9"/><line class="cls-1" x1="3.13" y1="25.82" x2="2.05" y2="26.9"/><line class="cls-1" x1="3.98" y1="26.18" x2="3.98" y2="28.83"/><line class="cls-2" x1="2.77" y1="9.53" x2="1.92" y2="9.53"/><circle class="cls-1" cx="3.98" cy="9.53" r="1.21" transform="translate(-5.58 5.61) rotate(-45.01)"/><line class="cls-1" x1="1.92" y1="11.59" x2="2.05" y2="11.46"/><line class="cls-1" x1="3.13" y1="10.39" x2="2.05" y2="11.46"/><line class="cls-1" x1="3.98" y1="10.74" x2="3.98" y2="13.39"/><line class="cls-2" x1="3.98" y1="21.11" x2="1.92" y2="21.11"/><line class="cls-1" x1="6.63" y1="21.11" x2="3.98" y2="21.11"/><line class="cls-2" x1="3.13" y1="18.11" x2="1.92" y2="19.31"/><circle class="cls-2" cx="7.84" cy="21.11" r="1.21" transform="translate(-12.63 11.73) rotate(-45)"/><line class="cls-1" x1="4.84" y1="24.11" x2="5.91" y2="23.04"/><line class="cls-1" x1="6.99" y1="21.96" x2="5.91" y2="23.04"/><line class="cls-1" x1="7.84" y1="22.32" x2="7.84" y2="24.97"/><line class="cls-1" x1="7.84" y1="17.25" x2="5.19" y2="17.25"/><line class="cls-2" x1="10.49" y1="17.25" x2="7.84" y2="17.25"/><line class="cls-2" x1="6.99" y1="14.25" x2="4.84" y2="16.4"/><circle class="cls-1" cx="11.7" cy="17.25" r="1.21" transform="translate(-8.77 13.33) rotate(-45)"/><circle class="cls-1" cx="3.98" cy="17.25" r="1.21" transform="translate(-11.03 7.87) rotate(-44.99)"/><circle class="cls-1" cx="3.98" cy="17.25" r="1.21" transform="translate(-11.03 7.87) rotate(-45.01)"/><line class="cls-1" x1="8.69" y1="20.25" x2="9.77" y2="19.18"/><line class="cls-1" x1="10.84" y1="18.11" x2="9.77" y2="19.18"/><line class="cls-2" x1="3.98" y1="13.39" x2="3.98" y2="16.04"/><line class="cls-1" x1="11.7" y1="18.46" x2="11.7" y2="21.11"/><line class="cls-1" x1="3.98" y1="5.68" x2="1.92" y2="5.68"/><line class="cls-1" x1="6.63" y1="5.68" x2="3.98" y2="5.68"/><line class="cls-1" x1="3.13" y1="2.67" x2="1.92" y2="3.88"/><circle class="cls-1" cx="7.84" cy="5.68" r="1.21" transform="translate(-1.72 7.21) rotate(-45)"/><line class="cls-1" x1="4.84" y1="8.68" x2="5.91" y2="7.61"/><line class="cls-2" x1="6.99" y1="6.53" x2="5.91" y2="7.61"/><line class="cls-1" x1="7.84" y1="6.88" x2="7.84" y2="9.53"/><line class="cls-1" x1="7.84" y1="1.82" x2="5.19" y2="1.82"/><line class="cls-1" x1="10.49" y1="1.82" x2="7.84" y2="1.82"/><line class="cls-1" x1="5.43" y1="0.37" x2="4.84" y2="0.96"/><path class="cls-3" d="M10.67,1.17a1.21,1.21,0,1,0,2.23.51Q11.79,1.4,10.67,1.17Z"/><circle class="cls-1" cx="3.98" cy="1.82" r="1.21" transform="translate(-0.12 3.35) rotate(-45)"/><circle class="cls-1" cx="3.98" cy="1.82" r="1.21" transform="translate(-0.12 3.35) rotate(-45)"/><line class="cls-1" x1="8.69" y1="4.82" x2="9.77" y2="3.75"/><line class="cls-2" x1="10.84" y1="2.67" x2="9.77" y2="3.75"/><line class="cls-1" x1="3.98" y1="0.24" x2="3.98" y2="0.61"/><line class="cls-1" x1="11.7" y1="3.03" x2="11.7" y2="5.68"/><line class="cls-1" x1="11.7" y1="13.39" x2="9.05" y2="13.39"/><line class="cls-2" x1="14.35" y1="13.39" x2="11.7" y2="13.39"/><line class="cls-1" x1="10.84" y1="10.39" x2="8.69" y2="12.54"/><circle class="cls-1" cx="15.56" cy="13.39" r="1.21" transform="translate(-4.91 14.92) rotate(-45.01)"/><circle class="cls-1" cx="7.84" cy="13.39" r="1.21" transform="translate(-7.17 9.47) rotate(-45)"/><circle class="cls-1" cx="7.84" cy="13.39" r="1.21" transform="translate(-7.17 9.47) rotate(-45)"/><line class="cls-1" x1="12.55" y1="16.4" x2="13.63" y2="15.32"/><line class="cls-1" x1="14.7" y1="14.25" x2="13.63" y2="15.32"/><line class="cls-2" x1="7.84" y1="9.53" x2="7.84" y2="12.18"/><line class="cls-1" x1="15.56" y1="14.6" x2="15.56" y2="17.25"/><line class="cls-1" x1="15.56" y1="9.53" x2="12.91" y2="9.53"/><line class="cls-2" x1="18.21" y1="9.53" x2="15.56" y2="9.53"/><line class="cls-1" x1="14.7" y1="6.53" x2="12.55" y2="8.68"/><circle class="cls-1" cx="19.42" cy="9.53" r="1.21" transform="translate(-1.05 16.52) rotate(-45.01)"/><circle class="cls-1" cx="11.7" cy="9.53" r="1.21" transform="translate(-3.32 11.06) rotate(-45)"/><circle class="cls-1" cx="11.7" cy="9.53" r="1.21" transform="translate(-3.32 11.07) rotate(-45)"/><line class="cls-1" x1="16.41" y1="12.54" x2="17.49" y2="11.46"/><line class="cls-1" x1="18.56" y1="10.39" x2="17.49" y2="11.46"/><line class="cls-1" x1="11.7" y1="5.68" x2="11.7" y2="8.33"/><line class="cls-1" x1="19.42" y1="10.74" x2="19.42" y2="13.39"/><line class="cls-1" x1="19.42" y1="5.68" x2="16.77" y2="5.68"/><line class="cls-1" x1="22.07" y1="5.68" x2="19.42" y2="5.68"/><line class="cls-2" x1="17.98" y1="3.25" x2="16.41" y2="4.82"/><path class="cls-4" d="M22.25,5A1.21,1.21,0,1,0,24.4,6.11Q23.34,5.55,22.25,5Z"/><circle class="cls-1" cx="15.56" cy="5.68" r="1.21" transform="translate(0.54 12.66) rotate(-45)"/><circle class="cls-1" cx="15.56" cy="5.68" r="1.21" transform="translate(0.54 12.66) rotate(-45)"/><line class="cls-1" x1="20.27" y1="8.68" x2="21.34" y2="7.61"/><line class="cls-2" x1="22.42" y1="6.53" x2="21.34" y2="7.61"/><line class="cls-1" x1="15.56" y1="2.43" x2="15.56" y2="4.47"/><line class="cls-1" x1="23.27" y1="6.88" x2="23.27" y2="9.53"/><path class="cls-4" d="M.12,45.47A1.2,1.2,0,0,0,1,45.12a1.21,1.21,0,0,0,0-1.71,1.2,1.2,0,0,0-.85-.35Z"/><line class="cls-1" x1="2.77" y1="40.4" x2="0.12" y2="40.4"/><circle class="cls-1" cx="3.98" cy="40.4" r="1.21" transform="translate(-27.4 14.65) rotate(-45)"/><line class="cls-1" x1="0.98" y1="43.41" x2="2.05" y2="42.33"/><line class="cls-1" x1="3.13" y1="41.26" x2="2.05" y2="42.33"/><line class="cls-1" x1="3.98" y1="41.61" x2="3.98" y2="44.26"/><line class="cls-1" x1="3.98" y1="51.98" x2="1.33" y2="51.98"/><line class="cls-1" x1="6.63" y1="51.98" x2="3.98" y2="51.98"/><line class="cls-1" x1="3.13" y1="48.97" x2="0.98" y2="51.12"/><path class="cls-4" d="M7,51.12a1.21,1.21,0,0,0-.35.86H9A1.21,1.21,0,0,0,7,51.12Z"/><path class="cls-4" d="M1,51.12a1.21,1.21,0,0,0-.85-.35V52H1.33A1.21,1.21,0,0,0,1,51.12Z"/><path class="cls-4" d="M1.33,52A1.21,1.21,0,0,0,1,51.12a1.21,1.21,0,0,0-.85-.35V52Z"/><line class="cls-1" x1="7.84" y1="48.12" x2="5.19" y2="48.12"/><line class="cls-1" x1="10.49" y1="48.12" x2="7.84" y2="48.12"/><line class="cls-1" x1="6.99" y1="45.12" x2="4.84" y2="47.26"/><circle class="cls-1" cx="11.7" cy="48.12" r="1.21" transform="translate(-30.6 22.36) rotate(-45)"/><circle class="cls-1" cx="3.98" cy="48.12" r="1.21" transform="translate(-32.86 16.91) rotate(-45)"/><circle class="cls-1" cx="3.98" cy="48.12" r="1.21" transform="translate(-32.86 16.91) rotate(-45)"/><line class="cls-1" x1="8.69" y1="51.12" x2="9.77" y2="50.05"/><line class="cls-1" x1="10.84" y1="48.97" x2="9.77" y2="50.05"/><line class="cls-1" x1="3.98" y1="44.26" x2="3.98" y2="46.91"/><line class="cls-1" x1="11.7" y1="49.33" x2="11.7" y2="51.98"/><line class="cls-1" x1="3.98" y1="36.54" x2="1.33" y2="36.54"/><line class="cls-1" x1="4.75" y1="36.54" x2="3.98" y2="36.54"/><path class="cls-3" d="M7,37.39H7a1.2,1.2,0,0,0,.69.34Z"/><path class="cls-4" d="M.12,37.75A1.21,1.21,0,0,0,1,37.4a1.21,1.21,0,0,0,.17-1.5q-.51,0-1,0h0Z"/><path class="cls-4" d="M.12,37.75A1.21,1.21,0,0,0,1,37.4a1.21,1.21,0,0,0,.17-1.5q-.51,0-1,0h0Z"/><line class="cls-2" x1="4.84" y1="39.55" x2="5.91" y2="38.47"/><line class="cls-1" x1="6.99" y1="37.4" x2="5.91" y2="38.47"/><line class="cls-1" x1="7.84" y1="37.83" x2="7.84" y2="40.4"/><line class="cls-1" x1="7.84" y1="32.69" x2="5.19" y2="32.69"/><line class="cls-1" x1="10.49" y1="32.69" x2="7.84" y2="32.69"/><line class="cls-1" x1="6.99" y1="29.68" x2="4.84" y2="31.83"/><circle class="cls-1" cx="11.7" cy="32.69" r="1.21" transform="translate(-19.69 17.84) rotate(-45)"/><path class="cls-4" d="M4.84,31.83a1.21,1.21,0,0,0-2,.65A19.71,19.71,0,0,1,5.16,33,1.21,1.21,0,0,0,4.84,31.83Z"/><path class="cls-4" d="M3.13,31.83a1.2,1.2,0,0,0-.34.65A19.71,19.71,0,0,1,5.16,33a1.21,1.21,0,0,0-2-1.12Z"/><line class="cls-1" x1="9.64" y1="34.74" x2="9.77" y2="34.61"/><line class="cls-1" x1="10.84" y1="33.54" x2="9.77" y2="34.61"/><line class="cls-1" x1="3.98" y1="28.83" x2="3.98" y2="31.48"/><line class="cls-2" x1="11.7" y1="33.89" x2="11.7" y2="36.06"/><line class="cls-1" x1="11.7" y1="44.26" x2="9.05" y2="44.26"/><line class="cls-1" x1="14.27" y1="44.26" x2="11.7" y2="44.26"/><line class="cls-1" x1="10.84" y1="41.26" x2="8.69" y2="43.41"/><path class="cls-4" d="M14.36,44.42a1.2,1.2,0,0,0,.34.69h0Q14.54,44.77,14.36,44.42Z"/><circle class="cls-1" cx="7.84" cy="44.26" r="1.21" transform="translate(-29 18.51) rotate(-45)"/><circle class="cls-1" cx="7.84" cy="44.26" r="1.21" transform="translate(-29 18.51) rotate(-45)"/><line class="cls-1" x1="12.55" y1="47.26" x2="13.63" y2="46.19"/><line class="cls-1" x1="14.7" y1="45.12" x2="13.63" y2="46.19"/><line class="cls-1" x1="7.84" y1="40.4" x2="7.84" y2="43.05"/><line class="cls-1" x1="15.56" y1="47.34" x2="15.56" y2="48.12"/><line class="cls-1" x1="18.21" y1="40.4" x2="16.04" y2="40.4"/><circle class="cls-1" cx="19.42" cy="40.4" r="1.21" transform="translate(-22.88 25.56) rotate(-45)"/><path class="cls-5" d="M10.66,39.79a1.21,1.21,0,0,0,1.66,1.66q-.38-.44-.8-.86T10.66,39.79Z"/><path class="cls-5" d="M10.66,39.79a1.21,1.21,0,0,0,1.66,1.66q-.38-.44-.8-.86T10.66,39.79Z"/><line class="cls-1" x1="17.36" y1="42.46" x2="17.49" y2="42.33"/><line class="cls-1" x1="18.56" y1="41.26" x2="17.49" y2="42.33"/><line class="cls-1" x1="19.42" y1="41.61" x2="19.42" y2="44.26"/><line class="cls-2" x1="11.7" y1="28.83" x2="9.05" y2="28.83"/><line class="cls-1" x1="14.35" y1="28.83" x2="11.7" y2="28.83"/><line class="cls-1" x1="10.84" y1="25.82" x2="8.69" y2="27.97"/><circle class="cls-2" cx="15.56" cy="28.83" r="1.21" transform="translate(-15.83 19.45) rotate(-45.01)"/><circle class="cls-2" cx="7.84" cy="28.83" r="1.21" transform="translate(-18.09 13.99) rotate(-45)"/><circle class="cls-2" cx="7.84" cy="28.83" r="1.21" transform="translate(-18.09 13.99) rotate(-45)"/><line class="cls-2" x1="12.55" y1="31.83" x2="13.63" y2="30.76"/><line class="cls-1" x1="14.7" y1="29.68" x2="13.63" y2="30.76"/><line class="cls-1" x1="7.84" y1="24.97" x2="7.84" y2="27.62"/><line class="cls-2" x1="15.56" y1="30.04" x2="15.56" y2="32.69"/><line class="cls-2" x1="15.56" y1="24.97" x2="12.91" y2="24.97"/><line class="cls-1" x1="18.21" y1="24.97" x2="15.56" y2="24.97"/><line class="cls-2" x1="14.7" y1="21.96" x2="12.55" y2="24.11"/><circle class="cls-2" cx="19.42" cy="24.97" r="1.21" transform="translate(-11.97 21.05) rotate(-45.01)"/><circle class="cls-2" cx="11.7" cy="24.97" r="1.21" transform="translate(-14.23 15.58) rotate(-44.99)"/><circle class="cls-2" cx="11.7" cy="24.97" r="1.21" transform="translate(-14.23 15.59) rotate(-45.01)"/><line class="cls-1" x1="16.41" y1="27.97" x2="17.49" y2="26.9"/><line class="cls-1" x1="18.56" y1="25.82" x2="17.49" y2="26.9"/><line class="cls-1" x1="11.7" y1="21.11" x2="11.7" y2="23.76"/><line class="cls-1" x1="19.42" y1="26.18" x2="19.42" y2="28.83"/><line class="cls-1" x1="19.42" y1="36.54" x2="18.09" y2="36.54"/><line class="cls-1" x1="22.07" y1="36.54" x2="19.42" y2="36.54"/><circle class="cls-1" cx="23.27" cy="36.54" r="1.21" transform="translate(-19.02 27.16) rotate(-45)"/><line class="cls-2" x1="20.27" y1="39.55" x2="21.34" y2="38.47"/><line class="cls-1" x1="22.42" y1="37.4" x2="21.34" y2="38.47"/><line class="cls-1" x1="15.56" y1="32.69" x2="15.56" y2="34.02"/><line class="cls-2" x1="23.27" y1="37.75" x2="23.27" y2="40.4"/><line class="cls-1" x1="23.27" y1="32.69" x2="21.95" y2="32.69"/><line class="cls-1" x1="25.92" y1="32.69" x2="23.27" y2="32.69"/><circle class="cls-1" cx="27.13" cy="32.69" r="1.21" transform="translate(-15.16 28.76) rotate(-45)"/><line class="cls-2" x1="24.13" y1="35.69" x2="25.2" y2="34.61"/><line class="cls-1" x1="26.28" y1="33.54" x2="25.2" y2="34.61"/><line class="cls-1" x1="19.42" y1="28.83" x2="19.42" y2="30.16"/><line class="cls-2" x1="27.13" y1="33.89" x2="27.13" y2="36.54"/><line class="cls-2" x1="19.42" y1="21.11" x2="16.77" y2="21.11"/><line class="cls-1" x1="22.07" y1="21.11" x2="19.42" y2="21.11"/><line class="cls-2" x1="18.56" y1="18.11" x2="16.41" y2="20.25"/><circle class="cls-2" cx="23.27" cy="21.11" r="1.21" transform="translate(-8.11 22.64) rotate(-45.01)"/><circle class="cls-2" cx="15.56" cy="21.11" r="1.21" transform="translate(-10.37 17.18) rotate(-44.99)"/><circle class="cls-2" cx="15.56" cy="21.11" r="1.21" transform="translate(-10.37 17.19) rotate(-45.01)"/><line class="cls-1" x1="20.27" y1="24.11" x2="21.34" y2="23.04"/><line class="cls-1" x1="22.42" y1="21.96" x2="21.34" y2="23.04"/><line class="cls-2" x1="15.56" y1="17.25" x2="15.56" y2="19.9"/><line class="cls-1" x1="23.27" y1="22.32" x2="23.27" y2="24.97"/><line class="cls-1" x1="23.27" y1="17.25" x2="20.62" y2="17.25"/><line class="cls-2" x1="25.92" y1="17.25" x2="23.27" y2="17.25"/><line class="cls-2" x1="22.42" y1="14.25" x2="20.27" y2="16.4"/><circle class="cls-1" cx="27.13" cy="17.25" r="1.21" transform="translate(-4.25 24.24) rotate(-45)"/><circle class="cls-1" cx="19.42" cy="17.25" r="1.21" transform="translate(-6.51 18.78) rotate(-44.99)"/><circle class="cls-1" cx="19.42" cy="17.25" r="1.21" transform="translate(-6.51 18.78) rotate(-45.01)"/><line class="cls-1" x1="24.13" y1="20.25" x2="25.2" y2="19.18"/><line class="cls-1" x1="26.28" y1="18.11" x2="25.2" y2="19.18"/><line class="cls-2" x1="19.42" y1="13.39" x2="19.42" y2="16.04"/><line class="cls-1" x1="27.13" y1="18.46" x2="27.13" y2="21.11"/><line class="cls-2" x1="27.13" y1="28.83" x2="25.8" y2="28.83"/><line class="cls-1" x1="29.78" y1="28.83" x2="27.13" y2="28.83"/><circle class="cls-2" cx="30.99" cy="28.83" r="1.21" transform="translate(-11.31 30.36) rotate(-45)"/><line class="cls-2" x1="27.99" y1="31.83" x2="29.06" y2="30.76"/><line class="cls-1" x1="30.14" y1="29.68" x2="29.06" y2="30.76"/><line class="cls-1" x1="23.27" y1="24.97" x2="23.27" y2="26.3"/><line class="cls-2" x1="30.99" y1="30.04" x2="30.99" y2="32.69"/><line class="cls-2" x1="30.99" y1="24.97" x2="29.66" y2="24.97"/><line class="cls-1" x1="33.64" y1="24.97" x2="30.99" y2="24.97"/><circle class="cls-2" cx="34.85" cy="24.97" r="1.21" transform="translate(-7.45 31.96) rotate(-45.01)"/><line class="cls-1" x1="31.85" y1="27.97" x2="32.92" y2="26.9"/><line class="cls-1" x1="33.99" y1="25.82" x2="32.92" y2="26.9"/><line class="cls-1" x1="27.13" y1="21.11" x2="27.13" y2="22.44"/><line class="cls-1" x1="34.85" y1="26.18" x2="34.85" y2="28.83"/><line class="cls-1" x1="27.13" y1="13.39" x2="24.48" y2="13.39"/><line class="cls-2" x1="29.78" y1="13.39" x2="27.13" y2="13.39"/><line class="cls-1" x1="26.28" y1="10.39" x2="24.13" y2="12.54"/><circle class="cls-1" cx="30.99" cy="13.39" r="1.21" transform="translate(-0.39 25.84) rotate(-45)"/><circle class="cls-1" cx="23.27" cy="13.39" r="1.21" transform="translate(-2.65 20.38) rotate(-44.99)"/><circle class="cls-1" cx="23.27" cy="13.39" r="1.21" transform="translate(-2.65 20.38) rotate(-45.01)"/><line class="cls-1" x1="27.99" y1="16.4" x2="29.06" y2="15.32"/><line class="cls-1" x1="30.14" y1="14.25" x2="29.06" y2="15.32"/><line class="cls-2" x1="23.27" y1="9.53" x2="23.27" y2="12.18"/><line class="cls-1" x1="30.99" y1="14.6" x2="30.99" y2="17.25"/><line class="cls-1" x1="29.98" y1="9.53" x2="28.34" y2="9.53"/><line class="cls-2" x1="28.28" y1="8.39" x2="27.99" y2="8.68"/><circle class="cls-1" cx="27.13" cy="9.53" r="1.21" transform="translate(1.2 21.98) rotate(-45)"/><circle class="cls-1" cx="27.13" cy="9.53" r="1.21" transform="translate(1.21 21.98) rotate(-45)"/><line class="cls-1" x1="31.85" y1="12.54" x2="32.75" y2="11.63"/><line class="cls-1" x1="27.13" y1="7.66" x2="27.13" y2="8.33"/><line class="cls-2" x1="34.85" y1="21.11" x2="33.52" y2="21.11"/><line class="cls-1" x1="37.5" y1="21.11" x2="34.85" y2="21.11"/><circle class="cls-2" cx="38.71" cy="21.11" r="1.21" transform="translate(-3.59 33.56) rotate(-45.01)"/><line class="cls-1" x1="35.7" y1="24.11" x2="36.78" y2="23.04"/><line class="cls-1" x1="37.85" y1="21.96" x2="36.78" y2="23.04"/><line class="cls-2" x1="30.99" y1="17.25" x2="30.99" y2="18.58"/><line class="cls-1" x1="38.71" y1="22.32" x2="38.71" y2="24.97"/><line class="cls-1" x1="38.67" y1="17.25" x2="37.38" y2="17.25"/><line class="cls-1" x1="39.56" y1="20.25" x2="40.47" y2="19.35"/><line class="cls-2" x1="34.85" y1="13.43" x2="34.85" y2="14.72"/><line class="cls-1" x1="11.7" y1="51.98" x2="11.7" y2="51.98"/><path class="cls-4" d="M16.2,51a1.21,1.21,0,0,0-1.85,1h1.88Q16.23,51.46,16.2,51Z"/><path class="cls-4" d="M14.7,51.12a1.21,1.21,0,0,0-.35.86h1.88q0-.51,0-1A1.21,1.21,0,0,0,14.7,51.12Z"/><line class="cls-1" x1="15.56" y1="48.12" x2="15.56" y2="50.77"/><line class="cls-1" x1="23.27" y1="48.12" x2="20.62" y2="48.12"/><line class="cls-1" x1="25.92" y1="48.12" x2="23.27" y2="48.12"/><line class="cls-1" x1="22.42" y1="45.12" x2="20.27" y2="47.26"/><circle class="cls-1" cx="27.13" cy="48.12" r="1.21" transform="translate(-26.08 33.28) rotate(-45)"/><path class="cls-4" d="M20.27,47.26a1.21,1.21,0,0,0-1.12-.32,19.7,19.7,0,0,1,.47,2.37,1.21,1.21,0,0,0,.65-2Z"/><path class="cls-4" d="M19.62,49.31a1.21,1.21,0,1,0-.47-2.37A19.7,19.7,0,0,1,19.62,49.31Z"/><line class="cls-1" x1="25.07" y1="50.18" x2="25.2" y2="50.05"/><line class="cls-1" x1="26.28" y1="48.97" x2="25.2" y2="50.05"/><line class="cls-1" x1="19.42" y1="44.26" x2="19.42" y2="46.91"/><line class="cls-1" x1="27.13" y1="49.33" x2="27.13" y2="50.18"/><line class="cls-1" x1="27.13" y1="44.26" x2="24.48" y2="44.26"/><line class="cls-1" x1="29.78" y1="44.26" x2="27.13" y2="44.26"/><line class="cls-1" x1="26.28" y1="41.26" x2="24.13" y2="43.41"/><circle class="cls-1" cx="30.99" cy="44.26" r="1.21" transform="translate(-22.22 34.88) rotate(-45)"/><circle class="cls-1" cx="23.27" cy="44.26" r="1.21" transform="translate(-24.48 29.42) rotate(-45)"/><circle class="cls-1" cx="23.27" cy="44.26" r="1.21" transform="translate(-24.48 29.42) rotate(-45)"/><line class="cls-1" x1="27.99" y1="47.26" x2="29.06" y2="46.19"/><line class="cls-1" x1="30.14" y1="45.12" x2="29.06" y2="46.19"/><line class="cls-1" x1="23.27" y1="40.4" x2="23.27" y2="43.05"/><line class="cls-1" x1="30.99" y1="45.47" x2="30.99" y2="48.12"/><line class="cls-1" x1="30.99" y1="40.4" x2="28.34" y2="40.4"/><line class="cls-1" x1="33.64" y1="40.4" x2="30.99" y2="40.4"/><line class="cls-1" x1="30.14" y1="37.4" x2="27.99" y2="39.55"/><circle class="cls-1" cx="34.85" cy="40.4" r="1.21" transform="translate(-18.36 36.48) rotate(-45)"/><circle class="cls-1" cx="27.13" cy="40.4" r="1.21" transform="translate(-20.62 31.02) rotate(-45)"/><circle class="cls-1" cx="27.13" cy="40.4" r="1.21" transform="translate(-20.62 31.02) rotate(-45)"/><line class="cls-1" x1="31.85" y1="43.41" x2="32.92" y2="42.33"/><line class="cls-1" x1="33.99" y1="41.26" x2="32.92" y2="42.33"/><line class="cls-1" x1="27.13" y1="36.54" x2="27.13" y2="39.19"/><line class="cls-1" x1="34.85" y1="41.61" x2="34.85" y2="44.26"/><line class="cls-1" x1="33.99" y1="48.97" x2="32.79" y2="50.18"/><line class="cls-1" x1="30.99" y1="48.12" x2="30.99" y2="50.18"/><line class="cls-1" x1="38.71" y1="48.12" x2="36.06" y2="48.12"/><line class="cls-1" x1="41.36" y1="48.12" x2="38.71" y2="48.12"/><line class="cls-1" x1="37.85" y1="45.12" x2="35.7" y2="47.26"/><circle class="cls-1" cx="42.57" cy="48.12" r="1.21" transform="translate(-21.56 44.19) rotate(-45)"/><circle class="cls-1" cx="34.85" cy="48.12" r="1.21" transform="translate(-23.82 38.74) rotate(-45)"/><circle class="cls-1" cx="34.85" cy="48.12" r="1.21" transform="translate(-23.82 38.74) rotate(-45)"/><line class="cls-1" x1="40.51" y1="50.18" x2="40.64" y2="50.05"/><line class="cls-1" x1="41.71" y1="48.97" x2="40.64" y2="50.05"/><line class="cls-1" x1="34.85" y1="44.26" x2="34.85" y2="46.91"/><line class="cls-1" x1="42.57" y1="49.33" x2="42.57" y2="50.18"/><line class="cls-1" x1="34.85" y1="36.54" x2="32.2" y2="36.54"/><line class="cls-1" x1="37.5" y1="36.54" x2="34.85" y2="36.54"/><line class="cls-1" x1="33.99" y1="33.54" x2="31.85" y2="35.69"/><circle class="cls-1" cx="38.71" cy="36.54" r="1.21" transform="translate(-14.5 38.07) rotate(-45)"/><circle class="cls-1" cx="30.99" cy="36.54" r="1.21" transform="translate(-16.76 32.62) rotate(-45)"/><circle class="cls-1" cx="30.99" cy="36.54" r="1.21" transform="translate(-16.76 32.62) rotate(-45)"/><line class="cls-2" x1="35.7" y1="39.55" x2="36.78" y2="38.47"/><line class="cls-1" x1="37.85" y1="37.4" x2="36.78" y2="38.47"/><line class="cls-1" x1="30.99" y1="32.69" x2="30.99" y2="35.33"/><line class="cls-2" x1="38.71" y1="37.75" x2="38.71" y2="40.4"/><line class="cls-1" x1="38.71" y1="32.69" x2="36.06" y2="32.69"/><line class="cls-1" x1="41.36" y1="32.69" x2="38.71" y2="32.69"/><line class="cls-1" x1="37.85" y1="29.68" x2="35.7" y2="31.83"/><circle class="cls-1" cx="42.57" cy="32.69" r="1.21" transform="translate(-10.64 39.67) rotate(-45)"/><circle class="cls-1" cx="34.85" cy="32.69" r="1.21" transform="translate(-12.9 34.22) rotate(-45)"/><circle class="cls-1" cx="34.85" cy="32.69" r="1.21" transform="translate(-12.9 34.22) rotate(-45)"/><line class="cls-2" x1="39.56" y1="35.69" x2="40.64" y2="34.61"/><line class="cls-1" x1="41.71" y1="33.54" x2="40.64" y2="34.61"/><line class="cls-1" x1="34.85" y1="28.83" x2="34.85" y2="31.48"/><line class="cls-2" x1="42.57" y1="33.89" x2="42.57" y2="36.54"/><line class="cls-1" x1="42.57" y1="44.26" x2="39.92" y2="44.26"/><line class="cls-2" x1="45.22" y1="44.26" x2="42.57" y2="44.26"/><line class="cls-1" x1="41.71" y1="41.26" x2="39.56" y2="43.41"/><circle class="cls-1" cx="46.43" cy="44.26" r="1.21" transform="translate(-17.7 45.79) rotate(-45)"/><circle class="cls-1" cx="38.71" cy="44.26" r="1.21" transform="translate(-19.96 40.33) rotate(-45)"/><circle class="cls-1" cx="38.71" cy="44.26" r="1.21" transform="translate(-19.96 40.34) rotate(-45)"/><line class="cls-2" x1="43.42" y1="47.26" x2="44.5" y2="46.19"/><line class="cls-1" x1="45.57" y1="45.12" x2="44.5" y2="46.19"/><line class="cls-1" x1="38.71" y1="40.4" x2="38.71" y2="43.05"/><line class="cls-1" x1="46.43" y1="45.47" x2="46.43" y2="48.12"/><line class="cls-1" x1="46.43" y1="40.4" x2="43.78" y2="40.4"/><line class="cls-2" x1="49.07" y1="40.4" x2="46.43" y2="40.4"/><line class="cls-1" x1="45.57" y1="37.4" x2="43.42" y2="39.55"/><path class="cls-4" d="M49.43,39.55a1.21,1.21,0,0,0,1.5,1.88q-.23-1.12-.51-2.23A1.21,1.21,0,0,0,49.43,39.55Z"/><circle class="cls-1" cx="42.57" cy="40.4" r="1.21" transform="translate(-16.1 41.93) rotate(-45)"/><circle class="cls-1" cx="42.57" cy="40.4" r="1.21" transform="translate(-16.1 41.93) rotate(-45)"/><line class="cls-2" x1="47.28" y1="43.41" x2="48.35" y2="42.33"/><line class="cls-1" x1="49.43" y1="41.26" x2="48.35" y2="42.33"/><line class="cls-1" x1="42.57" y1="36.54" x2="42.57" y2="39.19"/><line class="cls-1" x1="50.28" y1="41.61" x2="50.28" y2="44.26"/><line class="cls-2" x1="42.57" y1="28.83" x2="39.92" y2="28.83"/><line class="cls-2" x1="45.22" y1="28.83" x2="42.57" y2="28.83"/><line class="cls-1" x1="41.71" y1="25.82" x2="39.56" y2="27.97"/><path class="cls-3" d="M45.57,28a1.21,1.21,0,0,0,1.5,1.88Q46.56,28.76,46,27.7A1.2,1.2,0,0,0,45.57,28Z"/><circle class="cls-2" cx="38.71" cy="28.83" r="1.21" transform="translate(-9.05 35.81) rotate(-44.99)"/><circle class="cls-2" cx="38.71" cy="28.83" r="1.21" transform="translate(-9.05 35.82) rotate(-45.01)"/><line class="cls-6" x1="43.42" y1="31.83" x2="44.5" y2="30.76"/><line class="cls-1" x1="45.57" y1="29.68" x2="44.5" y2="30.76"/><line class="cls-1" x1="38.71" y1="24.97" x2="38.71" y2="27.62"/><line class="cls-2" x1="46.43" y1="30.04" x2="46.43" y2="32.69"/><line class="cls-2" x1="44.44" y1="24.97" x2="43.78" y2="24.97"/><line class="cls-1" x1="43.71" y1="23.82" x2="43.42" y2="24.11"/><circle class="cls-2" cx="42.57" cy="24.97" r="1.21" transform="translate(-5.19 37.41) rotate(-44.99)"/><circle class="cls-2" cx="42.57" cy="24.97" r="1.21" transform="translate(-5.19 37.42) rotate(-45.01)"/><line class="cls-1" x1="42.57" y1="22.12" x2="42.57" y2="23.76"/><line class="cls-1" x1="49.67" y1="36.54" x2="47.63" y2="36.54"/><line class="cls-2" x1="48.85" y1="34.12" x2="47.28" y2="35.69"/><circle class="cls-1" cx="46.43" cy="36.54" r="1.21" transform="translate(-12.24 43.53) rotate(-45)"/><circle class="cls-1" cx="46.43" cy="36.54" r="1.21" transform="translate(-12.24 43.53) rotate(-45)"/><line class="cls-1" x1="46.43" y1="32.69" x2="46.43" y2="35.33"/><line class="cls-1" x1="49.43" y1="48.97" x2="48.22" y2="50.18"/><line class="cls-1" x1="46.43" y1="48.12" x2="46.43" y2="50.18"/><line class="cls-1" x1="51.86" y1="48.12" x2="51.49" y2="48.12"/><line class="cls-1" x1="51.73" y1="46.67" x2="51.14" y2="47.26"/><circle class="cls-1" cx="50.28" cy="48.12" r="1.21" transform="translate(-19.3 49.65) rotate(-45)"/><circle class="cls-1" cx="50.28" cy="48.12" r="1.21" transform="translate(-19.3 49.65) rotate(-45)"/><line class="cls-1" x1="50.28" y1="44.26" x2="50.28" y2="46.91"/><path class="cls-4" d="M.12,35.87h0a16,16,0,0,1,11.38,4.71A16,16,0,0,1,16.23,52H.12V35.87ZM1.92.13A51.68,51.68,0,0,1,35.53,14L12.72,36.85a19.58,19.58,0,0,0-10.8-4.47V.13ZM38.05,16.58A51.68,51.68,0,0,1,52,50.18H19.72a19.58,19.58,0,0,0-4.47-10.8Z"/></g></g></svg>