<svg xmlns="http://www.w3.org/2000/svg" viewBox="0 0 52.1 52.1"><defs><style>.cls-1,.cls-2,.cls-3{fill:none;stroke:#99c45a;stroke-miterlimit:22.93;fill-rule:evenodd;}.cls-1{stroke-width:0.25px;}.cls-2{stroke-width:0.25px;}.cls-3{stroke-width:0.25px;}</style></defs><title>green-small</title><g id="Слой_2" data-name="Слой 2"><g id="Layer_1" data-name="Layer 1"><path class="cls-1" d="M.12,35.87h0a16,16,0,0,1,11.38,4.71A16,16,0,0,1,16.23,52H.12V35.87ZM1.92.13A51.68,51.68,0,0,1,35.53,14L12.72,36.85a19.58,19.58,0,0,0-10.8-4.47V.13ZM38.05,16.58A51.68,51.68,0,0,1,52,50.18H19.72a19.58,19.58,0,0,0-4.47-10.8Z"/><path class="cls-1" d="M4,13.39H2.09m-.17.8a2,2,0,0,0,0-1.6"/><path class="cls-2" d="M4,5.68H2.09m-.17.8a2,2,0,0,0,0-1.6"/><path class="cls-2" d="M11.7,5.68H9.81m-3.18,0H4M2,9.53H1.92M7,4.82a1.21,1.21,0,1,0,1.71,0A1.21,1.21,0,0,0,7,4.82ZM3.13,8.68a1.21,1.21,0,1,0,1.71,0,1.21,1.21,0,0,0-1.71,0Zm2.78,2.78-.54-.54a2,2,0,1,1,0-2.78L6.45,7.07a2,2,0,1,0,0-2.78l-.54-.54M7.84,9.53H5.19"/><path class="cls-2" d="M2,1.82H1.92M3.13,1A1.21,1.21,0,1,0,4.84,1,1.21,1.21,0,0,0,3.13,1ZM5.91,3.75l-.54-.54A2,2,0,1,1,2.9.17M5.3.35l.08.07L5.43.37M7.84,1.82H5.19"/><path class="cls-1" d="M9.73,1.82H7.84m2.83-.64a1.21,1.21,0,1,0,2.23.64,1.19,1.19,0,0,0,0-.13q-1.11-.28-2.23-.51Zm3,2.57-.54-.54A2,2,0,0,1,9.9,1m3.51.8h-.5"/><path class="cls-1" d="M4,28.83H2.09m-.17.8a2,2,0,0,0,0-1.6"/><path class="cls-1" d="M4,21.11H2.09m-.17.8a2,2,0,0,0,0-1.6"/><path class="cls-1" d="M11.7,21.11H9.81m-3.18,0H4M2,25H1.92M7,20.26a1.21,1.21,0,1,0,1.71,0,1.21,1.21,0,0,0-1.71,0ZM3.13,24.11a1.21,1.21,0,1,0,1.71,0,1.21,1.21,0,0,0-1.71,0ZM5.91,26.9l-.54-.54a2,2,0,1,1,0-2.78L6.45,22.5a2,2,0,1,0,0-2.78l-.54-.54M7.84,25H5.19"/><path class="cls-1" d="M11.7,13.39H9.81m-3.18,0H4M2,17.25H1.92M7,12.54a1.21,1.21,0,1,0,1.71,0,1.2,1.2,0,0,0-1.71,0ZM3.13,16.4a1.21,1.21,0,1,0,1.71,0,1.21,1.21,0,0,0-1.71,0Zm2.78,2.78-.54-.54a2,2,0,1,1,0-2.78l1.07-1.07a2,2,0,1,0,0-2.78l-.54-.54m1.93,5.79H5.19"/><path class="cls-2" d="M19.42,13.39H17.53m-3.18,0H11.7m-2,3.86H7.84m6.86-4.71a1.21,1.21,0,1,0,1.71,0,1.21,1.21,0,0,0-1.71,0ZM10.84,16.4a1.21,1.21,0,1,0,1.71,0,1.21,1.21,0,0,0-1.71,0Zm2.78,2.78-.54-.54a2,2,0,1,1,0-2.78l1.07-1.07a2,2,0,1,0,0-2.78l-.54-.54m1.93,5.79H12.91"/><path class="cls-1" d="M19.42,5.68H17.53m-3.18,0H11.7m-2,3.86H7.84M14.7,4.82a1.21,1.21,0,1,0,1.71,0,1.21,1.21,0,0,0-1.71,0ZM10.84,8.68a1.21,1.21,0,1,0,1.71,0,1.21,1.21,0,0,0-1.71,0Zm2.78,2.78-.54-.54a2,2,0,1,1,0-2.78l1.07-1.07a2,2,0,1,0,0-2.78l-.54-.54m1.93,5.79H12.91"/><path class="cls-2" d="M22.07,5.68H19.42m-2,3.86H15.56M22.25,5A1.21,1.21,0,1,0,24.4,6.11Q23.34,5.55,22.25,5ZM18.56,8.68a1.21,1.21,0,1,0,1.71,0,1.21,1.21,0,0,0-1.71,0Zm2.78,2.78-.54-.54a2,2,0,1,1,0-2.78l1.07-1.07a2,2,0,0,0,3.19-.6m-1.8,3.06H20.63"/><path class="cls-1" d="M19.38,3.79a2,2,0,0,1-1.25-.48"/><path class="cls-1" d="M4,44.26H2.09m-2,1.21A1.21,1.21,0,0,0,1,45.12a1.21,1.21,0,0,0,0-1.71,1.2,1.2,0,0,0-.85-.35v2.42Zm0,.76a2,2,0,0,0,1.39-.58,2,2,0,0,0,0-2.78,2,2,0,0,0-1.39-.58"/><path class="cls-1" d="M4,36.54H2.09m-2-.67h0q.51,0,1,0A1.21,1.21,0,0,1,1,37.4a1.21,1.21,0,0,1-.85.35V35.87Zm0,2.64a2,2,0,0,0,1.39-.58A2,2,0,0,0,2,36M.12,40.4h0"/><path class="cls-1" d="M4.76,36.54H4M2,40.4H.12m6.86-3,.7.35A1.2,1.2,0,0,1,7,37.4ZM3.13,39.55a1.21,1.21,0,1,0,1.71,0,1.21,1.21,0,0,0-1.71,0Zm2.78,2.78-.54-.54a2,2,0,1,1,0-2.78l1.07-1.07a2,2,0,0,0,2.24.39M7.84,40.4H5.19"/><path class="cls-1" d="M11.7,28.83H9.81m-3.18,0H4M7,28A1.21,1.21,0,1,0,8.7,28,1.21,1.21,0,0,0,7,28ZM3.13,31.83a1.21,1.21,0,0,0-.34.65A19.7,19.7,0,0,1,5.16,33a1.21,1.21,0,0,0-2-1.12ZM2,32.39a2,2,0,0,1,3.34-1.1l1.07-1.07a2,2,0,1,0,0-2.78l-.54-.54m1.93,5.79H5.19"/><path class="cls-3" d="M19.42,28.83H17.53m-3.18,0H11.7m-2,3.86H7.84M14.7,28a1.21,1.21,0,1,0,1.71,0,1.21,1.21,0,0,0-1.71,0Zm-3.86,3.86a1.21,1.21,0,1,0,1.71,0,1.21,1.21,0,0,0-1.71,0Zm2.78,2.78-.54-.54a2,2,0,1,1,0-2.78l1.07-1.07a2,2,0,1,0,0-2.78l-.54-.54m1.93,5.79H12.91"/><path class="cls-1" d="M19.42,21.11H17.53m-3.18,0H11.7M9.73,25H7.84m6.86-4.71a1.21,1.21,0,1,0,1.71,0,1.21,1.21,0,0,0-1.71,0Zm-3.86,3.86a1.21,1.21,0,1,0,1.71,0,1.21,1.21,0,0,0-1.71,0Zm2.78,2.78-.54-.54a2,2,0,1,1,0-2.78l1.07-1.07a2,2,0,1,0,0-2.78l-.54-.54M15.56,25H12.91"/><path class="cls-1" d="M27.13,21.11H25.24m-3.18,0H19.42m-2,3.86H15.56m6.86-4.71a1.21,1.21,0,1,0,1.71,0,1.21,1.21,0,0,0-1.71,0Zm-3.86,3.86a1.21,1.21,0,1,0,1.71,0,1.21,1.21,0,0,0-1.71,0Zm2.78,2.78-.54-.54a2,2,0,1,1,0-2.78l1.07-1.07a2,2,0,1,0,0-2.78l-.54-.54M23.27,25H20.63"/><path class="cls-1" d="M27.13,13.39H25.24m-3.18,0H19.42m-2,3.86H15.56m6.86-4.71a1.21,1.21,0,1,0,1.71,0,1.2,1.2,0,0,0-1.71,0ZM18.56,16.4a1.21,1.21,0,1,0,1.71,0,1.21,1.21,0,0,0-1.71,0Zm2.78,2.78-.54-.54a2,2,0,1,1,0-2.78l1.07-1.07a2,2,0,1,0,0-2.78l-.54-.54m1.93,5.79H20.63"/><path class="cls-1" d="M34.81,13.39H33m-3.18,0H27.13m-2,3.86H23.27m6.86-4.71a1.21,1.21,0,1,0,1.71,0,1.2,1.2,0,0,0-1.71,0ZM26.28,16.4a1.21,1.21,0,1,0,1.71,0,1.21,1.21,0,0,0-1.71,0Zm2.78,2.78-.54-.54a2,2,0,1,1,0-2.78l1.07-1.07a2,2,0,1,0,0-2.78l-.54-.54M31,17.25H28.34"/><path class="cls-2" d="M25.16,9.53H23.27m3-.85a1.21,1.21,0,1,0,1.71,0,1.21,1.21,0,0,0-1.71,0Zm2.78,2.78-.54-.54A2,2,0,1,1,27,7.57m3,2H28.34"/><path class="cls-2" d="M4,52H2.09m-.76,0A1.2,1.2,0,0,0,1,51.12a1.2,1.2,0,0,0-.85-.35V52Zm.76,0a2,2,0,0,0-.58-1.39A2,2,0,0,0,.12,50"/><path class="cls-1" d="M6.63,52H4m3-.85a1.21,1.21,0,0,0-.35.85H9A1.21,1.21,0,0,0,7,51.12ZM9.81,52a2,2,0,0,0-3.36-1.39L5.91,50"/><path class="cls-1" d="M11.7,44.26H9.81m-3.18,0H4M2,48.12H.12M7,43.41a1.21,1.21,0,1,0,1.71,0,1.2,1.2,0,0,0-1.71,0ZM3.13,47.26a1.21,1.21,0,1,0,1.71,0,1.21,1.21,0,0,0-1.71,0ZM5.91,50l-.54-.54a2,2,0,1,1,0-2.78l1.07-1.07a2,2,0,1,0,0-2.78l-.54-.54m1.93,5.79H5.19"/><path class="cls-1" d="M19.42,44.26H18.23m-4,0H11.7m-2,3.86H7.84m6.52-3.7q.18.35.35.7h0a1.2,1.2,0,0,1-.34-.69Zm-3.52,2.84a1.21,1.21,0,1,0,1.71,0,1.21,1.21,0,0,0-1.71,0ZM13.63,50l-.54-.54a2,2,0,1,1,0-2.78l1.07-1.07a2,2,0,0,0,1,.54m.39,1.93H12.91"/><path class="cls-1" d="M19.42,36.54H18.09m-5.06,0h-.69M9.73,40.4H7.84m2.82-.62q.44.38.86.8t.8.86a1.21,1.21,0,0,1-1.66-1.66ZM12.8,42a2,2,0,0,1-2.73-2.73m6.17-.91a2,2,0,0,0,1.17-1.17M14.88,34.7a2,2,0,0,0-.71.45l-.54-.54"/><path class="cls-1" d="M27.13,36.54H25.24m-3.18,0H19.42m-2,3.86H16m6.38-4.71a1.21,1.21,0,1,0,1.71,0,1.21,1.21,0,0,0-1.71,0Zm-3.86,3.86a1.21,1.21,0,1,0,1.71,0,1.21,1.21,0,0,0-1.71,0Zm2.78,2.78-.54-.54a2,2,0,1,1,0-2.78l1.07-1.07a2,2,0,1,0,0-2.78l-.54-.54m1.93,5.79H20.63"/><path class="cls-1" d="M27.13,28.83H25.8m-5.06,0H19.42m-2.53,3.86H15.56m5.79,1.93-.54-.54a2,2,0,0,1-.71.46M17.57,32a2,2,0,0,1,1.16-1.16M24,30.67a2,2,0,0,0,1.17-1.17M22.59,27a2,2,0,0,0-.71.45l-.54-.54m1.93,5.79H21.94"/><path class="cls-2" d="M34.85,28.83H33m-3.18,0H27.13m-2,3.86H23.27M30.14,28a1.21,1.21,0,1,0,1.71,0,1.21,1.21,0,0,0-1.71,0Zm-3.86,3.86a1.21,1.21,0,1,0,1.71,0,1.21,1.21,0,0,0-1.71,0Zm2.78,2.78-.54-.54a2,2,0,1,1,0-2.78l1.07-1.07a2,2,0,1,0,0-2.78l-.54-.54M31,32.69H28.34"/><path class="cls-1" d="M34.85,21.11H33.52m-5.06,0H27.13M24.6,25H23.27m5.79,1.93-.54-.54a2,2,0,0,1-.71.46m-2.53-2.53a2,2,0,0,1,1.16-1.16M31.67,23a2,2,0,0,0,1.17-1.17m-2.53-2.53a2,2,0,0,0-.71.45l-.54-.54M31,25H29.66"/><path class="cls-1" d="M41.83,21.11H40.68m-3.18,0H34.85m-2,3.86H31m6.86-4.71a1.21,1.21,0,1,0,1.71,0,1.2,1.2,0,0,0-1.71,0ZM34,24.11a1.21,1.21,0,1,0,1.71,0,1.21,1.21,0,0,0-1.71,0Zm2.78,2.78-.54-.54a2,2,0,1,1,0-2.78l1.07-1.07a2,2,0,1,0,0-2.78l-.54-.54M38.71,25H36.06"/><path class="cls-1" d="M32.32,17.25H31m5.79,1.93-.54-.54a2,2,0,0,1-.71.46M33,16.57a2,2,0,0,1,1.16-1.16m4.51,1.85H37.38"/><path class="cls-1" d="M16.2,51q0,.51,0,1H14.35a1.21,1.21,0,0,1,1.85-1Zm-.08-.86a2,2,0,0,0-2,.49L13.63,50"/><path class="cls-1" d="M24.07,50.18a2,2,0,0,0-1.6,0m-1,0L21.35,50"/><path class="cls-2" d="M27.13,44.26H25.24m-3.18,0H19.42m-3.65,3.86h-.21m6.86-4.71a1.21,1.21,0,1,0,1.71,0,1.21,1.21,0,0,0-1.71,0Zm-2.8,5.9a1.21,1.21,0,1,0-.47-2.37,19.7,19.7,0,0,1,.47,2.37Zm1.72.74-.54-.54a2,2,0,0,1-1.1.55m-.77-3.86a2,2,0,0,1,1.87.52l1.07-1.07a2,2,0,1,0,0-2.78l-.54-.54m1.93,5.79H20.63"/><path class="cls-2" d="M34.85,44.26H33m-3.18,0H27.13m-2,3.86H23.27m6.86-4.71a1.21,1.21,0,1,0,1.71,0,1.21,1.21,0,0,0-1.71,0Zm-3.86,3.86a1.21,1.21,0,1,0,1.71,0,1.21,1.21,0,0,0-1.71,0ZM29.06,50l-.54-.54a2,2,0,1,1,0-2.78l1.07-1.07a2,2,0,1,0,0-2.78l-.54-.54M31,48.12H28.34"/><path class="cls-1" d="M34.85,36.54H33m-3.18,0H27.13m-2,3.86H23.27m6.86-4.71a1.21,1.21,0,1,0,1.71,0,1.21,1.21,0,0,0-1.71,0Zm-3.86,3.86a1.21,1.21,0,1,0,1.71,0,1.21,1.21,0,0,0-1.71,0Zm2.78,2.78-.54-.54a2,2,0,1,1,0-2.78l1.07-1.07a2,2,0,1,0,0-2.78l-.54-.54M31,40.4H28.34"/><path class="cls-1" d="M42.57,36.54H40.68m-3.18,0H34.85m-2,3.86H31m6.86-4.71a1.21,1.21,0,1,0,1.71,0,1.21,1.21,0,0,0-1.71,0ZM34,39.55a1.21,1.21,0,1,0,1.71,0,1.21,1.21,0,0,0-1.71,0Zm2.78,2.78-.54-.54a2,2,0,1,1,0-2.78l1.07-1.07a2,2,0,1,0,0-2.78l-.54-.54m1.93,5.79H36.06"/><path class="cls-1" d="M42.57,28.83H40.68m-3.18,0H34.85m-2,3.86H31M37.85,28a1.21,1.21,0,1,0,1.71,0,1.2,1.2,0,0,0-1.71,0ZM34,31.83a1.21,1.21,0,1,0,1.71,0,1.21,1.21,0,0,0-1.71,0Zm2.78,2.78-.54-.54a2,2,0,1,1,0-2.78l1.07-1.07a2,2,0,1,0,0-2.78l-.54-.54m1.93,5.79H36.06"/><path class="cls-2" d="M45.22,28.83H42.57m-2,3.86H38.71M45.57,28a1.21,1.21,0,0,0,1.5,1.88Q46.56,28.77,46,27.7a1.21,1.21,0,0,0-.42.27Zm-3.86,3.86a1.21,1.21,0,1,0,1.71,0,1.21,1.21,0,0,0-1.71,0Zm2.78,2.78L44,34.08a2,2,0,1,1,0-2.78L45,30.22a2,2,0,0,0,2.35.33M45.63,27a2,2,0,0,0-.59.41l-.54-.54m1.93,5.79H43.78"/><path class="cls-1" d="M40.6,25H38.71m3-.85a1.21,1.21,0,1,0,1.71,0,1.21,1.21,0,0,0-1.71,0ZM44.5,26.9,44,26.36a2,2,0,1,1-.7-3.24M44.44,25h-.66"/><path class="cls-1" d="M31.79,50.18a2,2,0,0,0-1.6,0m-1,0L29.06,50"/><path class="cls-1" d="M39.51,50.18a2,2,0,0,0-1.6,0m-1,0L36.78,50"/><path class="cls-1" d="M42.57,44.26H40.68m-3.18,0H34.85m-2,3.86H31m6.86-4.71a1.21,1.21,0,1,0,1.71,0,1.21,1.21,0,0,0-1.71,0ZM34,47.26a1.21,1.21,0,1,0,1.71,0,1.21,1.21,0,0,0-1.71,0ZM36.78,50l-.54-.54a2,2,0,1,1,0-2.78l1.07-1.07a2,2,0,1,0,0-2.78l-.54-.54m1.93,5.79H36.06"/><path class="cls-1" d="M50.28,44.26H48.39m-3.18,0H42.57m-2,3.86H38.71m6.86-4.71a1.21,1.21,0,1,0,1.71,0,1.21,1.21,0,0,0-1.71,0Zm-3.86,3.86a1.21,1.21,0,1,0,1.71,0,1.21,1.21,0,0,0-1.71,0ZM44.5,50,44,49.51a2,2,0,1,1,0-2.78L45,45.65a2,2,0,1,0,0-2.78l-.54-.54m1.93,5.79H43.78"/><path class="cls-2" d="M49.67,36.54H48.39m-3.18,0H42.57m-2,3.86H38.71m6.86-4.71a1.21,1.21,0,1,0,1.71,0,1.2,1.2,0,0,0-1.71,0Zm-3.86,3.86a1.21,1.21,0,1,0,1.71,0,1.21,1.21,0,0,0-1.71,0Zm2.78,2.78L44,41.79A2,2,0,1,1,44,39L45,37.94a2,2,0,1,0,0-2.78l-.54-.54m1.93,5.79H43.78"/><path class="cls-2" d="M48.32,40.4H46.43m3-.85a1.21,1.21,0,0,0,1.5,1.88q-.23-1.12-.51-2.23a1.21,1.21,0,0,0-1,.35Zm1.65,2.66a2,2,0,1,1-.87-3.77"/><path class="cls-1" d="M48.3,32.69H46.43M48.8,34a2,2,0,0,1-.48-1.25"/><path class="cls-1" d="M47.23,50.18a2,2,0,0,0-1.6,0m-1,0L44.5,50"/><path class="cls-1" d="M51.43,44.26H50.28m-2,3.86H46.43m3-.85a1.21,1.21,0,1,0,1.71,0,1.21,1.21,0,0,0-1.71,0ZM52,49.79l-.28-.28a2,2,0,1,1,0-2.78l.06-.06m.13,1.45h-.37"/></g></g></svg>