<svg xmlns="http://www.w3.org/2000/svg" viewBox="0 0 109.62 103.99"><defs><style>.cls-1,.cls-2{fill:none;stroke:#99c45a;stroke-miterlimit:22.93;stroke-width:0.25px;}.cls-1{fill-rule:evenodd;}</style></defs><title>green-medium</title><g id="Слой_2" data-name="Слой 2"><g id="Layer_1" data-name="Layer 1"><path class="cls-1" d="M57.64,68.09h0a16.1,16.1,0,1,0,0-32.19h0V68.09Zm0-68v32.2h0a19.59,19.59,0,0,1,12.58,4.55L93,14.07A51.69,51.69,0,0,0,57.66.12Zm0,71.54v32.2h0A51.69,51.69,0,0,0,93,89.91L70.24,67.11a19.59,19.59,0,0,1-12.58,4.55ZM95.58,87.38a51.68,51.68,0,0,0,13.92-33.6H77.24a19.58,19.58,0,0,1-4.47,10.8L95.58,87.38ZM109.5,50.21A51.68,51.68,0,0,0,95.58,16.6L72.77,39.41a19.58,19.58,0,0,1,4.47,10.8Z"/><path class="cls-1" d="M65.83,98.38l-1.34,1.34M62.24,102l-1.83,1.83m2.69-1.48a1.21,1.21,0,1,1,1.21-1.21,1.21,1.21,0,0,1-1.21,1.21ZM57.64,99.9v2.42a1.21,1.21,0,1,0,0-2.42Zm0,3.18h0a2,2,0,0,0,2-2h1.52a2,2,0,1,1,2,2v.51m-2.73-5.2-1.87,1.87"/><path class="cls-1" d="M76.74,98.38,75.4,99.71m-8.24,2.78-.61.61m6.35-1.52a1.21,1.21,0,1,1,2.29-.76q-1.13.41-2.29.76Zm-4.35.73a1.21,1.21,0,1,1,1.21-1.21,1.21,1.21,0,0,1-1.21,1.21Zm0-3.94v.76a2,2,0,0,0-.83,3.75m2.34-.52a2,2,0,0,0,.46-1.27H72a2,2,0,0,1,3.86-.54m-4.62-2.19-1.87,1.87"/><path class="cls-1" d="M79.47,98.38v.69m-.16.07a2,2,0,0,0-1.19.53"/><path class="cls-1" d="M60.37,92.92,59,94.26m-1.39,2.6h0V94.44a1.21,1.21,0,1,1,0,2.42Zm0-3.18a2,2,0,1,1,0,3.94v.76"/><path class="cls-1" d="M65.83,87.46,64.49,88.8M62.24,91l-1.87,1.87M63.1,91.4a1.21,1.21,0,1,1,1.21-1.21A1.21,1.21,0,0,1,63.1,91.4ZM57.64,89V91.4h0a1.21,1.21,0,0,0,0-2.42Zm0-1.14v.38h0m0,3.94a2,2,0,0,0,2-2h1.52a2,2,0,1,1,2,2v.76m-2.73-5.46L58.5,89.34"/><path class="cls-1" d="M71.28,92.92l-1.34,1.34M67.7,96.5l-1.87,1.87M61.71,97l-1.34,1.34m8.18-1.52a1.21,1.21,0,1,1,1.21-1.21,1.21,1.21,0,0,1-1.21,1.21Zm-5.46,0a1.21,1.21,0,1,1,1.21-1.21,1.21,1.21,0,0,1-1.21,1.21Zm0-3.94v.76a2,2,0,1,0,2,2h1.52a2,2,0,1,1,2,2v.76m-2.73-5.46L64,94.79"/><path class="cls-1" d="M76.74,87.46,75.4,88.8M73.16,91l-1.87,1.87m-4.12-1.34-1.34,1.34M74,91.4a1.21,1.21,0,1,1,1.21-1.21A1.21,1.21,0,0,1,74,91.4Zm-5.46,0a1.21,1.21,0,1,1,1.21-1.21,1.21,1.21,0,0,1-1.21,1.21Zm0-3.94v.76a2,2,0,1,0,2,2H72a2,2,0,1,1,2,2v.76m-2.73-5.46-1.87,1.87"/><path class="cls-1" d="M82.2,92.92l-1.34,1.34M78.61,96.5l-1.87,1.87M72.62,97l-1.34,1.34m8.18-1.52a1.21,1.21,0,1,1,1.21-1.21,1.21,1.21,0,0,1-1.21,1.21Zm-5.46,0a1.21,1.21,0,1,1,1.21-1.21A1.21,1.21,0,0,1,74,96.86Zm0-3.94v.76a2,2,0,1,0,2,2H77.5a2,2,0,1,1,2,2v.76m-2.73-5.46-1.87,1.87"/><path class="cls-1" d="M87.65,87.46,86.32,88.8M84.07,91,82.2,92.92m-4.12-1.34-1.34,1.34m8.19-1.52a1.21,1.21,0,1,1,1.21-1.21,1.21,1.21,0,0,1-1.21,1.21Zm-5.46,0a1.21,1.21,0,1,1,1.21-1.21,1.21,1.21,0,0,1-1.21,1.21Zm0-3.94v.76a2,2,0,1,0,2,2H83a2,2,0,1,1,2,2v.76M82.2,87.46l-1.87,1.87"/><path class="cls-1" d="M84.17,96.59a1.21,1.21,0,1,1,1.94-1.21q-1,.63-1.94,1.21Zm.76-3.67v.76A2,2,0,0,0,83.48,97m4.17-4.07-1.87,1.87"/><path class="cls-1" d="M89,91.58l-1.34,1.34m2.73-1.52a1.21,1.21,0,1,1,1.21-1.21,1.21,1.21,0,0,1-1.21,1.21Zm0-3.94v.76a2,2,0,0,0,0,3.94h.1m1.83-1.57a2,2,0,0,0,0-.4h.4m-.9-1.47-.62.62"/><path class="cls-1" d="M60.37,82,59,83.34m-1.39,2.6h0V83.52h0a1.21,1.21,0,1,1,0,2.42Zm0-3.18a2,2,0,1,1,0,3.94v.76"/><path class="cls-1" d="M65.83,76.55l-1.34,1.34m-2.25,2.25L60.37,82m2.73-1.52a1.21,1.21,0,1,1,1.21-1.21,1.2,1.2,0,0,1-1.21,1.21Zm-5.46-2.42v2.42a1.21,1.21,0,1,0,0-2.42Zm0,3.18a2,2,0,0,0,2-2h1.52a2,2,0,1,1,2,2V82m-2.73-5.46L58.5,78.42"/><path class="cls-1" d="M71.28,82l-1.34,1.34M67.7,85.59l-1.87,1.87m-4.12-1.34-1.34,1.34m8.18-1.52a1.21,1.21,0,1,1,1.21-1.21,1.2,1.2,0,0,1-1.21,1.21Zm-5.46,0a1.21,1.21,0,1,1,1.21-1.21,1.21,1.21,0,0,1-1.21,1.21Zm0-3.94v.76a2,2,0,1,0,2,2h1.52a2,2,0,1,1,2,2v.76M65.83,82,64,83.88"/><path class="cls-1" d="M76.74,76.55,75.4,77.89m-2.25,2.25L71.28,82m-4.12-1.34L65.83,82M74,80.49a1.21,1.21,0,1,1,1.21-1.21A1.2,1.2,0,0,1,74,80.49Zm-5.46,0a1.21,1.21,0,1,1,1.21-1.21,1.21,1.21,0,0,1-1.21,1.21Zm0-3.94v.76a2,2,0,1,0,2,2H72a2,2,0,1,1,2,2V82m-2.73-5.46-1.87,1.87"/><path class="cls-1" d="M82.2,82l-1.34,1.34m-2.25,2.25-1.87,1.87m-4.12-1.34-1.34,1.34m8.18-1.52a1.21,1.21,0,1,1,1.21-1.21,1.2,1.2,0,0,1-1.21,1.21Zm-5.46,0a1.21,1.21,0,1,1,1.21-1.21A1.21,1.21,0,0,1,74,85.94ZM74,82v.76a2,2,0,1,0,2,2H77.5a2,2,0,1,1,2,2v.76M76.74,82l-1.87,1.87"/><path class="cls-1" d="M87.65,76.55l-1.34,1.34m-2.65,2.65L82.2,82m-4.12-1.34L76.74,82m2.73-1.52a1.21,1.21,0,1,1,1.21-1.21,1.21,1.21,0,0,1-1.21,1.21Zm0-3.94v.76a2,2,0,1,0,2,2h1m3.22-1.84a2,2,0,0,1,1.13,1.13m-1.84,3.22V82m-4-4.2-.62.62"/><path class="cls-1" d="M93.11,82l-1.34,1.34M89.13,86l-1.47,1.47m-4.12-1.34L82.2,87.46m2.73-1.52a1.21,1.21,0,1,1,1.21-1.21,1.21,1.21,0,0,1-1.21,1.21Zm0-3.94v.76a2,2,0,1,0,2,2h1m3.22-1.84A2,2,0,0,1,92.22,84m-1.84,3.22v.21m-4-4.2-.62.62"/><path class="cls-1" d="M98.57,76.55l-1.34,1.34M95,80.13,93.11,82M89,80.67l-.06.06m6.91-.25A1.21,1.21,0,1,1,97,79.28a1.2,1.2,0,0,1-1.21,1.21Zm-5.46,0a1.21,1.21,0,1,1,1.21-1.21,1.21,1.21,0,0,1-1.21,1.21Zm0-3.94v.76a2,2,0,1,0,2,2h1.52a2,2,0,1,1,2,2V82m-2.73-5.46-1.87,1.87"/><path class="cls-1" d="M94.45,86.13l-.06.06m1.46-.25A1.21,1.21,0,1,1,97,84.73a1.21,1.21,0,0,1-1.21,1.21Zm0-3.94v.76a2,2,0,1,0,.4,3.9m1.57-1.82s0-.07,0-.1h.08M98.57,82l-1.87,1.87"/><path class="cls-1" d="M99.9,80.67,98.57,82M101,80.46a1.21,1.21,0,1,1,1.12-2l.09.1q-.59,1-1.21,1.94Zm.27-3.91v.76a2,2,0,0,0-.71,3.81m1.92-3-.36.36"/><path class="cls-1" d="M59.93,71.53l-.9.9m-1.39.18h0a1.21,1.21,0,1,1,0,2.42V72.61Zm0-.76a2,2,0,1,1,0,3.94v.76"/><path class="cls-1" d="M65.83,65.64l-.53.53m-7.65,1.92h0q.58,0,1.15,0a1.21,1.21,0,0,0-1.17-.9v.94Zm4.75-.71.69-.23a1.21,1.21,0,0,0-.69.23ZM57.64,66v.38h0m3.61,1.29a2,2,0,0,1,2.93-1M63.1,70.9v.19m-2.73-5.46L58.5,67.51"/><path class="cls-1" d="M71.28,71.09l-1.34,1.34M67.7,74.68l-1.87,1.87m-4.12-1.34-1.34,1.34M68.56,75a1.21,1.21,0,1,1,1.21-1.21A1.2,1.2,0,0,1,68.56,75ZM63.1,75a1.21,1.21,0,1,1,1.21-1.21A1.21,1.21,0,0,1,63.1,75Zm0-3.94v.76a2,2,0,1,0,2,2h1.52a2,2,0,1,1,2,2v.76m-2.73-5.46L64,73"/><path class="cls-1" d="M76.74,65.64,75.4,67m-2.65,2.65-1.47,1.47m-4.12-1.34-1.34,1.34m2.73-1.52a1.21,1.21,0,0,1-1-.57,19.7,19.7,0,0,0,2-1.34,1.21,1.21,0,0,1-1,1.91Zm-1.69-.2a2,2,0,0,0,3.66-1h1m3.22-1.84a2,2,0,0,1,1.13,1.13M74,70.88v.21"/><path class="cls-1" d="M82.2,71.09l-1.34,1.34m-2.65,2.65-1.47,1.47m-4.12-1.34-1.34,1.34M74,75a1.21,1.21,0,1,1,1.21-1.21A1.21,1.21,0,0,1,74,75Zm0-3.94v.76a2,2,0,1,0,2,2h1M80.18,72a2,2,0,0,1,1.13,1.13m-1.84,3.22v.21m-4-4.2-.62.62"/><path class="cls-1" d="M87.65,65.63,86.32,67m-2.25,2.25L82.2,71.09m-4.12-1.34-.06.06m6.91-.25a1.21,1.21,0,1,1,1.21-1.21,1.21,1.21,0,0,1-1.21,1.21Zm-5.46,0a1.21,1.21,0,1,1,1.21-1.21,1.21,1.21,0,0,1-1.21,1.21Zm0-3.94v.76a2,2,0,1,0,2,2H83a2,2,0,1,1,2,2v.76M82.2,65.64l-1.87,1.87"/><path class="cls-1" d="M93.11,71.09l-1.34,1.34m-2.25,2.25-1.87,1.87m-4.12-1.34-.06.06M90.38,75a1.21,1.21,0,1,1,1.21-1.21A1.21,1.21,0,0,1,90.38,75Zm-5.46,0a1.21,1.21,0,1,1,1.21-1.21A1.21,1.21,0,0,1,84.93,75Zm0-3.94v.76a2,2,0,1,0,2,2h1.52a2,2,0,1,1,2,2v.76m-2.73-5.46L85.78,73"/><path class="cls-1" d="M98.57,65.63,97.23,67M95,69.22l-1.87,1.87M89,69.76l-1.34,1.34m8.19-1.52A1.21,1.21,0,1,1,97,68.36a1.2,1.2,0,0,1-1.21,1.21Zm-5.46,0a1.21,1.21,0,1,1,1.21-1.21,1.21,1.21,0,0,1-1.21,1.21Zm0-3.94v.76a2,2,0,1,0,2,2h1.52a2,2,0,1,1,2,2v.76m-2.73-5.46-1.87,1.87"/><path class="cls-1" d="M104,71.09l-1.34,1.34m-2.25,2.25-1.87,1.87m-4.12-1.34-1.34,1.34M101.3,75a1.21,1.21,0,1,1,1.21-1.21A1.21,1.21,0,0,1,101.3,75Zm-5.46,0A1.21,1.21,0,1,1,97,73.82,1.21,1.21,0,0,1,95.84,75Zm0-3.94v.76a2,2,0,1,0,2,2h1.52a2,2,0,1,1,2,2v.76m-2.73-5.46L96.69,73"/><path class="cls-1" d="M105.9,69.22,104,71.09M99.9,69.76l-1.34,1.34m7.91-1.55a1.21,1.21,0,1,1,.76-2.28q-.35,1.15-.76,2.28Zm-5.19,0a1.21,1.21,0,1,1,1.21-1.21,1.21,1.21,0,0,1-1.21,1.21Zm0-3.94v.76a2,2,0,1,0,2,2h1.52a2,2,0,0,1,2.68-1.84M104,65.63l-1.87,1.87"/><path class="cls-1" d="M105.33,72.46a2,2,0,0,0-.54,1.23"/><path class="cls-1" d="M60.37,60.18,59,61.51m-1.39.18a1.21,1.21,0,1,1,0,2.42V61.7Zm0-.76a2,2,0,1,1,0,3.94v.76"/><path class="cls-1" d="M65.83,54.72l-1.34,1.34M62.24,58.3l-1.87,1.87m2.73-1.52a1.21,1.21,0,1,1,1.21-1.21,1.21,1.21,0,0,1-1.21,1.21Zm-5.46-2.42v2.42a1.21,1.21,0,1,0,0-2.42Zm0-1.14v.38h0m0,3.94a2,2,0,0,0,2-2h1.52a2,2,0,1,1,2,2v.76m-2.73-5.46L58.5,56.59"/><path class="cls-1" d="M71.28,60.18l-1.34,1.34M67.7,63.76l-1.87,1.87M61.71,64.3l-1.34,1.34m7.91-1.55q.39-.34.76-.71t.69-.74a1.21,1.21,0,1,0-1.45,1.45Zm-5.19,0a1.21,1.21,0,1,1,1.21-1.21,1.21,1.21,0,0,1-1.21,1.21Zm0-3.94v.76a2,2,0,1,0,2,2h1.52a2,2,0,0,1,3.7-.93m-4.46-1.79L64,62.05"/><path class="cls-1" d="M71.83,59.63l-.55.55m-4.12-1.34-1.34,1.34m7-2.72q.13-.37.25-.74a1.2,1.2,0,0,0-.25.73Zm-4.25,1.2a1.21,1.21,0,1,1,1.21-1.21,1.21,1.21,0,0,1-1.21,1.21Zm0-3.94v.76a2,2,0,1,0,2,2H72a2,2,0,0,1,1.31-1.85m-2.07-.87-1.87,1.87"/><path class="cls-1" d="M82.2,60.18l-1.34,1.34m-2.25,2.25-1.87,1.87m2.73-1.52a1.21,1.21,0,1,1,1.21-1.21,1.21,1.21,0,0,1-1.21,1.21Zm-5.46,0a1.2,1.2,0,0,1-.7-.22,19.76,19.76,0,0,0,1.34-2A1.21,1.21,0,0,1,74,64.12Zm-1.17.37A2,2,0,0,0,76,62.91H77.5a2,2,0,1,1,2,2v.76m-2.73-5.46-1.87,1.87"/><path class="cls-1" d="M87.65,54.72l-1.34,1.34M84.07,58.3,82.2,60.18m-4.12-1.34-1.34,1.34m8.19-1.52a1.21,1.21,0,1,1,1.21-1.21,1.21,1.21,0,0,1-1.21,1.21Zm-5.46,0a1.21,1.21,0,1,1,1.21-1.21,1.21,1.21,0,0,1-1.21,1.21Zm0-3.94v.76a2,2,0,1,0,2,2H83a2,2,0,1,1,2,2v.76M82.2,54.72l-1.87,1.87"/><path class="cls-1" d="M93.11,60.18l-1.34,1.34m-2.25,2.25-1.87,1.87M83.53,64.3,82.2,65.63m8.19-1.52a1.21,1.21,0,1,1,1.21-1.21,1.21,1.21,0,0,1-1.21,1.21Zm-5.46,0a1.21,1.21,0,1,1,1.21-1.21,1.21,1.21,0,0,1-1.21,1.21Zm0-3.94v.76a2,2,0,1,0,2,2h1.52a2,2,0,1,1,2,2v.76m-2.73-5.46-1.87,1.87"/><path class="cls-1" d="M98.57,54.72l-1.34,1.34M95,58.3l-1.87,1.87M89,58.84l-1.34,1.34m8.19-1.52A1.21,1.21,0,1,1,97,57.45a1.2,1.2,0,0,1-1.21,1.21Zm-5.46,0a1.21,1.21,0,1,1,1.21-1.21,1.21,1.21,0,0,1-1.21,1.21Zm0-3.94v.76a2,2,0,1,0,2,2h1.52a2,2,0,1,1,2,2v.76m-2.73-5.46-1.87,1.87"/><path class="cls-1" d="M104,60.18l-1.34,1.34m-2.25,2.25-1.87,1.87M94.45,64.3l-1.34,1.34m8.18-1.52a1.21,1.21,0,1,1,1.21-1.21,1.2,1.2,0,0,1-1.21,1.21Zm-5.46,0A1.21,1.21,0,1,1,97,62.91a1.21,1.21,0,0,1-1.21,1.21Zm0-3.94v.76a2,2,0,1,0,2,2h1.52a2,2,0,1,1,2,2v.76m-2.73-5.46-1.87,1.87"/><path class="cls-1" d="M109.45,54.75l-1.31,1.31M105.9,58.3,104,60.18M99.9,58.84l-1.34,1.34m8.18-1.52A1.21,1.21,0,1,1,108,57.45a1.21,1.21,0,0,1-1.21,1.21Zm-5.46,0a1.21,1.21,0,1,1,1.21-1.21,1.21,1.21,0,0,1-1.21,1.21Zm0-3.94v.76a2,2,0,1,0,2,2h1.52a2,2,0,1,1,2,2v.76M104,54.72l-1.87,1.87"/><path class="cls-1" d="M105.36,64.3,104,65.63m2.73-1.52A1.21,1.21,0,1,1,108,62.91a1.21,1.21,0,0,1-1.21,1.21Zm0-3.94v.76A2,2,0,1,0,108,64.4m.73-3.51-1.16,1.16"/><path class="cls-1" d="M60.37,49.26,59,50.6m-1.39.18h0a1.21,1.21,0,1,1,0,2.42V50.78Zm0-.76h0a2,2,0,1,1,0,3.94v.76"/><path class="cls-1" d="M65.83,43.81l-1.34,1.34m-2.25,2.25-1.87,1.87m2.73-1.52a1.21,1.21,0,1,1,1.21-1.21,1.21,1.21,0,0,1-1.21,1.21Zm-5.46-2.42v2.42h0a1.21,1.21,0,0,0,0-2.42Zm0,3.18a2,2,0,0,0,2-2h1.52a2,2,0,1,1,2,2v.76m-2.73-5.46L58.5,45.68"/><path class="cls-1" d="M71.28,49.26,69.95,50.6M67.7,52.85l-1.87,1.87m-4.12-1.34-1.34,1.34m8.18-1.52A1.21,1.21,0,1,1,69.76,52a1.21,1.21,0,0,1-1.21,1.21Zm-5.46,0A1.21,1.21,0,1,1,64.31,52,1.21,1.21,0,0,1,63.1,53.2Zm0-3.94V50a2,2,0,1,0,2,2h1.52a2,2,0,1,1,2,2v.76m-2.73-5.46L64,51.14"/><path class="cls-1" d="M76.74,43.81l-.84.84m-2.8,2.8-1.82,1.82m-4.12-1.34-1.34,1.34m7.22-2q-.11-.37-.25-.74h0a1.2,1.2,0,0,0,.25.73Zm-4.5.48a1.21,1.21,0,1,1,1.21-1.21,1.21,1.21,0,0,1-1.21,1.21Zm0-3.94v.76a2,2,0,1,0,2,2H72a2,2,0,0,1,.33-1.09m-1.09-1.64-1.87,1.87"/><path class="cls-1" d="M82.2,49.26l-.94.94m-3.58,3.58-.49.49m-4.57-.88-1.34,1.34m2.43-1.56q0-.58,0-1.17t0-1.17a1.21,1.21,0,0,0,0,2.34Zm-.07-3.1a2,2,0,0,0,0,3.87m5-3.72a2,2,0,0,1,1.65,0m0,3.58a2,2,0,0,1-.82.18v.76"/><path class="cls-1" d="M87.65,43.81l-1.34,1.34m-2.25,2.25L82.2,49.26m-4.12-1.34-1,1m7.84-1.17a1.21,1.21,0,1,1,1.21-1.21,1.2,1.2,0,0,1-1.21,1.21Zm-5.46,0a1.21,1.21,0,1,1,1.21-1.21,1.21,1.21,0,0,1-1.21,1.21Zm0-3.94v.76a2,2,0,1,0,2,2H83a2,2,0,1,1,2,2v.76M82.2,43.81l-1.87,1.87"/><path class="cls-1" d="M93.11,49.26l-.94.94m-3.58,3.58-.94.94m-4.52-.94-.94.94m2.73-5.46V50a2,2,0,0,0-.82.18m0,3.58a2,2,0,0,0,1.65,0m3.81-3.58a2,2,0,0,1,1.65,0m0,3.58a2,2,0,0,1-.82.18v.76m-2.73-5.46-.94.94"/><path class="cls-1" d="M98.57,43.81l-1.34,1.34M95,47.39l-1.87,1.87M89,47.93l-1.34,1.34m8.19-1.52A1.21,1.21,0,1,1,97,46.54a1.2,1.2,0,0,1-1.21,1.21Zm-5.46,0a1.21,1.21,0,1,1,1.21-1.21,1.21,1.21,0,0,1-1.21,1.21Zm0-3.94v.76a2,2,0,1,0,2,2h1.52a2,2,0,1,1,2,2v.76m-2.73-5.46-1.87,1.87"/><path class="cls-1" d="M104,49.26l-.94.94m-3.58,3.58-.94.94m-4.52-.94-.94.94m2.73-5.46V50a2,2,0,0,0-.82.18m0,3.58a2,2,0,0,0,1.65,0m3.81-3.58a2,2,0,0,1,1.65,0m0,3.58a2,2,0,0,1-.82.18v.76m-2.73-5.46-.94.94"/><path class="cls-1" d="M109,44.33l-.82.82m-2.25,2.25L104,49.26M99.9,47.93l-1.34,1.34m8.18-1.52A1.21,1.21,0,1,1,108,46.54a1.21,1.21,0,0,1-1.21,1.21Zm-5.46,0a1.21,1.21,0,1,1,1.21-1.21,1.21,1.21,0,0,1-1.21,1.21Zm0-3.94v.76a2,2,0,1,0,2,2h1.52a2,2,0,1,1,2,2v.76M104,43.81l-1.87,1.87"/><path class="cls-1" d="M105,53.78l-.94.94m2.73-5.46V50a2,2,0,0,0-.82.18m0,3.58a2,2,0,0,0,1.65,0m1.88-4.49-.92.92"/><path class="cls-1" d="M60.37,38.35,59,39.69m-1.39.18h0a1.21,1.21,0,1,1,0,2.42V39.87Zm0-.76h0a2,2,0,1,1,0,3.94v.76"/><path class="cls-1" d="M65.83,32.89l-.84.84m-2.8,2.8-1.81,1.81m2.71-1.52-.69-.23a1.2,1.2,0,0,0,.69.23Zm-5.44-.94v.94h0a1.21,1.21,0,0,0,1.17-.9q-.57,0-1.15,0Zm0,1.7h0A2,2,0,0,0,59.57,36m4.6,1.26a2,2,0,0,1-1.08.32v.76"/><path class="cls-1" d="M67.7,41.93l-1.87,1.87m-4.12-1.34-1.34,1.34m9.36-2.46Q69.4,41,69,40.61t-.76-.71a1.21,1.21,0,1,0,1.45,1.45Zm-6.64.94a1.21,1.21,0,1,1,1.21-1.21,1.21,1.21,0,0,1-1.21,1.21Zm0-3.94v.76a2,2,0,1,0,2,2h1.52a2,2,0,0,1,1-1.73M70.29,42a2,2,0,0,1-1.73,1v.76m-2.73-5.46L64,40.22"/><path class="cls-1" d="M66,38.21l-.14.14M67.53,35a1.21,1.21,0,1,1,2,1.34,19.7,19.7,0,0,0-2-1.34Zm1-2.09v.76a2,2,0,0,0-1.69,1m3.27,2.18a2,2,0,0,0,.39-1.17h1m.66-.66a2,2,0,0,1,1.2-1.2m2.49,2.56a2,2,0,0,1-1.13,1.13m-.71.71v.18m-2.73-5.46-1.87,1.87"/><path class="cls-1" d="M82.2,38.35l-1.34,1.34m-2.25,2.25-1.87,1.87m-5.31-.15-.15.15m8.18-1.52a1.21,1.21,0,1,1,1.21-1.21,1.2,1.2,0,0,1-1.21,1.21Zm-6.15-2.2a1.21,1.21,0,1,1,1.34,2,19.74,19.74,0,0,0-1.34-2Zm.7-1.74v.76a2,2,0,0,0-1.17.38M75,42.77a2,2,0,0,0,1-1.69H77.5a2,2,0,1,1,2,2v.76m-2.73-5.46-1.87,1.87"/><path class="cls-1" d="M87.65,32.89l-1.34,1.34m-2.25,2.25L82.2,38.35M78.08,37l-1.34,1.34m8.19-1.52a1.21,1.21,0,1,1,1.21-1.21,1.21,1.21,0,0,1-1.21,1.21Zm-5.46,0a1.21,1.21,0,1,1,1.21-1.21,1.21,1.21,0,0,1-1.21,1.21Zm0-3.94v.76a2,2,0,1,0,2,2H83a2,2,0,1,1,2,2v.76M82.2,32.89l-1.87,1.87"/><path class="cls-1" d="M93.11,38.35l-1.34,1.34m-2.25,2.25-1.87,1.87m-4.12-1.34L82.2,43.81m8.19-1.52a1.21,1.21,0,1,1,1.21-1.21,1.21,1.21,0,0,1-1.21,1.21Zm-5.46,0a1.21,1.21,0,1,1,1.21-1.21,1.21,1.21,0,0,1-1.21,1.21Zm0-3.94v.76a2,2,0,1,0,2,2h1.52a2,2,0,1,1,2,2v.76m-2.73-5.46-1.87,1.87"/><path class="cls-1" d="M98.57,32.89l-1.34,1.34M95,36.48l-1.87,1.87M89,37l-1.34,1.34m8.19-1.52A1.21,1.21,0,1,1,97,35.62a1.2,1.2,0,0,1-1.21,1.21Zm-5.46,0a1.21,1.21,0,1,1,1.21-1.21,1.21,1.21,0,0,1-1.21,1.21Zm0-3.94v.76a2,2,0,1,0,2,2h1.52a2,2,0,1,1,2,2v.76m-2.73-5.46-1.87,1.87"/><path class="cls-1" d="M104,38.35l-1.34,1.34m-2.25,2.25-1.87,1.87m-4.12-1.34-1.34,1.34m8.18-1.52a1.21,1.21,0,1,1,1.21-1.21,1.21,1.21,0,0,1-1.21,1.21Zm-5.46,0A1.21,1.21,0,1,1,97,41.08a1.21,1.21,0,0,1-1.21,1.21Zm0-3.94v.76a2,2,0,1,0,2,2h1.52a2,2,0,1,1,2,2v.76m-2.73-5.46-1.87,1.87"/><path class="cls-1" d="M105.9,36.48,104,38.35M99.9,37l-1.34,1.34m8.18-1.52a1.21,1.21,0,0,1-.27-2.39q.41,1.13.76,2.28a1.21,1.21,0,0,1-.49.1Zm-5.46,0a1.21,1.21,0,1,1,1.21-1.21,1.21,1.21,0,0,1-1.21,1.21Zm0-3.94v.76a2,2,0,1,0,2,2h1.52a2,2,0,0,1,1.43-1.9m1.24,3.73a2,2,0,0,1-.71.13v.76M104,32.89l-1.87,1.87"/><path class="cls-1" d="M105.36,42.47,104,43.81m2.73-1.52A1.21,1.21,0,1,1,108,41.08a1.21,1.21,0,0,1-1.21,1.21Zm0-3.94v.76a2,2,0,1,0,1.79,2.79m-.47-2.14-.47.47"/><path class="cls-1" d="M60.37,27.44,59,28.77m-1.39,2.6h0V29a1.21,1.21,0,1,1,0,2.42Zm0-3.18a2,2,0,1,1,0,3.94v.19"/><path class="cls-1" d="M65.83,22l-1.34,1.34m-2.25,2.25-1.87,1.87m2.73-1.52a1.21,1.21,0,1,1,1.21-1.21,1.2,1.2,0,0,1-1.21,1.21ZM57.64,23.5v2.42a1.21,1.21,0,0,0,0-2.42Zm0,3.18a2,2,0,0,0,2-2h1.52a2,2,0,1,1,2,2v.76M60.37,22,58.5,23.85"/><path class="cls-1" d="M71.28,27.44l-1.34,1.34M67.7,31l-1.87,1.87m-4.12-1.34-1,1m7.85-1.19a1.21,1.21,0,1,1,1.21-1.21,1.2,1.2,0,0,1-1.21,1.21Zm-5.46,0a1.21,1.21,0,1,1,1.21-1.21,1.21,1.21,0,0,1-1.21,1.21Zm0-3.94v.76a2,2,0,1,0,2,2h1.52a2,2,0,1,1,2,2v.76m-2.73-5.46L64,29.31"/><path class="cls-1" d="M76.74,22,75.4,23.32m-2.25,2.25-1.87,1.87M67.16,26.1l-1.34,1.34M74,25.92a1.21,1.21,0,1,1,1.21-1.21A1.2,1.2,0,0,1,74,25.92Zm-5.46,0a1.21,1.21,0,1,1,1.21-1.21,1.21,1.21,0,0,1-1.21,1.21Zm0-3.94v.76a2,2,0,1,0,2,2H72a2,2,0,1,1,2,2v.76M71.28,22l-1.87,1.87"/><path class="cls-1" d="M72.62,31.56l-1.34,1.34M74,31.38a1.21,1.21,0,1,1,1.21-1.21A1.21,1.21,0,0,1,74,31.38Zm0-3.94v.76a2,2,0,1,0,2,2h1m.66-.66a2,2,0,0,1,1.2-1.2m2.49,2.56A2,2,0,0,1,80.18,32m-.71.71v.18m-2.73-5.46-1.87,1.87"/><path class="cls-1" d="M78.08,26.1l-1.34,1.34m2.73-1.52a1.21,1.21,0,1,1,1.21-1.21,1.21,1.21,0,0,1-1.21,1.21Zm0-3.94v.76a2,2,0,1,0,2,2h1m.66-.66a2,2,0,0,1,1.2-1.2m2.49,2.56a2,2,0,0,1-1.13,1.13m-.71.71v.18M82.2,22l-1.87,1.87"/><path class="cls-1" d="M93.11,27.44l-1.34,1.34M89.53,31l-1.87,1.87m-4.12-1.34L82.2,32.89m8.19-1.52a1.21,1.21,0,1,1,1.21-1.21,1.21,1.21,0,0,1-1.21,1.21Zm-5.46,0a1.21,1.21,0,1,1,1.21-1.21,1.21,1.21,0,0,1-1.21,1.21Zm0-3.94v.76a2,2,0,1,0,2,2h1.52a2,2,0,1,1,2,2v.76m-2.73-5.46-1.87,1.87"/><path class="cls-1" d="M98.57,22l-1.34,1.34M95,25.56l-1.87,1.87M89,26.1l-1.34,1.34m8.19-1.52A1.21,1.21,0,1,1,97,24.71a1.2,1.2,0,0,1-1.21,1.21Zm-5.46,0a1.21,1.21,0,1,1,1.21-1.21,1.21,1.21,0,0,1-1.21,1.21Zm0-3.94v.76a2,2,0,1,0,2,2h1.52a2,2,0,1,1,2,2v.76M93.11,22l-1.87,1.87"/><path class="cls-1" d="M103.59,27.87l-.9.9M100.44,31l-1.87,1.87m-4.12-1.34-1.34,1.34m8.18-1.52a1.21,1.21,0,1,1,1.21-1.21,1.21,1.21,0,0,1-1.21,1.21Zm-5.46,0A1.21,1.21,0,1,1,97,30.17a1.21,1.21,0,0,1-1.21,1.21Zm0-3.94v.76a2,2,0,1,0,2,2h1.52a2,2,0,1,1,2,2v.76m-2.73-5.46-1.87,1.87"/><path class="cls-1" d="M99.9,26.1l-1.34,1.34m2.73-1.52a1.21,1.21,0,0,1-.27-2.39q.63,1,1.21,1.94a1.21,1.21,0,0,1-.94.45Zm-.71-3a2,2,0,1,0,2.05,3.28"/><path class="cls-1" d="M105.35,31.57,104,32.89m.76-2.59a2,2,0,0,0,.54,1.22"/><path class="cls-1" d="M60.37,16.52,59,17.86M57.64,18a1.21,1.21,0,1,1,0,2.42V18Zm0-.76a2,2,0,1,1,0,3.94V22"/><path class="cls-1" d="M65.83,11.07,64.49,12.4m-2.25,2.25-1.87,1.87M63.1,15a1.21,1.21,0,1,1,1.21-1.21A1.21,1.21,0,0,1,63.1,15Zm-5.46-2.42V15a1.21,1.21,0,1,0,0-2.42Zm0,3.18a2,2,0,0,0,2-2h1.52a2,2,0,1,1,2,2v.76m-2.73-5.46L58.5,12.94"/><path class="cls-1" d="M71.28,16.52l-1.34,1.34M67.7,20.11,65.83,22m-4.12-1.34L60.37,22m8.18-1.52a1.21,1.21,0,1,1,1.21-1.21,1.21,1.21,0,0,1-1.21,1.21Zm-5.46,0a1.21,1.21,0,1,1,1.21-1.21,1.21,1.21,0,0,1-1.21,1.21Zm0-3.94v.76a2,2,0,1,0,2,2h1.52a2,2,0,1,1,2,2V22m-2.73-5.46L64,18.4"/><path class="cls-1" d="M76.74,11.07,75.4,12.4m-2.25,2.25-1.87,1.87m-4.12-1.34-1.34,1.34M74,15a1.21,1.21,0,1,1,1.21-1.21A1.21,1.21,0,0,1,74,15Zm-5.46,0a1.21,1.21,0,1,1,1.21-1.21A1.21,1.21,0,0,1,68.56,15Zm0-3.94v.76a2,2,0,1,0,2,2H72a2,2,0,1,1,2,2v.76m-2.73-5.46-1.87,1.87"/><path class="cls-1" d="M82.2,16.52l-1.34,1.34m-2.25,2.25L76.74,22m-4.12-1.34L71.28,22m8.18-1.52a1.21,1.21,0,1,1,1.21-1.21,1.2,1.2,0,0,1-1.21,1.21Zm-5.46,0a1.21,1.21,0,1,1,1.21-1.21A1.21,1.21,0,0,1,74,20.46Zm0-3.94v.76a2,2,0,1,0,2,2H77.5a2,2,0,1,1,2,2V22m-2.73-5.46L74.87,18.4"/><path class="cls-1" d="M87.65,11.07,86.32,12.4m-2.25,2.25L82.2,16.52m-4.12-1.34-1.34,1.34M84.93,15a1.21,1.21,0,1,1,1.21-1.21A1.21,1.21,0,0,1,84.93,15Zm-5.46,0a1.21,1.21,0,1,1,1.21-1.21A1.21,1.21,0,0,1,79.47,15Zm0-3.94v.76a2,2,0,1,0,2,2H83a2,2,0,1,1,2,2v.76M82.2,11.07l-1.87,1.87"/><path class="cls-1" d="M83.53,20.64,82.2,22m2.73-1.52a1.21,1.21,0,1,1,1.21-1.21,1.21,1.21,0,0,1-1.21,1.21Zm0-3.94v.76a2,2,0,1,0,2,2h1m.66-.66a2,2,0,0,1,1.2-1.2M92.22,20a2,2,0,0,1-1.13,1.13m-.71.71V22m-2.73-5.46L85.78,18.4"/><path class="cls-1" d="M89,15.19l-1.34,1.34M90.38,15a1.21,1.21,0,1,1,1.21-1.21A1.21,1.21,0,0,1,90.38,15Zm0-3.26v.08a2,2,0,1,0,2,2h.4M91.5,12.68l-.26.26"/><path class="cls-1" d="M99.38,21.17l-.81.81m-4.12-1.34L93.11,22m2.73-1.52A1.21,1.21,0,1,1,97,19.25a1.21,1.21,0,0,1-1.21,1.21Zm0-3.58v.4a2,2,0,1,0,2,2h.08M97,18.14l-.26.26"/><path class="cls-1" d="M60.37,5.61,59,6.95m-1.39.18h0a1.21,1.21,0,1,1,0,2.42V7.13Zm0-.76a2,2,0,1,1,0,3.94v.76"/><path class="cls-1" d="M65.3.68l-.81.81M62.24,3.74,60.37,5.61M63.1,4.09a1.21,1.21,0,1,1,1.21-1.21A1.21,1.21,0,0,1,63.1,4.09ZM57.64,1.67V4.09a1.21,1.21,0,1,0,0-2.42Zm0,3.18h0a2,2,0,0,0,2-2h1.52a2,2,0,1,1,2,2v.76M60.33.19,58.5,2"/><path class="cls-1" d="M71.28,5.61,69.95,6.95M67.7,9.19l-1.87,1.87M61.71,9.73l-1.34,1.34m8.18-1.52a1.21,1.21,0,1,1,1.21-1.21,1.21,1.21,0,0,1-1.21,1.21Zm-5.46,0a1.21,1.21,0,1,1,1.21-1.21A1.21,1.21,0,0,1,63.1,9.55Zm0-3.94v.76a2,2,0,1,0,2,2h1.52a2,2,0,1,1,2,2v.76M65.83,5.61,64,7.48"/><path class="cls-1" d="M73.16,3.74,71.28,5.61M67.16,4.27,65.83,5.61M74,4.09A1.21,1.21,0,0,1,72.9,2.4q1.15.35,2.29.76A1.21,1.21,0,0,1,74,4.09Zm-5.46,0a1.21,1.21,0,1,1,1.21-1.21,1.21,1.21,0,0,1-1.21,1.21Zm-.84-3a2,2,0,1,0,2.8,1.78H72a2,2,0,0,1,.13-.7m3.73,1.24A2,2,0,0,1,74,4.85v.76m-4.14-4L69.41,2"/><path class="cls-1" d="M81.76,6.05l-.9.9M78.61,9.19l-1.87,1.87M72.62,9.73l-1.34,1.34m8.18-1.52a1.21,1.21,0,1,1,1.21-1.21,1.2,1.2,0,0,1-1.21,1.21ZM74,9.55a1.21,1.21,0,1,1,1.21-1.21A1.21,1.21,0,0,1,74,9.55Zm0-3.94v.76a2,2,0,1,0,2,2H77.5a2,2,0,1,1,2,2v.76M76.74,5.61,74.87,7.48"/><path class="cls-1" d="M78.06,4.29,76.74,5.61m1.38-1.29a2,2,0,0,0,1.18.53"/><path class="cls-1" d="M88.46,10.26l-.81.81M83.53,9.73,82.2,11.07m2.73-1.52a1.21,1.21,0,0,1-.76-2.15q1,.59,1.94,1.21a1.21,1.21,0,0,1-1.18.93ZM83.48,7a2,2,0,1,0,3.28,2.05"/><line class="cls-2" x1="57.64" y1="0.12" x2="57.64" y2="0.15"/><path class="cls-1" d="M40.61,63.38A16,16,0,0,0,52,68.09V35.9A16.1,16.1,0,0,0,40.61,63.38Zm-25.3,25.3A51.71,51.71,0,0,0,52,103.86V71.66a19.67,19.67,0,0,1,0-39.33V.12A51.87,51.87,0,0,0,15.32,88.67Z"/><path class="cls-1" d="M38.34,98.38,37,99.71m-2.57,1.1a1.21,1.21,0,1,1,2.29.76q-1.16-.36-2.29-.76Zm-4.28-2.44v.68m3.57,1.5a2,2,0,1,1,3.73,1.24m-4.57-3.42-1.31,1.31"/><path class="cls-1" d="M49.25,98.38l-1.34,1.34M45.67,102l-1.34,1.34m2.2-1a1.21,1.21,0,1,1,1.21-1.21,1.21,1.21,0,0,1-1.21,1.21Zm-5.46,0a1.21,1.21,0,1,1,1.21-1.21,1.21,1.21,0,0,1-1.21,1.21Zm0-3.94v.76a2,2,0,0,0-1.52,3.22m2.36.52A2,2,0,0,0,43,101.1h1.52a2,2,0,1,1,2,2v.5m-2.73-5.2-1.87,1.87"/><path class="cls-1" d="M50.59,102.5l-1.3,1.3M52,102.31a1.21,1.21,0,1,1,0-2.42v2.42Zm0-3.94v.76a2,2,0,1,0,0,3.94"/><line class="cls-2" x1="16.51" y1="87.46" x2="15.31" y2="88.66"/><line class="cls-2" x1="21.97" y1="92.92" x2="21.17" y2="93.72"/><path class="cls-1" d="M27.42,87.46,26.09,88.8M23.84,91,22,92.92m2.73-1.52a1.21,1.21,0,1,1,1.21-1.21,1.21,1.21,0,0,1-1.21,1.21Zm-5.46,0a1.21,1.21,0,1,1,1.21-1.21,1.21,1.21,0,0,1-1.21,1.21Zm0-3.94v.76a2,2,0,0,0-1.93,2.33m1.87,1.6h.07a2,2,0,0,0,2-2h1.52a2,2,0,1,1,2,2v.76M22,87.46l-1.87,1.87"/><path class="cls-1" d="M32.88,92.92l-1.34,1.34M29.3,96.5l-1.42,1.42m2.28-1.07a1.21,1.21,0,1,1,1.21-1.21,1.21,1.21,0,0,1-1.21,1.21Zm-6.63-1.5a1.21,1.21,0,1,1,1.95,1.22q-1-.59-1.95-1.22Zm1.17-2.44v.76a2,2,0,0,0-1.83,1.24M26.15,97a2,2,0,0,0,.52-1.33h1.52a2,2,0,1,1,2,2v.76m-2.73-5.46-1.87,1.87"/><path class="cls-1" d="M38.34,87.46,37,88.8M34.75,91l-1.87,1.87m-4.12-1.34-1.34,1.34m8.18-1.52a1.21,1.21,0,1,1,1.21-1.21,1.21,1.21,0,0,1-1.21,1.21Zm-5.46,0a1.21,1.21,0,1,1,1.21-1.21,1.21,1.21,0,0,1-1.21,1.21Zm0-3.94v.76a2,2,0,1,0,2,2h1.52a2,2,0,1,1,2,2v.76m-2.73-5.46L31,89.34"/><path class="cls-1" d="M43.79,92.92l-1.34,1.34M40.21,96.5l-1.87,1.87M34.22,97l-1.34,1.34m8.18-1.52a1.21,1.21,0,1,1,1.21-1.21,1.21,1.21,0,0,1-1.21,1.21Zm-5.46,0a1.21,1.21,0,1,1,1.21-1.21,1.21,1.21,0,0,1-1.21,1.21Zm0-3.94v.76a2,2,0,1,0,2,2H39.1a2,2,0,1,1,2,2v.76m-2.73-5.46-1.87,1.87"/><path class="cls-1" d="M49.25,87.46,47.91,88.8M45.67,91l-1.87,1.87m-4.12-1.34-1.34,1.34m8.19-1.52a1.21,1.21,0,1,1,1.21-1.21,1.21,1.21,0,0,1-1.21,1.21Zm-5.46,0a1.21,1.21,0,1,1,1.21-1.21,1.21,1.21,0,0,1-1.21,1.21Zm0-3.94v.76a2,2,0,1,0,2,2h1.52a2,2,0,1,1,2,2v.76m-2.73-5.46-1.87,1.87"/><path class="cls-1" d="M51.12,96.5l-1.87,1.87M45.13,97l-1.34,1.34M52,96.86a1.21,1.21,0,1,1,0-2.42v2.42Zm-5.46,0a1.21,1.21,0,1,1,1.21-1.21,1.21,1.21,0,0,1-1.21,1.21Zm0-3.94v.76a2,2,0,1,0,2,2H50a2,2,0,0,1,2-2m-2.73-.76-1.87,1.87"/><path class="cls-1" d="M50.59,91.58l-1.34,1.34M52,91.4A1.21,1.21,0,0,1,52,89V91.4Zm0-3.94v.38m0,.38a2,2,0,1,0,0,3.94"/><line class="cls-2" x1="11.05" y1="82.01" x2="10.26" y2="82.8"/><path class="cls-1" d="M16.51,76.55l-1.34,1.34m-2.25,2.25L11.05,82m2.73-1.52A1.21,1.21,0,1,1,15,79.28a1.21,1.21,0,0,1-1.21,1.21Zm-6.38-2a1.21,1.21,0,1,1,1.22,2q-.63-1-1.22-2Zm.92-1.95v.76A2,2,0,0,0,7,77.82M9.06,81.1a2,2,0,0,0,1.23-1.83h1.52a2,2,0,1,1,2,2V82m-2.73-5.46L9.18,78.42"/><path class="cls-1" d="M22,82l-1.34,1.34m-2.25,2.25-1.87,1.87m2.73-1.52a1.21,1.21,0,1,1,1.21-1.21,1.21,1.21,0,0,1-1.21,1.21Zm-5.46,0A1.21,1.21,0,1,1,15,84.73a1.21,1.21,0,0,1-1.21,1.21Zm0-3.94v.76a2,2,0,0,0-2,2v.06m1.61,1.87a2,2,0,0,0,2.33-1.94h1.52a2,2,0,1,1,2,2v.76M16.51,82l-1.87,1.87"/><path class="cls-1" d="M27.42,76.55l-1.34,1.34m-2.25,2.25L22,82m-4.12-1.34L16.51,82m8.18-1.52a1.21,1.21,0,1,1,1.21-1.21,1.21,1.21,0,0,1-1.21,1.21Zm-5.46,0a1.21,1.21,0,1,1,1.21-1.21,1.21,1.21,0,0,1-1.21,1.21Zm0-3.94v.76a2,2,0,1,0,2,2h1.52a2,2,0,1,1,2,2V82M22,76.55l-1.87,1.87"/><path class="cls-1" d="M32.88,82l-1.34,1.34M29.3,85.59l-1.87,1.87M23.3,86.13,22,87.46m8.19-1.52a1.21,1.21,0,1,1,1.21-1.21,1.2,1.2,0,0,1-1.21,1.21Zm-5.46,0a1.21,1.21,0,1,1,1.21-1.21,1.21,1.21,0,0,1-1.21,1.21Zm0-3.94v.76a2,2,0,1,0,2,2h1.52a2,2,0,1,1,2,2v.76M27.42,82l-1.87,1.87"/><path class="cls-1" d="M38.34,76.55,37,77.89m-2.25,2.25L32.88,82m-4.12-1.34L27.42,82m8.18-1.52a1.21,1.21,0,1,1,1.21-1.21,1.2,1.2,0,0,1-1.21,1.21Zm-5.46,0a1.21,1.21,0,1,1,1.21-1.21,1.21,1.21,0,0,1-1.21,1.21Zm0-3.94v.76a2,2,0,1,0,2,2h1.52a2,2,0,1,1,2,2V82m-2.73-5.46L31,78.42"/><path class="cls-1" d="M43.79,82l-1.34,1.34m-2.25,2.25-1.87,1.87m-4.12-1.34-1.34,1.34m8.18-1.52a1.21,1.21,0,1,1,1.21-1.21,1.2,1.2,0,0,1-1.21,1.21Zm-5.46,0a1.21,1.21,0,1,1,1.21-1.21,1.21,1.21,0,0,1-1.21,1.21Zm0-3.94v.76a2,2,0,1,0,2,2H39.1a2,2,0,1,1,2,2v.76M38.34,82l-1.87,1.87"/><path class="cls-1" d="M49.25,76.55l-1.34,1.34m-2.25,2.25L43.79,82m-4.12-1.34L38.34,82m8.19-1.52a1.21,1.21,0,1,1,1.21-1.21,1.21,1.21,0,0,1-1.21,1.21Zm-5.46,0a1.21,1.21,0,1,1,1.21-1.21,1.21,1.21,0,0,1-1.21,1.21Zm0-3.94v.76a2,2,0,1,0,2,2h1.52a2,2,0,1,1,2,2V82m-2.73-5.46-1.87,1.87"/><path class="cls-1" d="M51.12,85.59l-1.87,1.87m-4.12-1.34-1.34,1.34M52,85.94a1.21,1.21,0,1,1,0-2.42v2.42Zm-5.46,0a1.21,1.21,0,1,1,1.21-1.21,1.21,1.21,0,0,1-1.21,1.21Zm0-3.94v.76a2,2,0,1,0,2,2H50a2,2,0,0,1,2-2M49.25,82l-1.87,1.87"/><path class="cls-1" d="M50.59,80.67,49.25,82M52,80.49a1.21,1.21,0,0,1,0-2.42v2.42Zm0-3.94v.76a2,2,0,1,0,0,3.94"/><path class="cls-1" d="M5.6,65.64,4.26,67m-1.86.27a1.21,1.21,0,1,1,.76,2.29q-.41-1.13-.76-2.29Zm-.22-.73a2,2,0,1,1,1.24,3.73"/><path class="cls-1" d="M11.05,71.09,9.72,72.43M7.47,74.68,6.05,76.09M8.32,75a1.21,1.21,0,1,1,1.21-1.21A1.2,1.2,0,0,1,8.32,75Zm-3.4-1.21H6.35a2,2,0,1,1,2,2v.76M5.6,71.09l-1.3,1.3"/><path class="cls-1" d="M16.51,65.64,15.17,67m-2.25,2.25-1.87,1.87M6.93,69.76,5.6,71.09m8.19-1.52A1.21,1.21,0,1,1,15,68.36a1.2,1.2,0,0,1-1.21,1.21Zm-5.46,0a1.21,1.21,0,1,1,1.21-1.21,1.21,1.21,0,0,1-1.21,1.21Zm0-3.94v.76a2,2,0,1,0,2,2h1.52a2,2,0,1,1,2,2v.76m-2.73-5.46L9.18,67.51"/><path class="cls-1" d="M22,71.09l-1.34,1.34m-2.25,2.25-1.87,1.87m-4.12-1.34-1.34,1.34M19.24,75a1.21,1.21,0,1,1,1.21-1.21A1.21,1.21,0,0,1,19.24,75Zm-5.46,0A1.21,1.21,0,1,1,15,73.82,1.21,1.21,0,0,1,13.78,75Zm0-3.94v.76a2,2,0,1,0,2,2h1.52a2,2,0,1,1,2,2v.76m-2.73-5.46L14.64,73"/><path class="cls-1" d="M27.42,65.64,26.09,67m-2.25,2.25L22,71.09m-4.12-1.34-1.34,1.34m8.18-1.52a1.21,1.21,0,1,1,1.21-1.21,1.21,1.21,0,0,1-1.21,1.21Zm-5.46,0a1.21,1.21,0,1,1,1.21-1.21,1.21,1.21,0,0,1-1.21,1.21Zm0-3.94v.76a2,2,0,1,0,2,2h1.52a2,2,0,1,1,2,2v.76M22,65.64l-1.87,1.87"/><path class="cls-1" d="M32.88,71.09l-1.34,1.34M29.3,74.68l-1.87,1.87M23.3,75.21,22,76.55M30.15,75a1.21,1.21,0,1,1,1.21-1.21A1.2,1.2,0,0,1,30.15,75Zm-5.46,0a1.21,1.21,0,1,1,1.21-1.21A1.21,1.21,0,0,1,24.69,75Zm0-3.94v.76a2,2,0,1,0,2,2h1.52a2,2,0,1,1,2,2v.76m-2.73-5.46L25.55,73"/><path class="cls-1" d="M38.08,65.89,37,67m-2.25,2.25-1.87,1.87m-4.12-1.34-1.34,1.34m8.19-1.52a1.21,1.21,0,1,1,1.21-1.21,1.2,1.2,0,0,1-1.21,1.21Zm-5.46,0a1.21,1.21,0,1,1,1.21-1.21,1.21,1.21,0,0,1-1.21,1.21Zm0-3.94v.76a2,2,0,1,0,2,2h1.52a2,2,0,1,1,2,2v.76m-2.73-5.46L31,67.51"/><path class="cls-1" d="M43.79,71.09l-1.34,1.34m-2.25,2.25-1.87,1.87m-4.12-1.34-1.34,1.34M41.06,75a1.21,1.21,0,1,1,1.21-1.21A1.21,1.21,0,0,1,41.06,75Zm-5.46,0a1.21,1.21,0,1,1,1.21-1.21A1.21,1.21,0,0,1,35.61,75Zm0-3.94v.76a2,2,0,1,0,2,2H39.1a2,2,0,1,1,2,2v.76m-2.73-5.46L36.46,73"/><path class="cls-1" d="M49.25,65.64,47.91,67m-3.27,3.27-.85.85m-4.12-1.34-1.34,1.34m8.24-3.94.63.21a1.2,1.2,0,0,0-.63-.21Zm-5.51,2.42a1.21,1.21,0,0,1-1-1.92,19.71,19.71,0,0,0,2,1.34,1.21,1.21,0,0,1-1,.58Zm-1.57-2.4a2,2,0,1,0,3.27,2.19m2.69-2.65a2,2,0,0,1,2.91,1m-1.85,3.21v.2m-2.73-5.46-.13.13"/><path class="cls-1" d="M51.12,74.68l-1.87,1.87m-4.12-1.34-1.34,1.34M52,75a1.21,1.21,0,0,1,0-2.42V75Zm-5.46,0a1.21,1.21,0,1,1,1.21-1.21A1.21,1.21,0,0,1,46.52,75Zm0-3.94v.76a2,2,0,1,0,2,2H50a2,2,0,0,1,2-2m-3.06-.43L47.38,73"/><path class="cls-1" d="M50.81,68q.58,0,1.17,0v-.94a1.21,1.21,0,0,0-1.17.89ZM52,65.64V66m0,.38A2,2,0,0,0,50,68"/><path class="cls-1" d="M5.6,54.72,4.26,56.06M2,58.31.68,59.63m2.18-1a1.21,1.21,0,1,1,1.21-1.21,1.21,1.21,0,0,1-1.21,1.21ZM.41,57.45H.9a2,2,0,1,1,2,2v.76"/><path class="cls-1" d="M11.05,60.18,9.72,61.52M7.47,63.76,5.6,65.64m2.73-1.52a1.21,1.21,0,1,1,1.21-1.21,1.2,1.2,0,0,1-1.21,1.21Zm-5.46,0a1.21,1.21,0,1,1,1.21-1.21,1.21,1.21,0,0,1-1.21,1.21Zm0-3.94v.76A2,2,0,0,0,1.1,62m.53,2.39a2,2,0,0,0,3.21-1.53H6.35a2,2,0,1,1,2,2v.76M5.6,60.18,3.72,62.05"/><path class="cls-1" d="M16.51,54.72l-1.34,1.34m-2.25,2.25-1.87,1.87M6.93,58.84,5.6,60.18m8.19-1.52A1.21,1.21,0,1,1,15,57.45a1.21,1.21,0,0,1-1.21,1.21Zm-5.46,0a1.21,1.21,0,1,1,1.21-1.21,1.21,1.21,0,0,1-1.21,1.21Zm0-3.94v.76a2,2,0,1,0,2,2h1.52a2,2,0,1,1,2,2v.76m-2.73-5.46L9.18,56.6"/><path class="cls-1" d="M22,60.18l-1.34,1.34m-2.25,2.25-1.87,1.87M12.39,64.3l-1.34,1.34m8.18-1.52a1.21,1.21,0,1,1,1.21-1.21,1.2,1.2,0,0,1-1.21,1.21Zm-5.46,0A1.21,1.21,0,1,1,15,62.91a1.21,1.21,0,0,1-1.21,1.21Zm0-3.94v.76a2,2,0,1,0,2,2h1.52a2,2,0,1,1,2,2v.76m-2.73-5.46-1.87,1.87"/><path class="cls-1" d="M27.42,54.72l-1.34,1.34m-2.25,2.25L22,60.18m-4.12-1.34-1.34,1.34m8.18-1.52a1.21,1.21,0,1,1,1.21-1.21,1.21,1.21,0,0,1-1.21,1.21Zm-5.46,0a1.21,1.21,0,1,1,1.21-1.21,1.21,1.21,0,0,1-1.21,1.21Zm0-3.94v.76a2,2,0,1,0,2,2h1.52a2,2,0,1,1,2,2v.76M22,54.72,20.09,56.6"/><path class="cls-1" d="M32.88,60.18l-1.34,1.34M29.3,63.76l-1.87,1.87M23.3,64.3,22,65.64m8.19-1.52a1.21,1.21,0,1,1,1.21-1.21,1.2,1.2,0,0,1-1.21,1.21Zm-5.46,0a1.21,1.21,0,1,1,1.21-1.21,1.21,1.21,0,0,1-1.21,1.21Zm0-3.94v.76a2,2,0,1,0,2,2h1.52a2,2,0,1,1,2,2v.76m-2.73-5.46-1.87,1.87"/><path class="cls-1" d="M38.34,54.72,37,56.06m-3.26,3.26-.86.86m-4.12-1.34-1.34,1.34m9.2-3.38q.09.29.19.57a1.2,1.2,0,0,0-.19-.57Zm-6.47,1.86a1.21,1.21,0,1,1,1.21-1.21,1.21,1.21,0,0,1-1.21,1.21Zm0-3.94v.76a2,2,0,1,0,2,2h1m3.21-1.84a2,2,0,0,1,1,2.9M32.56,55,31,56.6"/><path class="cls-1" d="M43.79,60.18l-1.34,1.34M34.22,64.3l-1.34,1.34m7.73-2.26q.36.36.75.7a1.21,1.21,0,1,0-1.47-1.47q.35.4.72.77Zm-5,.74A1.21,1.21,0,0,1,35,61.87a19.7,19.7,0,0,0,1.34,2,1.2,1.2,0,0,1-.72.24Zm-1-2.91a2,2,0,1,0,2.18,3.27m2.55-2.53A2,2,0,1,1,42,64.63m-3.68-4.45-.13.13"/><path class="cls-1" d="M49.25,54.72l-1.34,1.34m-2.25,2.25-1.87,1.87m-4.12-1.34-1.34,1.34m8.19-1.52a1.21,1.21,0,1,1,1.21-1.21,1.21,1.21,0,0,1-1.21,1.21Zm-5.46,0a1.21,1.21,0,1,1,1.21-1.21,1.21,1.21,0,0,1-1.21,1.21Zm0-3.94v.76a2,2,0,1,0,2,2h1.52a2,2,0,1,1,2,2v.76m-2.73-5.46L41.92,56.6"/><path class="cls-1" d="M51.12,63.76l-1.87,1.87M45.13,64.3l-1.34,1.34M52,64.12a1.21,1.21,0,1,1,0-2.42v2.42Zm-5.46,0a1.21,1.21,0,1,1,1.21-1.21,1.21,1.21,0,0,1-1.21,1.21Zm0-3.94v.76a2,2,0,1,0,2,2H50a2,2,0,0,1,2-2m-2.73-.76-1.87,1.87"/><path class="cls-1" d="M50.59,58.84l-1.34,1.34M52,58.66a1.21,1.21,0,1,1,0-2.42v2.42Zm0-3.94v.38m0,.38a2,2,0,0,0,0,3.94"/><path class="cls-1" d="M5.6,43.81,4.26,45.14M2,47.39.2,49.21m2.67-1.46a1.21,1.21,0,1,1,1.21-1.21,1.21,1.21,0,0,1-1.21,1.21ZM.41,46.54H.9a2,2,0,1,1,2,2v.76"/><path class="cls-1" d="M11.05,49.27,9.72,50.6M7.47,52.85,5.6,54.72M1.47,53.39.19,54.67M8.32,53.2A1.21,1.21,0,1,1,9.53,52,1.2,1.2,0,0,1,8.32,53.2Zm-5.46,0A1.21,1.21,0,1,1,4.08,52,1.21,1.21,0,0,1,2.87,53.2Zm0-3.94V50a2,2,0,1,0,2,2H6.35a2,2,0,1,1,2,2v.76M5.6,49.27,3.72,51.14"/><path class="cls-1" d="M16.51,43.81l-1.34,1.34m-2.25,2.25-1.87,1.87M6.93,47.93,5.6,49.27m8.19-1.52A1.21,1.21,0,1,1,15,46.54a1.21,1.21,0,0,1-1.21,1.21Zm-5.46,0a1.21,1.21,0,1,1,1.21-1.21,1.21,1.21,0,0,1-1.21,1.21Zm0-3.94v.76a2,2,0,1,0,2,2h1.52a2,2,0,1,1,2,2v.76m-2.73-5.46L9.18,45.68"/><path class="cls-1" d="M22,49.27,20.63,50.6m-2.25,2.25-1.87,1.87m-4.12-1.34-1.34,1.34m8.18-1.52A1.21,1.21,0,1,1,20.45,52a1.2,1.2,0,0,1-1.21,1.21Zm-5.46,0A1.21,1.21,0,1,1,15,52a1.21,1.21,0,0,1-1.21,1.21Zm0-3.94V50a2,2,0,1,0,2,2h1.52a2,2,0,1,1,2,2v.76m-2.73-5.46-1.87,1.87"/><path class="cls-1" d="M27.42,43.81l-1.34,1.34m-2.25,2.25L22,49.27m-4.12-1.34-1.34,1.34m8.18-1.52a1.21,1.21,0,1,1,1.21-1.21,1.21,1.21,0,0,1-1.21,1.21Zm-5.46,0a1.21,1.21,0,1,1,1.21-1.21,1.21,1.21,0,0,1-1.21,1.21Zm0-3.94v.76a2,2,0,1,0,2,2h1.52a2,2,0,1,1,2,2v.76M22,43.81l-1.87,1.87"/><path class="cls-1" d="M32.46,49.68l-.92.92M29.3,52.85l-1.87,1.87M23.3,53.39,22,54.72m8.19-1.52A1.21,1.21,0,1,1,31.36,52a1.2,1.2,0,0,1-1.21,1.21Zm-5.46,0A1.21,1.21,0,1,1,25.9,52a1.21,1.21,0,0,1-1.21,1.21Zm0-3.94V50a2,2,0,1,0,2,2h1.52a2,2,0,1,1,2,2v.76m-2.73-5.46-1.87,1.87"/><path class="cls-1" d="M38.34,43.81l-.48.48m-9.1,3.64-1.34,1.34m9.39-2.64q-.1.28-.19.57a1.2,1.2,0,0,0,.19-.57Zm-6.66,1.12a1.21,1.21,0,1,1,1.21-1.21,1.21,1.21,0,0,1-1.21,1.21Zm0-3.94v.76a2,2,0,1,0,2,2h1m4.17-1.06a2,2,0,0,1-1,2.9m-3.42-4.57L31,45.68"/><path class="cls-1" d="M43.79,49.26,42.46,50.6m-2.25,2.25-1.87,1.87m2.73-1.52A1.21,1.21,0,1,1,42.27,52a1.21,1.21,0,0,1-1.21,1.21Zm-5.13-2.37q0,.58,0,1.16t0,1.16a1.21,1.21,0,0,0,0-2.33ZM36,53.92A2,2,0,0,0,37.58,52H39.1a2,2,0,1,1,2,2v.76m-2.73-5.46-1.87,1.87"/><path class="cls-1" d="M49.25,43.81l-1.34,1.34m-2.25,2.25-1.87,1.87m-4.12-1.34-1.34,1.34m8.19-1.52a1.21,1.21,0,1,1,1.21-1.21,1.21,1.21,0,0,1-1.21,1.21Zm-5.46,0a1.21,1.21,0,1,1,1.21-1.21,1.21,1.21,0,0,1-1.21,1.21Zm0-3.94v.76a2,2,0,1,0,2,2h1.52a2,2,0,1,1,2,2v.76m-2.73-5.46-1.87,1.87"/><path class="cls-1" d="M51.12,52.85l-1.87,1.87m-4.12-1.34-1.34,1.34M52,53.2a1.21,1.21,0,1,1,0-2.42V53.2Zm-5.46,0A1.21,1.21,0,1,1,47.73,52a1.21,1.21,0,0,1-1.21,1.21Zm0-3.94V50a2,2,0,1,0,2,2H50a2,2,0,0,1,2-2m-2.73-.76-1.87,1.87"/><path class="cls-1" d="M50.59,47.93l-1.34,1.34M52,47.75a1.21,1.21,0,1,1,0-2.42v2.42Zm0-3.94v.76a2,2,0,1,0,0,3.94"/><path class="cls-1" d="M5.6,32.9,4.26,34.23m-1.39,2.6a1.21,1.21,0,0,1-.46-.09q.36-1.16.76-2.29a1.21,1.21,0,0,1-.3,2.38Zm.56-3.1a2,2,0,0,1-.56,3.86v.76"/><path class="cls-1" d="M11.05,38.35,9.72,39.69M7.47,41.94,5.6,43.81M1.47,42.47l-.58.58m7.43-.77a1.21,1.21,0,1,1,1.21-1.21,1.21,1.21,0,0,1-1.21,1.21Zm-5.46,0a1.21,1.21,0,1,1,1.21-1.21,1.21,1.21,0,0,1-1.21,1.21Zm0-3.94v.76a2,2,0,0,0-1.24.44M1.1,41.94a2,2,0,0,0,3.74-.86H6.35a2,2,0,1,1,2,2v.76M5.6,38.35,3.72,40.23"/><path class="cls-1" d="M16.51,32.89l-1.34,1.34m-2.25,2.25-1.87,1.87M6.93,37,5.6,38.35m8.19-1.52A1.21,1.21,0,1,1,15,35.62a1.21,1.21,0,0,1-1.21,1.21Zm-5.46,0a1.21,1.21,0,1,1,1.21-1.21,1.21,1.21,0,0,1-1.21,1.21Zm0-3.94v.76a2,2,0,1,0,2,2h1.52a2,2,0,1,1,2,2v.76M11.05,32.9,9.18,34.77"/><path class="cls-1" d="M22,38.35l-1.34,1.34m-2.25,2.25-1.87,1.87m-4.12-1.34-1.34,1.34m8.18-1.52a1.21,1.21,0,1,1,1.21-1.21,1.21,1.21,0,0,1-1.21,1.21Zm-5.46,0A1.21,1.21,0,1,1,15,41.08a1.21,1.21,0,0,1-1.21,1.21Zm0-3.94v.76a2,2,0,1,0,2,2h1.52a2,2,0,1,1,2,2v.76m-2.73-5.46-1.87,1.87"/><path class="cls-1" d="M27.42,32.89l-1.34,1.34m-2.25,2.25L22,38.35M17.85,37l-1.34,1.34m8.18-1.52a1.21,1.21,0,1,1,1.21-1.21,1.21,1.21,0,0,1-1.21,1.21Zm-5.46,0a1.21,1.21,0,1,1,1.21-1.21,1.21,1.21,0,0,1-1.21,1.21Zm0-3.94v.76a2,2,0,1,0,2,2h1.52a2,2,0,1,1,2,2v.76M22,32.89l-1.87,1.87"/><path class="cls-1" d="M32.88,38.35l-1.34,1.34M29.3,41.94l-1.87,1.87M23.3,42.47,22,43.81m8.19-1.52a1.21,1.21,0,1,1,1.21-1.21,1.21,1.21,0,0,1-1.21,1.21Zm-5.46,0a1.21,1.21,0,1,1,1.21-1.21,1.21,1.21,0,0,1-1.21,1.21Zm0-3.94v.76a2,2,0,1,0,2,2h1.52a2,2,0,1,1,2,2v.76m-2.73-5.46-1.87,1.87"/><path class="cls-1" d="M38.34,32.89,37,34.23m-2.25,2.25-1.87,1.87M28.76,37l-1.34,1.34m8.19-1.52a1.21,1.21,0,1,1,1.21-1.21,1.21,1.21,0,0,1-1.21,1.21Zm-5.46,0a1.21,1.21,0,1,1,1.21-1.21,1.21,1.21,0,0,1-1.21,1.21Zm0-3.94v.76a2,2,0,1,0,2,2h1.52a2,2,0,1,1,2,2v.76m-2.73-5.46L31,34.77"/><path class="cls-1" d="M43.79,38.35l-1.34,1.34m-2.25,2.25-1.87,1.87m-4.12-1.34-1.34,1.34m8.48-3.9q-.39.34-.75.7t-.72.77a1.21,1.21,0,1,0,1.47-1.47ZM35,42.12a1.21,1.21,0,1,1,1.34-2,19.74,19.74,0,0,0-1.34,2Zm.62-3.76v.76a2,2,0,0,0-1,3.67M42,39.36a2,2,0,0,1-1,3.69v.76"/><path class="cls-1" d="M44.29,37.86l-.49.49m3.41-1.73-.63.21a1.2,1.2,0,0,0,.63-.21Zm-7.12-.28a1.21,1.21,0,1,1,2-1.34,19.73,19.73,0,0,0-2,1.34Zm1-3.44v.76a2,2,0,0,0-1.57,3.16m8.87-.5a2,2,0,0,1-1.85,1.29v.76m-2.73-5.46-1.87,1.87"/><path class="cls-1" d="M51.12,41.93l-1.87,1.87m-4.12-1.34-1.34,1.34M52,42.29a1.21,1.21,0,0,1,0-2.42v2.42Zm-5.46,0a1.21,1.21,0,1,1,1.21-1.21,1.21,1.21,0,0,1-1.21,1.21Zm0-3.94v.76a2,2,0,1,0,2,2H50a2,2,0,0,1,2-2m-2.73-.76-1.87,1.87"/><path class="cls-1" d="M50.59,37l-1.34,1.34M52,35.9q-.59,0-1.17,0a1.21,1.21,0,0,0,1.17.89V35.9ZM50,36A2,2,0,0,0,52,37.59"/><path class="cls-1" d="M11.05,27.44,9.72,28.77M7.47,31,5.6,32.9m2.73-1.52a1.21,1.21,0,1,1,1.21-1.21,1.21,1.21,0,0,1-1.21,1.21Zm-4,.09a2,2,0,0,0,.48-1.07m.1-.23H6.35a2,2,0,1,1,2,2v.76"/><path class="cls-1" d="M16.51,22l-1.34,1.34m-2.25,2.25-1.87,1.87m2.73-1.52A1.21,1.21,0,1,1,15,24.71a1.21,1.21,0,0,1-1.21,1.21Zm-5.46,0a1.21,1.21,0,0,1-.92-.43q.59-1,1.22-2a1.21,1.21,0,0,1-.3,2.38ZM7,26.17a2,2,0,0,0,3.29-1.46h1.52a2,2,0,1,1,2,2v.76M11.05,22,9.18,23.85"/><path class="cls-1" d="M22,27.44l-1.34,1.34M18.38,31l-1.87,1.87m-4.12-1.34L11.05,32.9m8.18-1.52a1.21,1.21,0,1,1,1.21-1.21,1.2,1.2,0,0,1-1.21,1.21Zm-5.46,0A1.21,1.21,0,1,1,15,30.17a1.21,1.21,0,0,1-1.21,1.21Zm0-3.94v.76a2,2,0,1,0,2,2h1.52a2,2,0,1,1,2,2v.76m-2.73-5.46-1.87,1.87"/><path class="cls-1" d="M27.42,22l-1.34,1.34m-2.25,2.25L22,27.44M17.85,26.1l-1.34,1.34m8.18-1.52a1.21,1.21,0,1,1,1.21-1.21,1.2,1.2,0,0,1-1.21,1.21Zm-5.46,0a1.21,1.21,0,1,1,1.21-1.21,1.21,1.21,0,0,1-1.21,1.21Zm0-3.94v.76a2,2,0,1,0,2,2h1.52a2,2,0,1,1,2,2v.76M22,22l-1.87,1.87"/><path class="cls-1" d="M32.88,27.44l-1.34,1.34M29.3,31l-1.87,1.87M23.3,31.56,22,32.89m8.19-1.52a1.21,1.21,0,1,1,1.21-1.21,1.2,1.2,0,0,1-1.21,1.21Zm-5.46,0a1.21,1.21,0,1,1,1.21-1.21,1.21,1.21,0,0,1-1.21,1.21Zm0-3.94v.76a2,2,0,1,0,2,2h1.52a2,2,0,1,1,2,2v.76m-2.73-5.46-1.87,1.87"/><path class="cls-1" d="M38.34,22,37,23.32m-2.25,2.25-1.87,1.87M28.76,26.1l-1.34,1.34m8.18-1.52a1.21,1.21,0,1,1,1.21-1.21,1.2,1.2,0,0,1-1.21,1.21Zm-5.46,0a1.21,1.21,0,1,1,1.21-1.21,1.21,1.21,0,0,1-1.21,1.21Zm0-3.94v.76a2,2,0,1,0,2,2h1.52a2,2,0,1,1,2,2v.76M32.88,22,31,23.85"/><path class="cls-1" d="M43.79,27.44l-1.34,1.34M40.21,31l-1.87,1.87m-4.12-1.34-1.34,1.34m8.18-1.52a1.21,1.21,0,1,1,1.21-1.21,1.2,1.2,0,0,1-1.21,1.21Zm-5.46,0a1.21,1.21,0,1,1,1.21-1.21,1.21,1.21,0,0,1-1.21,1.21Zm0-3.94v.76a2,2,0,1,0,2,2H39.1a2,2,0,1,1,2,2v.76m-2.73-5.46-1.87,1.87"/><path class="cls-1" d="M49.25,22l-1.34,1.34m-2.25,2.25-1.87,1.87M39.67,26.1l-1.34,1.34m8.19-1.52a1.21,1.21,0,1,1,1.21-1.21,1.2,1.2,0,0,1-1.21,1.21Zm-5.46,0a1.21,1.21,0,1,1,1.21-1.21,1.21,1.21,0,0,1-1.21,1.21Zm0-3.94v.76a2,2,0,1,0,2,2h1.52a2,2,0,1,1,2,2v.76M43.79,22l-1.87,1.87"/><path class="cls-1" d="M51.12,31l-1.44,1.44m-4.55-.9-1.34,1.34M52,31.38A1.21,1.21,0,1,1,52,29v2.42Zm-5.46,0a1.21,1.21,0,1,1,1.21-1.21,1.21,1.21,0,0,1-1.21,1.21Zm0-3.94v.76a2,2,0,1,0,2,2H50a2,2,0,0,1,2-2m-2.73-.76-1.87,1.87"/><path class="cls-1" d="M50.59,26.1l-1.34,1.34M52,25.92a1.21,1.21,0,1,1,0-2.42v2.42ZM52,22v.76a2,2,0,1,0,0,3.94"/><path class="cls-1" d="M22,16.52l-1.34,1.34m-2.25,2.25L16.51,22m-4.12-1.34L11.05,22m8.18-1.52a1.21,1.21,0,1,1,1.21-1.21,1.21,1.21,0,0,1-1.21,1.21Zm-5.46,0A1.21,1.21,0,1,1,15,19.25a1.21,1.21,0,0,1-1.21,1.21Zm0-3.54v.37a2,2,0,0,0-.36,0m-1.61,1.87s0,0,0,.06a2,2,0,1,0,3.94,0h1.52a2,2,0,1,1,2,2V22m-2.73-5.46L14.64,18.4"/><path class="cls-1" d="M27.42,11.07,26.09,12.4m-2.25,2.25L22,16.52m-4.12-1.34-1.34,1.34M24.69,15A1.21,1.21,0,1,1,25.9,13.8,1.21,1.21,0,0,1,24.69,15Zm-5.46,0a1.21,1.21,0,1,1,1.21-1.21A1.21,1.21,0,0,1,19.24,15Zm0-3.23v.05h-.07m-1.87,1.6a2,2,0,1,0,3.9.36h1.52a2,2,0,1,1,2,2v.76M22,11.07l-1.87,1.87"/><path class="cls-1" d="M32.88,16.52l-1.34,1.34M29.3,20.11,27.42,22M23.3,20.64,22,22m8.19-1.52a1.21,1.21,0,1,1,1.21-1.21,1.2,1.2,0,0,1-1.21,1.21Zm-5.46,0a1.21,1.21,0,1,1,1.21-1.21,1.21,1.21,0,0,1-1.21,1.21Zm0-3.94v.76a2,2,0,1,0,2,2h1.52a2,2,0,1,1,2,2V22m-2.73-5.46L25.55,18.4"/><path class="cls-1" d="M38.34,11.07,37,12.4m-2.25,2.25-1.87,1.87m-4.12-1.34-1.34,1.34M35.61,15a1.21,1.21,0,1,1,1.21-1.21A1.21,1.21,0,0,1,35.61,15Zm-5.46,0a1.21,1.21,0,1,1,1.21-1.21A1.21,1.21,0,0,1,30.15,15Zm0-3.94v.76a2,2,0,1,0,2,2h1.52a2,2,0,1,1,2,2v.76m-2.73-5.46L31,12.94"/><path class="cls-1" d="M43.79,16.52l-1.34,1.34m-2.25,2.25L38.34,22m-4.12-1.34L32.88,22m8.18-1.52a1.21,1.21,0,1,1,1.21-1.21,1.21,1.21,0,0,1-1.21,1.21Zm-5.46,0a1.21,1.21,0,1,1,1.21-1.21,1.21,1.21,0,0,1-1.21,1.21Zm0-3.94v.76a2,2,0,1,0,2,2H39.1a2,2,0,1,1,2,2V22m-2.73-5.46L36.46,18.4"/><path class="cls-1" d="M49.25,11.07,47.91,12.4m-2.25,2.25-1.87,1.87m-4.12-1.34-1.34,1.34M46.52,15a1.21,1.21,0,1,1,1.21-1.21A1.21,1.21,0,0,1,46.52,15Zm-5.46,0a1.21,1.21,0,1,1,1.21-1.21A1.21,1.21,0,0,1,41.06,15Zm0-3.94v.76a2,2,0,1,0,2,2h1.52a2,2,0,1,1,2,2v.76m-2.73-5.46-1.87,1.87"/><path class="cls-1" d="M51.12,20.11,49.25,22m-4.12-1.34L43.79,22M52,20.46A1.21,1.21,0,1,1,52,18v2.42Zm-5.46,0a1.21,1.21,0,1,1,1.21-1.21,1.21,1.21,0,0,1-1.21,1.21Zm0-3.94v.76a2,2,0,1,0,2,2H50a2,2,0,0,1,2-2m-2.73-.76L47.38,18.4"/><path class="cls-1" d="M50.59,15.19l-1.34,1.34M52,15a1.21,1.21,0,1,1,0-2.42V15Zm0-3.94v.76a2,2,0,1,0,0,3.94"/><path class="cls-1" d="M32.88,5.61,31.54,6.95M29.3,9.19l-1.87,1.87M23.3,9.73,22,11.07m8.19-1.52a1.21,1.21,0,1,1,1.21-1.21,1.2,1.2,0,0,1-1.21,1.21Zm-5.46,0a1.21,1.21,0,0,1-1.17-.92q1-.63,1.95-1.22l.08.07a1.21,1.21,0,0,1-.85,2.06Zm-1.83-.48a2,2,0,0,0,3.8-.73h1.52a2,2,0,1,1,2,2v.76M25.85,7.19l-.3.3"/><path class="cls-1" d="M34.75,3.74,32.88,5.61m2.73-1.52a1.21,1.21,0,0,1-1.17-.92q1.13-.41,2.29-.76a1.21,1.21,0,0,1-1.11,1.68Zm-5.25.75a2,2,0,0,0,1.12-.5m6-2.15a2,2,0,0,1-1.84,2.66v.76"/><path class="cls-1" d="M43.79,5.61,42.46,6.95M40.21,9.19l-1.87,1.87M34.22,9.73l-1.34,1.34m8.18-1.52a1.21,1.21,0,1,1,1.21-1.21,1.21,1.21,0,0,1-1.21,1.21Zm-5.46,0a1.21,1.21,0,1,1,1.21-1.21,1.21,1.21,0,0,1-1.21,1.21Zm0-3.94v.76a2,2,0,1,0,2,2H39.1a2,2,0,1,1,2,2v.76M38.34,5.61,36.46,7.48"/><path class="cls-1" d="M49.21.2,47.91,1.49M45.67,3.74,43.79,5.61M39.67,4.27,38.34,5.61m8.19-1.52a1.21,1.21,0,1,1,1.21-1.21,1.21,1.21,0,0,1-1.21,1.21Zm-5.46,0a1.21,1.21,0,1,1,1.21-1.21,1.21,1.21,0,0,1-1.21,1.21ZM39.55,1.63A2,2,0,1,0,43,2.88h1.52a2,2,0,1,1,2,2v.76M43.05.89,41.92,2"/><path class="cls-1" d="M51.12,9.19l-1.87,1.87M45.13,9.73l-1.34,1.34M52,9.55a1.21,1.21,0,1,1,0-2.42V9.55Zm-5.46,0a1.21,1.21,0,1,1,1.21-1.21,1.21,1.21,0,0,1-1.21,1.21Zm0-3.94v.76a2,2,0,1,0,2,2H50a2,2,0,0,1,2-2m-2.73-.76L47.38,7.48"/><path class="cls-1" d="M50.59,4.27,49.25,5.61M52,4.09a1.21,1.21,0,1,1,0-2.42V4.09ZM52,.15V.91a2,2,0,0,0,0,3.94"/></g></g></svg>