<svg xmlns="http://www.w3.org/2000/svg" viewBox="0 0 103.96 103.99"><defs><style>.cls-1,.cls-2{fill:none;stroke:#99c45a;stroke-miterlimit:22.93;stroke-width:0.25px;}.cls-1{fill-rule:evenodd;}</style></defs><title>green-big</title><g id="Слой_2" data-name="Слой 2"><g id="Layer_1" data-name="Layer 1"><path class="cls-1" d="M40.61,40.61A16.1,16.1,0,1,1,35.9,52a16,16,0,0,1,4.71-11.38Zm-25.3-25.3a51.87,51.87,0,0,1,72.07-1.24L64.58,36.88a19.67,19.67,0,1,0,0,30.23L87.38,89.91a51.87,51.87,0,0,1-72.07-74.6Zm74.6,1.29a51.68,51.68,0,0,1,13.92,33.6H71.58a19.58,19.58,0,0,0-4.47-10.8L89.91,16.6Zm13.92,37.18a51.67,51.67,0,0,1-13.92,33.6L67.11,64.58a19.58,19.58,0,0,0,4.47-10.8Z"/><path class="cls-1" d="M38.34,5.61,37,4.27m-2.57-1.1a1.21,1.21,0,1,0,2.29-.76q-1.16.36-2.29.76ZM30.15,5.61V4.93m3.57-1.5a2,2,0,1,0,3.73-1.24M32.88,5.61,31.57,4.3"/><path class="cls-1" d="M49.25,5.61,47.91,4.27M45.67,2,44.33.69m2.19,1a1.21,1.21,0,1,0,1.21,1.21,1.21,1.21,0,0,0-1.21-1.21Zm-5.46,0a1.21,1.21,0,1,0,1.21,1.21,1.21,1.21,0,0,0-1.21-1.21Zm0,3.94V4.85a2,2,0,0,1-1.52-3.22m2.36-.52A2,2,0,0,1,43,2.88h1.52a2,2,0,1,0,2-2V.41m-2.73,5.2L41.92,3.74"/><path class="cls-1" d="M60.16,5.61,58.83,4.27M56.58,2,54.75.2M50.59,1.49,49.29.19m8.15,1.48a1.21,1.21,0,1,0,1.21,1.21,1.21,1.21,0,0,0-1.21-1.21ZM52,1.67a1.21,1.21,0,1,0,1.21,1.21A1.21,1.21,0,0,0,52,1.67Zm0,3.94V4.85a2,2,0,1,1,2-2h1.52a2,2,0,1,0,2-2V.41m-2.73,5.2L52.83,3.74"/><path class="cls-1" d="M71.08,5.61,69.74,4.27M61.5,1.49,60.89.88M67.24,2.4a1.21,1.21,0,1,0,2.29.76q-1.13-.41-2.29-.76Zm-4.35-.73A1.21,1.21,0,1,0,64.1,2.88a1.21,1.21,0,0,0-1.21-1.21Zm0,3.94V4.85a2,2,0,0,1-.83-3.75m2.34.52a2,2,0,0,1,.46,1.27h1.52a2,2,0,0,0,3.86.54M65.62,5.61,63.75,3.74"/><path class="cls-1" d="M73.8,5.61V4.92m-.16-.07a2,2,0,0,1-1.19-.53"/><line class="cls-2" x1="16.51" y1="16.52" x2="15.31" y2="15.32"/><line class="cls-2" x1="21.97" y1="11.07" x2="21.17" y2="10.27"/><path class="cls-1" d="M27.42,16.52l-1.34-1.34m-2.25-2.25L22,11.07m2.73,1.52A1.21,1.21,0,1,0,25.9,13.8a1.2,1.2,0,0,0-1.21-1.21Zm-5.46,0a1.21,1.21,0,1,0,1.21,1.21,1.21,1.21,0,0,0-1.21-1.21Zm0,3.94v-.76a2,2,0,0,1-1.93-2.33m1.87-1.6h.07a2,2,0,0,1,2,2h1.52a2,2,0,1,0,2-2v-.76M22,16.52l-1.87-1.87"/><path class="cls-1" d="M32.88,11.07,31.54,9.73M29.3,7.48,27.87,6.06m2.28,1.07a1.21,1.21,0,1,0,1.21,1.21,1.2,1.2,0,0,0-1.21-1.21Zm-6.63,1.5a1.21,1.21,0,1,0,1.95-1.22q-1,.59-1.95,1.22Zm1.17,2.44v-.76a2,2,0,0,1-1.83-1.24M26.15,7a2,2,0,0,1,.52,1.33h1.52a2,2,0,1,0,2-2V5.61m-2.73,5.46L25.55,9.19"/><path class="cls-1" d="M38.34,16.52,37,15.19m-2.25-2.25-1.87-1.87M28.76,12.4l-1.34-1.34m8.19,1.52a1.21,1.21,0,1,0,1.21,1.21,1.21,1.21,0,0,0-1.21-1.21Zm-5.46,0a1.21,1.21,0,1,0,1.21,1.21,1.21,1.21,0,0,0-1.21-1.21Zm0,3.94v-.76a2,2,0,1,1,2-2h1.52a2,2,0,1,0,2-2v-.76m-2.73,5.46L31,14.65"/><path class="cls-1" d="M43.79,11.07,42.46,9.73M40.21,7.48,38.34,5.61M34.22,6.95,32.88,5.61m8.19,1.52a1.21,1.21,0,1,0,1.21,1.21,1.21,1.21,0,0,0-1.21-1.21Zm-5.46,0a1.21,1.21,0,1,0,1.21,1.21,1.21,1.21,0,0,0-1.21-1.21Zm0,3.94v-.76a2,2,0,1,1,2-2H39.1a2,2,0,1,0,2-2V5.61m-2.73,5.46L36.46,9.19"/><path class="cls-1" d="M49.25,16.52l-1.34-1.34m-2.25-2.25-1.87-1.87M39.67,12.4l-1.34-1.34m8.19,1.52a1.21,1.21,0,1,0,1.21,1.21,1.21,1.21,0,0,0-1.21-1.21Zm-5.46,0a1.21,1.21,0,1,0,1.21,1.21,1.21,1.21,0,0,0-1.21-1.21Zm0,3.94v-.76a2,2,0,1,1,2-2h1.52a2,2,0,1,0,2-2v-.76m-2.73,5.46-1.87-1.87"/><path class="cls-1" d="M54.71,11.07,53.37,9.73M51.12,7.48,49.25,5.61M45.13,6.95,43.79,5.61M52,7.13a1.21,1.21,0,1,0,1.21,1.21A1.21,1.21,0,0,0,52,7.13Zm-5.46,0a1.21,1.21,0,1,0,1.21,1.21,1.21,1.21,0,0,0-1.21-1.21Zm0,3.94v-.76a2,2,0,1,1,2-2H50a2,2,0,1,0,2-2V5.61m-2.73,5.46L47.38,9.19"/><path class="cls-1" d="M60.16,16.52l-1.34-1.34m-2.25-2.25-1.87-1.87M50.59,12.4l-1.34-1.34m8.18,1.52a1.21,1.21,0,1,0,1.21,1.21,1.2,1.2,0,0,0-1.21-1.21Zm-5.46,0a1.21,1.21,0,1,0,1.21,1.21A1.21,1.21,0,0,0,52,12.59Zm0,3.94v-.76a2,2,0,1,1,2-2h1.52a2,2,0,1,0,2-2v-.76m-2.73,5.46-1.87-1.87"/><path class="cls-1" d="M65.62,11.07,64.28,9.73M62,7.48,60.16,5.61M56,6.95,54.71,5.61m8.18,1.52A1.21,1.21,0,1,0,64.1,8.34a1.2,1.2,0,0,0-1.21-1.21Zm-5.46,0a1.21,1.21,0,1,0,1.21,1.21,1.21,1.21,0,0,0-1.21-1.21Zm0,3.94v-.76a2,2,0,1,1,2-2h1.52a2,2,0,1,0,2-2V5.61m-2.73,5.46L58.29,9.19"/><path class="cls-1" d="M71.08,16.52l-1.34-1.34m-2.25-2.25-1.87-1.87M61.5,12.4l-1.34-1.34m8.19,1.52a1.21,1.21,0,1,0,1.21,1.21,1.2,1.2,0,0,0-1.21-1.21Zm-5.46,0A1.21,1.21,0,1,0,64.1,13.8a1.21,1.21,0,0,0-1.21-1.21Zm0,3.94v-.76a2,2,0,1,1,2-2h1.52a2,2,0,1,0,2-2v-.76m-2.73,5.46-1.87-1.87"/><path class="cls-1" d="M76.53,11.07,75.2,9.73M73,7.48,71.08,5.61M67,6.95,65.62,5.61M73.8,7.13A1.21,1.21,0,1,0,75,8.34,1.2,1.2,0,0,0,73.8,7.13Zm-5.46,0a1.21,1.21,0,1,0,1.21,1.21,1.21,1.21,0,0,0-1.21-1.21Zm0,3.94v-.76a2,2,0,1,1,2-2h1.52a2,2,0,1,0,2-2V5.61m-2.73,5.46L69.2,9.19"/><path class="cls-1" d="M82,16.52l-1.34-1.34m-2.25-2.25-1.87-1.87M72.41,12.4l-1.34-1.34m8.19,1.52a1.21,1.21,0,1,0,1.21,1.21,1.21,1.21,0,0,0-1.21-1.21Zm-5.46,0A1.21,1.21,0,1,0,75,13.8a1.21,1.21,0,0,0-1.21-1.21Zm0,3.94v-.76a2,2,0,1,1,2-2h1.52a2,2,0,1,0,2-2v-.76m-2.73,5.46-1.87-1.87"/><path class="cls-1" d="M78.5,7.4a1.21,1.21,0,1,0,1.94,1.21Q79.49,8,78.5,7.4Zm.76,3.67v-.76A2,2,0,0,1,77.82,7M82,11.07,80.12,9.19"/><path class="cls-1" d="M83.33,12.4,82,11.07m2.73,1.52a1.21,1.21,0,1,0,1.21,1.21,1.21,1.21,0,0,0-1.21-1.21Zm0,3.94v-.76a2,2,0,1,1,0-3.94h.1m1.83,1.57a2,2,0,0,1,0,.4h.4m-.9,1.47-.62-.62"/><line class="cls-2" x1="11.05" y1="21.98" x2="10.26" y2="21.19"/><path class="cls-1" d="M16.51,27.44,15.17,26.1m-2.25-2.25L11.05,22m2.73,1.52A1.21,1.21,0,1,0,15,24.71a1.2,1.2,0,0,0-1.21-1.21Zm-6.38,2a1.21,1.21,0,1,0,1.22-2q-.63,1-1.22,2Zm.92,1.95v-.76A2,2,0,0,1,7,26.17m2.06-3.28a2,2,0,0,1,1.23,1.83h1.52a2,2,0,1,0,2-2V22m-2.73,5.46L9.18,25.56"/><path class="cls-1" d="M22,22l-1.34-1.34M18.38,18.4l-1.87-1.87M19.24,18a1.21,1.21,0,1,0,1.21,1.21A1.2,1.2,0,0,0,19.24,18Zm-5.46,0A1.21,1.21,0,1,0,15,19.25,1.21,1.21,0,0,0,13.78,18Zm0,3.94v-.76a2,2,0,0,1-2-2s0,0,0-.06m1.61-1.87a2,2,0,0,1,2.33,1.94h1.52a2,2,0,1,0,2-2v-.76M16.51,22l-1.87-1.87"/><path class="cls-1" d="M27.42,27.44,26.09,26.1m-2.25-2.25L22,22m-4.12,1.34L16.51,22m8.18,1.52a1.21,1.21,0,1,0,1.21,1.21,1.21,1.21,0,0,0-1.21-1.21Zm-5.46,0a1.21,1.21,0,1,0,1.21,1.21,1.21,1.21,0,0,0-1.21-1.21Zm0,3.94v-.76a2,2,0,1,1,2-2h1.52a2,2,0,1,0,2-2V22M22,27.44l-1.87-1.87"/><path class="cls-1" d="M32.88,22l-1.34-1.34M29.3,18.4l-1.87-1.87M23.3,17.86,22,16.52M30.15,18a1.21,1.21,0,1,0,1.21,1.21A1.2,1.2,0,0,0,30.15,18Zm-5.46,0a1.21,1.21,0,1,0,1.21,1.21A1.21,1.21,0,0,0,24.69,18Zm0,3.94v-.76a2,2,0,1,1,2-2h1.52a2,2,0,1,0,2-2v-.76M27.42,22l-1.87-1.87"/><path class="cls-1" d="M38.34,27.44,37,26.1m-2.25-2.25L32.88,22m-4.12,1.34L27.42,22m8.19,1.52a1.21,1.21,0,1,0,1.21,1.21,1.21,1.21,0,0,0-1.21-1.21Zm-5.46,0a1.21,1.21,0,1,0,1.21,1.21,1.21,1.21,0,0,0-1.21-1.21Zm0,3.94v-.76a2,2,0,1,1,2-2h1.52a2,2,0,1,0,2-2V22m-2.73,5.46L31,25.56"/><path class="cls-1" d="M43.79,22l-1.34-1.34M40.21,18.4l-1.87-1.87m-4.12,1.34-1.34-1.34M41.06,18a1.21,1.21,0,1,0,1.21,1.21A1.21,1.21,0,0,0,41.06,18Zm-5.46,0a1.21,1.21,0,1,0,1.21,1.21A1.21,1.21,0,0,0,35.61,18Zm0,3.94v-.76a2,2,0,1,1,2-2H39.1a2,2,0,1,0,2-2v-.76M38.34,22l-1.87-1.87"/><path class="cls-1" d="M49.25,27.44,47.91,26.1m-2.25-2.25L43.79,22m-4.12,1.34L38.34,22m8.19,1.52a1.21,1.21,0,1,0,1.21,1.21,1.21,1.21,0,0,0-1.21-1.21Zm-5.46,0a1.21,1.21,0,1,0,1.21,1.21,1.21,1.21,0,0,0-1.21-1.21Zm0,3.94v-.76a2,2,0,1,1,2-2h1.52a2,2,0,1,0,2-2V22m-2.73,5.46-1.87-1.87"/><path class="cls-1" d="M54.71,22l-1.34-1.34M51.12,18.4l-1.87-1.87m-4.12,1.34-1.34-1.34M52,18a1.21,1.21,0,1,0,1.21,1.21A1.2,1.2,0,0,0,52,18Zm-5.46,0a1.21,1.21,0,1,0,1.21,1.21A1.21,1.21,0,0,0,46.52,18Zm0,3.94v-.76a2,2,0,1,1,2-2H50a2,2,0,1,0,2-2v-.76M49.25,22l-1.87-1.87"/><path class="cls-1" d="M60.16,27.44,58.83,26.1m-2.25-2.25L54.71,22m-4.12,1.34L49.25,22m8.18,1.52a1.21,1.21,0,1,0,1.21,1.21,1.21,1.21,0,0,0-1.21-1.21ZM52,23.5a1.21,1.21,0,1,0,1.21,1.21A1.21,1.21,0,0,0,52,23.5Zm0,3.94v-.76a2,2,0,1,1,2-2h1.52a2,2,0,1,0,2-2V22m-2.73,5.46-1.87-1.87"/><path class="cls-1" d="M65.62,22l-1.34-1.34M62,18.4l-1.87-1.87M56,17.86l-1.34-1.34M62.89,18a1.21,1.21,0,1,0,1.21,1.21A1.21,1.21,0,0,0,62.89,18Zm-5.46,0a1.21,1.21,0,1,0,1.21,1.21A1.21,1.21,0,0,0,57.43,18Zm0,3.94v-.76a2,2,0,1,1,2-2h1.52a2,2,0,1,0,2-2v-.76M60.16,22l-1.87-1.87"/><path class="cls-1" d="M71.08,27.44,69.74,26.1m-2.25-2.25L65.62,22M61.5,23.32,60.16,22m8.19,1.52a1.21,1.21,0,1,0,1.21,1.21,1.21,1.21,0,0,0-1.21-1.21Zm-5.46,0a1.21,1.21,0,1,0,1.21,1.21,1.21,1.21,0,0,0-1.21-1.21Zm0,3.94v-.76a2,2,0,1,1,2-2h1.52a2,2,0,1,0,2-2V22m-2.73,5.46-1.87-1.87"/><path class="cls-1" d="M76.53,22,75.2,20.64M73,18.4l-1.87-1.87M67,17.86l-1.34-1.34M73.8,18A1.21,1.21,0,1,0,75,19.25,1.21,1.21,0,0,0,73.8,18Zm-5.46,0a1.21,1.21,0,1,0,1.21,1.21A1.21,1.21,0,0,0,68.35,18Zm0,3.94v-.76a2,2,0,1,1,2-2h1.52a2,2,0,1,0,2-2v-.76M71.08,22,69.2,20.11"/><path class="cls-1" d="M82,27.44,80.65,26.1M78,23.45,76.53,22m-4.12,1.34L71.08,22M73.8,23.5A1.21,1.21,0,1,0,75,24.71,1.21,1.21,0,0,0,73.8,23.5Zm0,3.94v-.76a2,2,0,1,1,2-2h1M80,26.55a2,2,0,0,0,1.13-1.13M79.26,22.2V22m-4,4.2-.62-.62"/><path class="cls-1" d="M87.45,22l-1.34-1.34M83.46,18,82,16.52m-4.12,1.34-1.34-1.34M79.26,18a1.21,1.21,0,1,0,1.21,1.21A1.21,1.21,0,0,0,79.26,18Zm0,3.94v-.76a2,2,0,1,1,2-2h1m3.22,1.84A2,2,0,0,0,86.56,20m-1.84-3.22v-.21m-4,4.2-.62-.62"/><path class="cls-1" d="M92.9,27.44,91.57,26.1m-2.25-2.25L87.45,22m-4.12,1.34-.06-.06m6.91.25a1.21,1.21,0,1,0,1.21,1.21,1.21,1.21,0,0,0-1.21-1.21Zm-5.46,0a1.21,1.21,0,1,0,1.21,1.21,1.21,1.21,0,0,0-1.21-1.21Zm0,3.94v-.76a2,2,0,1,1,2-2h1.52a2,2,0,1,0,2-2V22m-2.73,5.46-1.87-1.87"/><path class="cls-1" d="M88.78,17.86l-.06-.06m1.46.25a1.21,1.21,0,1,0,1.21,1.21A1.21,1.21,0,0,0,90.18,18Zm0,3.94v-.76a2,2,0,1,1,.4-3.9m1.57,1.82s0,.07,0,.11h.08M92.9,22,91,20.11"/><path class="cls-1" d="M94.24,23.32,92.9,22m2.46,1.55a1.21,1.21,0,1,0,1.12,2l.09-.1q-.59-1-1.21-1.94Zm.27,3.91v-.76a2,2,0,0,1-.71-3.81m1.92,3-.36-.36"/><path class="cls-1" d="M5.6,38.35,4.26,37M2.4,36.74a1.21,1.21,0,1,0,.76-2.29q-.41,1.13-.76,2.29Zm-.22.73a2,2,0,1,0,1.24-3.73"/><path class="cls-1" d="M11.05,32.89,9.72,31.56M7.47,29.31,6.05,27.89M8.32,29a1.21,1.21,0,1,0,1.21,1.21A1.21,1.21,0,0,0,8.32,29Zm-3.4,1.21H6.35a2,2,0,1,0,2-2v-.76M5.6,32.89l-1.3-1.3"/><path class="cls-1" d="M16.51,38.35,15.17,37m-2.25-2.25-1.87-1.87M6.93,34.23,5.6,32.89m8.19,1.52A1.21,1.21,0,1,0,15,35.62a1.21,1.21,0,0,0-1.21-1.21Zm-5.46,0a1.21,1.21,0,1,0,1.21,1.21,1.21,1.21,0,0,0-1.21-1.21Zm0,3.94v-.76a2,2,0,1,1,2-2h1.52a2,2,0,1,0,2-2v-.76m-2.73,5.46L9.18,36.48"/><path class="cls-1" d="M22,32.89l-1.34-1.34m-2.25-2.25-1.87-1.87m-4.12,1.34-1.34-1.34M19.24,29a1.21,1.21,0,1,0,1.21,1.21A1.21,1.21,0,0,0,19.24,29Zm-5.46,0A1.21,1.21,0,1,0,15,30.17,1.21,1.21,0,0,0,13.78,29Zm0,3.94v-.76a2,2,0,1,1,2-2h1.52a2,2,0,1,0,2-2v-.76m-2.73,5.46L14.64,31"/><path class="cls-1" d="M27.42,38.35,26.09,37m-2.25-2.25L22,32.89m-4.12,1.34-1.34-1.34m8.18,1.52a1.21,1.21,0,1,0,1.21,1.21,1.21,1.21,0,0,0-1.21-1.21Zm-5.46,0a1.21,1.21,0,1,0,1.21,1.21,1.21,1.21,0,0,0-1.21-1.21Zm0,3.94v-.76a2,2,0,1,1,2-2h1.52a2,2,0,1,0,2-2v-.76M22,38.35l-1.87-1.87"/><path class="cls-1" d="M32.88,32.89l-1.34-1.34M29.3,29.31l-1.87-1.87M23.3,28.77,22,27.44M30.15,29a1.21,1.21,0,1,0,1.21,1.21A1.2,1.2,0,0,0,30.15,29Zm-5.46,0a1.21,1.21,0,1,0,1.21,1.21A1.21,1.21,0,0,0,24.69,29Zm0,3.94v-.76a2,2,0,1,1,2-2h1.52a2,2,0,1,0,2-2v-.76m-2.73,5.46L25.55,31"/><path class="cls-1" d="M38.08,38.09,37,37m-2.25-2.25-1.87-1.87m-4.12,1.34-1.34-1.34m8.19,1.52a1.21,1.21,0,1,0,1.21,1.21,1.21,1.21,0,0,0-1.21-1.21Zm-5.46,0a1.21,1.21,0,1,0,1.21,1.21,1.21,1.21,0,0,0-1.21-1.21Zm0,3.94v-.76a2,2,0,1,1,2-2h1.52a2,2,0,1,0,2-2v-.76m-2.73,5.46L31,36.48"/><path class="cls-1" d="M43.79,32.89l-1.34-1.34m-2.25-2.25-1.87-1.87m-4.12,1.34-1.34-1.34M41.06,29a1.21,1.21,0,1,0,1.21,1.21A1.21,1.21,0,0,0,41.06,29Zm-5.46,0a1.21,1.21,0,1,0,1.21,1.21A1.21,1.21,0,0,0,35.61,29Zm0,3.94v-.76a2,2,0,1,1,2-2H39.1a2,2,0,1,0,2-2v-.76m-2.73,5.46L36.46,31"/><path class="cls-1" d="M49.25,38.35,47.91,37m-3.27-3.27-.85-.85m-4.12,1.34-1.34-1.34m8.24,3.94.63-.21a1.2,1.2,0,0,1-.63.21Zm-5.51-2.42a1.21,1.21,0,0,0-1,1.92,19.68,19.68,0,0,1,2-1.34,1.21,1.21,0,0,0-1-.58Zm-1.57,2.4a2,2,0,1,1,3.27-2.19m2.69,2.65a2,2,0,0,0,2.91-1M46.52,33.1v-.2m-2.73,5.46-.13-.13"/><path class="cls-1" d="M54.27,32.46l-.9-.9m-2.25-2.25-1.87-1.87m-4.12,1.34-1.34-1.34M52,29a1.21,1.21,0,1,0,1.21,1.21A1.21,1.21,0,0,0,52,29Zm-5.46,0a1.21,1.21,0,1,0,1.21,1.21A1.21,1.21,0,0,0,46.52,29Zm0,3.94v-.76a2,2,0,1,1,2-2H50a2,2,0,1,0,2-2v-.76m-3.06,5.13L47.38,31"/><path class="cls-1" d="M60.16,38.35l-.53-.53m-8.82-1.88q.59,0,1.18,0t1.15,0a1.21,1.21,0,0,1-2.34,0Zm5.92.66.69.23a1.2,1.2,0,0,1-.69-.23ZM52,38.35v-.76A2,2,0,0,1,50,36m5.54.29a2,2,0,0,0,2.93,1m-1.08-4.18v-.19m-2.73,5.46-1.87-1.87"/><path class="cls-1" d="M65.62,32.89l-1.34-1.34M62,29.31l-1.87-1.87M56,28.77l-1.34-1.34M62.89,29a1.21,1.21,0,1,0,1.21,1.21A1.2,1.2,0,0,0,62.89,29Zm-5.46,0a1.21,1.21,0,1,0,1.21,1.21A1.21,1.21,0,0,0,57.43,29Zm0,3.94v-.76a2,2,0,1,1,2-2h1.52a2,2,0,1,0,2-2v-.76m-2.73,5.46L58.29,31"/><path class="cls-1" d="M71.08,38.35,69.74,37m-2.65-2.65-1.47-1.47M61.5,34.23l-1.34-1.34m2.73,1.52a1.21,1.21,0,0,0-1,.57,19.73,19.73,0,0,1,2,1.34,1.21,1.21,0,0,0-1-1.91Zm-1.69.2a2,2,0,0,1,3.66,1h1m3.22,1.84a2,2,0,0,0,1.13-1.13m-1.84-3.22v-.21"/><path class="cls-1" d="M76.53,32.89,75.2,31.56m-2.65-2.65-1.47-1.47M67,28.77l-1.34-1.34M68.35,29a1.21,1.21,0,1,0,1.21,1.21A1.21,1.21,0,0,0,68.35,29Zm0,3.94v-.76a2,2,0,1,1,2-2h1M74.51,32a2,2,0,0,0,1.13-1.13M73.8,27.65v-.21m-4,4.2L69.2,31"/><path class="cls-1" d="M82,38.35,80.65,37m-2.25-2.25-1.87-1.87m-4.12,1.34-.06-.06m6.91.25a1.21,1.21,0,1,0,1.21,1.21,1.21,1.21,0,0,0-1.21-1.21Zm-5.46,0A1.21,1.21,0,1,0,75,35.62a1.21,1.21,0,0,0-1.21-1.21Zm0,3.94v-.76a2,2,0,1,1,2-2h1.52a2,2,0,1,0,2-2v-.76m-2.73,5.46-1.87-1.87"/><path class="cls-1" d="M87.45,32.9l-1.34-1.34m-2.25-2.25L82,27.44m-4.12,1.34-.06-.06m6.91.25a1.21,1.21,0,1,0,1.21,1.21A1.21,1.21,0,0,0,84.72,29Zm-5.46,0a1.21,1.21,0,1,0,1.21,1.21A1.21,1.21,0,0,0,79.26,29Zm0,3.94v-.76a2,2,0,1,1,2-2h1.52a2,2,0,1,0,2-2v-.76M82,32.89,80.12,31"/><path class="cls-1" d="M92.9,38.35,91.57,37m-2.25-2.25L87.45,32.9m-4.12,1.34L82,32.89m8.19,1.52a1.21,1.21,0,1,0,1.21,1.21,1.21,1.21,0,0,0-1.21-1.21Zm-5.46,0a1.21,1.21,0,1,0,1.21,1.21,1.21,1.21,0,0,0-1.21-1.21Zm0,3.94v-.76a2,2,0,1,1,2-2h1.52a2,2,0,1,0,2-2V32.9m-2.73,5.46-1.87-1.87"/><path class="cls-1" d="M98.36,32.9,97,31.56m-2.25-2.25L92.9,27.44m-4.12,1.34-1.34-1.34M95.63,29a1.21,1.21,0,1,0,1.21,1.21A1.21,1.21,0,0,0,95.63,29Zm-5.46,0a1.21,1.21,0,1,0,1.21,1.21A1.21,1.21,0,0,0,90.18,29Zm0,3.94v-.76a2,2,0,1,1,2-2h1.52a2,2,0,1,0,2-2v-.76M92.9,32.9,91,31"/><path class="cls-1" d="M100.23,34.77,98.36,32.9m-4.12,1.34L92.9,32.9m7.91,1.55a1.21,1.21,0,1,0,.76,2.28q-.35-1.15-.76-2.28Zm-5.19,0a1.21,1.21,0,1,0,1.21,1.21,1.21,1.21,0,0,0-1.21-1.21Zm0,3.94v-.76a2,2,0,1,1,2-2h1.52a2,2,0,0,0,2.68,1.84m-3.44.89-1.87-1.87"/><path class="cls-1" d="M99.67,31.53a2,2,0,0,1-.55-1.23"/><path class="cls-1" d="M5.6,49.26,4.26,47.93M2,45.68.68,44.35m2.18,1a1.21,1.21,0,1,0,1.21,1.21,1.21,1.21,0,0,0-1.21-1.21ZM.41,46.54H.9a2,2,0,1,0,2-2v-.76"/><path class="cls-1" d="M11.05,43.81,9.72,42.47M7.47,40.22,5.6,38.35m2.73,1.52a1.21,1.21,0,1,0,1.21,1.21,1.21,1.21,0,0,0-1.21-1.21Zm-5.46,0a1.21,1.21,0,1,0,1.21,1.21,1.21,1.21,0,0,0-1.21-1.21Zm0,3.94V43a2,2,0,0,1-1.77-1.1m.53-2.39a2,2,0,0,1,3.21,1.53H6.35a2,2,0,1,0,2-2v-.76M5.6,43.81,3.72,41.93"/><path class="cls-1" d="M16.51,49.26l-1.34-1.34m-2.25-2.25-1.87-1.87M6.93,45.14,5.6,43.81m8.19,1.52A1.21,1.21,0,1,0,15,46.54a1.2,1.2,0,0,0-1.21-1.21Zm-5.46,0a1.21,1.21,0,1,0,1.21,1.21,1.21,1.21,0,0,0-1.21-1.21Zm0,3.94V48.5a2,2,0,1,1,2-2h1.52a2,2,0,1,0,2-2v-.76m-2.73,5.46L9.18,47.39"/><path class="cls-1" d="M22,43.81l-1.34-1.34m-2.25-2.25-1.87-1.87m-4.12,1.34-1.34-1.34m8.18,1.52a1.21,1.21,0,1,0,1.21,1.21,1.21,1.21,0,0,0-1.21-1.21Zm-5.46,0A1.21,1.21,0,1,0,15,41.08a1.21,1.21,0,0,0-1.21-1.21Zm0,3.94V43a2,2,0,1,1,2-2h1.52a2,2,0,1,0,2-2v-.76m-2.73,5.46-1.87-1.87"/><path class="cls-1" d="M27.42,49.26l-1.34-1.34m-2.25-2.25L22,43.81m-4.12,1.34-1.34-1.34m8.18,1.52a1.21,1.21,0,1,0,1.21,1.21,1.21,1.21,0,0,0-1.21-1.21Zm-5.46,0a1.21,1.21,0,1,0,1.21,1.21,1.21,1.21,0,0,0-1.21-1.21Zm0,3.94v-.76a2,2,0,1,1,2-2h1.52a2,2,0,1,0,2-2v-.76M22,49.26l-1.87-1.87"/><path class="cls-1" d="M32.88,43.81l-1.34-1.34M29.3,40.22l-1.87-1.87M23.3,39.69,22,38.35m8.19,1.52a1.21,1.21,0,1,0,1.21,1.21,1.2,1.2,0,0,0-1.21-1.21Zm-5.46,0a1.21,1.21,0,1,0,1.21,1.21,1.21,1.21,0,0,0-1.21-1.21Zm0,3.94V43a2,2,0,1,1,2-2h1.52a2,2,0,1,0,2-2v-.76m-2.73,5.46-1.87-1.87"/><path class="cls-1" d="M38.34,49.26,37,47.93m-3.26-3.26-.86-.86m-4.12,1.34-1.34-1.34m9.2,3.38q.09-.29.19-.57a1.2,1.2,0,0,1-.19.57Zm-6.47-1.86a1.21,1.21,0,1,0,1.21,1.21,1.21,1.21,0,0,0-1.21-1.21Zm0,3.94v-.76a2,2,0,1,1,2-2h1m3.21,1.84a2,2,0,0,0,1-2.9m-4.71,3.47L31,47.39"/><path class="cls-1" d="M43.79,43.81l-1.34-1.34m-8.24-2.78-1.34-1.34m7.73,2.26q.36-.36.75-.7a1.21,1.21,0,1,1-1.47,1.47q.35-.4.72-.77Zm-5-.74A1.21,1.21,0,0,0,35,42.12a19.72,19.72,0,0,1,1.34-2,1.2,1.2,0,0,0-.72-.24Zm-1,2.91a2,2,0,1,1,2.18-3.27M39.34,42A2,2,0,1,0,42,39.36m-3.68,4.45-.13-.13"/><path class="cls-1" d="M49.25,49.27l-1.34-1.34m-2.25-2.25-1.87-1.87m-4.12,1.34-1.34-1.34m8.19,1.52a1.21,1.21,0,1,0,1.21,1.21,1.21,1.21,0,0,0-1.21-1.21Zm-5.46,0a1.21,1.21,0,1,0,1.21,1.21,1.21,1.21,0,0,0-1.21-1.21Zm0,3.94v-.76a2,2,0,1,1,2-2h1.52a2,2,0,1,0,2-2v-.76m-2.73,5.46-1.87-1.87"/><path class="cls-1" d="M54.71,43.81l-1.34-1.34m-2.25-2.25-1.87-1.87m-4.12,1.34-1.34-1.34M52,39.87a1.21,1.21,0,1,0,1.21,1.21A1.21,1.21,0,0,0,52,39.87Zm-5.46,0a1.21,1.21,0,1,0,1.21,1.21,1.21,1.21,0,0,0-1.21-1.21Zm0,3.94V43a2,2,0,1,1,2-2H50a2,2,0,1,0,2-2v-.76m-2.73,5.46-1.87-1.87"/><path class="cls-1" d="M60.16,49.27l-1.34-1.34m-2.25-2.25-1.87-1.87m-4.12,1.34-1.34-1.34m8.18,1.52a1.21,1.21,0,1,0,1.21,1.21,1.21,1.21,0,0,0-1.21-1.21Zm-5.46,0a1.21,1.21,0,1,0,1.21,1.21A1.21,1.21,0,0,0,52,45.33Zm0,3.94v-.76a2,2,0,1,1,2-2h1.52a2,2,0,1,0,2-2v-.76m-2.73,5.46-1.87-1.87"/><path class="cls-1" d="M65.62,43.81l-1.34-1.34M62,40.23l-1.87-1.87M56,39.69l-1.34-1.34m7.91,1.55q.39.34.76.71t.69.74a1.21,1.21,0,1,1-1.45-1.45Zm-5.19,0a1.21,1.21,0,1,0,1.21,1.21,1.21,1.21,0,0,0-1.21-1.21Zm0,3.94V43a2,2,0,1,1,2-2h1.52a2,2,0,0,0,3.7.93m-4.46,1.79-1.87-1.87"/><path class="cls-1" d="M66.17,44.36l-.55-.55M61.5,45.14l-1.34-1.34m7,2.72q.13.37.25.74a1.2,1.2,0,0,1-.25-.73Zm-4.25-1.2a1.21,1.21,0,1,0,1.21,1.21,1.21,1.21,0,0,0-1.21-1.21Zm0,3.94v-.76a2,2,0,1,1,2-2h1.52a2,2,0,0,0,1.31,1.85m-2.07.87-1.87-1.87"/><path class="cls-1" d="M76.53,43.81,75.2,42.47M73,40.23l-1.87-1.87m2.73,1.52A1.21,1.21,0,1,0,75,41.08a1.21,1.21,0,0,0-1.21-1.21Zm-5.46,0a1.2,1.2,0,0,0-.7.22,19.68,19.68,0,0,1,1.34,2,1.21,1.21,0,0,0-.65-2.23Zm-1.17-.38a2,2,0,0,1,3.14,1.58h1.52a2,2,0,1,0,2-2v-.76m-2.73,5.46L69.2,41.94"/><path class="cls-1" d="M82,49.27l-1.34-1.34m-2.25-2.25-1.87-1.87m-4.12,1.34-1.34-1.34m8.19,1.52a1.21,1.21,0,1,0,1.21,1.21,1.21,1.21,0,0,0-1.21-1.21Zm-5.46,0A1.21,1.21,0,1,0,75,46.54a1.21,1.21,0,0,0-1.21-1.21Zm0,3.94v-.76a2,2,0,1,1,2-2h1.52a2,2,0,1,0,2-2v-.76m-2.73,5.46-1.87-1.87"/><path class="cls-1" d="M87.45,43.81l-1.34-1.34m-2.25-2.25L82,38.35m-4.12,1.34-1.34-1.34m8.19,1.52a1.21,1.21,0,1,0,1.21,1.21,1.21,1.21,0,0,0-1.21-1.21Zm-5.46,0a1.21,1.21,0,1,0,1.21,1.21,1.21,1.21,0,0,0-1.21-1.21Zm0,3.94V43a2,2,0,1,1,2-2h1.52a2,2,0,1,0,2-2v-.76M82,43.81l-1.87-1.87"/><path class="cls-1" d="M92.9,49.27l-1.34-1.34m-2.25-2.25-1.87-1.87m-4.12,1.34L82,43.81m8.19,1.52a1.21,1.21,0,1,0,1.21,1.21,1.2,1.2,0,0,0-1.21-1.21Zm-5.46,0a1.21,1.21,0,1,0,1.21,1.21,1.21,1.21,0,0,0-1.21-1.21Zm0,3.94v-.76a2,2,0,1,1,2-2h1.52a2,2,0,1,0,2-2v-.76m-2.73,5.46-1.87-1.87"/><path class="cls-1" d="M98.36,43.81,97,42.47m-2.25-2.25L92.9,38.35m-4.12,1.34-1.34-1.34m8.18,1.52a1.21,1.21,0,1,0,1.21,1.21,1.2,1.2,0,0,0-1.21-1.21Zm-5.46,0a1.21,1.21,0,1,0,1.21,1.21,1.21,1.21,0,0,0-1.21-1.21Zm0,3.94V43a2,2,0,1,1,2-2h1.52a2,2,0,1,0,2-2v-.76M92.9,43.81,91,41.94"/><path class="cls-1" d="M103.79,49.24l-1.31-1.31m-2.25-2.25-1.87-1.87m-4.12,1.34L92.9,43.81m8.19,1.52a1.21,1.21,0,1,0,1.21,1.21,1.2,1.2,0,0,0-1.21-1.21Zm-5.46,0a1.21,1.21,0,1,0,1.21,1.21,1.21,1.21,0,0,0-1.21-1.21Zm0,3.94v-.76a2,2,0,1,1,2-2h1.52a2,2,0,1,0,2-2v-.76m-2.73,5.46-1.87-1.87"/><path class="cls-1" d="M99.7,39.69l-1.34-1.34m2.73,1.52a1.21,1.21,0,1,0,1.21,1.21,1.21,1.21,0,0,0-1.21-1.21Zm0,3.94V43a2,2,0,1,1,1.28-3.46m.73,3.51-1.16-1.16"/><path class="cls-1" d="M5.6,60.18,4.26,58.84M2,56.59.2,54.78m2.67,1.46a1.21,1.21,0,1,0,1.21,1.21,1.21,1.21,0,0,0-1.21-1.21ZM.41,57.45H.9a2,2,0,1,0,2-2v-.76"/><path class="cls-1" d="M11.05,54.72,9.72,53.38M7.47,51.14,5.6,49.26M1.47,50.6.19,49.32m8.13,1.47A1.21,1.21,0,1,0,9.53,52a1.21,1.21,0,0,0-1.21-1.21Zm-5.46,0A1.21,1.21,0,1,0,4.08,52a1.21,1.21,0,0,0-1.21-1.21Zm0,3.94V54a2,2,0,1,1,2-2H6.35a2,2,0,1,0,2-2v-.76M5.6,54.72,3.72,52.85"/><path class="cls-1" d="M16.51,60.18l-1.34-1.34m-2.25-2.25-1.87-1.87M6.93,56.06,5.6,54.72m8.19,1.52A1.21,1.21,0,1,0,15,57.45a1.2,1.2,0,0,0-1.21-1.21Zm-5.46,0a1.21,1.21,0,1,0,1.21,1.21,1.21,1.21,0,0,0-1.21-1.21Zm0,3.94v-.76a2,2,0,1,1,2-2h1.52a2,2,0,1,0,2-2v-.76m-2.73,5.46L9.18,58.3"/><path class="cls-1" d="M22,54.72l-1.34-1.34m-2.25-2.25-1.87-1.87M12.39,50.6l-1.34-1.34m8.18,1.52A1.21,1.21,0,1,0,20.45,52a1.21,1.21,0,0,0-1.21-1.21Zm-5.46,0A1.21,1.21,0,1,0,15,52a1.21,1.21,0,0,0-1.21-1.21Zm0,3.94V54a2,2,0,1,1,2-2h1.52a2,2,0,1,0,2-2v-.76m-2.73,5.46-1.87-1.87"/><path class="cls-1" d="M27.42,60.18l-1.34-1.34m-2.25-2.25L22,54.72m-4.12,1.34-1.34-1.34m8.18,1.52a1.21,1.21,0,1,0,1.21,1.21,1.21,1.21,0,0,0-1.21-1.21Zm-5.46,0a1.21,1.21,0,1,0,1.21,1.21,1.21,1.21,0,0,0-1.21-1.21Zm0,3.94v-.76a2,2,0,1,1,2-2h1.52a2,2,0,1,0,2-2v-.76M22,60.18,20.09,58.3"/><path class="cls-1" d="M32.46,54.3l-.92-.92M29.3,51.14l-1.87-1.87M23.3,50.6,22,49.26m8.19,1.52A1.21,1.21,0,1,0,31.36,52a1.2,1.2,0,0,0-1.21-1.21Zm-5.46,0A1.21,1.21,0,1,0,25.9,52a1.21,1.21,0,0,0-1.21-1.21Zm0,3.94V54a2,2,0,1,1,2-2h1.52a2,2,0,1,0,2-2v-.76m-2.73,5.46-1.87-1.87"/><path class="cls-1" d="M38.34,60.18l-.48-.48m-9.1-3.64-1.34-1.34m9.39,2.64q-.1-.28-.19-.57a1.2,1.2,0,0,1,.19.57Zm-6.66-1.12a1.21,1.21,0,1,0,1.21,1.21,1.21,1.21,0,0,0-1.21-1.21Zm0,3.94v-.76a2,2,0,1,1,2-2h1m4.17,1.06a2,2,0,0,0-1-2.9m-3.42,4.57L31,58.3"/><path class="cls-1" d="M43.79,54.72l-1.34-1.34m-2.25-2.25-1.87-1.87m2.73,1.52A1.21,1.21,0,1,0,42.27,52a1.21,1.21,0,0,0-1.21-1.21Zm-5.13,2.37q0-.58,0-1.16t0-1.16a1.21,1.21,0,0,1,0,2.33ZM36,50.07A2,2,0,0,1,37.58,52H39.1a2,2,0,1,0,2-2v-.76m-2.73,5.46-1.87-1.87"/><path class="cls-1" d="M49.25,60.18l-1.34-1.34M45.67,56.6l-1.87-1.87m-4.12,1.34-1.34-1.34m8.19,1.52a1.21,1.21,0,1,0,1.21,1.21,1.21,1.21,0,0,0-1.21-1.21Zm-5.46,0a1.21,1.21,0,1,0,1.21,1.21,1.21,1.21,0,0,0-1.21-1.21Zm0,3.94v-.76a2,2,0,1,1,2-2h1.52a2,2,0,1,0,2-2v-.76m-2.73,5.46L41.92,58.3"/><path class="cls-1" d="M54.71,54.72l-1.34-1.34m-2.25-2.25-1.87-1.87M45.13,50.6l-1.34-1.34M52,50.78A1.21,1.21,0,1,0,53.19,52,1.2,1.2,0,0,0,52,50.78Zm-5.46,0A1.21,1.21,0,1,0,47.73,52a1.21,1.21,0,0,0-1.21-1.21Zm0,3.94V54a2,2,0,1,1,2-2H50a2,2,0,1,0,2-2v-.76m-2.73,5.46-1.87-1.87"/><path class="cls-1" d="M60.16,60.18l-1.34-1.34M56.58,56.6l-1.87-1.87m-4.12,1.34-1.34-1.34m8.18,1.52a1.21,1.21,0,1,0,1.21,1.21,1.2,1.2,0,0,0-1.21-1.21Zm-5.46,0a1.21,1.21,0,1,0,1.21,1.21A1.21,1.21,0,0,0,52,56.24Zm0,3.94v-.76a2,2,0,1,1,2-2h1.52a2,2,0,1,0,2-2v-.76m-2.73,5.46-1.87-1.87"/><path class="cls-1" d="M65.62,54.72l-1.34-1.34M62,51.14l-1.87-1.87M56,50.6l-1.34-1.34m8.18,1.52A1.21,1.21,0,1,0,64.1,52a1.2,1.2,0,0,0-1.21-1.21Zm-5.46,0A1.21,1.21,0,1,0,58.64,52a1.21,1.21,0,0,0-1.21-1.21Zm0,3.94V54a2,2,0,1,1,2-2h1.52a2,2,0,1,0,2-2v-.76m-2.73,5.46-1.87-1.87"/><path class="cls-1" d="M71.08,60.18l-.84-.84m-2.8-2.8-1.82-1.82M61.5,56.06l-1.34-1.34m7.22,2q-.11.37-.25.74h0a1.2,1.2,0,0,1,.25-.73Zm-4.5-.48a1.21,1.21,0,1,0,1.21,1.21,1.21,1.21,0,0,0-1.21-1.21Zm0,3.94v-.76a2,2,0,1,1,2-2h1.52a2,2,0,0,0,.33,1.09m-1.09,1.64-1.87-1.87"/><path class="cls-1" d="M76.53,54.72l-.94-.94M72,50.21l-.49-.49M67,50.6l-1.34-1.34M68,50.82q0,.58,0,1.17t0,1.17a1.21,1.21,0,0,1,0-2.34ZM68,53.93a2,2,0,0,1,0-3.87m5,3.72a2,2,0,0,0,1.65,0m0-3.58A2,2,0,0,0,73.8,50v-.76"/><path class="cls-1" d="M82,60.18l-1.34-1.34M78.41,56.6l-1.87-1.87m-4.12,1.34-1-1m7.84,1.17a1.21,1.21,0,1,0,1.21,1.21,1.21,1.21,0,0,0-1.21-1.21Zm-5.46,0A1.21,1.21,0,1,0,75,57.45a1.21,1.21,0,0,0-1.21-1.21Zm0,3.94v-.76a2,2,0,1,1,2-2h1.52a2,2,0,1,0,2-2v-.76m-2.73,5.46-1.87-1.87"/><path class="cls-1" d="M87.45,54.72l-.94-.94m-3.58-3.58L82,49.27m-4.52.94-.94-.94m2.73,5.46V54a2,2,0,0,1-.82-.18m0-3.58a2,2,0,0,1,1.65,0m3.81,3.58a2,2,0,0,0,1.65,0m0-3.58a2,2,0,0,0-.82-.18v-.76M82,54.72,81,53.78"/><path class="cls-1" d="M92.9,60.18l-1.34-1.34M89.32,56.6l-1.87-1.87m-4.12,1.34L82,54.72m8.19,1.52a1.21,1.21,0,1,0,1.21,1.21,1.2,1.2,0,0,0-1.21-1.21Zm-5.46,0a1.21,1.21,0,1,0,1.21,1.21,1.21,1.21,0,0,0-1.21-1.21Zm0,3.94v-.76a2,2,0,1,1,2-2h1.52a2,2,0,1,0,2-2v-.76m-2.73,5.46-1.87-1.87"/><path class="cls-1" d="M98.36,54.72l-.94-.94m-3.58-3.58-.94-.94m-4.52.94-.94-.94m2.73,5.46V54a2,2,0,0,1-.82-.18m0-3.58a2,2,0,0,1,1.65,0m3.81,3.58a2,2,0,0,0,1.65,0m0-3.58a2,2,0,0,0-.82-.18v-.76M92.9,54.72,92,53.78"/><path class="cls-1" d="M103.3,59.66l-.82-.82m-2.25-2.25-1.87-1.87m-4.12,1.34L92.9,54.72m8.19,1.52a1.21,1.21,0,1,0,1.21,1.21,1.21,1.21,0,0,0-1.21-1.21Zm-5.46,0a1.21,1.21,0,1,0,1.21,1.21,1.21,1.21,0,0,0-1.21-1.21Zm0,3.94v-.76a2,2,0,1,1,2-2h1.52a2,2,0,1,0,2-2v-.76m-2.73,5.46-1.87-1.87"/><path class="cls-1" d="M99.3,50.21l-.94-.94m2.73,5.46V54a2,2,0,0,1-.82-.18m0-3.58a2,2,0,0,1,1.65,0m1.88,4.49-.92-.92"/><path class="cls-1" d="M5.6,71.09,4.26,69.76m-1.39-2.6a1.2,1.2,0,0,0-.46.09q.36,1.16.76,2.29a1.21,1.21,0,0,0-.3-2.38Zm.56,3.1a2,2,0,0,0-.56-3.86v-.76"/><path class="cls-1" d="M11.05,65.63,9.72,64.3M7.47,62.05,5.6,60.18M1.47,61.51l-.58-.58m7.43.77a1.21,1.21,0,1,0,1.21,1.21A1.21,1.21,0,0,0,8.32,61.7Zm-5.46,0a1.21,1.21,0,1,0,1.21,1.21A1.21,1.21,0,0,0,2.87,61.7Zm0,3.94v-.76a2,2,0,0,1-1.24-.44M1.1,62a2,2,0,0,1,3.74.86H6.35a2,2,0,1,0,2-2v-.76M5.6,65.63,3.72,63.76"/><path class="cls-1" d="M16.51,71.09l-1.34-1.34m-2.25-2.25-1.87-1.87M6.93,67,5.6,65.63m8.19,1.52A1.21,1.21,0,1,0,15,68.36a1.2,1.2,0,0,0-1.21-1.21Zm-5.46,0a1.21,1.21,0,1,0,1.21,1.21,1.21,1.21,0,0,0-1.21-1.21Zm0,3.94v-.76a2,2,0,1,1,2-2h1.52a2,2,0,1,0,2-2v-.76m-2.73,5.46L9.18,69.22"/><path class="cls-1" d="M22,65.64,20.63,64.3m-2.25-2.25-1.87-1.87m-4.12,1.34-1.34-1.34m8.18,1.52a1.21,1.21,0,1,0,1.21,1.21,1.21,1.21,0,0,0-1.21-1.21Zm-5.46,0A1.21,1.21,0,1,0,15,62.91a1.21,1.21,0,0,0-1.21-1.21Zm0,3.94v-.76a2,2,0,1,1,2-2h1.52a2,2,0,1,0,2-2v-.76m-2.73,5.46-1.87-1.87"/><path class="cls-1" d="M27.42,71.09l-1.34-1.34m-2.25-2.25L22,65.64M17.85,67l-1.34-1.34m8.18,1.52a1.21,1.21,0,1,0,1.21,1.21,1.2,1.2,0,0,0-1.21-1.21Zm-5.46,0a1.21,1.21,0,1,0,1.21,1.21,1.21,1.21,0,0,0-1.21-1.21Zm0,3.94v-.76a2,2,0,1,1,2-2h1.52a2,2,0,1,0,2-2v-.76M22,71.09l-1.87-1.87"/><path class="cls-1" d="M32.88,65.64,31.54,64.3M29.3,62.05l-1.87-1.87M23.3,61.51,22,60.18m8.19,1.52a1.21,1.21,0,1,0,1.21,1.21,1.2,1.2,0,0,0-1.21-1.21Zm-5.46,0a1.21,1.21,0,1,0,1.21,1.21,1.21,1.21,0,0,0-1.21-1.21Zm0,3.94v-.76a2,2,0,1,1,2-2h1.52a2,2,0,1,0,2-2v-.76m-2.73,5.46-1.87-1.87"/><path class="cls-1" d="M38.34,71.09,37,69.76m-2.25-2.25-1.87-1.87M28.76,67l-1.34-1.34m8.19,1.52a1.21,1.21,0,1,0,1.21,1.21,1.21,1.21,0,0,0-1.21-1.21Zm-5.46,0a1.21,1.21,0,1,0,1.21,1.21,1.21,1.21,0,0,0-1.21-1.21Zm0,3.94v-.76a2,2,0,1,1,2-2h1.52a2,2,0,1,0,2-2v-.76m-2.73,5.46L31,69.22"/><path class="cls-1" d="M43.79,65.64,42.46,64.3m-2.25-2.25-1.87-1.87m-4.12,1.34-1.34-1.34m8.48,3.9q-.39-.34-.75-.7t-.72-.77a1.21,1.21,0,1,1,1.47,1.47ZM35,61.87a1.21,1.21,0,1,0,1.34,2,19.74,19.74,0,0,1-1.34-2Zm.62,3.76v-.76a2,2,0,0,1-1-3.67M42,64.63a2,2,0,0,0-1-3.69v-.76"/><path class="cls-1" d="M44.29,66.13l-.49-.49m3.41,1.73-.63-.21a1.2,1.2,0,0,1,.63.21Zm-7.12.28a1.21,1.21,0,1,0,2,1.34,19.71,19.71,0,0,1-2-1.34Zm1,3.44v-.76a2,2,0,0,1-1.57-3.16m8.87.5a2,2,0,0,0-1.85-1.29v-.76m-2.73,5.46-1.87-1.87"/><path class="cls-1" d="M54.71,65.64,53.37,64.3m-2.25-2.25-1.87-1.87m-4.12,1.34-1.34-1.34M52,61.7a1.21,1.21,0,1,0,1.21,1.21A1.21,1.21,0,0,0,52,61.7Zm-5.46,0a1.21,1.21,0,1,0,1.21,1.21,1.21,1.21,0,0,0-1.21-1.21Zm0,3.94v-.76a2,2,0,1,1,2-2H50a2,2,0,1,0,2-2v-.76m-2.73,5.46-1.87-1.87"/><path class="cls-1" d="M60.16,71.09l-.84-.84m-2.8-2.8-1.81-1.81M50.59,67l-1.34-1.34m8.16,1.52-.69.23a1.2,1.2,0,0,1,.69-.23Zm-4.27.9q-.57,0-1.15,0t-1.18,0a1.21,1.21,0,0,1,2.34,0ZM50,68a2,2,0,0,1,3.86,0m4.6-1.26a2,2,0,0,0-1.08-.32v-.76"/><path class="cls-1" d="M62,62.05l-1.87-1.87M56,61.52l-1.34-1.34m9.36,2.46q-.34.38-.69.74t-.76.71a1.21,1.21,0,1,1,1.45-1.45Zm-6.64-.94a1.21,1.21,0,1,0,1.21,1.21,1.21,1.21,0,0,0-1.21-1.21Zm0,3.94v-.76a2,2,0,1,1,2-2h1.52a2,2,0,0,0,1,1.73M64.62,62a2,2,0,0,0-1.73-1v-.76m-2.73,5.46-1.87-1.87"/><path class="cls-1" d="M60.31,65.78l-.14-.14M61.87,69a1.21,1.21,0,1,0,2-1.34,19.73,19.73,0,0,1-2,1.34Zm1,2.09v-.76a2,2,0,0,1-1.69-1m3.27-2.18a2,2,0,0,1,.39,1.17h1m.66.66a2,2,0,0,0,1.2,1.2m2.49-2.56a2,2,0,0,0-1.13-1.13m-.71-.71v-.18m-2.73,5.46-1.87-1.87"/><path class="cls-1" d="M76.53,65.64,75.2,64.3M73,62.05l-1.87-1.87m-5.31.15-.15-.15M73.8,61.7A1.21,1.21,0,1,0,75,62.91,1.2,1.2,0,0,0,73.8,61.7Zm-6.15,2.2a1.21,1.21,0,1,0,1.34-2,19.74,19.74,0,0,1-1.34,2Zm.7,1.74v-.76a2,2,0,0,1-1.17-.38m2.19-3.27a2,2,0,0,1,1,1.69h1.52a2,2,0,1,0,2-2v-.76m-2.73,5.46L69.2,63.76"/><path class="cls-1" d="M82,71.09l-1.34-1.34m-2.25-2.25-1.87-1.87M72.41,67l-1.34-1.34m8.19,1.52a1.21,1.21,0,1,0,1.21,1.21,1.21,1.21,0,0,0-1.21-1.21Zm-5.46,0A1.21,1.21,0,1,0,75,68.36a1.21,1.21,0,0,0-1.21-1.21Zm0,3.94v-.76a2,2,0,1,1,2-2h1.52a2,2,0,1,0,2-2v-.76m-2.73,5.46-1.87-1.87"/><path class="cls-1" d="M87.45,65.64,86.11,64.3m-2.25-2.25L82,60.18m-4.12,1.34-1.34-1.34m8.19,1.52a1.21,1.21,0,1,0,1.21,1.21,1.21,1.21,0,0,0-1.21-1.21Zm-5.46,0a1.21,1.21,0,1,0,1.21,1.21,1.21,1.21,0,0,0-1.21-1.21Zm0,3.94v-.76a2,2,0,1,1,2-2h1.52a2,2,0,1,0,2-2v-.76M82,65.64l-1.87-1.87"/><path class="cls-1" d="M92.9,71.09l-1.34-1.34m-2.25-2.25-1.87-1.87M83.33,67,82,65.64m8.19,1.52a1.21,1.21,0,1,0,1.21,1.21,1.21,1.21,0,0,0-1.21-1.21Zm-5.46,0a1.21,1.21,0,1,0,1.21,1.21,1.21,1.21,0,0,0-1.21-1.21Zm0,3.94v-.76a2,2,0,1,1,2-2h1.52a2,2,0,1,0,2-2v-.76m-2.73,5.46-1.87-1.87"/><path class="cls-1" d="M98.36,65.64,97,64.3m-2.25-2.25L92.9,60.18m-4.12,1.34-1.34-1.34m8.18,1.52a1.21,1.21,0,1,0,1.21,1.21,1.2,1.2,0,0,0-1.21-1.21Zm-5.46,0a1.21,1.21,0,1,0,1.21,1.21,1.21,1.21,0,0,0-1.21-1.21Zm0,3.94v-.76a2,2,0,1,1,2-2h1.52a2,2,0,1,0,2-2v-.76M92.9,65.64,91,63.76"/><path class="cls-1" d="M100.23,67.51l-1.87-1.87M94.24,67,92.9,65.64m8.19,1.52a1.21,1.21,0,0,0-.27,2.39q.41-1.13.76-2.28a1.2,1.2,0,0,0-.49-.1Zm-5.46,0a1.21,1.21,0,1,0,1.21,1.21,1.21,1.21,0,0,0-1.21-1.21Zm0,3.94v-.76a2,2,0,1,1,2-2h1.52a2,2,0,0,0,1.43,1.9m1.24-3.73a2,2,0,0,0-.71-.13v-.76m-2.73,5.46-1.87-1.87"/><path class="cls-1" d="M99.7,61.52l-1.34-1.34m2.73,1.52a1.21,1.21,0,1,0,1.21,1.21,1.21,1.21,0,0,0-1.21-1.21Zm0,3.94v-.76a2,2,0,1,1,1.79-2.79m-.47,2.14-.47-.47"/><path class="cls-1" d="M11.05,76.55,9.72,75.21M7.47,73,5.6,71.09m2.73,1.52a1.21,1.21,0,1,0,1.21,1.21,1.21,1.21,0,0,0-1.21-1.21Zm-4-.09a2,2,0,0,1,.48,1.07m.1.23H6.35a2,2,0,1,0,2-2v-.76"/><path class="cls-1" d="M16.51,82l-1.34-1.34m-2.25-2.25-1.87-1.87m2.73,1.52A1.21,1.21,0,1,0,15,79.28a1.2,1.2,0,0,0-1.21-1.21Zm-5.46,0a1.21,1.21,0,0,0-.92.43q.59,1,1.22,2a1.21,1.21,0,0,0-.3-2.38ZM7,77.82a2,2,0,0,1,3.29,1.46h1.52a2,2,0,1,0,2-2v-.76M11.05,82,9.18,80.13"/><path class="cls-1" d="M22,76.55l-1.34-1.34M18.38,73l-1.87-1.87m-4.12,1.34-1.34-1.34m8.18,1.52a1.21,1.21,0,1,0,1.21,1.21,1.2,1.2,0,0,0-1.21-1.21Zm-5.46,0A1.21,1.21,0,1,0,15,73.82a1.21,1.21,0,0,0-1.21-1.21Zm0,3.94v-.76a2,2,0,1,1,2-2h1.52a2,2,0,1,0,2-2v-.76m-2.73,5.46-1.87-1.87"/><path class="cls-1" d="M27.42,82l-1.34-1.34m-2.25-2.25L22,76.55m-4.12,1.34-1.34-1.34m8.18,1.52a1.21,1.21,0,1,0,1.21,1.21,1.2,1.2,0,0,0-1.21-1.21Zm-5.46,0a1.21,1.21,0,1,0,1.21,1.21,1.21,1.21,0,0,0-1.21-1.21Zm0,3.94v-.76a2,2,0,1,1,2-2h1.52a2,2,0,1,0,2-2v-.76M22,82l-1.87-1.87"/><path class="cls-1" d="M32.88,76.55l-1.34-1.34M29.3,73l-1.87-1.87M23.3,72.43,22,71.09m8.19,1.52a1.21,1.21,0,1,0,1.21,1.21,1.2,1.2,0,0,0-1.21-1.21Zm-5.46,0a1.21,1.21,0,1,0,1.21,1.21,1.21,1.21,0,0,0-1.21-1.21Zm0,3.94v-.76a2,2,0,1,1,2-2h1.52a2,2,0,1,0,2-2v-.76m-2.73,5.46-1.87-1.87"/><path class="cls-1" d="M38.34,82,37,80.67m-2.25-2.25-1.87-1.87m-4.12,1.34-1.34-1.34m8.19,1.52a1.21,1.21,0,1,0,1.21,1.21,1.21,1.21,0,0,0-1.21-1.21Zm-5.46,0a1.21,1.21,0,1,0,1.21,1.21,1.21,1.21,0,0,0-1.21-1.21Zm0,3.94v-.76a2,2,0,1,1,2-2h1.52a2,2,0,1,0,2-2v-.76M32.88,82,31,80.13"/><path class="cls-1" d="M43.79,76.55l-1.34-1.34M40.21,73l-1.87-1.87m-4.12,1.34-1.34-1.34m8.19,1.52a1.21,1.21,0,1,0,1.21,1.21,1.21,1.21,0,0,0-1.21-1.21Zm-5.46,0a1.21,1.21,0,1,0,1.21,1.21,1.21,1.21,0,0,0-1.21-1.21Zm0,3.94v-.76a2,2,0,1,1,2-2H39.1a2,2,0,1,0,2-2v-.76m-2.73,5.46-1.87-1.87"/><path class="cls-1" d="M49.25,82l-1.34-1.34m-2.25-2.25-1.87-1.87m-4.12,1.34-1.34-1.34m8.19,1.52a1.21,1.21,0,1,0,1.21,1.21,1.21,1.21,0,0,0-1.21-1.21Zm-5.46,0a1.21,1.21,0,1,0,1.21,1.21,1.21,1.21,0,0,0-1.21-1.21Zm0,3.94v-.76a2,2,0,1,1,2-2h1.52a2,2,0,1,0,2-2v-.76M43.79,82l-1.87-1.87"/><path class="cls-1" d="M54.71,76.55l-1.34-1.34M51.12,73l-1.44-1.44m-4.55.9-1.34-1.34M52,72.61a1.21,1.21,0,1,0,1.21,1.21A1.21,1.21,0,0,0,52,72.61Zm-5.46,0a1.21,1.21,0,1,0,1.21,1.21,1.21,1.21,0,0,0-1.21-1.21Zm0,3.94v-.76a2,2,0,1,1,2-2H50a2,2,0,1,0,2-2v-.19m-2.73,4.89-1.87-1.87"/><path class="cls-1" d="M60.16,82l-1.34-1.34m-2.25-2.25-1.87-1.87m-4.12,1.34-1.34-1.34m8.18,1.52a1.21,1.21,0,1,0,1.21,1.21,1.21,1.21,0,0,0-1.21-1.21Zm-5.46,0a1.21,1.21,0,1,0,1.21,1.21A1.21,1.21,0,0,0,52,78.07ZM52,82v-.76a2,2,0,1,1,2-2h1.52a2,2,0,1,0,2-2v-.76M54.71,82l-1.87-1.87"/><path class="cls-1" d="M65.62,76.55l-1.34-1.34M62,73l-1.87-1.87M56,72.43l-1-1m7.85,1.19a1.21,1.21,0,1,0,1.21,1.21,1.2,1.2,0,0,0-1.21-1.21Zm-5.46,0a1.21,1.21,0,1,0,1.21,1.21,1.21,1.21,0,0,0-1.21-1.21Zm0,3.94v-.76a2,2,0,1,1,2-2h1.52a2,2,0,1,0,2-2v-.76m-2.73,5.46-1.87-1.87"/><path class="cls-1" d="M71.08,82l-1.34-1.34m-2.25-2.25-1.87-1.87M61.5,77.89l-1.34-1.34m8.19,1.52a1.21,1.21,0,1,0,1.21,1.21,1.21,1.21,0,0,0-1.21-1.21Zm-5.46,0a1.21,1.21,0,1,0,1.21,1.21,1.21,1.21,0,0,0-1.21-1.21Zm0,3.94v-.76a2,2,0,1,1,2-2h1.52a2,2,0,1,0,2-2v-.76M65.62,82l-1.87-1.87"/><path class="cls-1" d="M67,72.43l-1.34-1.34m2.73,1.52a1.21,1.21,0,1,0,1.21,1.21,1.21,1.21,0,0,0-1.21-1.21Zm0,3.94v-.76a2,2,0,1,1,2-2h1m.66.66a2,2,0,0,0,1.2,1.2m2.49-2.56A2,2,0,0,0,74.51,72m-.71-.71v-.18m-2.73,5.46L69.2,74.68"/><path class="cls-1" d="M72.41,77.89l-1.34-1.34m2.73,1.52A1.21,1.21,0,1,0,75,79.28a1.21,1.21,0,0,0-1.21-1.21Zm0,3.94v-.76a2,2,0,1,1,2-2h1m.66.66a2,2,0,0,0,1.2,1.2m2.49-2.56A2,2,0,0,0,80,77.44m-.71-.71v-.18M76.53,82l-1.87-1.87"/><path class="cls-1" d="M87.45,76.55l-1.34-1.34M83.86,73,82,71.09m-4.12,1.34-1.34-1.34m8.19,1.52a1.21,1.21,0,1,0,1.21,1.21,1.21,1.21,0,0,0-1.21-1.21Zm-5.46,0a1.21,1.21,0,1,0,1.21,1.21,1.21,1.21,0,0,0-1.21-1.21Zm0,3.94v-.76a2,2,0,1,1,2-2h1.52a2,2,0,1,0,2-2v-.76M82,76.55l-1.87-1.87"/><path class="cls-1" d="M92.9,82l-1.34-1.34m-2.25-2.25-1.87-1.87m-4.12,1.34L82,76.55m8.19,1.52a1.21,1.21,0,1,0,1.21,1.21,1.21,1.21,0,0,0-1.21-1.21Zm-5.46,0a1.21,1.21,0,1,0,1.21,1.21,1.21,1.21,0,0,0-1.21-1.21Zm0,3.94v-.76a2,2,0,1,1,2-2h1.52a2,2,0,1,0,2-2v-.76M87.45,82l-1.87-1.87"/><path class="cls-1" d="M97.92,76.11l-.9-.9M94.78,73,92.9,71.09m-4.12,1.34-1.34-1.34m8.18,1.52a1.21,1.21,0,1,0,1.21,1.21,1.2,1.2,0,0,0-1.21-1.21Zm-5.46,0a1.21,1.21,0,1,0,1.21,1.21,1.21,1.21,0,0,0-1.21-1.21Zm0,3.94v-.76a2,2,0,1,1,2-2h1.52a2,2,0,1,0,2-2v-.76M92.9,76.55,91,74.68"/><path class="cls-1" d="M94.24,77.89,92.9,76.55m2.73,1.52a1.21,1.21,0,0,0-.27,2.39q.63-1,1.21-1.94a1.21,1.21,0,0,0-.94-.45Zm-.71,3A2,2,0,1,1,97,77.84"/><path class="cls-1" d="M99.69,72.42l-1.33-1.33m.76,2.59a2,2,0,0,1,.54-1.22"/><path class="cls-1" d="M22,87.46l-1.34-1.34m-2.25-2.25L16.51,82m-4.12,1.34L11.05,82m8.18,1.52a1.21,1.21,0,1,0,1.21,1.21,1.21,1.21,0,0,0-1.21-1.21Zm-5.46,0A1.21,1.21,0,1,0,15,84.73a1.21,1.21,0,0,0-1.21-1.21Zm0,3.54V86.7a2,2,0,0,1-.36,0M11.81,84.8s0,0,0-.06a2,2,0,1,1,3.94,0h1.52a2,2,0,1,0,2-2V82m-2.73,5.46-1.87-1.87"/><path class="cls-1" d="M27.42,92.92l-1.34-1.34m-2.25-2.25L22,87.46M17.85,88.8l-1.34-1.34M24.69,89a1.21,1.21,0,1,0,1.21,1.21A1.21,1.21,0,0,0,24.69,89Zm-5.46,0a1.21,1.21,0,1,0,1.21,1.21A1.21,1.21,0,0,0,19.24,89Zm0,3.23v-.05h-.07m-1.87-1.6a2,2,0,1,1,3.9-.36h1.52a2,2,0,1,0,2-2v-.76M22,92.92,20.09,91"/><path class="cls-1" d="M32.88,87.46l-1.34-1.34M29.3,83.88,27.42,82M23.3,83.34,22,82m8.19,1.52a1.21,1.21,0,1,0,1.21,1.21,1.2,1.2,0,0,0-1.21-1.21Zm-5.46,0a1.21,1.21,0,1,0,1.21,1.21,1.21,1.21,0,0,0-1.21-1.21Zm0,3.94V86.7a2,2,0,1,1,2-2h1.52a2,2,0,1,0,2-2V82m-2.73,5.46-1.87-1.87"/><path class="cls-1" d="M38.34,92.92,37,91.58m-2.25-2.25-1.87-1.87M28.76,88.8l-1.34-1.34M35.61,89a1.21,1.21,0,1,0,1.21,1.21A1.21,1.21,0,0,0,35.61,89Zm-5.46,0a1.21,1.21,0,1,0,1.21,1.21A1.21,1.21,0,0,0,30.15,89Zm0,3.94v-.76a2,2,0,1,1,2-2h1.52a2,2,0,1,0,2-2v-.76m-2.73,5.46L31,91"/><path class="cls-1" d="M43.79,87.46l-1.34-1.34m-2.25-2.25L38.34,82m-4.12,1.34L32.88,82m8.19,1.52a1.21,1.21,0,1,0,1.21,1.21,1.21,1.21,0,0,0-1.21-1.21Zm-5.46,0a1.21,1.21,0,1,0,1.21,1.21,1.21,1.21,0,0,0-1.21-1.21Zm0,3.94V86.7a2,2,0,1,1,2-2H39.1a2,2,0,1,0,2-2V82m-2.73,5.46-1.87-1.87"/><path class="cls-1" d="M49.25,92.92l-1.34-1.34m-2.25-2.25-1.87-1.87M39.67,88.8l-1.34-1.34M46.52,89a1.21,1.21,0,1,0,1.21,1.21A1.21,1.21,0,0,0,46.52,89Zm-5.46,0a1.21,1.21,0,1,0,1.21,1.21A1.21,1.21,0,0,0,41.06,89Zm0,3.94v-.76a2,2,0,1,1,2-2h1.52a2,2,0,1,0,2-2v-.76m-2.73,5.46L41.92,91"/><path class="cls-1" d="M54.71,87.46l-1.34-1.34m-2.25-2.25L49.25,82m-4.12,1.34L43.79,82M52,83.53a1.21,1.21,0,1,0,1.21,1.21A1.21,1.21,0,0,0,52,83.53Zm-5.46,0a1.21,1.21,0,1,0,1.21,1.21,1.21,1.21,0,0,0-1.21-1.21Zm0,3.94V86.7a2,2,0,1,1,2-2H50a2,2,0,1,0,2-2V82m-2.73,5.46-1.87-1.87"/><path class="cls-1" d="M60.16,92.92l-1.34-1.34m-2.25-2.25-1.87-1.87M50.59,88.8l-1.34-1.34M57.43,89a1.21,1.21,0,1,0,1.21,1.21A1.21,1.21,0,0,0,57.43,89ZM52,89a1.21,1.21,0,1,0,1.21,1.21A1.21,1.21,0,0,0,52,89Zm0,3.94v-.76a2,2,0,1,1,2-2h1.52a2,2,0,1,0,2-2v-.76m-2.73,5.46L52.83,91"/><path class="cls-1" d="M65.62,87.46l-1.34-1.34M62,83.88,60.16,82M56,83.34,54.71,82m8.18,1.52a1.21,1.21,0,1,0,1.21,1.21,1.2,1.2,0,0,0-1.21-1.21Zm-5.46,0a1.21,1.21,0,1,0,1.21,1.21,1.21,1.21,0,0,0-1.21-1.21Zm0,3.94V86.7a2,2,0,1,1,2-2h1.52a2,2,0,1,0,2-2V82m-2.73,5.46-1.87-1.87"/><path class="cls-1" d="M71.08,92.92l-1.34-1.34m-2.25-2.25-1.87-1.87M61.5,88.8l-1.34-1.34M68.35,89a1.21,1.21,0,1,0,1.21,1.21A1.21,1.21,0,0,0,68.35,89Zm-5.46,0a1.21,1.21,0,1,0,1.21,1.21A1.21,1.21,0,0,0,62.89,89Zm0,3.94v-.76a2,2,0,1,1,2-2h1.52a2,2,0,1,0,2-2v-.76m-2.73,5.46L63.75,91"/><path class="cls-1" d="M76.53,87.46,75.2,86.13M73,83.88,71.08,82M67,83.34,65.62,82m8.18,1.52A1.21,1.21,0,1,0,75,84.73a1.21,1.21,0,0,0-1.21-1.21Zm-5.46,0a1.21,1.21,0,1,0,1.21,1.21,1.21,1.21,0,0,0-1.21-1.21Zm0,3.94V86.7a2,2,0,1,1,2-2h1.52a2,2,0,1,0,2-2V82m-2.73,5.46L69.2,85.59"/><path class="cls-1" d="M82,92.92l-1.34-1.34m-2.25-2.25-1.87-1.87M72.41,88.8l-1.34-1.34M79.26,89a1.21,1.21,0,1,0,1.21,1.21A1.21,1.21,0,0,0,79.26,89ZM73.8,89A1.21,1.21,0,1,0,75,90.19,1.21,1.21,0,0,0,73.8,89Zm0,3.94v-.76a2,2,0,1,1,2-2h1.52a2,2,0,1,0,2-2v-.76m-2.73,5.46L74.66,91"/><path class="cls-1" d="M77.87,83.34,76.53,82m2.73,1.52a1.21,1.21,0,1,0,1.21,1.21,1.21,1.21,0,0,0-1.21-1.21Zm0,3.94V86.7a2,2,0,1,1,2-2h1m.66.66a2,2,0,0,0,1.2,1.2M86.56,84a2,2,0,0,0-1.13-1.13m-.71-.71V82M82,87.46l-1.87-1.87"/><path class="cls-1" d="M83.33,88.8,82,87.46M84.72,89a1.21,1.21,0,1,0,1.21,1.21A1.21,1.21,0,0,0,84.72,89Zm0,3.26v-.08a2,2,0,1,1,2-2h.4M85.83,91.3,85.57,91"/><path class="cls-1" d="M93.71,82.82,92.9,82m-4.12,1.34L87.45,82m2.73,1.52a1.21,1.21,0,1,0,1.21,1.21,1.21,1.21,0,0,0-1.21-1.21Zm0,3.58v-.4a2,2,0,1,1,2-2h.08m-.94,1.12L91,85.59"/><path class="cls-1" d="M32.88,98.38,31.54,97M29.3,94.79l-1.87-1.87M23.3,94.26,22,92.92m8.19,1.52a1.21,1.21,0,1,0,1.21,1.21,1.21,1.21,0,0,0-1.21-1.21Zm-5.46,0a1.21,1.21,0,0,0-1.17.92q1,.63,1.95,1.22l.08-.07a1.21,1.21,0,0,0-.85-2.06Zm-1.83.48a2,2,0,0,1,3.8.73h1.52a2,2,0,1,0,2-2v-.76M25.85,96.8l-.3-.3"/><path class="cls-1" d="M34.75,100.25l-1.87-1.87m2.73,1.52a1.21,1.21,0,0,0-1.17.92q1.13.41,2.29.76a1.21,1.21,0,0,0-1.11-1.68Zm-5.25-.75a2,2,0,0,1,1.12.5m6,2.15a2,2,0,0,0-1.84-2.66v-.76"/><path class="cls-1" d="M43.79,98.38,42.46,97m-2.25-2.25-1.87-1.87m-4.12,1.34-1.34-1.34m8.19,1.52a1.21,1.21,0,1,0,1.21,1.21,1.21,1.21,0,0,0-1.21-1.21Zm-5.46,0a1.21,1.21,0,1,0,1.21,1.21,1.21,1.21,0,0,0-1.21-1.21Zm0,3.94v-.76a2,2,0,1,1,2-2H39.1a2,2,0,1,0,2-2v-.76m-2.73,5.46L36.46,96.5"/><path class="cls-1" d="M49.21,103.79l-1.29-1.29m-2.25-2.25-1.87-1.87m-4.12,1.34-1.34-1.34m8.19,1.52a1.21,1.21,0,1,0,1.21,1.21,1.21,1.21,0,0,0-1.21-1.21Zm-5.46,0a1.21,1.21,0,1,0,1.21,1.21,1.21,1.21,0,0,0-1.21-1.21Zm-1.52,2.46A2,2,0,1,1,43,101.1h1.52a2,2,0,1,0,2-2v-.76m-3.47,4.72L41.92,102"/><path class="cls-1" d="M54.71,98.38,53.37,97m-2.25-2.25-1.87-1.87m-4.12,1.34-1.34-1.34M52,94.44a1.21,1.21,0,1,0,1.21,1.21A1.2,1.2,0,0,0,52,94.44Zm-5.46,0a1.21,1.21,0,1,0,1.21,1.21,1.21,1.21,0,0,0-1.21-1.21Zm0,3.94v-.76a2,2,0,1,1,2-2H50a2,2,0,1,0,2-2v-.76m-2.73,5.46L47.38,96.5"/><path class="cls-1" d="M59.63,103.3l-.81-.81m-2.25-2.25-1.87-1.87m-4.12,1.34-1.34-1.34m8.18,1.52a1.21,1.21,0,1,0,1.21,1.21,1.2,1.2,0,0,0-1.21-1.21ZM52,99.9a1.21,1.21,0,1,0,1.21,1.21A1.21,1.21,0,0,0,52,99.9Zm0,3.94v-.76a2,2,0,1,1,2-2h1.52a2,2,0,1,0,2-2v-.76m-2.77,5.42L52.83,102"/><path class="cls-1" d="M65.62,98.38,64.28,97M62,94.79l-1.87-1.87M56,94.26l-1.34-1.34m8.18,1.52a1.21,1.21,0,1,0,1.21,1.21,1.2,1.2,0,0,0-1.21-1.21Zm-5.46,0a1.21,1.21,0,1,0,1.21,1.21,1.21,1.21,0,0,0-1.21-1.21Zm0,3.94v-.76a2,2,0,1,1,2-2h1.52a2,2,0,1,0,2-2v-.76m-2.73,5.46L58.29,96.5"/><path class="cls-1" d="M67.49,100.25l-1.87-1.87M61.5,99.71l-1.34-1.34m8.19,1.52a1.21,1.21,0,0,0-1.11,1.69q1.15-.35,2.29-.76a1.21,1.21,0,0,0-1.18-.93Zm-5.46,0a1.21,1.21,0,1,0,1.21,1.21,1.21,1.21,0,0,0-1.21-1.21Zm-.84,3a2,2,0,1,1,2.8-1.78h1.52a2,2,0,0,0,.13.7m3.73-1.24a2,2,0,0,0-1.89-1.43v-.76m-4.14,4-.46-.46"/><path class="cls-1" d="M76.09,97.94l-.9-.9M73,94.79l-1.87-1.87M67,94.26l-1.34-1.34m8.18,1.52A1.21,1.21,0,1,0,75,95.65a1.2,1.2,0,0,0-1.21-1.21Zm-5.46,0a1.21,1.21,0,1,0,1.21,1.21,1.21,1.21,0,0,0-1.21-1.21Zm0,3.94v-.76a2,2,0,1,1,2-2h1.52a2,2,0,1,0,2-2v-.76m-2.73,5.46L69.2,96.5"/><path class="cls-1" d="M72.4,99.7l-1.32-1.32m1.38,1.29a2,2,0,0,1,1.18-.53"/><path class="cls-1" d="M82.8,93.73,82,92.92m-4.12,1.34-1.34-1.34m2.73,1.52a1.21,1.21,0,0,0-.76,2.15q1-.59,1.94-1.21a1.21,1.21,0,0,0-1.18-.93ZM77.82,97a2,2,0,1,1,3.28-2.05"/><line class="cls-2" x1="51.98" y1="103.86" x2="51.98" y2="103.83"/></g></g></svg>