<svg xmlns="http://www.w3.org/2000/svg" viewBox="0 0 109.62 103.99"><defs><style>.cls-1,.cls-2{fill:none;stroke:#7f7e7c;stroke-miterlimit:22.93;stroke-width:0.25px;}.cls-1{fill-rule:evenodd;}</style></defs><title>grey-medium</title><g id="Слой_2" data-name="Слой 2"><g id="Layer_1" data-name="Layer 1"><path class="cls-1" d="M31.55,4.31l.51.5m-1.93.13v.67"/><path class="cls-1" d="M34.41,3.18q1.13-.41,2.29-.76a1.21,1.21,0,1,1-2.29.76ZM41,1.67a1.21,1.21,0,1,0,1.21,1.21A1.21,1.21,0,0,0,41,1.67Zm0-.39v.39M39.83,2.88h-3M40.19,2l-.45-.45M41.9,2,43,1m-.72,1.93h1.52m-1.87.85L43,4.81M41,4.09V5.61m-.85-1.87L39.11,4.81M34.73,3.74,33.66,4.81m1.93-.72V5.61m.86-1.87,1.07,1.07"/><path class="cls-1" d="M50.75,2.88A1.21,1.21,0,0,1,52,1.67h0V4.09h0a1.21,1.21,0,0,1-1.21-1.21ZM46.5,1.67a1.21,1.21,0,1,1-1.21,1.21A1.21,1.21,0,0,1,46.5,1.67ZM52,.12V1.67M46.5.41V1.67m1.21,1.21h3M47.36,2,48.43,1M45.65,2,44.57,1m.72,1.93H43.77m1.87.85L44.57,4.81m1.93-.72V5.61m.85-1.87,1.07,1.07M51.1,2,50,1M52,4.09V5.61M51.1,3.74,50,4.81"/><path class="cls-1" d="M19.22,15a1.21,1.21,0,1,1,1.21-1.21A1.21,1.21,0,0,1,19.22,15ZM18,13.8H16.9m2.31-1.21v-.8m0,.8v-.8m-.85,1.15-.24-.24m1.95.24,1.07-1.07m-.72,1.93h1.52m-1.87.85,1.07,1.07M19.22,15v1.52m-.85-1.87-1.07,1.07m-2-.39.39.39"/><path class="cls-1" d="M30.13,15a1.21,1.21,0,1,0-1.21-1.21A1.21,1.21,0,0,0,30.13,15ZM23.5,8.64q1-.63,2-1.22a1.21,1.21,0,1,1-2,1.22Zm5.42,5.15a1.21,1.21,0,1,0,1.21-1.21,1.21,1.21,0,0,0-1.21,1.21ZM24.67,15a1.21,1.21,0,1,0-1.21-1.21A1.21,1.21,0,0,0,24.67,15Zm4.25-6.67a1.21,1.21,0,1,0,1.21-1.21,1.21,1.21,0,0,0-1.21,1.21Zm1.21,4.25v-3M25.88,13.8h3m-4.25-1.21v-3m1.21-1.21h3m-4.25,4.25V11.07m.85-1.87,1.07,1.07M23.82,9.19l-1.07,1.07m2.78-2.78.27-.27m3.48,2L28.2,10.27M31,9.19l1.07,1.07m-.72-1.93h1.52M31,7.48l1.07-1.07m-1.93.72V5.61m-.85,1.87L28.2,6.41m-2.67,6.53,1.07-1.07m-2.78,1.07-1.07-1.07m.72,1.93H21.95m1.87.85-1.07,1.07M24.67,15v1.52m.85-1.87,1.07,1.07m2.67-2.78L28.2,11.87M31,12.94l1.07-1.07m-.72,1.93h1.52M31,14.65l1.07,1.07M30.13,15v1.52m-.85-1.87L28.2,15.72"/><path class="cls-1" d="M35.59,15A1.21,1.21,0,1,1,36.8,13.8,1.21,1.21,0,0,1,35.59,15ZM36.8,13.8a1.21,1.21,0,1,1-1.21-1.21A1.21,1.21,0,0,1,36.8,13.8ZM41,15a1.21,1.21,0,1,1,1.21-1.21A1.21,1.21,0,0,1,41,15ZM36.8,8.34a1.21,1.21,0,1,1-1.21-1.21A1.21,1.21,0,0,1,36.8,8.34ZM41,9.55a1.21,1.21,0,1,1,1.21-1.21A1.21,1.21,0,0,1,41,9.55Zm-5.46,3v-3m4.25,4.25h-3M41,12.59v-3M39.83,8.34h-3M41,12.59V11.07m-.85-1.87-1.07,1.07M41.9,9.19,43,10.27m-.72-1.93h1.52M41.9,7.48,43,6.41M41,7.13V5.61m-.85,1.87L39.11,6.41M36.44,9.19l1.07,1.07M34.73,9.19l-1.07,1.07m.72-1.93H32.86m1.87-.85L33.66,6.41m1.93.72V5.61m.86,1.87,1.07-1.07m2.67,6.53-1.07-1.07m2.78,1.07L43,11.87m-.72,1.93h1.52m-1.87.85L43,15.72M41,15v1.52m-.85-1.87-1.07,1.07m-2.67-2.78,1.07-1.07m-2.78,1.07-1.07-1.07m.72,1.93H32.86m1.87.85-1.07,1.07M35.59,15v1.52m.85-1.87,1.07,1.07"/><path class="cls-1" d="M52,15h0a1.21,1.21,0,1,1,0-2.42h0A1.21,1.21,0,1,0,52,15ZM46.5,15a1.21,1.21,0,1,0-1.21-1.21A1.21,1.21,0,0,0,46.5,15Zm4.25-6.67A1.21,1.21,0,0,0,52,9.55h0V7.13h0a1.21,1.21,0,0,0-1.21,1.21ZM46.5,9.55a1.21,1.21,0,1,0-1.21-1.21A1.21,1.21,0,0,0,46.5,9.55Zm5.46,3v-3M47.71,13.8h3M46.5,12.59v-3m1.21-1.21h3M46.5,12.59V11.07m.85-1.87,1.07,1.07M45.65,9.19l-1.07,1.07m.72-1.93H43.77m1.87-.85L44.57,6.41m1.93.72V5.61m.85,1.87,1.07-1.07M51.1,9.19,50,10.27M52,7.13V5.61M51.1,7.48,50,6.41m-2.67,6.53,1.07-1.07m-2.78,1.07-1.07-1.07m.72,1.93H43.77m1.87.85-1.07,1.07M46.5,15v1.52m.85-1.87,1.07,1.07m2.67-2.78L50,11.87M52,15v1.52m-.85-1.87L50,15.72"/><path class="cls-1" d="M8.3,36.83a1.21,1.21,0,1,0-1.21-1.21A1.21,1.21,0,0,0,8.3,36.83Zm-5.9-.08q.36-1.16.76-2.29a1.21,1.21,0,1,1-.76,2.29Zm4.69-1.12A1.21,1.21,0,1,0,8.3,34.41a1.21,1.21,0,0,0-1.21,1.21Zm0-5.46A1.21,1.21,0,1,0,8.3,29a1.21,1.21,0,0,0-1.21,1.21ZM8.3,34.41v-3M4.06,35.62h3M4.93,30.17H7.09M4.29,31.6l.49.49M7.45,31,6.37,32.09M9.16,31l1.07,1.07m-.72-1.93H11m-1.87-.85,1.07-1.07M8.3,29V27.44m-.86,1.87L6.37,28.24M3.7,34.77l1.07-1.07M2.85,36.83v1.52m.85-1.87,1.07,1.07m2.67-2.78L6.37,33.69m2.78,1.07,1.07-1.07m-.72,1.93H11m-1.87.85,1.07,1.07M8.3,36.83v1.52m-.85-1.87L6.37,37.55"/><path class="cls-1" d="M13.76,36.83A1.21,1.21,0,1,1,15,35.62a1.21,1.21,0,0,1-1.21,1.21ZM15,35.62a1.21,1.21,0,1,1-1.21-1.21A1.21,1.21,0,0,1,15,35.62Zm4.25,1.21a1.21,1.21,0,1,1,1.21-1.21,1.21,1.21,0,0,1-1.21,1.21ZM15,30.17A1.21,1.21,0,1,1,13.76,29,1.21,1.21,0,0,1,15,30.17Zm4.25,1.21a1.21,1.21,0,1,1,1.21-1.21,1.21,1.21,0,0,1-1.21,1.21Zm-5.46,3v-3M18,35.62H15m4.25-1.21v-3M18,30.17H15m4.25,4.25V32.89M18.36,31l-1.07,1.07M20.07,31l1.07,1.07m-.72-1.93h1.52m-1.87-.85,1.07-1.07M19.22,29V27.44m-.85,1.87-1.07-1.07M14.61,31l1.07,1.07M12.91,31,11.83,32.1m.72-1.93H11m1.87-.85-1.07-1.07m1.93.72V27.44m.86,1.87,1.07-1.07m2.67,6.53-1.07-1.07m2.78,1.07,1.07-1.07m-.72,1.93h1.52m-1.87.85,1.07,1.07m-1.93-.72v1.52m-.85-1.87-1.07,1.07m-2.67-2.78,1.07-1.07m-2.78,1.07-1.07-1.07m.72,1.93H11m1.87.85-1.07,1.07m1.93-.72v1.52m.85-1.87,1.07,1.07"/><path class="cls-1" d="M30.13,36.83a1.21,1.21,0,1,0-1.21-1.21,1.21,1.21,0,0,0,1.21,1.21Zm-1.21-1.21a1.21,1.21,0,1,0,1.21-1.21,1.21,1.21,0,0,0-1.21,1.21Zm-4.25,1.21a1.21,1.21,0,1,0-1.21-1.21,1.21,1.21,0,0,0,1.21,1.21Zm4.25-6.67A1.21,1.21,0,1,0,30.13,29a1.21,1.21,0,0,0-1.21,1.21Zm-4.25,1.21a1.21,1.21,0,1,0-1.21-1.21,1.21,1.21,0,0,0,1.21,1.21Zm5.46,3v-3m-4.25,4.25h3m-4.25-1.21v-3m1.21-1.21h3m-4.25,4.25V32.89M25.53,31l1.07,1.07M23.82,31l-1.07,1.07m.72-1.93H21.95m1.87-.85-1.07-1.07m1.93.72V27.44m.85,1.87,1.07-1.07M29.28,31,28.2,32.09M31,31l1.07,1.07m-.72-1.93h1.52M31,29.31l1.07-1.07M30.13,29V27.44m-.85,1.87L28.2,28.24m-2.67,6.53,1.07-1.07m-2.78,1.07-1.07-1.07m.72,1.93H21.95m1.87.85-1.07,1.07m1.93-.72v1.52m.85-1.87,1.07,1.07m2.67-2.78L28.2,33.69M31,34.77l1.07-1.07m-.72,1.93h1.52M31,36.48l1.07,1.07m-1.93-.72v1.52m-.85-1.87L28.2,37.55"/><path class="cls-1" d="M35.59,36.83a1.21,1.21,0,1,1,1.21-1.21,1.21,1.21,0,0,1-1.21,1.21ZM42.08,35a19.69,19.69,0,0,0-2,1.34,1.21,1.21,0,1,1,2-1.34Zm-5.29.62a1.21,1.21,0,1,1-1.21-1.21,1.21,1.21,0,0,1,1.21,1.21Zm0-5.46A1.21,1.21,0,1,1,35.59,29a1.21,1.21,0,0,1,1.21,1.21ZM41,31.37a1.21,1.21,0,1,1,1.21-1.21A1.21,1.21,0,0,1,41,31.37Zm-5.46,3v-3m4.25,4.25h-3M41,34.41v-3m-1.21-1.21h-3M41,34.41V32.89M40.19,31l-1.07,1.07M41.9,31,43,32.1m-.72-1.93h1.52m-1.87-.85L43,28.24M41,29V27.44m-.85,1.87-1.07-1.07M36.44,31l1.07,1.07M34.73,31l-1.07,1.07m.72-1.93H32.86m1.87-.85-1.07-1.07m1.93.72V27.44m.85,1.87,1.07-1.07m2.67,6.53-1.07-1.07m2.78,1.07L43,33.69m-6.53,1.07,1.07-1.07m-2.78,1.07-1.07-1.07m.72,1.93H32.86m1.87.85-1.07,1.07m1.93-.72v1.52m.85-1.87,1.07,1.07"/><path class="cls-1" d="M52,36.83h0a1.21,1.21,0,0,1-1.17-.89,1.21,1.21,0,0,0,1.17.89Zm-5.38,0,.59-.2a1.2,1.2,0,0,1-.59.2Zm4.17-6.66A1.21,1.21,0,0,0,52,31.37h0V29h0a1.21,1.21,0,0,0-1.21,1.21ZM46.5,31.37a1.21,1.21,0,1,0-1.21-1.21,1.21,1.21,0,0,0,1.21,1.21Zm5.46,1v-1M46.5,33.1V31.37m1.21-1.21h3M46.5,33.1v-.21M47.36,31l1.07,1.07M45.65,31l-1.07,1.07m.72-1.93H43.77m1.87-.85-1.07-1.07M46.5,29V27.44m.85,1.87,1.07-1.07M51.1,31,50,32.09M52,29V27.44m-.85,1.87L50,28.24m-5.4,5.52-.06-.06m1.93,3.16v1.49m.93-1.8,1,1M52,36.83v1.52m-.85-1.87L50,37.55"/><path class="cls-1" d="M7.39,25.5q.59-1,1.23-2a1.21,1.21,0,1,1-1.23,2Zm1.77-1.65,1.07-1.07m-.72,1.93H11m-1.87.85,1.07,1.07M8.3,25.92v1.52m-.86-1.87-.23.23"/><path class="cls-1" d="M13.76,18A1.21,1.21,0,1,0,15,19.25,1.21,1.21,0,0,0,13.76,18ZM15,19.25a1.21,1.21,0,1,0-1.21,1.21A1.21,1.21,0,0,0,15,19.25ZM19.22,18a1.21,1.21,0,1,0,1.21,1.21A1.21,1.21,0,0,0,19.22,18ZM15,24.71a1.21,1.21,0,1,0-1.21,1.21A1.21,1.21,0,0,0,15,24.71Zm4.25-1.21a1.21,1.21,0,1,0,1.21,1.21,1.21,1.21,0,0,0-1.21-1.21Zm-5.46-3v3M18,19.25H15m4.25,1.21v3M18,24.71H15m4.25-4.25V22m-.85,1.87-1.07-1.07m2.78,1.07,1.07-1.07m-.72,1.93h1.52m-1.87.85,1.07,1.07m-1.93-.72v1.52m-.85-1.87-1.07,1.07m-2.67-2.78,1.07-1.07m-2.78,1.07-1.07-1.07m.72,1.93H11m1.87.85-1.07,1.07m1.93-.72v1.52m.86-1.87,1.07,1.07m2.67-6.53-1.07,1.07m2.78-1.07,1.07,1.07m-.72-1.93h1.52m-1.87-.85,1.07-1.07M19.22,18V16.52m-.85,1.87-1.07-1.07m-2.67,2.78,1.07,1.07m-2.78-1.07-1.07,1.07m.72-1.93h-.79m1.14-.85-.23-.23M13.76,18v-1.1m.86,1.46,1.07-1.07"/><path class="cls-1" d="M30.13,18a1.21,1.21,0,1,1-1.21,1.21A1.21,1.21,0,0,1,30.13,18Zm-1.21,1.21a1.21,1.21,0,1,1,1.21,1.21,1.21,1.21,0,0,1-1.21-1.21ZM24.67,18a1.21,1.21,0,1,1-1.21,1.21A1.21,1.21,0,0,1,24.67,18Zm4.25,6.67a1.21,1.21,0,1,1,1.21,1.21,1.21,1.21,0,0,1-1.21-1.21ZM24.67,23.5a1.21,1.21,0,1,1-1.21,1.21,1.21,1.21,0,0,1,1.21-1.21Zm5.46-3v3m-4.25-4.25h3m-4.25,1.21v3m1.21,1.21h3m-4.25-4.25V22m.85,1.87,1.07-1.07m-2.78,1.07-1.07-1.07m.72,1.93H21.95m1.87.85-1.07,1.07m1.93-.72v1.52m.85-1.87,1.07,1.07m2.67-2.78L28.2,22.78M31,23.85l1.07-1.07m-.72,1.93h1.52M31,25.56l1.07,1.07m-1.93-.72v1.52m-.85-1.87L28.2,26.64m-2.67-6.53,1.07,1.07m-2.78-1.07-1.07,1.07m.72-1.93H21.95m1.87-.85-1.07-1.07m1.93.72V16.52m.85,1.87,1.07-1.07m2.67,2.78L28.2,21.18M31,20.11l1.07,1.07m-.72-1.93h1.52M31,18.4l1.07-1.07M30.13,18V16.52m-.85,1.87L28.2,17.32"/><path class="cls-1" d="M35.59,18a1.21,1.21,0,1,0,1.21,1.21A1.21,1.21,0,0,0,35.59,18Zm1.21,1.21a1.21,1.21,0,1,0-1.21,1.21,1.21,1.21,0,0,0,1.21-1.21ZM41,18a1.21,1.21,0,1,0,1.21,1.21A1.21,1.21,0,0,0,41,18ZM36.8,24.71a1.21,1.21,0,1,0-1.21,1.21,1.21,1.21,0,0,0,1.21-1.21ZM41,23.5a1.21,1.21,0,1,0,1.21,1.21A1.21,1.21,0,0,0,41,23.5Zm-5.46-3v3m4.25-4.25h-3M41,20.46v3m-1.21,1.21h-3M41,20.46V22m-.85,1.87-1.07-1.07m2.78,1.07L43,22.78m-.72,1.93h1.52m-1.87.85L43,26.64M41,25.92v1.52m-.85-1.87-1.07,1.07m-2.67-2.78,1.07-1.07m-2.78,1.07-1.07-1.07m.72,1.93H32.86m1.87.85-1.07,1.07m1.93-.72v1.52m.85-1.87,1.07,1.07m2.67-6.53-1.07,1.07m2.78-1.07L43,21.18m-.72-1.93h1.52M41.9,18.4,43,17.32M41,18V16.52m-.85,1.87-1.07-1.07m-2.67,2.78,1.07,1.07m-2.78-1.07-1.07,1.07m.72-1.93H32.86m1.87-.85-1.07-1.07m1.93.72V16.52m.85,1.87,1.07-1.07"/><path class="cls-1" d="M52,18h0a1.21,1.21,0,0,0,0,2.42h0A1.21,1.21,0,0,1,52,18ZM46.5,18a1.21,1.21,0,1,1-1.21,1.21A1.21,1.21,0,0,1,46.5,18Zm4.25,6.67A1.21,1.21,0,0,1,52,23.5h0v2.42h0a1.21,1.21,0,0,1-1.21-1.21ZM46.5,23.5a1.21,1.21,0,1,1-1.21,1.21A1.21,1.21,0,0,1,46.5,23.5Zm5.46-3v3m-4.25-4.25h3M46.5,20.46v3m1.21,1.21h3M46.5,20.46V22m.85,1.87,1.07-1.07m-2.78,1.07-1.07-1.07m.72,1.93H43.77m1.87.85-1.07,1.07m1.93-.72v1.52m.85-1.87,1.07,1.07m2.67-2.78L50,22.78M52,25.92v1.52m-.85-1.87L50,26.64m-2.67-6.53,1.07,1.07m-2.78-1.07-1.07,1.07m.72-1.93H43.77m1.87-.86-1.07-1.07M46.5,18V16.52m.85,1.87,1.07-1.07m2.67,2.78L50,21.18M52,18V16.52M51.1,18.4,50,17.32"/><path class="cls-1" d="M8.62,80.44a1.21,1.21,0,1,0-1.23-2,1.21,1.21,0,1,1,1.23,2ZM7.09,73.82A1.21,1.21,0,1,0,8.3,72.61a1.21,1.21,0,0,0-1.21,1.21ZM8.3,78.07V75M4.93,73.82H7.09M4.28,72.38l.49-.49m2.67,2.78L6.37,75.75m2.78-1.07,1.07,1.07m-.72-1.93H11M9.16,73l1.07-1.07m-1.93.72V71.09M7.45,73,6.37,71.89m1.07,6.53-.23-.23m1.94.23,1.07-1.07m-.72,1.93H11m-1.87.85,1.07,1.07"/><path class="cls-1" d="M13.76,80.49A1.21,1.21,0,1,1,15,79.28a1.21,1.21,0,0,1-1.21,1.21ZM15,79.28a1.21,1.21,0,1,1-1.21-1.21A1.21,1.21,0,0,1,15,79.28Zm4.25,1.21a1.21,1.21,0,1,1,1.21-1.21,1.21,1.21,0,0,1-1.21,1.21ZM15,73.82a1.21,1.21,0,1,1-1.21-1.21A1.21,1.21,0,0,1,15,73.82ZM19.22,75a1.21,1.21,0,1,1,1.21-1.21A1.21,1.21,0,0,1,19.22,75Zm-5.46,3V75M18,79.28H15m4.25-1.21V75M18,73.82H15m4.25,4.25V76.55m-.85-1.87-1.07,1.07m2.78-1.07,1.07,1.07m-.72-1.93h1.52M20.07,73l1.07-1.07m-1.93.72V71.09M18.36,73l-1.07-1.07m-2.67,2.78,1.07,1.07m-2.78-1.07-1.07,1.07m.72-1.93H11M12.91,73l-1.07-1.07m1.93.72V71.09M14.62,73l1.07-1.07m2.67,6.53-1.07-1.07m2.78,1.07,1.07-1.07m-.72,1.93h1.52m-1.87.85,1.07,1.07m-1.93-.72V82m-.85-1.87-1.07,1.07m-2.67-2.78,1.07-1.07m-2.78,1.07-1.07-1.07m.72,1.93H11m1.87.85-1.07,1.07m1.93-.72V82m.85-1.87,1.07,1.07"/><path class="cls-1" d="M30.13,80.49a1.21,1.21,0,1,0-1.21-1.21,1.21,1.21,0,0,0,1.21,1.21Zm-1.21-1.21a1.21,1.21,0,1,0,1.21-1.21,1.21,1.21,0,0,0-1.21,1.21Zm-4.25,1.21a1.21,1.21,0,1,0-1.21-1.21,1.21,1.21,0,0,0,1.21,1.21Zm4.25-6.67a1.21,1.21,0,1,0,1.21-1.21,1.21,1.21,0,0,0-1.21,1.21ZM24.67,75a1.21,1.21,0,1,0-1.21-1.21A1.21,1.21,0,0,0,24.67,75Zm5.46,3V75m-4.25,4.25h3m-4.25-1.21V75m1.21-1.21h3m-4.25,4.25V76.55m.85-1.87,1.07,1.07m-2.78-1.07-1.07,1.07m.72-1.93H21.95M23.82,73l-1.07-1.07m1.93.72V71.09M25.53,73l1.07-1.07m2.67,2.78L28.2,75.75M31,74.67l1.07,1.07m-.72-1.93h1.52M31,73l1.07-1.07m-1.93.72V71.09M29.28,73,28.2,71.89m-2.67,6.53,1.07-1.07m-2.78,1.07-1.07-1.07m.72,1.93H21.95m1.87.85-1.07,1.07m1.93-.72V82m.85-1.87,1.07,1.07m2.67-2.78L28.2,77.35M31,78.42l1.07-1.07m-.72,1.93h1.52M31,80.13l1.07,1.07m-1.93-.72V82m-.85-1.87L28.2,81.21"/><path class="cls-1" d="M35.59,80.49a1.21,1.21,0,1,1,1.21-1.21,1.21,1.21,0,0,1-1.21,1.21Zm1.21-1.21a1.21,1.21,0,1,1-1.21-1.21,1.21,1.21,0,0,1,1.21,1.21ZM41,80.49a1.21,1.21,0,1,1,1.21-1.21A1.21,1.21,0,0,1,41,80.49ZM36.8,73.82a1.21,1.21,0,1,1-1.21-1.21,1.21,1.21,0,0,1,1.21,1.21ZM41,75a1.21,1.21,0,1,1,1.21-1.21A1.21,1.21,0,0,1,41,75Zm-5.46,3V75m4.25,4.25h-3M41,78.07V75m-1.21-1.21h-3M41,78.07V76.55m-.85-1.87-1.07,1.07m2.78-1.07L43,75.75m-.72-1.93h1.52M41.9,73,43,71.89M41,72.61V71.09M40.19,73l-1.07-1.07m-2.67,2.78,1.07,1.07m-2.78-1.07-1.07,1.07m.72-1.93H32.86M34.73,73l-1.07-1.07m1.93.72V71.09M36.44,73l1.07-1.07m2.67,6.53-1.07-1.07m2.78,1.07L43,77.35m-.72,1.93h1.52m-1.87.85L43,81.21M41,80.49V82m-.85-1.87-1.07,1.07m-2.67-2.78,1.07-1.07m-2.78,1.07-1.07-1.07m.72,1.93H32.86m1.87.85-1.07,1.07m1.93-.72V82m.85-1.87,1.07,1.07"/><path class="cls-1" d="M52,80.49h0a1.21,1.21,0,1,1,0-2.42h0a1.21,1.21,0,1,0,0,2.42Zm-5.46,0a1.21,1.21,0,1,0-1.21-1.21,1.21,1.21,0,0,0,1.21,1.21Zm4.25-6.67A1.21,1.21,0,0,0,52,75h0V72.61h0a1.21,1.21,0,0,0-1.21,1.21ZM46.5,75a1.21,1.21,0,1,0-1.21-1.21A1.21,1.21,0,0,0,46.5,75Zm5.46,3V75m-4.25,4.25h3M46.5,78.07V75m1.21-1.21h3M46.5,78.07V76.55m.85-1.87,1.07,1.07m-2.78-1.07-1.07,1.07m.72-1.93H43.77M45.65,73l-1.07-1.07m1.93.72V71.09M47.36,73l1.07-1.07m2.67,2.78L50,75.75M52,72.61v-1M51.1,73,50,71.89m-2.67,6.53,1.07-1.07m-2.78,1.07-1.07-1.07m.72,1.93H43.77m1.87.85-1.07,1.07m1.93-.72V82m.85-1.87,1.07,1.07m2.67-2.78L50,77.35M52,80.49V82m-.85-1.87L50,81.21"/><path class="cls-1" d="M8.3,61.7a1.21,1.21,0,1,1-1.21,1.21A1.21,1.21,0,0,1,8.3,61.7ZM3.16,69.53q-.41-1.13-.76-2.29a1.21,1.21,0,1,1,.76,2.29Zm3.93-6.62A1.21,1.21,0,1,1,8.3,64.12a1.21,1.21,0,0,1-1.21-1.21ZM2.85,61.7a1.21,1.21,0,1,1-1.21,1.21A1.21,1.21,0,0,1,2.85,61.7Zm4.25,6.67A1.21,1.21,0,1,1,8.3,69.57a1.21,1.21,0,0,1-1.21-1.21ZM8.3,64.12v3M4.06,62.91h3M2.85,64.12v3m1.21,1.21h3M2.85,64.12v1.52m.85,1.87,1.07-1.07M3.7,69.22l1.07,1.07m2.67-2.78L6.37,66.43m2.78,1.07,1.07-1.07m-.72,1.93H11m-1.87.85,1.07,1.07M8.3,69.57v1.52m-.85-1.87L6.37,70.29M3.7,63.76l1.07,1.07M2,63.76l-.43.43m.07-1.28H1.27M2,62.05.92,61m1.93.72V60.18m.85,1.87L4.78,61m2.67,2.78L6.37,64.84m2.78-1.07,1.07,1.07m-.72-1.93H11m-1.87-.85L10.23,61M8.3,61.7V60.18m-.86,1.87L6.37,61"/><path class="cls-1" d="M13.76,61.7A1.21,1.21,0,1,0,15,62.91a1.21,1.21,0,0,0-1.21-1.21ZM15,62.91a1.21,1.21,0,1,0-1.21,1.21A1.21,1.21,0,0,0,15,62.91Zm4.25-1.21a1.21,1.21,0,1,0,1.21,1.21,1.21,1.21,0,0,0-1.21-1.21ZM15,68.36a1.21,1.21,0,1,0-1.21,1.21A1.21,1.21,0,0,0,15,68.36Zm4.25-1.21a1.21,1.21,0,1,0,1.21,1.21,1.21,1.21,0,0,0-1.21-1.21Zm-5.46-3v3M18,62.91H15m4.25,1.21v3M18,68.36H15m4.25-4.25v1.52m-.85,1.87-1.07-1.07m2.78,1.07,1.07-1.07m-.72,1.93h1.52m-1.87.85,1.07,1.07m-1.93-.72v1.52m-.85-1.87-1.07,1.07m-2.67-2.78,1.07-1.07m-2.78,1.07-1.07-1.07m.72,1.93H11m1.87.85-1.07,1.07m1.93-.72v1.52m.85-1.87,1.07,1.07m2.67-6.53-1.07,1.07m2.78-1.07,1.07,1.07m-.72-1.93h1.52m-1.87-.85L21.15,61m-1.93.72V60.18m-.85,1.87L17.29,61m-2.67,2.78,1.07,1.07m-2.78-1.07-1.07,1.07m.72-1.93H11m1.87-.85L11.83,61m1.93.72V60.18m.86,1.87L15.69,61"/><path class="cls-1" d="M30.13,61.7a1.21,1.21,0,1,1-1.21,1.21,1.21,1.21,0,0,1,1.21-1.21Zm-1.21,1.21a1.21,1.21,0,1,1,1.21,1.21,1.21,1.21,0,0,1-1.21-1.21ZM24.67,61.7a1.21,1.21,0,1,1-1.21,1.21,1.21,1.21,0,0,1,1.21-1.21Zm4.25,6.67a1.21,1.21,0,1,1,1.21,1.21,1.21,1.21,0,0,1-1.21-1.21Zm-4.25-1.21a1.21,1.21,0,1,1-1.21,1.21,1.21,1.21,0,0,1,1.21-1.21Zm5.46-3v3m-4.25-4.25h3m-4.25,1.21v3m1.21,1.21h3m-4.25-4.25v1.52m.85,1.87,1.07-1.07m-2.78,1.07-1.07-1.07m.72,1.93H21.95m1.87.85-1.07,1.07m1.93-.72v1.52m.85-1.87,1.07,1.07m2.67-2.78L28.2,66.43M31,67.51l1.07-1.07m-.72,1.93h1.52M31,69.22l1.07,1.07m-1.93-.72v1.52m-.85-1.87L28.2,70.29m-2.67-6.53,1.07,1.07m-2.78-1.07-1.07,1.07m.72-1.93H21.95m1.87-.85L22.74,61m1.93.72V60.18m.85,1.87L26.6,61m2.67,2.78L28.2,64.84M31,63.76l1.07,1.07m-.72-1.93h1.52M31,62.05,32.06,61m-1.93.72V60.18m-.85,1.87L28.2,61"/><path class="cls-1" d="M35,61.86a1.21,1.21,0,1,0,1.34,2,1.21,1.21,0,1,1-1.34-2Zm6.38,2.21q-.38-.34-.74-.7t-.73-.79a1.21,1.21,0,1,1,1.48,1.48Zm-1.28,3.56a19.79,19.79,0,0,0,2,1.34,1.21,1.21,0,1,1-2-1.34Zm-3.28.72a1.21,1.21,0,1,0-1.21,1.21,1.21,1.21,0,0,0,1.21-1.21Zm-1.21-4.25v3m4.25,1.21h-3m5.1.85L43,70.29M41,69.57v1.52m-.85-1.87-1.07,1.07m-2.67-2.78,1.07-1.07m-2.78,1.07-1.07-1.07m.72,1.93H32.86m1.87.85-1.07,1.07m1.93-.72v1.52m.86-1.87,1.07,1.07m4.38-6.53L43,64.84m-.72-1.93h1.52m-1.87-.85L43,61M41,61.7V60.18m-.85,1.87L39.11,61m-4.38,2.78-1.07,1.07m.72-1.93H32.86m1.87-.85L33.66,61"/><path class="cls-1" d="M52,61.7h0a1.21,1.21,0,1,0,0,2.42h0a1.21,1.21,0,1,1,0-2.42Zm0,6.39q-.6,0-1.19,0A1.21,1.21,0,0,1,52,67.15h0v.94Zm-4.81-.74-.59-.2a1.2,1.2,0,0,1,.59.2ZM46.5,61.7a1.21,1.21,0,1,1-1.21,1.21A1.21,1.21,0,0,1,46.5,61.7ZM52,64.12v3m-4.25-4.25h3M46.5,64.12v3m0-3v1.52m.93,1.8,1-1m-3.8,3.8-.06.06m1.93.59v.21m4.6-3.58L50,66.43m-2.67-2.67,1.07,1.07m-2.78-1.07-1.07,1.07m.72-1.93H43.77m1.87-.85L44.57,61m1.93.72V60.18m.85,1.87L48.43,61m2.67,2.78L50,64.84M52,61.7V60.18m-.85,1.87L50,61"/><path class="cls-1" d="M8.3,39.87a1.21,1.21,0,1,1-1.21,1.21A1.21,1.21,0,0,1,8.3,39.87ZM7.09,41.08A1.21,1.21,0,1,1,8.3,42.29a1.21,1.21,0,0,1-1.21-1.21ZM2.85,39.87a1.21,1.21,0,1,1-1.21,1.21,1.21,1.21,0,0,1,1.21-1.21Zm4.25,6.67A1.21,1.21,0,1,1,8.3,47.74a1.21,1.21,0,0,1-1.21-1.21ZM2.85,45.33a1.21,1.21,0,1,1-1.21,1.21,1.21,1.21,0,0,1,1.21-1.21Zm5.46-3v3M4.06,41.08h3M2.85,42.29v3m1.21,1.21h3M2.85,42.29v1.52m.85,1.87,1.07-1.07M2,45.68.92,44.61m.72,1.93H.41M2,47.39.92,48.47m1.93-.72v1.52m.85-1.87,1.07,1.07m2.67-2.78L6.37,44.61m2.78,1.07,1.07-1.07m-.72,1.93H11m-1.87.85,1.07,1.07M8.3,47.74v1.52m-.85-1.87L6.37,48.47M3.7,41.93,4.78,43M2,41.93.92,43m.72-1.93H1.27M2,40.22l-.43-.43m1.28.07V38.35m.85,1.87,1.07-1.07m2.67,2.78L6.37,43m2.78-1.07L10.23,43m-.72-1.93H11m-1.87-.85,1.07-1.07m-1.93.72V38.35m-.85,1.87L6.37,39.15"/><path class="cls-1" d="M13.76,39.87A1.21,1.21,0,1,0,15,41.08a1.21,1.21,0,0,0-1.21-1.21ZM15,41.08a1.21,1.21,0,1,0-1.21,1.21A1.21,1.21,0,0,0,15,41.08Zm4.25-1.21a1.21,1.21,0,1,0,1.21,1.21,1.21,1.21,0,0,0-1.21-1.21ZM15,46.54a1.21,1.21,0,1,0-1.21,1.21A1.21,1.21,0,0,0,15,46.54Zm4.25-1.21a1.21,1.21,0,1,0,1.21,1.21,1.21,1.21,0,0,0-1.21-1.21Zm-5.46-3v3M18,41.08H15m4.25,1.21v3M18,46.54H15m4.25-4.25v1.52m-.85,1.87-1.07-1.07m2.78,1.07,1.07-1.07m-.72,1.93h1.52m-1.87.85,1.07,1.07m-1.93-.72v1.52m-.85-1.87-1.07,1.07m-2.67-2.78,1.07-1.07m-2.78,1.07-1.07-1.07m.72,1.93H11m1.87.85-1.07,1.07m1.93-.72v1.52m.86-1.87,1.07,1.07m2.67-6.53L17.29,43m2.78-1.07L21.15,43m-.72-1.93h1.52m-1.87-.85,1.07-1.07m-1.93.72V38.35m-.85,1.87-1.07-1.07m-2.67,2.78L15.69,43m-2.78-1.07L11.83,43m.72-1.93H11m1.87-.85-1.07-1.07m1.93.72V38.35m.86,1.87,1.07-1.07"/><path class="cls-1" d="M30.13,39.87a1.21,1.21,0,1,1-1.21,1.21,1.21,1.21,0,0,1,1.21-1.21Zm-1.21,1.21a1.21,1.21,0,1,1,1.21,1.21,1.21,1.21,0,0,1-1.21-1.21Zm-4.25-1.21a1.21,1.21,0,1,1-1.21,1.21,1.21,1.21,0,0,1,1.21-1.21Zm4.25,6.67a1.21,1.21,0,1,1,1.21,1.21,1.21,1.21,0,0,1-1.21-1.21Zm-4.25-1.21a1.21,1.21,0,1,1-1.21,1.21,1.21,1.21,0,0,1,1.21-1.21Zm5.46-3v3m-4.25-4.25h3m-4.25,1.21v3m1.21,1.21h3m-4.25-4.25v1.52m.85,1.87,1.07-1.07m-2.78,1.07-1.07-1.07m.72,1.93H21.95m1.87.85-1.07,1.07m1.93-.72v1.52m.85-1.87,1.07,1.07m2.67-2.78L28.2,44.61M31,45.68l1.07-1.07m-.72,1.93h1.52M31,47.39l1.07,1.07m-1.93-.72v1.52m-.85-1.87L28.2,48.47m-2.67-6.53L26.6,43m-2.78-1.07L22.74,43m.72-1.93H21.95m1.87-.85-1.07-1.07m1.93.72V38.35m.85,1.87,1.07-1.07m2.67,2.78L28.2,43M31,41.93,32.06,43m-.72-1.93h1.52M31,40.22l1.07-1.07m-1.93.72V38.35m-.85,1.87L28.2,39.15"/><path class="cls-1" d="M35.59,39.87A1.21,1.21,0,0,0,35,42.12a1.21,1.21,0,1,1,1.34-2,1.2,1.2,0,0,0-.73-.25Zm5,.74q.36-.36.75-.7a1.21,1.21,0,1,1-1.48,1.48q.35-.4.73-.78Zm-4,6.51.14-.41a1.2,1.2,0,0,1-.14.41ZM41,45.33a1.21,1.21,0,1,0,1.21,1.21A1.21,1.21,0,0,0,41,45.33Zm0-3v3m-1.21,1.21h-3M41,42.29v1.52m-.85,1.87-1.07-1.07m2.78,1.07L43,44.61m-.72,1.93h1.52m-1.87.85L43,48.47M41,47.74v1.52m-.85-1.87-1.07,1.07m-5.38-3.78-.07-.07m-.56,1.93h-.24m3.68.95,1,1m2.67-6.53L39.11,43m2.78-1.07L43,43m-.72-1.93h1.52m-1.87-.85L43,39.15m-8.24,2.78L33.66,43m.72-1.93H32.86m1.87-.85-1.07-1.07m1.93.72V38.35"/><path class="cls-1" d="M52,39.87h0a1.21,1.21,0,0,0,0,2.42h0a1.21,1.21,0,0,1,0-2.42Zm-5.46,0a1.21,1.21,0,1,1-1.21,1.21,1.21,1.21,0,0,1,1.21-1.21Zm4.25,6.67A1.21,1.21,0,0,1,52,45.33h0v2.42h0a1.21,1.21,0,0,1-1.21-1.21ZM46.5,45.33a1.21,1.21,0,1,1-1.21,1.21,1.21,1.21,0,0,1,1.21-1.21Zm5.46-3v3m-4.25-4.25h3M46.5,42.29v3m1.21,1.21h3M46.5,42.29v1.52m.85,1.87,1.07-1.07m-2.78,1.07-1.07-1.07m.72,1.93H43.77m1.87.85-1.07,1.07m1.93-.72v1.52m.85-1.87,1.07,1.07m2.67-2.78L50,44.61M52,47.74v1.52m-.85-1.87L50,48.47m-2.67-6.53L48.43,43m-2.78-1.07L44.57,43m.72-1.93H43.77m1.87-.85-1.07-1.07m1.93.72V38.35m.85,1.87,1.07-1.07m2.67,2.78L50,43M52,39.87V38.35m-.85,1.87L50,39.15"/><path class="cls-1" d="M8.3,58.66a1.21,1.21,0,1,0-1.21-1.21A1.21,1.21,0,0,0,8.3,58.66ZM7.09,57.45A1.21,1.21,0,1,0,8.3,56.24a1.21,1.21,0,0,0-1.21,1.21ZM2.85,58.66a1.21,1.21,0,1,0-1.21-1.21,1.21,1.21,0,0,0,1.21,1.21ZM7.09,52A1.21,1.21,0,1,0,8.3,50.78,1.21,1.21,0,0,0,7.09,52ZM2.85,53.2A1.21,1.21,0,1,0,1.64,52,1.21,1.21,0,0,0,2.85,53.2Zm5.46,3v-3M4.06,57.45h3M2.85,56.24v-3M4.06,52h3M2.85,56.24V54.72m.85-1.87,1.07,1.07M2,52.85.92,53.92M1.64,52H.12M2,51.14.92,50.06m1.93.72V49.26m.85,1.87,1.07-1.07m2.67,2.78L6.37,53.92m2.78-1.07,1.07,1.07M9.51,52H11m-1.87-.86,1.07-1.07m-1.93.72V49.26m-.85,1.87L6.37,50.06M3.7,56.59l1.07-1.07M2,56.59.92,55.52m.72,1.93H.41M2,58.3.92,59.38m1.93-.72v1.52M3.7,58.3l1.07,1.07m2.67-2.78L6.37,55.52m2.78,1.07,1.07-1.07m-.72,1.93H11m-1.87.85,1.07,1.07M8.3,58.66v1.52M7.45,58.3,6.37,59.38"/><path class="cls-1" d="M13.76,58.66A1.21,1.21,0,1,1,15,57.45a1.21,1.21,0,0,1-1.21,1.21ZM15,57.45a1.21,1.21,0,1,1-1.21-1.21A1.21,1.21,0,0,1,15,57.45Zm4.25,1.21a1.21,1.21,0,1,1,1.21-1.21,1.21,1.21,0,0,1-1.21,1.21ZM15,52a1.21,1.21,0,1,1-1.21-1.21A1.21,1.21,0,0,1,15,52Zm4.25,1.21A1.21,1.21,0,1,1,20.43,52a1.21,1.21,0,0,1-1.21,1.21Zm-5.46,3v-3M18,57.45H15m4.25-1.21v-3M18,52H15m4.25,4.25V54.72m-.85-1.87-1.07,1.07m2.78-1.07,1.07,1.07M20.43,52h1.52m-1.87-.85,1.07-1.07m-1.93.72V49.26m-.85,1.87-1.07-1.07m-2.67,2.78,1.07,1.07m-2.78-1.07-1.07,1.07M12.55,52H11m1.87-.86-1.07-1.07m1.93.72V49.26m.85,1.87,1.07-1.07m2.67,6.53-1.07-1.07m2.78,1.07,1.07-1.07m-.72,1.93h1.52m-1.87.85,1.07,1.07m-1.93-.72v1.52m-.85-1.87-1.07,1.07m-2.67-2.78,1.07-1.07m-2.78,1.07-1.07-1.07m.72,1.93H11m1.87.85-1.07,1.07m1.93-.72v1.52m.86-1.87,1.07,1.07"/><path class="cls-1" d="M30.13,58.66a1.21,1.21,0,1,0-1.21-1.21,1.21,1.21,0,0,0,1.21,1.21Zm-1.21-1.21a1.21,1.21,0,1,0,1.21-1.21,1.21,1.21,0,0,0-1.21,1.21Zm-4.25,1.21a1.21,1.21,0,1,0-1.21-1.21,1.21,1.21,0,0,0,1.21,1.21ZM28.92,52a1.21,1.21,0,1,0,1.21-1.21A1.21,1.21,0,0,0,28.92,52ZM24.67,53.2A1.21,1.21,0,1,0,23.46,52a1.21,1.21,0,0,0,1.21,1.21Zm5.46,3v-3m-4.25,4.25h3m-4.25-1.21v-3M25.88,52h3m-4.25,4.25V54.72m.85-1.87,1.07,1.07m-2.78-1.07-1.07,1.07M23.46,52H21.95m1.87-.85-1.07-1.07m1.93.72V49.26m.85,1.87,1.07-1.07m2.67,2.78L28.2,53.92M31,52.85l1.07,1.07M31.34,52h1M31,51.14l1.07-1.07m-1.93.72V49.26m-.85,1.87L28.2,50.06m-2.67,6.53,1.07-1.07m-2.78,1.07-1.07-1.07m.72,1.93H21.95m1.87.85-1.07,1.07m1.93-.72v1.52m.85-1.87,1.07,1.07m2.67-2.78L28.2,55.52M31,56.59l1.07-1.07m-.72,1.93h1.52M31,58.3l1.07,1.07m-1.93-.72v1.52m-.86-1.87L28.2,59.38"/><path class="cls-1" d="M36.65,56.87a1.21,1.21,0,0,1,.14.41,1.21,1.21,0,0,0-.14-.41Zm-.71-3.72q0-.57,0-1.16t0-1.16a1.21,1.21,0,0,1,0,2.31ZM41,58.66a1.21,1.21,0,1,1,1.21-1.21A1.21,1.21,0,0,1,41,58.66Zm0-5.46A1.21,1.21,0,1,1,42.25,52,1.21,1.21,0,0,1,41,53.2Zm-1.21,4.25h-3M41,56.24v-3M39.83,52h-3M41,56.24V54.72m-.85-1.87-1.07,1.07m2.78-1.07L43,53.92M42.25,52h1.52m-1.87-.85L43,50.06M41,50.78V49.26m-.85,1.87-1.07-1.07m-2.67,2.78,1.07,1.07m-1.07-2.78,1.07-1.07m2.67,6.53-1.07-1.07m2.78,1.07L43,55.52m-.72,1.93h1.52m-1.87.85L43,59.38M41,58.66v1.52m-.85-1.87-1.07,1.07M36.54,56.5l1-1m-4.42,1.93h-.24m.87,1.86-.07.07"/><path class="cls-1" d="M52,58.66h0a1.21,1.21,0,0,1,0-2.42h0a1.21,1.21,0,0,0,0,2.42Zm-5.46,0a1.21,1.21,0,1,0-1.21-1.21,1.21,1.21,0,0,0,1.21,1.21ZM50.75,52A1.21,1.21,0,0,0,52,53.2h0V50.78h0A1.21,1.21,0,0,0,50.75,52ZM46.5,53.2A1.21,1.21,0,1,0,45.29,52,1.21,1.21,0,0,0,46.5,53.2Zm5.46,3v-3m-4.25,4.25h3M46.5,56.24v-3M47.71,52h3M46.5,56.24V54.72m.85-1.87,1.07,1.07m-2.78-1.07-1.07,1.07M45.29,52H43.77m1.87-.86-1.07-1.07m1.93.72V49.26m.85,1.87,1.07-1.07m2.67,2.78L50,53.92M52,50.78V49.26m-.85,1.87L50,50.06m-2.67,6.53,1.07-1.07m-2.78,1.07-1.07-1.07m.72,1.93H43.77m1.87.85-1.07,1.07m1.93-.72v1.52m.85-1.87,1.07,1.07m2.67-2.78L50,55.52M52,58.66v1.52M51.1,58.3,50,59.38"/><path class="cls-1" d="M13.76,83.52A1.21,1.21,0,1,0,15,84.73a1.21,1.21,0,0,0-1.21-1.21ZM15,84.73a1.21,1.21,0,1,0-1.21,1.21A1.21,1.21,0,0,0,15,84.73Zm4.25-1.21a1.21,1.21,0,1,0,1.21,1.21,1.21,1.21,0,0,0-1.21-1.21Zm0,5.46a1.21,1.21,0,1,0,1.21,1.21A1.21,1.21,0,0,0,19.22,89Zm-5.46-3V87M18,84.73H15m4.25,1.21v3M18,90.19H16.9m2.31-4.25v1.52m-.85,1.87-1.07-1.07m2.78,1.07,1.07-1.07m-.72,1.93h1.52M20.07,91l1.07,1.07m-1.93-.72v.8M18.36,91l-.24.24M15.3,88.65l.39-.39m2.67-2.67-1.07,1.07m2.78-1.07,1.07,1.07m-.72-1.93h1.52m-1.87-.85,1.07-1.07m-1.93.72V82m-.85,1.87L17.29,82.8m-2.67,2.78,1.07,1.07m-2.78-1.07-.23.23m-.12-1.09h-.79m1.14-.85L11.83,82.8m1.93.72V82m.85,1.87,1.07-1.07"/><path class="cls-1" d="M30.13,83.52a1.21,1.21,0,1,1-1.21,1.21,1.21,1.21,0,0,1,1.21-1.21Zm-1.21,1.21a1.21,1.21,0,1,1,1.21,1.21,1.21,1.21,0,0,1-1.21-1.21Zm-4.25-1.21a1.21,1.21,0,1,1-1.21,1.21,1.21,1.21,0,0,1,1.21-1.21Zm4.25,6.67a1.21,1.21,0,1,1,1.21,1.21,1.21,1.21,0,0,1-1.21-1.21ZM24.67,89a1.21,1.21,0,1,1-1.21,1.21A1.21,1.21,0,0,1,24.67,89Zm5.46-3v3m-4.25-4.25h3m-4.25,1.21v3m1.21,1.21h3m-4.25-4.25v1.52m.85,1.87,1.07-1.07m-2.78,1.07-1.07-1.07m.72,1.93H21.95m1.87.85-1.07,1.07m1.93-.72v1.52M25.53,91l1.07,1.07m2.67-2.78L28.2,88.26M31,89.34l1.07-1.07m-.72,1.93h1.52M31,91l1.07,1.07m-1.93-.72v1.52M29.28,91,28.2,92.12m-2.67-6.53,1.07,1.07m-2.78-1.07-1.07,1.07m.72-1.93H21.95m1.87-.85L22.74,82.8m1.93.72V82m.85,1.87L26.6,82.8m2.67,2.78L28.2,86.66M31,85.59l1.07,1.07m-.72-1.93h1.52M31,83.88l1.07-1.07m-1.93.72V82m-.86,1.87L28.2,82.8"/><path class="cls-1" d="M35.59,83.52a1.21,1.21,0,1,0,1.21,1.21,1.21,1.21,0,0,0-1.21-1.21Zm1.21,1.21a1.21,1.21,0,1,0-1.21,1.21,1.21,1.21,0,0,0,1.21-1.21ZM41,83.52a1.21,1.21,0,1,0,1.21,1.21A1.21,1.21,0,0,0,41,83.52ZM36.8,90.19a1.21,1.21,0,1,0-1.21,1.21,1.21,1.21,0,0,0,1.21-1.21ZM41,89a1.21,1.21,0,1,0,1.21,1.21A1.21,1.21,0,0,0,41,89Zm-5.46-3v3m4.25-4.25h-3M41,85.94v3m-1.21,1.21h-3M41,85.94v1.52m-.85,1.87-1.07-1.07m2.78,1.07L43,88.26m-.72,1.93h1.52M41.9,91,43,92.12M41,91.4v1.52M40.19,91l-1.07,1.07m-2.67-2.78,1.07-1.07m-2.78,1.07-1.07-1.07m.72,1.93H32.86m1.87.85-1.07,1.07m1.93-.72v1.52M36.44,91l1.07,1.07m2.67-6.53-1.07,1.07m2.78-1.07L43,86.66m-.72-1.93h1.52m-1.87-.85L43,82.8M41,83.52V82m-.85,1.87L39.11,82.8m-2.67,2.78,1.07,1.07m-2.78-1.07-1.07,1.07m.72-1.93H32.86m1.87-.85L33.66,82.8m1.93.72V82m.85,1.87,1.07-1.07"/><path class="cls-1" d="M52,83.52h0a1.21,1.21,0,0,0,0,2.42h0a1.21,1.21,0,0,1,0-2.42Zm-5.46,0a1.21,1.21,0,1,1-1.21,1.21,1.21,1.21,0,0,1,1.21-1.21Zm4.25,6.67A1.21,1.21,0,0,1,52,89h0V91.4h0a1.21,1.21,0,0,1-1.21-1.21ZM46.5,89a1.21,1.21,0,1,1-1.21,1.21A1.21,1.21,0,0,1,46.5,89Zm5.46-3v3m-4.25-4.25h3M46.5,85.94v3m1.21,1.21h3M46.5,85.94v1.52m.85,1.87,1.07-1.07m-2.78,1.07-1.07-1.07m.72,1.93H43.77m1.87.85-1.07,1.07m1.93-.72v1.52M47.36,91l1.07,1.07m2.67-2.78L50,88.26M52,91.4v1.52M51.1,91,50,92.12m-2.67-6.53,1.07,1.07m-2.78-1.07-1.07,1.07m.72-1.93H43.77m1.87-.85L44.57,82.8m1.93.72V82m.85,1.87,1.07-1.07m2.67,2.78L50,86.66M52,83.52V82m-.85,1.87L50,82.8"/><path class="cls-1" d="M25.46,96.57q-1-.59-2-1.22a1.21,1.21,0,1,1,2,1.22Zm3.47-.92a1.21,1.21,0,1,0,1.21-1.21,1.21,1.21,0,0,0-1.21,1.21ZM30.13,99V96.86m-4.25-1.21h3m-3.39.85.27.27m-2-2-1.07-1.07m1.93.72V92.92m.85,1.87,1.07-1.07m2.67,2.78L28.2,97.58M31,96.5l1.07,1.07m-.72-1.93h1.52M31,94.79l1.07-1.07m-1.93.72V92.92m-.85,1.87L28.2,93.72m3.35,6,.51-.51"/><path class="cls-1" d="M34.41,100.81a1.21,1.21,0,1,1,2.29.76,1.21,1.21,0,1,0-2.29-.76ZM41,102.31a1.21,1.21,0,1,1,1.21-1.21A1.21,1.21,0,0,1,41,102.31ZM36.8,95.65a1.21,1.21,0,1,1-1.21-1.21,1.21,1.21,0,0,1,1.21,1.21ZM41,96.86a1.21,1.21,0,1,1,1.21-1.21A1.21,1.21,0,0,1,41,96.86Zm-5.46,3v-3m4.25,4.25h-3M41,99.89v-3m-1.21-1.21h-3M41,99.89V98.38m-.85-1.87-1.07,1.07M41.9,96.5,43,97.58m-.72-1.93h1.52m-1.87-.85L43,93.72M41,94.44V92.92m-.85,1.87-1.07-1.07M36.44,96.5l1.07,1.07M34.73,96.5l-1.07,1.07m.72-1.93H32.86m1.87-.85-1.07-1.07m1.93.72V92.92m.85,1.87,1.07-1.07m2.67,6.53-1.07-1.07m2.78,1.07L43,99.17m-.72,1.93h1.52M41.9,102,43,103M41,102.31v.39m-.85-.75-.45.45m-3.3-2.16,1.07-1.07m-2.78,1.07-1.07-1.07"/><path class="cls-1" d="M52,102.31h0a1.21,1.21,0,1,1,0-2.42h0a1.21,1.21,0,1,0,0,2.42Zm-5.46,0a1.21,1.21,0,1,0-1.21-1.21,1.21,1.21,0,0,0,1.21,1.21Zm4.25-6.67A1.21,1.21,0,0,0,52,96.86h0V94.44h0a1.21,1.21,0,0,0-1.21,1.21ZM46.5,96.86a1.21,1.21,0,1,0-1.21-1.21,1.21,1.21,0,0,0,1.21,1.21Zm5.46,3v-3m-4.25,4.25h3M46.5,99.89v-3m1.21-1.21h3M46.5,99.89V98.38m.85-1.87,1.07,1.07M45.65,96.5l-1.07,1.07m.72-1.93H43.77m1.87-.85-1.07-1.07m1.93.72V92.92m.85,1.87,1.07-1.07M51.1,96.5,50,97.58M52,94.44V92.92m-.85,1.87L50,93.72m-2.67,6.53,1.07-1.07m-2.78,1.07-1.07-1.07m.72,1.93H43.77m1.87.85L44.57,103m1.93-.72v1.26m.85-1.62L48.43,103m2.67-2.78L50,99.17M52,102.31v1.52M51.1,102,50,103"/><line class="cls-2" x1="51.96" y1="103.86" x2="51.96" y2="103.83"/><path class="cls-1" d="M40.61,40.61A16,16,0,0,1,52,35.9V68.09A16.1,16.1,0,0,1,40.61,40.61ZM15.32,15.32A51.71,51.71,0,0,1,52,.12v32.2a19.67,19.67,0,0,0,0,39.33v32.2A51.87,51.87,0,0,1,15.32,15.32Z"/><path class="cls-1" d="M57.64,1.67a1.21,1.21,0,0,1,0,2.42V1.67Zm.83.35L59.55,1m-.72,1.93h1.52m-1.87.85,1.07,1.07"/><path class="cls-1" d="M64.29,2.88a1.21,1.21,0,1,0-1.21,1.21,1.21,1.21,0,0,0,1.21-1.21Zm4.25-1.21a1.21,1.21,0,1,0,1.21,1.21,1.21,1.21,0,0,0-1.21-1.21ZM63.08.4V1.67m5.46-.41v.41M67.33,2.88h-3M67.68,2,66.61,1M69.39,2l.46-.46m-.11,1.32h1.52m-1.87.85,1.07,1.07m-1.93-.72V5.61m-.85-1.87L66.61,4.81M63.93,2,65,1M62.22,2,61.15,1m.72,1.93H60.35m1.87.85L61.15,4.81m1.93-.72V5.61m.86-1.87L65,4.81"/><path class="cls-1" d="M72.89,2.4q1.15.35,2.28.76a1.21,1.21,0,1,1-2.28-.76Zm-.1.49H71.26m1.87.85L72.06,4.81M74,4.09V5.61m.85-1.87,1.07,1.07m3.53.1v.7M78,4.28l-.53.53"/><path class="cls-1" d="M57.64,15a1.21,1.21,0,0,0,0-2.42,1.21,1.21,0,0,1,0,2.42Zm0-5.46V7.13a1.21,1.21,0,0,1,0,2.42Zm.83-.35,1.07,1.07m-.72-1.93h1.52m-1.87-.85,1.07-1.07m-1.07,6.53,1.07-1.07m-.72,1.93h1.52m-1.87.85,1.07,1.07"/><path class="cls-1" d="M63.08,15a1.21,1.21,0,1,1,1.21-1.21A1.21,1.21,0,0,1,63.08,15Zm1.21-1.21a1.21,1.21,0,1,1-1.21-1.21,1.21,1.21,0,0,1,1.21,1.21ZM68.54,15a1.21,1.21,0,1,1,1.21-1.21A1.21,1.21,0,0,1,68.54,15ZM64.29,8.34a1.21,1.21,0,1,1-1.21-1.21,1.21,1.21,0,0,1,1.21,1.21Zm4.25,1.21a1.21,1.21,0,1,1,1.21-1.21,1.21,1.21,0,0,1-1.21,1.21Zm-5.46,3v-3m4.25,4.25h-3m4.25-1.21v-3M67.33,8.34h-3m4.25,4.25V11.07m-.85-1.87-1.07,1.07m2.78-1.07,1.07,1.07m-.72-1.93h1.52m-1.87-.85,1.07-1.07m-1.93.72V5.61m-.85,1.87L66.61,6.41M63.93,9.19,65,10.27M62.22,9.19l-1.07,1.07m.72-1.93H60.35m1.87-.85L61.15,6.41m1.93.72V5.61m.86,1.87L65,6.41m2.67,6.53-1.07-1.07m2.78,1.07,1.07-1.07m-.72,1.93h1.52m-1.87.85,1.07,1.07M68.54,15v1.52m-.85-1.87-1.07,1.07m-2.67-2.78L65,11.87m-2.78,1.07-1.07-1.07m.72,1.93H60.35m1.87.85-1.07,1.07M63.08,15v1.52m.85-1.87L65,15.72"/><path class="cls-1" d="M79.45,15a1.21,1.21,0,1,0-1.21-1.21A1.21,1.21,0,0,0,79.45,15ZM78.24,13.8a1.21,1.21,0,1,0,1.21-1.21,1.21,1.21,0,0,0-1.21,1.21ZM74,15a1.21,1.21,0,1,0-1.21-1.21A1.21,1.21,0,0,0,74,15Zm4.25-6.67a1.21,1.21,0,1,0,1.21-1.21,1.21,1.21,0,0,0-1.21,1.21ZM74,9.55a1.21,1.21,0,1,0-1.21-1.21A1.21,1.21,0,0,0,74,9.55Zm5.46,3v-3M75.2,13.8h3M74,12.59v-3M75.2,8.34h3M74,12.59V11.07m.85-1.87,1.07,1.07M73.14,9.19l-1.07,1.07m.72-1.93H71.26m1.87-.85L72.06,6.41M74,7.13V5.61m.85,1.87,1.07-1.07m2.67,2.78-1.07,1.07M80.3,9.19l1.07,1.07m-.72-1.93h1.52M80.3,7.48l1.07-1.07m-1.93.72V5.61m-.85,1.87L77.52,6.41m-2.67,6.53,1.07-1.07m-2.78,1.07-1.07-1.07m.72,1.93H71.26m1.87.85-1.07,1.07M74,15v1.52m.85-1.87,1.07,1.07m2.67-2.78-1.07-1.07m2.78,1.07,1.07-1.07m-.72,1.93h1.52m-1.87.85,1.07,1.07M79.45,15v1.52m-.85-1.87-1.07,1.07"/><path class="cls-1" d="M84.91,15a1.21,1.21,0,1,1,1.21-1.21A1.21,1.21,0,0,1,84.91,15Zm-.75-7.61q1,.58,1.93,1.21a1.21,1.21,0,1,1-1.93-1.21Zm2,6.4a1.21,1.21,0,1,1-1.21-1.21,1.21,1.21,0,0,1,1.21,1.21ZM90.36,15a1.21,1.21,0,1,1,1.21-1.21A1.21,1.21,0,0,1,90.36,15Zm-5.46-2.42v-3m4.25,4.25h-3m4.25-1.21v-.86m0,.86v-.86m-1.91-1.48,0,0M85.76,9.19l1.07,1.07M84.05,9.19,83,10.27m.72-1.93H82.18m1.87-.85-.37-.37m5.82,5.83-1.07-1.07m2.78,1.07.27-.27m.09,1.12h1.18m-1.53.85.63.63M90.36,15v1.52m-.85-1.87-1.07,1.07m-2.67-2.78,1.07-1.07m-2.78,1.07L83,11.87m.72,1.93H82.18m1.87.85L83,15.72M84.91,15v1.52m.85-1.87,1.07,1.07"/><path class="cls-1" d="M57.64,36.83a1.21,1.21,0,0,0,1.15-.9,1.21,1.21,0,0,1-1.15.9Zm0-5.46V29a1.21,1.21,0,0,1,0,2.42Zm.83-.35,1.07,1.07m-.72-1.93h1.52m-1.87-.85,1.07-1.07m-1.07,8.24,1.07,1.07"/><path class="cls-1" d="M63.08,36.83h0a1.2,1.2,0,0,1-.72-.24,1.2,1.2,0,0,0,.72.24Zm6.45-.52a19.7,19.7,0,0,0-2-1.34,1.21,1.21,0,1,1,2,1.34Zm-5.24-6.15A1.21,1.21,0,1,1,63.08,29a1.21,1.21,0,0,1,1.21,1.21Zm4.25,1.21a1.21,1.21,0,1,1,1.21-1.21,1.21,1.21,0,0,1-1.21,1.21Zm-5.46,1.71V31.37m5.46,3v-3m-1.21-1.21h-3m4.25,4.25V32.89M67.68,31l-1.07,1.07M69.39,31l1.07,1.07m-.72-1.93h1.52m-1.87-.85,1.07-1.07M68.54,29V27.44m-.85,1.87-1.07-1.07M63.93,31,65,32.09M62.22,31,61.15,32.1m.72-1.93H60.35m1.87-.85-1.07-1.07m1.93.72V27.44m.86,1.87L65,28.24m2.67,6.53-1.07-1.07m2.78,1.07,1.07-1.07m-.72,1.93h1.52M65,33.73l0,0m-2.84,2.84-1,1m1.93-.72v1.52"/><path class="cls-1" d="M79.45,36.83a1.21,1.21,0,1,0-1.21-1.21,1.21,1.21,0,0,0,1.21,1.21Zm-1.21-1.21a1.21,1.21,0,1,0,1.21-1.21,1.21,1.21,0,0,0-1.21,1.21ZM74,31.37a1.21,1.21,0,1,0-1.21-1.21A1.21,1.21,0,0,0,74,31.37Zm5.46,3V32.73m-2.89,2.89h1.68M74,33.13V31.37m1.21-1.21H77m-3,3v-.24M74.85,31l.63.63M73.14,31,72.06,32.1m.72-1.93H71.26m1.87-.85-1.07-1.07M74,29V27.44m.85,1.87,1.07-1.07m4.81,3.21.65.65M82,30.17h.16m-2.73-2.49v-.24M78.2,28.92l-.68-.68m-4.77,6.14-.68-.68m-.56,1.93h-.24M74,38.19v.16m1.28-1.45.65.65m2.67-2.78L78,34.18m2.3.59,1.07-1.07m-.72,1.93h1.52m-1.87.85,1.07,1.07m-1.93-.72v1.52m-.85-1.87-1.07,1.07"/><path class="cls-1" d="M84.91,36.83a1.21,1.21,0,1,1,1.21-1.21,1.21,1.21,0,0,1-1.21,1.21Zm1.21-1.21a1.21,1.21,0,1,1-1.21-1.21,1.21,1.21,0,0,1,1.21,1.21Zm4.25,1.21a1.21,1.21,0,1,1,1.21-1.21,1.21,1.21,0,0,1-1.21,1.21Zm-4.25-6.67A1.21,1.21,0,1,1,84.91,29a1.21,1.21,0,0,1,1.21,1.21Zm4.25,1.21a1.21,1.21,0,1,1,1.21-1.21,1.21,1.21,0,0,1-1.21,1.21Zm-5.46,3v-3m4.25,4.25h-3m4.25-1.21v-3m-1.21-1.21h-3m4.25,4.25V32.89M89.51,31l-1.07,1.07M91.22,31l1.07,1.07m-.72-1.93h1.52m-1.87-.85,1.07-1.07M90.36,29V27.44m-.85,1.87-1.07-1.07M85.76,31l1.07,1.07M84.05,31,83,32.1m.72-1.93H82.18m1.87-.85-.59-.59m1.45.24V27.44m.85,1.87,1.07-1.07m2.67,6.53-1.07-1.07m2.78,1.07,1.07-1.07m-.72,1.93h1.52m-1.87.85,1.07,1.07m-1.93-.72v1.52m-.85-1.87-1.07,1.07m-2.67-2.78,1.07-1.07m-2.78,1.07L83,33.69m.72,1.93H82.18m1.87.85L83,37.55m1.93-.72v1.52m.85-1.87,1.07,1.07"/><path class="cls-1" d="M106.73,36.83a1.21,1.21,0,0,1-.25-2.39,1.21,1.21,0,1,0,.76,2.28,1.2,1.2,0,0,1-.51.11Zm-1.39-5.28-.54.54m-.08-1.93H104m1.87,4.6-1.07-1.07m.72,1.93H104m1.87.85-1.07,1.07m1.93-.72v1.52"/><path class="cls-1" d="M101.28,36.83a1.21,1.21,0,1,0-1.21-1.21,1.21,1.21,0,0,0,1.21,1.21Zm-1.21-1.21a1.21,1.21,0,1,0,1.21-1.21,1.21,1.21,0,0,0-1.21,1.21Zm-4.25,1.21a1.21,1.21,0,1,0-1.21-1.21,1.21,1.21,0,0,0,1.21,1.21Zm4.25-6.67A1.21,1.21,0,1,0,101.28,29a1.21,1.21,0,0,0-1.21,1.21Zm-4.25,1.21a1.21,1.21,0,1,0-1.21-1.21,1.21,1.21,0,0,0,1.21,1.21Zm5.46,3v-3M97,35.62h3m-4.25-1.21v-3M97,30.17h3m-4.25,4.25V32.89M96.67,31l1.07,1.07M95,31,93.89,32.1m.72-1.93H93.09M95,29.31l-1.07-1.07m1.93.72V27.44m.85,1.87,1.07-1.07M100.42,31,99.35,32.1M102.13,31l1.07,1.07m-.72-1.93H104m-1.87-.85,1.07-1.07m-1.93.72V27.44m-.85,1.87-1.07-1.07m-2.67,6.53,1.07-1.07M95,34.77l-1.07-1.07m.72,1.93H93.09m1.87.85-1.07,1.07m1.93-.72v1.52m.86-1.87,1.07,1.07m2.67-2.78-1.07-1.07m2.78,1.07,1.07-1.07m-.72,1.93H104m-1.87.85,1.07,1.07m-1.93-.72v1.52m-.85-1.87-1.07,1.07"/><path class="cls-1" d="M57.64,18a1.21,1.21,0,0,1,0,2.42,1.21,1.21,0,0,0,0-2.42Zm0,7.87V23.5a1.21,1.21,0,0,1,0,2.42Zm.83-2.06,1.07-1.07m-.72,1.93h1.52m-1.87.85,1.07,1.07m-1.07-6.53,1.07,1.07m-.72-1.93h1.52m-1.87-.85,1.07-1.07"/><path class="cls-1" d="M63.08,18a1.21,1.21,0,1,0,1.21,1.21A1.21,1.21,0,0,0,63.08,18Zm1.21,1.21a1.21,1.21,0,1,0-1.21,1.21,1.21,1.21,0,0,0,1.21-1.21ZM68.54,18a1.21,1.21,0,1,0,1.21,1.21A1.21,1.21,0,0,0,68.54,18Zm-4.25,6.67a1.21,1.21,0,1,0-1.21,1.21,1.21,1.21,0,0,0,1.21-1.21Zm4.25-1.21a1.21,1.21,0,1,0,1.21,1.21,1.21,1.21,0,0,0-1.21-1.21Zm-5.46-3v3m4.25-4.25h-3m4.25,1.21v3m-1.21,1.21h-3m4.25-4.25V22m-.85,1.87-1.07-1.07m2.78,1.07,1.07-1.07m-.72,1.93h1.52m-1.87.85,1.07,1.07m-1.93-.72v1.52m-.85-1.87-1.07,1.07m-2.67-2.78L65,22.78m-2.78,1.07-1.07-1.07m.72,1.93H60.35m1.87.85-1.07,1.07m1.93-.72v1.52m.86-1.87L65,26.64m2.67-6.53-1.07,1.07m2.78-1.07,1.07,1.07m-.72-1.93h1.52m-1.87-.85,1.07-1.07M68.54,18V16.52m-.85,1.87-1.07-1.07m-2.67,2.78L65,21.18m-2.78-1.07-1.07,1.07m.72-1.93H60.35m1.87-.85-1.07-1.07m1.93.72V16.52m.85,1.87L65,17.32"/><path class="cls-1" d="M79.45,18a1.21,1.21,0,1,1-1.21,1.21A1.21,1.21,0,0,1,79.45,18Zm-1.21,1.21a1.21,1.21,0,1,1,1.21,1.21,1.21,1.21,0,0,1-1.21-1.21ZM74,18a1.21,1.21,0,1,1-1.21,1.21A1.21,1.21,0,0,1,74,18Zm4.25,6.67a1.21,1.21,0,1,1,1.21,1.21,1.21,1.21,0,0,1-1.21-1.21ZM74,23.5a1.21,1.21,0,1,1-1.21,1.21A1.21,1.21,0,0,1,74,23.5Zm5.46-3v3M75.2,19.25h3M74,20.46v3m1.21,1.21h3M74,20.46V22m.85,1.87,1.07-1.07m-2.78,1.07-1.07-1.07m.72,1.93H71.26m1.87.85-1.07,1.07M74,25.92v1.52m.85-1.87,1.07,1.07m2.67-2.78-1.07-1.07m2.78,1.07,1.07-1.07m-.72,1.93h1.52m-1.87.85.63.63m-1.48-.27v1.52m-.85-1.87-1.07,1.07m-2.67-6.53,1.07,1.07m-2.78-1.07-1.07,1.07m.72-1.93H71.26m1.87-.85-1.07-1.07M74,18V16.52m.85,1.87,1.07-1.07m2.67,2.78-1.07,1.07m2.78-1.07,1.07,1.07m-.72-1.93h1.52M80.3,18.4l1.07-1.07M79.45,18V16.52m-.85,1.87-1.07-1.07"/><path class="cls-1" d="M84.91,18a1.21,1.21,0,1,0,1.21,1.21A1.21,1.21,0,0,0,84.91,18Zm1.21,1.21a1.21,1.21,0,1,0-1.21,1.21,1.21,1.21,0,0,0,1.21-1.21Zm4.25,4.25a1.21,1.21,0,1,0,1.21,1.21,1.21,1.21,0,0,0-1.21-1.21Zm-5.46-3v1.75m3-3H86.12m4.25,2.57V23.5m-1.21,1.21H87.47m2.89-2.89V22m-.85,1.87-.59-.59m2.3.59,1.07-1.07m-.72,1.93h1.52m-1.87.85,1.07,1.07m-1.93-.72v1.52m-.85-1.87-1.07,1.07m-4.77-3.18L83,22.78m-.56,1.93h-.24m2.73,2.57v.16M86.19,26l.65.65m4.81-6.1.65.65m.64-1.93h.16m-2.73-2.49v-.24M89.12,18l-.68-.68m-2.67,2.78.63.63m-2.34-.63L83,21.18m.72-1.93H82.18m1.87-.85L83,17.32m1.93.72V16.52m.85,1.87,1.07-1.07"/><path class="cls-1" d="M101,23.53q.62.95,1.21,1.92A1.21,1.21,0,1,1,101,23.53ZM95.82,18a1.21,1.21,0,1,1-1.21,1.21A1.21,1.21,0,0,1,95.82,18Zm0,5.46a1.21,1.21,0,1,1-1.21,1.21,1.21,1.21,0,0,1,1.21-1.21ZM97,19.25h.86m-2.07,1.21v3M97,24.71h3m-4.25-4.25V22m.85,1.87,1.07-1.07M95,23.85l-1.07-1.07m.72,1.93H93.09m1.87.85-1.07,1.07m1.93-.72v1.52m.85-1.87,1.07,1.07m2.67-2.78-1.07-1.07m2.78,2.78.4.4m-1.26,0v1.52m-.85-1.87-1.07,1.07m-2.67-6.53,1.07,1.07M95,20.11l-1.07,1.07m.72-1.93H93.09M95,18.4l-.59-.59m1.45.24V16.86m.86,1.53.27-.27m2.43,3,0,0"/><path class="cls-1" d="M57.64,80.49a1.21,1.21,0,0,0,0-2.42,1.21,1.21,0,0,1,0,2.42Zm0-5.46V72.61a1.21,1.21,0,0,1,0,2.42Zm.83-.35,1.07,1.07m-.72-1.93h1.52M58.48,73l1.07-1.07m-1.07,6.53,1.07-1.07m-.72,1.93h1.52m-1.87.85,1.07,1.07"/><path class="cls-1" d="M63.08,80.49a1.21,1.21,0,1,1,1.21-1.21,1.21,1.21,0,0,1-1.21,1.21Zm1.21-1.21a1.21,1.21,0,1,1-1.21-1.21,1.21,1.21,0,0,1,1.21,1.21Zm4.25,1.21a1.21,1.21,0,1,1,1.21-1.21,1.21,1.21,0,0,1-1.21,1.21Zm-4.25-6.67a1.21,1.21,0,1,1-1.21-1.21,1.21,1.21,0,0,1,1.21,1.21ZM68.54,75a1.21,1.21,0,1,1,1.21-1.21A1.21,1.21,0,0,1,68.54,75Zm-5.46,3V75m4.25,4.25h-3m4.25-1.21V75m-1.21-1.21h-3m4.25,4.25V76.55m-.85-1.87-1.07,1.07m2.78-1.07,1.07,1.07m-.72-1.93h1.52M69.39,73l1.07-1.07m-1.93.72V71.09M67.68,73l-1.07-1.07m-2.67,2.78L65,75.75m-2.78-1.07-1.07,1.07m.72-1.93H60.35M62.22,73l-1.07-1.07m1.93.72V71.09M63.93,73,65,71.89m2.67,6.53-1.07-1.07m2.78,1.07,1.07-1.07m-.72,1.93h1.52m-1.87.85,1.07,1.07m-1.93-.72V82m-.85-1.87-1.07,1.07m-2.67-2.78L65,77.35m-2.78,1.07-1.07-1.07m.72,1.93H60.35m1.87.85-1.07,1.07m1.93-.72V82m.85-1.87L65,81.21"/><path class="cls-1" d="M79.45,80.49a1.21,1.21,0,1,0-1.21-1.21,1.21,1.21,0,0,0,1.21,1.21Zm-1.21-1.21a1.21,1.21,0,1,0,1.21-1.21,1.21,1.21,0,0,0-1.21,1.21ZM74,80.49a1.21,1.21,0,1,0-1.21-1.21A1.21,1.21,0,0,0,74,80.49ZM74,75a1.21,1.21,0,1,0-1.21-1.21A1.21,1.21,0,0,0,74,75Zm5.46,3V76.31m-4.25,3h3M74,78.07V75m1.21-1.21H77m-3,4.25V76.55m.85-1.87,1.07,1.07m-2.78-1.07-1.07,1.07m.72-1.93H71.26M73.14,73l-1.07-1.07m1.93.72V71.09M74.85,73l.63-.63m2.73,2.73-.68.68M82,73.82h.16m-1.45-1.28.65-.65m-1.93-.64v-.16m-4.6,7.33,1.07-1.07m-2.78,1.07-1.07-1.07m.72,1.93H71.26m1.87.85-1.07,1.07M74,80.49V82m.85-1.87,1.07,1.07m2.67-2.78-1.07-1.07m2.78,1.07.63-.63m-.27,1.48h1.52m-1.87.85,1.07,1.07m-1.93-.72V82m-.85-1.87-1.07,1.07"/><path class="cls-1" d="M90.36,80.49a1.21,1.21,0,1,1,1.21-1.21,1.21,1.21,0,0,1-1.21,1.21Zm-4.25-6.67a1.21,1.21,0,1,1-1.21-1.21,1.21,1.21,0,0,1,1.21,1.21ZM90.36,75a1.21,1.21,0,1,1,1.21-1.21A1.21,1.21,0,0,1,90.36,75Zm-5.46,1.68V75m4.25,4.25H87.47m2.89-1.21V75m-1.21-1.21h-3m4.25,4.25V76.55m-.85-1.87-1.07,1.07m2.78-1.07,1.07,1.07m-.72-1.93h1.52M91.22,73l1.07-1.07m-1.93.72V71.09M89.51,73l-1.07-1.07m-2.67,2.78,1.07,1.07m-2.78-1.07-.59.59m.24-1.45H82.18M84.05,73,83,71.89m1.93.72V71.09M85.76,73l1.07-1.07m2.67,6.53-1.07-1.07m2.78,1.07,1.07-1.07m-.72,1.93h1.52m-1.87.85,1.07,1.07m-1.93-.72V82m-.85-1.87-.59.59M86.19,78l.65-.65m-4.42,1.93h-.23m1.48,1.25-.68.68m1.93.56V82"/><path class="cls-1" d="M104.72,73.82H104m1.34-1.39-.54-.54"/><path class="cls-1" d="M102.23,78.54A1.21,1.21,0,1,0,101,80.46a1.21,1.21,0,1,1,1.21-1.92Zm-6.41,2a1.21,1.21,0,1,0-1.21-1.21,1.21,1.21,0,0,0,1.21,1.21Zm4.25-6.67a1.21,1.21,0,1,0,1.21-1.21,1.21,1.21,0,0,0-1.21,1.21ZM95.82,75a1.21,1.21,0,1,0-1.21-1.21A1.21,1.21,0,0,0,95.82,75Zm5.46,3V75M97,79.28h3m-4.25-1.21V75M97,73.82h3m-4.25,4.25V76.55m.85-1.87,1.07,1.07M95,74.67l-1.07,1.07m.72-1.93H93.09M95,73l-1.07-1.07m1.93.72V71.09M96.67,73l1.07-1.07m2.67,2.78-1.07,1.07m2.78-1.07,1.07,1.07m-.72-1.93H104M102.13,73l1.07-1.07m-1.93.72V71.09M100.42,73l-1.07-1.07m-2.67,6.53,1.07-1.07M95,78.42l-1.07-1.07m.72,1.93H93.09m1.87.85-1.07,1.07m1.93-.72V82m.85-1.87,1.07,1.07m2.67-2.78-1.07-1.07m2.78,1.07.4-.4m-2.11,2.11-1.07,1.07"/><path class="cls-1" d="M57.64,61.7a1.21,1.21,0,0,1,0,2.42,1.21,1.21,0,0,0,0-2.42Zm0,6.39v-.94a1.21,1.21,0,0,1,1.15.9q-.56,0-1.13,0Zm.83-.58,1.07-1.07m-1.07-2.67,1.07,1.07m-.72-1.93h1.52m-1.87-.85L59.55,61"/><path class="cls-1" d="M63.08,61.7a1.21,1.21,0,1,0,1.21,1.21,1.21,1.21,0,0,0-1.21-1.21Zm6.64,1q-.33.37-.68.72t-.76.71a1.21,1.21,0,1,1,1.44-1.43Zm-6.64,4.5-.72.24a1.2,1.2,0,0,1,.72-.24ZM67.52,69a19.66,19.66,0,0,0,2-1.34,1.21,1.21,0,1,1-2,1.34Zm-3.23-6.11a1.21,1.21,0,1,0-1.21,1.21,1.21,1.21,0,0,0,1.21-1.21Zm-1.21,1.21v3m4.25-4.25h-3m5.46,5.46h1.52m-1.87.85,1.07,1.07m-1.93-.72v1.52m-.85-1.87-1.07,1.07m-4.44-2.84-1-1m1.93,4.47v.19M65,70.25l0,0m2.67-6.53-1.07,1.07m2.78-2.78L70.47,61m-1.93.72V60.18m-.85,1.87L66.61,61m-2.67,2.78L65,64.84m-2.78-1.07-1.07,1.07m.72-1.93H60.35m1.87-.85L61.15,61m1.93.72V60.18m.85,1.87L65,61"/><path class="cls-1" d="M79.45,61.7a1.21,1.21,0,1,1-1.21,1.21,1.21,1.21,0,0,1,1.21-1.21ZM73.31,63.9a19.72,19.72,0,0,0,1.35-2,1.21,1.21,0,1,1-1.35,2Zm4.93-1a1.21,1.21,0,1,1,1.21,1.21,1.21,1.21,0,0,1-1.21-1.21Zm0,5.46a1.21,1.21,0,1,1,1.21,1.21,1.21,1.21,0,0,1-1.21-1.21Zm1.21-4.25v3M75.2,62.91h3M74,64.12V65.8m2.56,2.56h1.68M74,64.12v1.52m1.28,1.45.65-.65M71.5,68.36h-.23m1.48,1.25-.68.68m1.93.56v.23m4.6-3.58-1.07-1.07m2.78,1.07,1.07-1.07m-.72,1.93h1.52m-1.87.85,1.07,1.07m-1.93-.72v1.52m-.85-1.87-.59.59m-3.16-6,1.07,1.07m-1.07-2.78L75.92,61m2.67,2.78-1.07,1.07m2.78-1.07,1.07,1.07m-.72-1.93h1.52m-1.87-.85L81.38,61m-1.93.72V60.18m-.85,1.87L77.52,61"/><path class="cls-1" d="M84.91,61.7a1.21,1.21,0,1,0,1.21,1.21,1.21,1.21,0,0,0-1.21-1.21Zm1.21,1.21a1.21,1.21,0,1,0-1.21,1.21,1.21,1.21,0,0,0,1.21-1.21Zm4.25-1.21a1.21,1.21,0,1,0,1.21,1.21,1.21,1.21,0,0,0-1.21-1.21Zm-4.25,6.67a1.21,1.21,0,1,0-1.21,1.21,1.21,1.21,0,0,0,1.21-1.21Zm4.25-1.21a1.21,1.21,0,1,0,1.21,1.21,1.21,1.21,0,0,0-1.21-1.21Zm-5.46-3v3m4.25-4.25h-3m4.25,1.21v3m-1.21,1.21h-3m4.25-4.25v1.52m-.85,1.87-1.07-1.07m2.78,1.07,1.07-1.07m-.72,1.93h1.52m-1.87.85,1.07,1.07m-1.93-.72v1.52m-.86-1.87-1.07,1.07m-2.67-2.78,1.07-1.07m-2.78,1.07L83,66.43m.72,1.93H82.18m1.87.85L83,70.29m1.93-.72v1.52m.85-1.87,1.07,1.07m2.67-6.53-1.07,1.07m2.78-1.07,1.07,1.07m-.72-1.93h1.52m-1.87-.85L92.29,61m-1.93.72V60.18m-.86,1.87L88.43,61m-2.67,2.78,1.07,1.07m-2.78-1.07L83,64.84m.72-1.93H82.18m1.87-.85L83,61m1.93.72V60.18m.85,1.87L86.84,61"/><path class="cls-1" d="M106.73,61.7a1.21,1.21,0,1,0,1.21,1.21,1.21,1.21,0,0,0-1.21-1.21Zm.51,5.57q-.35,1.15-.76,2.28a1.21,1.21,0,1,1,.76-2.28Zm.7-4.36a1.21,1.21,0,1,0-1.21,1.21,1.21,1.21,0,0,0,1.21-1.21Zm-1.21,1.21v3m1.64-4.25h-.43m-2.06,4.6-1.07-1.07m.72,1.93H104m1.87.85-1.07,1.07m2.78-6.53.48.48m-2.19-.48-1.07,1.07m.72-1.93H104m1.87-.85L104.8,61m1.93.72V60.18m.85,1.87L108.66,61"/><path class="cls-1" d="M101.28,61.7a1.21,1.21,0,1,1-1.21,1.21,1.21,1.21,0,0,1,1.21-1.21Zm-1.21,1.21a1.21,1.21,0,1,1,1.21,1.21,1.21,1.21,0,0,1-1.21-1.21ZM95.82,61.7a1.21,1.21,0,1,1-1.21,1.21,1.21,1.21,0,0,1,1.21-1.21Zm4.25,6.67a1.21,1.21,0,1,1,1.21,1.21,1.21,1.21,0,0,1-1.21-1.21Zm-4.25-1.21a1.21,1.21,0,1,1-1.21,1.21,1.21,1.21,0,0,1,1.21-1.21Zm5.46-3v3M97,62.91h3m-4.25,1.21v3M97,68.36h3m-4.25-4.25v1.52m.85,1.87,1.07-1.07M95,67.51l-1.07-1.07m.72,1.93H93.09m1.87.85-1.07,1.07m1.93-.72v1.52m.85-1.87,1.07,1.07m2.67-2.78-1.07-1.07m2.78,1.07,1.07-1.07m-.72,1.93H104m-1.87.85,1.07,1.07m-1.93-.72v1.52m-.85-1.87-1.07,1.07m-2.67-6.53,1.07,1.07M95,63.76l-1.07,1.07m.72-1.93H93.09M95,62.05,93.89,61m1.93.72V60.18m.85,1.87L97.75,61m2.67,2.78-1.07,1.07m2.78-1.07,1.07,1.07m-.72-1.93H104m-1.87-.85L103.21,61m-1.93.72V60.18m-.85,1.87L99.35,61"/><path class="cls-1" d="M57.64,39.87a1.21,1.21,0,0,1,0,2.42,1.21,1.21,0,0,0,0-2.42Zm0,7.87V45.33a1.21,1.21,0,0,1,0,2.42Zm.83-2.06,1.07-1.07m-.72,1.93h1.52m-1.87.86,1.07,1.07m-1.07-6.53L59.55,43m-.72-1.93h1.52m-1.87-.86,1.07-1.07"/><path class="cls-1" d="M63.08,39.87a1.21,1.21,0,1,0,1.21,1.21,1.21,1.21,0,0,0-1.21-1.21Zm5.2,0q.39.34.76.71t.68.72a1.21,1.21,0,1,1-1.44-1.43Zm-4,1.18a1.21,1.21,0,1,0-1.21,1.21,1.21,1.21,0,0,0,1.21-1.21Zm0,5.46a1.21,1.21,0,1,0-1.21,1.21,1.21,1.21,0,0,0,1.21-1.21Zm4.25-1.21a1.21,1.21,0,1,0,1.21,1.21,1.21,1.21,0,0,0-1.21-1.21Zm-5.46-3v3m4.25-4.25h-3m4.25,1.21v3m-1.21,1.21h-3m4.25-4.25v1.52m-.85,1.87-1.07-1.07m2.78,1.07,1.07-1.07m-.72,1.93h1.52m-1.87.85,1.07,1.07m-1.93-.72v1.52m-.85-1.87-1.07,1.07m-2.67-2.78L65,44.61m-2.78,1.07-1.07-1.07m.72,1.93H60.35m1.87.86-1.07,1.07m1.93-.72v1.52m.85-1.87L65,48.47m2.67-6.53L66.61,43m2.78-1.07L70.47,43m-2.78-2.78-1.07-1.07m-2.67,2.78L65,43m-2.78-1.07L61.15,43m.72-1.93H60.35m1.87-.86-1.07-1.07m1.93.72V38.35m.86,1.87L65,39.15"/><path class="cls-1" d="M79.45,39.87a1.21,1.21,0,1,1-1.21,1.21,1.21,1.21,0,0,1,1.21-1.21Zm-6.66,6.61q.15.41.28.83a1.2,1.2,0,0,1-.28-.77s0,0,0-.06Zm1.87-4.38a19.72,19.72,0,0,0-1.35-2,1.21,1.21,0,1,1,1.35,2Zm3.59-1a1.21,1.21,0,1,1,1.21,1.21,1.21,1.21,0,0,1-1.21-1.21Zm0,5.46a1.21,1.21,0,1,1,1.21,1.21,1.21,1.21,0,0,1-1.21-1.21Zm1.21-4.25v3M75.2,41.08h3m-1.68,5.46h1.68M75.9,44.63l0,0m-3.14,1.93H71.26m1.84.89-1,1m6.53-2.78-1.07-1.07m2.78,1.07,1.07-1.07m-.72,1.93h1.52m-1.87.85,1.07,1.07m-1.93-.72v1.52m-.86-1.87-1.07,1.07m-2.67-6.53L75.92,43M74,39.87V38.35m.85,1.87,1.07-1.07m2.67,2.78L77.52,43m2.78-1.07L81.38,43m-.72-1.93h1.52m-1.87-.85,1.07-1.07m-1.93.72V38.35m-.85,1.87-1.07-1.07"/><path class="cls-1" d="M84.91,39.87a1.21,1.21,0,1,0,1.21,1.21,1.21,1.21,0,0,0-1.21-1.21Zm1.21,1.21a1.21,1.21,0,1,0-1.21,1.21,1.21,1.21,0,0,0,1.21-1.21Zm4.25-1.21a1.21,1.21,0,1,0,1.21,1.21,1.21,1.21,0,0,0-1.21-1.21Zm-4.25,6.67a1.21,1.21,0,1,0-1.21,1.21,1.21,1.21,0,0,0,1.21-1.21Zm4.25-1.21a1.21,1.21,0,1,0,1.21,1.21,1.21,1.21,0,0,0-1.21-1.21Zm-5.46-3v3m4.25-4.25h-3m4.25,1.21v3m-1.21,1.21h-3m4.25-4.25v1.52m-.85,1.87-1.07-1.07m2.78,1.07,1.07-1.07m-.72,1.93h1.52m-1.87.85,1.07,1.07m-1.93-.72v1.52m-.85-1.87-1.07,1.07m-2.67-2.78,1.07-1.07m-2.78,1.07L83,44.61m.72,1.93H82.18m1.87.85L83,48.47m1.93-.72v1.52m.85-1.87,1.07,1.07m2.67-6.53L88.43,43m2.78-1.07L92.29,43m-.72-1.93h1.52m-1.87-.85,1.07-1.07m-1.93.72V38.35m-.85,1.87-1.07-1.07m-2.67,2.78L86.84,43m-2.78-1.07L83,43m.72-1.93H82.18m1.87-.85L83,39.15m1.93.72V38.35m.85,1.87,1.07-1.07"/><path class="cls-1" d="M106.73,39.87a1.21,1.21,0,1,0,1.21,1.21,1.21,1.21,0,0,0-1.21-1.21Zm1.21,1.21a1.21,1.21,0,1,0-1.21,1.21,1.21,1.21,0,0,0,1.21-1.21Zm0,5.46a1.21,1.21,0,1,0-1.21,1.21,1.21,1.21,0,0,0,1.21-1.21Zm-1.21-4.25v3m1.64-4.25h-.43m1.3,5.46h-1.3m-.35-.86,1.07-1.07m-2.78,1.07-1.07-1.07m.72,1.93H104m1.87.85-1.07,1.07m1.93-.72v1.52m.85-1.87,1.07,1.07m-1.07-6.53L108.66,43m-2.78-1.07L104.8,43m.72-1.93H104m1.87-.85-1.07-1.07m1.93.72V38.35m.85,1.87.48-.48"/><path class="cls-1" d="M101.28,39.87a1.21,1.21,0,1,1-1.21,1.21,1.21,1.21,0,0,1,1.21-1.21Zm-1.21,1.21a1.21,1.21,0,1,1,1.21,1.21,1.21,1.21,0,0,1-1.21-1.21Zm-4.25-1.21a1.21,1.21,0,1,1-1.21,1.21,1.21,1.21,0,0,1,1.21-1.21Zm4.25,6.67a1.21,1.21,0,1,1,1.21,1.21,1.21,1.21,0,0,1-1.21-1.21Zm-4.25-1.21a1.21,1.21,0,1,1-1.21,1.21,1.21,1.21,0,0,1,1.21-1.21Zm5.46-3v3M97,41.08h3m-4.25,1.21v3M97,46.54h3m-4.25-4.25v1.52m.85,1.87,1.07-1.07M95,45.68l-1.07-1.07m.72,1.93H93.09m1.87.85-1.07,1.07m1.93-.72v1.52m.86-1.87,1.07,1.07m2.67-2.78-1.07-1.07m2.78,1.07,1.07-1.07m-.72,1.93H104m-1.87.85,1.07,1.07m-1.93-.72v1.52m-.85-1.87-1.07,1.07m-2.67-6.53L97.75,43M95,41.93,93.89,43m.72-1.93H93.09M95,40.22l-1.07-1.07m1.93.72V38.35m.86,1.87,1.07-1.07m2.67,2.78L99.35,43m2.78-1.07L103.21,43m-.72-1.93H104m-1.87-.85,1.07-1.07m-1.93.72V38.35m-.85,1.87-1.07-1.07"/><path class="cls-1" d="M57.64,58.66a1.21,1.21,0,0,0,0-2.42,1.21,1.21,0,0,1,0,2.42Zm0-5.46V50.78a1.21,1.21,0,0,1,0,2.42Zm.83-.35,1.07,1.07M58.83,52h1.52m-1.87-.85,1.07-1.07m-1.07,6.53,1.07-1.07m-.72,1.93h1.52m-1.87.85,1.07,1.07"/><path class="cls-1" d="M63.08,58.66a1.21,1.21,0,1,1,1.21-1.21,1.21,1.21,0,0,1-1.21,1.21Zm1.21-1.21a1.21,1.21,0,1,1-1.21-1.21,1.21,1.21,0,0,1,1.21,1.21Zm4.25,1.21a1.21,1.21,0,1,1,1.21-1.21,1.21,1.21,0,0,1-1.21,1.21ZM64.29,52a1.21,1.21,0,1,1-1.21-1.21A1.21,1.21,0,0,1,64.29,52Zm4.25,1.21A1.21,1.21,0,1,1,69.74,52a1.21,1.21,0,0,1-1.21,1.21Zm-5.46,3v-3m4.25,4.25h-3m4.25-1.21v-3M67.33,52h-3m4.25,4.25V54.72m-.85-1.87-1.07,1.07m2.78-1.07,1.07,1.07M69.74,52h1.52m-1.87-.85,1.07-1.07m-1.93.72V49.26m-.85,1.87-1.07-1.07m-2.67,2.78L65,53.92m-2.78-1.07-1.07,1.07M61.87,52H60.35m1.87-.85-1.07-1.07m1.93.72V49.26m.85,1.87L65,50.06m2.67,6.53-1.07-1.07m2.78,1.07,1.07-1.07m-.72,1.93h1.52m-1.87.85,1.07,1.07m-1.93-.72v1.52m-.85-1.87-1.07,1.07m-2.67-2.78L65,55.52m-2.78,1.07-1.07-1.07m.72,1.93H60.35m1.87.85-1.07,1.07m1.93-.72v1.52m.85-1.87L65,59.38"/><path class="cls-1" d="M79.45,58.66a1.21,1.21,0,1,0-1.21-1.21,1.21,1.21,0,0,0,1.21,1.21Zm-5.74-7.84q0,.58,0,1.18t0,1.18a1.21,1.21,0,0,1,0-2.35Zm-.65,5.86q-.13.42-.28.84s0,0,0-.06a1.21,1.21,0,0,1,.28-.77Zm5.18.77a1.21,1.21,0,1,0,1.21-1.21,1.21,1.21,0,0,0-1.21,1.21Zm1.21-1.21V53.78m-2.89,3.67h1.68m-5.1-4.6-1.07,1.07M72.78,52H71.26m1.87-.85-1.07-1.07m5.6,3.72-.14.14m3.72-.14.14.14m-.14-3.72.14-.14m-1.93.14v-.94m-1.79.94-.14-.14M73.1,56.56l-1-1m.72,1.93H71.26m4.64,1.91,0,0m2.67-2.78-1.07-1.07m2.78,1.07,1.07-1.07m-.72,1.93h1.52m-1.87.85,1.07,1.07m-1.93-.72v1.52m-.85-1.87-1.07,1.07"/><path class="cls-1" d="M84.91,58.66a1.21,1.21,0,1,1,1.21-1.21,1.21,1.21,0,0,1-1.21,1.21Zm1.21-1.21a1.21,1.21,0,1,1-1.21-1.21,1.21,1.21,0,0,1,1.21,1.21Zm4.25,1.21a1.21,1.21,0,1,1,1.21-1.21,1.21,1.21,0,0,1-1.21,1.21Zm-5.46-2.42V53.78m4.25,3.67h-3m4.25-1.21V53.78m0,2.46V54.72m-1.79-.94-.14.14m3.72-.14.14.14m-.14-3.72.14-.14m-1.93.14v-.94m-1.79.94-.14-.14m-1.74,3.72.14.14m-3.72-.14-.14.14m.14-3.72L83,50.06m1.93.14v-.94m1.79.94.14-.14m2.67,6.53-1.07-1.07m2.78,1.07,1.07-1.07m-.72,1.93h1.52m-1.87.85,1.07,1.07m-1.93-.72v1.52m-.86-1.87-1.07,1.07m-2.67-2.78,1.07-1.07m-2.78,1.07L83,55.52m.72,1.93H82.18m1.87.85L83,59.38m1.93-.72v1.52m.85-1.87,1.07,1.07"/><path class="cls-1" d="M106.73,58.66a1.21,1.21,0,1,1,1.21-1.21,1.21,1.21,0,0,1-1.21,1.21Zm1.21-1.21a1.21,1.21,0,1,1-1.21-1.21,1.21,1.21,0,0,1,1.21,1.21Zm-1.21-1.21V53.78m2.51,3.67h-1.3m.58-3.67.14.14m-3.72-.14-.14.14m.14-3.72-.14-.14m1.93.14v-.94m1.79.94.14-.14m-1.07,6.53,1.07-1.07m-2.78,1.07-1.07-1.07m.72,1.93H104m1.87.85-1.07,1.07m1.93-.72v1.52m.85-1.87,1.07,1.07"/><path class="cls-1" d="M101.28,58.66a1.21,1.21,0,1,0-1.21-1.21,1.21,1.21,0,0,0,1.21,1.21Zm-1.21-1.21a1.21,1.21,0,1,0,1.21-1.21,1.21,1.21,0,0,0-1.21,1.21Zm-4.25,1.21a1.21,1.21,0,1,0-1.21-1.21,1.21,1.21,0,0,0,1.21,1.21Zm5.46-2.42V53.78M97,57.45h3m-4.25-1.21V53.78m0,2.46V54.72m1.79-.94.14.14M94,53.78l-.14.14M94,50.21l-.14-.14m1.93.14v-.94m1.79.94.14-.14m1.74,3.72-.14.14m3.72-.14.14.14m-.14-3.72.14-.14m-1.93.14v-.94m-1.79.94-.14-.14m-2.67,6.53,1.07-1.07M95,56.59l-1.07-1.07m.72,1.93H93.09M95,58.3l-1.07,1.07m1.93-.72v1.52m.85-1.87,1.07,1.07m2.67-2.78-1.07-1.07m2.78,1.07,1.07-1.07m-.72,1.93H104m-1.87.85,1.07,1.07m-1.93-.72v1.52m-.86-1.87-1.07,1.07"/><path class="cls-1" d="M57.64,83.52a1.21,1.21,0,0,1,0,2.42,1.21,1.21,0,0,0,0-2.42Zm0,7.87V89a1.21,1.21,0,0,1,0,2.42Zm.83-2.06,1.07-1.07m-.72,1.93h1.52M58.48,91l1.07,1.07m-1.07-6.53,1.07,1.07m-.72-1.93h1.52m-1.87-.85,1.07-1.07"/><path class="cls-1" d="M63.08,83.52a1.21,1.21,0,1,0,1.21,1.21,1.21,1.21,0,0,0-1.21-1.21Zm1.21,1.21a1.21,1.21,0,1,0-1.21,1.21,1.21,1.21,0,0,0,1.21-1.21Zm4.25-1.21a1.21,1.21,0,1,0,1.21,1.21,1.21,1.21,0,0,0-1.21-1.21Zm-4.25,6.67a1.21,1.21,0,1,0-1.21,1.21,1.21,1.21,0,0,0,1.21-1.21ZM68.54,89a1.21,1.21,0,1,0,1.21,1.21A1.21,1.21,0,0,0,68.54,89Zm-5.46-3v3m4.25-4.25h-3m4.25,1.21v3m-1.21,1.21h-3m4.25-4.25v1.52m-.85,1.87-1.07-1.07m2.78,1.07,1.07-1.07m-.72,1.93h1.52M69.39,91l1.07,1.07m-1.93-.72v1.52M67.68,91l-1.07,1.07m-2.67-2.78L65,88.26m-2.78,1.07-1.07-1.07m.72,1.93H60.35m1.87.85-1.07,1.07m1.93-.72v1.52M63.93,91,65,92.12m2.67-6.53-1.07,1.07m2.78-1.07,1.07,1.07m-.72-1.93h1.52m-1.87-.85,1.07-1.07m-1.93.72V82m-.85,1.87L66.61,82.8m-2.67,2.78L65,86.66m-2.78-1.07-1.07,1.07m.72-1.93H60.35m1.87-.85L61.15,82.8m1.93.72V82m.85,1.87L65,82.8"/><path class="cls-1" d="M79.45,83.52a1.21,1.21,0,1,1-1.21,1.21,1.21,1.21,0,0,1,1.21-1.21Zm-1.21,1.21a1.21,1.21,0,1,1,1.21,1.21,1.21,1.21,0,0,1-1.21-1.21ZM74,83.52a1.21,1.21,0,1,1-1.21,1.21A1.21,1.21,0,0,1,74,83.52Zm4.25,6.67a1.21,1.21,0,1,1,1.21,1.21,1.21,1.21,0,0,1-1.21-1.21ZM74,89a1.21,1.21,0,1,1-1.21,1.21A1.21,1.21,0,0,1,74,89Zm5.46-3v3M75.2,84.73h3M74,85.94v3m1.21,1.21h3M74,85.94v1.52m.85,1.87,1.07-1.07m-2.78,1.07-1.07-1.07m.72,1.93H71.26m1.87.85-1.07,1.07M74,91.4v1.52M74.85,91l1.07,1.07m2.67-2.78-1.07-1.07m2.78,1.07,1.07-1.07m-.72,1.93h1.52M80.3,91l1.07,1.07m-1.93-.72v1.52M78.59,91l-1.07,1.07m-2.67-6.53,1.07,1.07m-2.78-1.07-1.07,1.07m.72-1.93H71.26m1.87-.85L72.06,82.8m1.93.72V82m.85,1.87,1.07-1.07m2.67,2.78-1.07,1.07m2.78-1.07,1.07,1.07m-.72-1.93h1.52m-1.87-.85,1.07-1.07m-1.93.72V82m-.85,1.87L77.52,82.8"/><path class="cls-1" d="M84.91,83.52a1.21,1.21,0,1,0,1.21,1.21,1.21,1.21,0,0,0-1.21-1.21Zm1.21,1.21a1.21,1.21,0,1,0-1.21,1.21,1.21,1.21,0,0,0,1.21-1.21Zm0,5.46a1.21,1.21,0,1,0-1.21,1.21,1.21,1.21,0,0,0,1.21-1.21ZM90.36,89a1.21,1.21,0,1,0,1.21,1.21A1.21,1.21,0,0,0,90.36,89Zm-5.46-3v3m3-4.25H86.12m4.25,2.49V89m-1.21,1.21h-3m4.25-3v.23m-.85,1.87-1.07-1.07m2.78,1.07.63-.63m-.27,1.48h1.18M91.22,91l.27.27m-1.12.09v.86M89.51,91l-1.07,1.07m-2.67-2.78,1.07-1.07m-2.78,1.07L83,88.26m.72,1.93H82.18m1.87.85L83,92.12m1.93-.72v1.52M85.76,91l1.07,1.07M89.12,86l-.68.68m4.49-1.93h.16m-1.45-1.28.65-.65m-1.93-.64V82m-4.6,3.58,1.07,1.07m-2.78-1.07L83,86.66m.72-1.93H82.18m1.87-.85L83,82.8m1.93.72V82m.85,1.87.63-.63"/><path class="cls-1" d="M95.82,83.52a1.21,1.21,0,1,1-1.21,1.21,1.21,1.21,0,0,1,1.21-1.21ZM97,84.73h.86m-2.07,1.21v1.18m0-1.18v1.18m.85-1.53.27.27m-2-.27-.59.59m.24-1.45H93.09M95,83.88,93.89,82.8m1.93.72V82m.85,1.87,1.07-1.07m1.62,0,0,0"/><path class="cls-1" d="M57.64,102.31a1.21,1.21,0,0,0,0-2.42,1.21,1.21,0,0,1,0,2.42Zm0-5.46V94.44a1.21,1.21,0,0,1,0,2.42Zm.83-.35,1.07,1.07m-.72-1.93h1.52m-1.87-.86,1.07-1.07m-1.07,6.53,1.07-1.07m-.72,1.93h1.52m-1.87.85L59.55,103"/><path class="cls-1" d="M63.08,102.31a1.21,1.21,0,1,1,1.21-1.21,1.21,1.21,0,0,1-1.21,1.21Zm1.21-1.21a1.21,1.21,0,1,1-1.21-1.21,1.21,1.21,0,0,1,1.21,1.21Zm4.25,1.21a1.21,1.21,0,1,1,1.21-1.21,1.21,1.21,0,0,1-1.21,1.21Zm-4.25-6.67a1.21,1.21,0,1,1-1.21-1.21,1.21,1.21,0,0,1,1.21,1.21Zm4.25,1.21a1.21,1.21,0,1,1,1.21-1.21,1.21,1.21,0,0,1-1.21,1.21Zm-5.46,3v-3m4.25,4.25h-3m4.25-1.21v-3m-1.21-1.21h-3m4.25,4.25V98.38m-.85-1.87-1.07,1.07m2.78-1.07,1.07,1.07m-.72-1.93h1.52m-1.87-.85,1.07-1.07m-1.93.72V92.92m-.85,1.87-1.07-1.07M63.93,96.5,65,97.58M62.22,96.5l-1.07,1.07m.72-1.93H60.35m1.87-.85-1.07-1.07m1.93.72V92.92m.85,1.87L65,93.72m2.67,6.53-1.07-1.07m2.78,1.07,1.07-1.07m-.72,1.93h1.52m-1.87.85.46.46m-1.32-.11v.41m-.85-.76L66.61,103m-2.67-2.78L65,99.17m-2.78,1.07-1.07-1.07m.72,1.93H60.35m1.87.85L61.15,103m1.93-.72v1.27m.86-1.62L65,103"/><path class="cls-1" d="M75.17,100.83q-1.13.41-2.28.76a1.21,1.21,0,1,1,2.28-.76Zm3.07-5.18a1.21,1.21,0,1,0,1.21-1.21,1.21,1.21,0,0,0-1.21,1.21ZM74,96.86a1.21,1.21,0,1,0-1.21-1.21A1.21,1.21,0,0,0,74,96.86Zm5.46,2.22V96.86m-5.46,3v-3m1.21-1.21h3M74,99.89V98.38m.85-1.87,1.07,1.07M73.14,96.5l-1.07,1.07m.72-1.93H71.26m1.87-.85-1.07-1.07m1.93.72V92.92m.85,1.87,1.07-1.07m2.67,2.78-1.07,1.07M80.3,96.5l1.07,1.07m-.72-1.93h1.52m-1.87-.86,1.07-1.07m-1.93.72V92.92m-.85,1.87-1.07-1.07m-2.67,6.53,1.07-1.07m-2.78,1.07-1.07-1.07m.72,1.93H71.26M78,99.7l-.53-.53"/><path class="cls-1" d="M86.09,95.39q-1,.62-1.93,1.21a1.21,1.21,0,1,1,1.93-1.21Zm2.37-1.65,0,0M84.05,96.5l-.37.37m0-1.22H82.18m1.87-.85L83,93.72m1.93.72V92.92m.85,1.87,1.07-1.07"/><path class="cls-1" d="M57.64,35.9h0a16.1,16.1,0,1,1,0,32.2h0V35.9Zm0,68V71.66h0a19.59,19.59,0,0,0,12.58-4.55L93,89.91a51.69,51.69,0,0,1-35.39,13.95Zm0-71.54V.12h0A51.69,51.69,0,0,1,93,14.07L70.24,36.88a19.59,19.59,0,0,0-12.58-4.55ZM95.58,16.6a51.68,51.68,0,0,1,13.92,33.6H77.24a19.58,19.58,0,0,0-4.47-10.8L95.58,16.6ZM109.5,53.78a51.68,51.68,0,0,1-13.92,33.6L72.77,64.58a19.58,19.58,0,0,0,4.47-10.8Z"/></g></g></svg>