<svg xmlns="http://www.w3.org/2000/svg" viewBox="0 0 52.1 52.1"><defs><style>.cls-1,.cls-2,.cls-3{fill:none;stroke:#7f7e7c;stroke-miterlimit:22.93;fill-rule:evenodd;}.cls-1{stroke-width:0.25px;}.cls-2{stroke-width:0.25px;}.cls-3{stroke-width:0.25px;}</style></defs><title>grey-small</title><g id="Слой_2" data-name="Слой 2"><g id="Layer_1" data-name="Layer 1"><path class="cls-1" d="M4.82,25.84a1.21,1.21,0,1,0-1.71,0,1.21,1.21,0,0,0,1.71,0Zm-1.71,0a1.21,1.21,0,1,0,0-1.71,1.21,1.21,0,0,0,0,1.71Zm0-1.71L1.92,22.94m0,4.09,1.19-1.19M1.92,21.12h.91m-.91-1.81L2,19.19M1.92,30.65l.12.12m-.12-1.93h.91M2.76,25H1.92m2-1.21V22.25m.85,1.87L5.9,23.05M5.18,25H6.7m-1.87.85L5.9,26.91M4,26.19v1.52"/><path class="cls-1" d="M8.68,22a1.21,1.21,0,1,1,0-1.71,1.21,1.21,0,0,1,0,1.71Zm0-1.71a1.21,1.21,0,1,1-1.71,0,1.21,1.21,0,0,1,1.71,0Zm3.86-2.15a1.21,1.21,0,1,1,0-1.71,1.21,1.21,0,0,1,0,1.71ZM4.82,16.41a1.21,1.21,0,1,1-1.71,0,1.21,1.21,0,0,1,1.71,0Zm3.86-2.15a1.21,1.21,0,1,1,0-1.71,1.21,1.21,0,0,1,0,1.71ZM7,20.27,4.82,18.12m6,0L8.68,20.27m2.15-3.86L8.68,14.26M7,14.26,4.82,16.41m6,0L9.75,15.34m-1.93-.72v1.52M9,13.41h1.52m-1.87-.85,1.07-1.07m-1.93.72V10.68M7,12.55,5.9,11.48m.72,1.93H5.1m.08,3.86H6.7M4,18.47V20m-.85-1.87L2,19.19m.72-1.93H1.92m1.19-.85L2,15.34M4,16.06V14.54m6.51,2.73H9m2.73-1.21V14.54m.85,1.87,1.07-1.07m-.72,1.93h1.52m-1.87.85,1.07,1.07m-1.93-.72V20m-3.86-.08V18.4M6.62,21.12H5.1M7,22,5.9,23.05m1.93-.72v1.52M8.68,22l1.07,1.07M9,21.12h1.52"/><path class="cls-1" d="M24.11,6.54A1.21,1.21,0,0,1,22.25,5,1.21,1.21,0,1,0,24.4,6.11a1.2,1.2,0,0,1-.28.44ZM19.4,3.8v.76M18,3.25l-.51.51m4.58,1.93H20.53m1.87.85L21.33,7.62m1.93-.72V8.42m.85-1.87,1.07,1.07"/><path class="cls-2" d="M20.26,10.4a1.21,1.21,0,1,0-1.71,0,1.21,1.21,0,0,0,1.71,0Zm-1.71,0a1.21,1.21,0,1,0,0-1.71,1.21,1.21,0,0,0,0,1.71ZM16.4,14.26a1.21,1.21,0,1,0-1.71,0,1.21,1.21,0,0,0,1.71,0ZM14.69,6.54a1.21,1.21,0,1,0,0-1.71,1.21,1.21,0,0,0,0,1.71ZM12.54,10.4a1.21,1.21,0,1,0-1.71,0,1.21,1.21,0,0,0,1.71,0Zm6-1.71L16.4,6.54m0,6,2.15-2.15m-3.86,2.15L12.54,10.4m0-1.71,2.15-2.15m0,6-1.07-1.07m-.72-1.93h1.52m-2.73,1.21v1.52m-.85-1.87L9.75,11.48m.72-1.93H9m1.87-.85L9.75,7.62m1.93.72V6.82m3.86.08V8.42m1.21-2.73h1.52M16.4,4.83l1.07-1.07m-1.93.72V3m-.85,1.87L13.61,3.76m.72,1.93H12.81m2.73,6.51V10.68m-1.21,2.73H12.81m1.87.85-1.07,1.07m1.93-.72v1.52m.86-1.87,1.07,1.07m-.72-1.93h1.52m-.08-3.86H16.67M19.4,8.34V6.82m.85,1.87,1.07-1.07m-.72,1.93h1.52m-1.87.85,1.07,1.07m-1.93-.72v1.52"/><path class="cls-1" d="M3.11,8.69a1.21,1.21,0,1,0,1.71,0,1.21,1.21,0,0,0-1.71,0ZM1.92,7.5,3.11,8.69m0,1.71L1.92,11.59m0-4.09L2,7.62m.72,1.93H1.92M4,8.34V6.82m.85,1.87L5.9,7.62M5.18,9.55H6.7m-1.87.85L5.9,11.48M4,10.76v1.52m-2,2.94.12.12m-.12-1.93h.91M1.92,5.69h.91M1.92,3.88,2,3.76"/><path class="cls-1" d="M10.67,1.17q1.11.23,2.21.51a1.21,1.21,0,1,1-2.21-.51ZM3.11,1a1.21,1.21,0,1,1,0,1.71A1.21,1.21,0,0,1,3.11,1ZM7,4.83A1.21,1.21,0,1,1,7,6.54,1.21,1.21,0,0,1,7,4.83ZM4.82,1,5.43.37M4.82,2.69,7,4.83m1.71,0,2.15-2.15m-6,0L5.9,3.76m1.93.72V3M6.62,5.69H5.1M7,6.54,5.9,7.62M7.83,6.9V8.42m.86-1.87L9.75,7.62M9,5.69h1.52m-.08-3.86H9m3.94,0h.57m-.93.85,1.07,1.07M11.68,3V4.56M5.18,1.83H6.7M4,3V4.56M3.11,2.69,2,3.76m.72-1.93H1.92M3.11,1,2.28.14M4,.62V.24M7.83.67v0"/><path class="cls-1" d="M32.79,50.18l.12-.12M31,50.18v-.91m-1.81.91L29,50.06"/><path class="cls-1" d="M43.41,49a1.21,1.21,0,1,1,0-1.71,1.21,1.21,0,0,1,0,1.71Zm-7.72-1.71a1.21,1.21,0,1,1-1.71,0,1.21,1.21,0,0,1,1.71,0Zm3.86-2.15a1.21,1.21,0,1,1,0-1.71,1.21,1.21,0,0,1,0,1.71Zm-2.67,5L35.69,49m6,0-1.19,1.19m1.19-2.9-2.15-2.15m-1.71,0-2.15,2.15m6,0L40.62,46.2m-1.93-.72V47m1.21-2.73h1.52m-1.87-.85,1.07-1.07m-1.93.72V41.55m-.85,1.87-1.07-1.07m.72,1.93H36M36,48.13h1.52m-2.73,1.21v.84M34,49l-1.07,1.07m.72-1.93H32.11M34,47.28,32.91,46.2m1.93.72V45.41m6.51,2.73H39.82m2.73-1.21V45.41m.85,1.87,1.07-1.07m-.72,1.93h1.52M43.41,49l1.07,1.07m-1.93-.72v.84m-3.86,0v-.91"/><path class="cls-1" d="M48.85,34.12l-.51.51m0-1.93h-.76"/><path class="cls-1" d="M50.42,39.22a1.21,1.21,0,1,0,.51,2.21,1.21,1.21,0,1,1-.51-2.21Zm-3.15,5.91a1.21,1.21,0,1,0-1.71,0,1.21,1.21,0,0,0,1.71,0Zm-1.71-7.72a1.21,1.21,0,1,0,0-1.71,1.21,1.21,0,0,0,0,1.71Zm-2.15,3.86a1.21,1.21,0,1,0-1.71,0,1.21,1.21,0,0,0,1.71,0Zm6-1.71-2.15-2.15m0,6,2.15-2.15m-3.86,2.15-2.15-2.15m0-1.71,2.15-2.15m0,6-1.07-1.07m-.72-1.93h1.52m-2.73,1.21v1.52m-.85-1.87-1.07,1.07m.72-1.93H39.82m1.87-.85-1.07-1.07m1.93.72V37.69m3.86.08v1.52m1.21-2.73h1.52m-1.87-.85,1.07-1.07m-1.93.72V33.83m-.85,1.87-1.07-1.07m.72,1.93H43.68m2.73,6.51V41.55M45.2,44.28H43.68m1.87.85L44.48,46.2m1.93-.72V47m.85-1.87,1.07,1.07m-.72-1.93h1.52m-.08-3.86H47.54m2.73-1.21v-.57m0,3v1.52"/><path class="cls-1" d="M16.23,52h-1.9a1.21,1.21,0,0,1,1.87-1q0,.49,0,1Zm-.69-1.2V49.26m-.85,1.87-1.07-1.07"/><path class="cls-1" d="M22.4,43.42a1.21,1.21,0,1,1,0,1.71,1.21,1.21,0,0,1,0-1.71Zm-2.78,5.9A19.71,19.71,0,0,0,19.15,47a1.21,1.21,0,1,1,.47,2.37Zm2.78-4.19a1.21,1.21,0,1,1,1.71,0,1.21,1.21,0,0,1-1.71,0ZM26.26,49A1.21,1.21,0,1,1,28,49a1.21,1.21,0,0,1-1.71,0Zm-2.15-3.86,2.15,2.15m-6,0,2.15-2.15M20.26,49l1.19,1.19m3.63,0L26.26,49m-6,0,1.07,1.07m1.93.12v-.91m2.65-1.13H24.39m2.73-1.21V45.41M28,47.28,29,46.2m-.72,1.93h1.52M28,49,29,50.06m-1.93-.72v.84m-6.51-2h1.52M19.4,46.92V45.41m3.86.08V47m1.21-2.73H26m-1.87-.85,1.07-1.07m-1.93.72V41.55m-.85,1.87-1.07-1.07m.72,1.93H20.53"/><path class="cls-1" d="M26.26,39.56a1.21,1.21,0,1,0,1.71,0,1.21,1.21,0,0,0-1.71,0Zm1.71,0a1.21,1.21,0,1,0,0,1.71,1.21,1.21,0,0,0,0-1.71Zm2.15-3.86a1.21,1.21,0,1,0,1.71,0,1.21,1.21,0,0,0-1.71,0Zm1.71,7.72a1.21,1.21,0,1,0,0,1.71,1.21,1.21,0,0,0,0-1.71ZM34,39.56a1.21,1.21,0,1,0,1.71,0,1.21,1.21,0,0,0-1.71,0Zm-6,1.71,2.15,2.15m0-6L28,39.56m3.86-2.15L34,39.56m0,1.71-2.15,2.15m0-6,1.07,1.07m.72,1.93H32.11m2.73-1.21V37.69m.85,1.87,1.07-1.07M36,40.42h1.52m-1.87.85,1.07,1.07m-1.93-.72v1.52M31,43.07V41.55m-1.21,2.73H28.25m1.87.85L29,46.2M31,45.48V47m.85-1.87,1.07,1.07m-.72-1.93h1.52M31,37.77v1.52m1.21-2.73h1.52m-1.87-.85,1.07-1.07M31,35.35V33.83m-.85,1.87L29,34.63m.72,1.93H28.25m.08,3.86h1.52m-2.73,1.21v1.52m-.85-1.87-1.07,1.07m.72-1.93H24.39m1.87-.85-1.07-1.07m1.93.72V37.69"/><path class="cls-1" d="M41.7,24.13a1.21,1.21,0,1,0,1.71,0,1.21,1.21,0,0,0-1.71,0ZM46,27.71q.56,1.06,1.07,2.15A1.21,1.21,0,1,1,46,27.71Zm-2.59-3.58a1.21,1.21,0,1,0,0,1.71,1.21,1.21,0,0,0,0-1.71Zm0,1.71L45.56,28m-1.84-4.17-.31.31m1.79,4.71H43.68m1.87.85-1.07,1.07m1.93-.72v1.52M43.76,25h.68m-1.89,1.21v1.52m-.85-1.87-1.07,1.07M41.34,25H39.82m1.87-.85-1.07-1.07m1.93.72V22.25"/><path class="cls-1" d="M37.84,28a1.21,1.21,0,1,1,0,1.71,1.21,1.21,0,0,1,0-1.71Zm0,1.71a1.21,1.21,0,1,1,1.71,0,1.21,1.21,0,0,1-1.71,0ZM34,31.84a1.21,1.21,0,1,1,0,1.71,1.21,1.21,0,0,1,0-1.71Zm7.72,1.71a1.21,1.21,0,1,1,1.71,0,1.21,1.21,0,0,1-1.71,0ZM37.84,35.7a1.21,1.21,0,1,1,0,1.71,1.21,1.21,0,0,1,0-1.71Zm1.71-6,2.15,2.15m-6,0,2.15-2.15m-2.15,3.86,2.15,2.15m1.71,0,2.15-2.15m-6,0,1.07,1.07m1.93.72V33.83m-1.21,2.73H36m1.87.85-1.07,1.07m1.93-.72v1.52m.85-1.87,1.07,1.07m-.72-1.93h1.52m-.08-3.86H39.82m2.73-1.21V30m.85,1.87,1.07-1.07m-.72,1.93h1.52m-1.87.85,1.07,1.07m-1.93-.72v1.52M36,32.7h1.52m-2.73,1.21v1.52M34,33.55l-1.07,1.07m.72-1.93H32.11M34,31.84l-1.07-1.07m1.93.72V30m3.86.08v1.52m1.21-2.73h1.52M39.55,28l1.07-1.07m-1.93.72V26.11M37.84,28l-1.07-1.07m.72,1.93H36"/><path class="cls-2" d="M.12,45.48v-2.4h0a1.21,1.21,0,0,1,.84.35,1.21,1.21,0,0,1,0,1.71,1.2,1.2,0,0,1-.84.35Zm0-7.72v-1.9h0q.49,0,1,0A1.21,1.21,0,0,1,1,37.41a1.21,1.21,0,0,1-.84.35Zm3,1.79a1.21,1.21,0,1,0,1.71,0,1.21,1.21,0,0,0-1.71,0ZM1,37.41l2.15,2.15m0,1.71L1,43.42m0-6L2,38.49m.72,1.93H1.24M4,39.21V37.69m.85,1.87L5.9,38.49m-.72,1.93H6.7m-1.87.85L5.9,42.35M4,41.63v1.52m-3,2L2,46.2m-.72-1.93H2.84M1.32,36.56H2.84"/><path class="cls-1" d="M7,28A1.21,1.21,0,1,1,7,29.7,1.21,1.21,0,0,1,7,28Zm0,9.38.79.39A1.21,1.21,0,0,1,7,37.41l0,0ZM5.15,32.95a19.66,19.66,0,0,0-2.37-.47,1.21,1.21,0,1,1,2.37.47ZM7,29.7a1.21,1.21,0,1,1,1.71,0A1.21,1.21,0,0,1,7,29.7Zm3.86,3.86a1.21,1.21,0,1,1,1.71,0,1.21,1.21,0,0,1-1.71,0ZM8.68,29.7l2.15,2.15m-6,0L7,29.7m2.67,5,1.19-1.19m-3,.31v0M7,37.41,5.9,38.49m1.93-.67v1.46m2.65-6.59H9m2.73-1.21V30m.85,1.87,1.07-1.07m-.72,1.93h1.52m-1.87.85,1.07,1.07m-1.93-.72v1.52M5.18,32.7H6.7m-3.58-.85L2,30.77M4,31.49V30m3.86.08v1.52M9,28.84h1.52M8.68,28l1.07-1.07m-1.93.72V26.11M7,28,5.9,26.91m.72,1.93H5.1"/><path class="cls-1" d="M10.83,24.13a1.21,1.21,0,1,0,1.71,0,1.21,1.21,0,0,0-1.71,0Zm1.71,0a1.21,1.21,0,1,0,0,1.71,1.21,1.21,0,0,0,0-1.71Zm2.15-3.86a1.21,1.21,0,1,0,1.71,0,1.21,1.21,0,0,0-1.71,0ZM16.4,28a1.21,1.21,0,1,0,0,1.71,1.21,1.21,0,0,0,0-1.71Zm2.15-3.86a1.21,1.21,0,1,0,1.71,0,1.21,1.21,0,0,0-1.71,0Zm-6,1.71L14.69,28m0-6-2.15,2.15M16.4,22l2.15,2.15m0,1.71L16.4,28m0-6,1.07,1.07M18.19,25H16.67m2.73-1.21V22.25m.85,1.87,1.07-1.07M20.61,25h1.52m-1.87.85,1.07,1.07m-1.93-.72v1.52m-3.86-.08V26.11m-1.21,2.73H12.81m1.87.85-1.07,1.07m1.93-.72v1.52m.86-1.87,1.07,1.07m-.72-1.93h1.52m-2.73-6.51v1.52m1.21-2.73h1.52m-1.87-.85,1.07-1.07m-1.93.72V18.4m-.85,1.87-1.07-1.07m.72,1.93H12.81M12.89,25h1.52m-2.73,1.21v1.52m-.85-1.87L9.75,26.91M10.48,25H9m1.87-.85L9.75,23.05m1.93.72V22.25"/><path class="cls-1" d="M26.26,8.69a1.21,1.21,0,1,0,1.71,0,1.21,1.21,0,0,0-1.71,0Zm1.71,0a1.21,1.21,0,1,0,0,1.71,1.21,1.21,0,0,0,0-1.71Zm3.86,3.86a1.21,1.21,0,1,0,0,1.71,1.21,1.21,0,0,0,0-1.71ZM28,10.4l2.15,2.15M28.28,8.39,28,8.69m4.78,2.94-.92.92M31,12.2V10.68m-1.21,2.73H28.25m1.87.85L29,15.34M31,14.62v1.52m.85-1.87,1.07,1.07m-.72-1.93h1.52M28.33,9.55h1.52m-2.73,1.21v1.52m-.85-1.87-1.07,1.07m.72-1.93H24.39m1.87-.85L25.19,7.62m1.93.72V7.66"/><path class="cls-1" d="M22.4,12.55a1.21,1.21,0,1,1,0,1.71,1.21,1.21,0,0,1,0-1.71Zm0,1.71a1.21,1.21,0,1,1,1.71,0,1.21,1.21,0,0,1-1.71,0Zm-3.86,2.15a1.21,1.21,0,1,1,0,1.71,1.21,1.21,0,0,1,0-1.71Zm7.72,1.71a1.21,1.21,0,1,1,1.71,0,1.21,1.21,0,0,1-1.71,0ZM22.4,20.27a1.21,1.21,0,1,1,0,1.71,1.21,1.21,0,0,1,0-1.71Zm1.71-6,2.15,2.15m-6,0,2.15-2.15m-2.15,3.86,2.15,2.15m1.71,0,2.15-2.15m-6,0,1.07,1.07m1.93.72V18.4m-1.21,2.73H20.53M22.4,22l-1.07,1.07m1.93-.72v1.52M24.11,22l1.07,1.07m-.72-1.93H26m-.08-3.86H24.39m2.73-1.21V14.54M28,16.41,29,15.34m-.72,1.93h1.52M28,18.12,29,19.19m-1.93-.72V20m-6.51-2.73h1.52M19.4,18.47V20m-.85-1.87-1.07,1.07m.72-1.93H16.67m1.87-.85-1.07-1.07m1.93.72V14.54m3.86.08v1.52m1.21-2.73H26m-1.87-.85,1.07-1.07m-1.93.72V10.68m-.85,1.87-1.07-1.07m.72,1.93H20.53"/><path class="cls-3" d="M1.32,52H.12V50.8h0a1.2,1.2,0,0,1,.84.35,1.2,1.2,0,0,1,.35.84ZM1,51.14,2,50.06"/><path class="cls-2" d="M6.62,52A1.21,1.21,0,0,1,9,52a1.21,1.21,0,0,0-2.42,0Zm5.92-3a1.21,1.21,0,1,1,0-1.71,1.21,1.21,0,0,1,0,1.71ZM4.82,47.28a1.21,1.21,0,1,1-1.71,0,1.21,1.21,0,0,1,1.71,0Zm3.86-2.15a1.21,1.21,0,1,1,0-1.71,1.21,1.21,0,0,1,0,1.71ZM7,51.14,4.82,49m6,0L8.68,51.14m2.15-3.86L8.68,45.13M7,45.13,4.82,47.28m6,0L9.75,46.2m-1.93-.72V47M9,44.28h1.52m-1.87-.85,1.07-1.07m-1.93.72V41.55M7,43.42,5.9,42.35m.72,1.93H5.1m.08,3.86H6.7M4,49.34v1.52M3.11,49,2,50.06m.72-1.93H1.24m1.87-.85L2,46.2M4,46.92V45.41m6.51,2.73H9m2.73-1.21V45.41m.85,1.87,1.07-1.07m-.72,1.93h1.52M12.54,49l1.07,1.07m-1.93-.72v1.52m-3.86-.08V49.26"/><path class="cls-2" d="M20.26,41.27a1.21,1.21,0,1,0-1.71,0,1.21,1.21,0,0,0,1.71,0Zm-9.6-1.49q.44.38.86.8t.8.86a1.21,1.21,0,0,1-1.66-1.66Zm3.68,4.6q.21.39.39.79l0,0a1.21,1.21,0,0,1-.35-.75Zm4.21-3.11a1.21,1.21,0,1,0,0-1.71,1.21,1.21,0,0,0,0,1.71Zm0-1.71-1.74-1.74m.55,4.64,1.19-1.19m-6.86.35v1.52m-.85-1.87L9.75,42.35m.72-1.93H9m6.59-1.33v.2m2.53-2.73h.2M15.54,34v-.2m-1.26,1.46-.66-.66M13,36.56h-.2m1.47,7.72H12.81m1.87.85L13.61,46.2m4.63-1.93h0m-.08-3.86H16.67m2.73-1.21V37.69m.85,1.87,1.07-1.07m-.72,1.93h1.52m-1.87.85,1.07,1.07m-1.93-.72v1.52"/><path class="cls-1" d="M24.11,37.41a1.21,1.21,0,1,1,0-1.71,1.21,1.21,0,0,1,0,1.71Zm0-1.71a1.21,1.21,0,1,1-1.71,0,1.21,1.21,0,0,1,1.71,0ZM28,33.55a1.21,1.21,0,1,1,0-1.71,1.21,1.21,0,0,1,0,1.71ZM22.4,35.7,20.67,34m5.6-.41L24.11,35.7m2.15-3.86-1.74-1.74m1.74,1.74-1.07-1.07m-1.93.6v.2m2.53-2.73H26m-2.73-2.53v-.2M22,27.58l-.66-.66m-.6,1.93h-.2m1.4,3.86h.2M19.4,35.23v.2M16.87,32.7h-.2m1.46-1.26-.66-.67m1.93-.6V30m6.51,2.73H24.39m2.73-1.21V30M28,31.84,29,30.77m-.72,1.93h1.52M28,33.55,29,34.63m-1.93-.72v1.52m-3.86-.08V33.83m-1.21,2.73H20.53m1.87.85-1.07,1.07m1.93-.72v1.52m.85-1.87,1.07,1.07m-.72-1.93H26"/><path class="cls-1" d="M39.55,22a1.21,1.21,0,1,1,0-1.71,1.21,1.21,0,0,1,0,1.71Zm0-1.71a1.21,1.21,0,1,1-1.71,0,1.21,1.21,0,0,1,1.71,0Zm-1.71,0L36.1,18.53m4.37.82-.92.92m-2.18-3h.2M34.84,19.8V20m-2.53-2.73h-.2M33.57,16l-.66-.66m1.93-.6v-.2m3.86,5.38V18.4m-1.21,2.73H36m1.87.85-1.07,1.07m1.93-.72v1.52M39.55,22l1.07,1.07m-.72-1.93h1.52"/><path class="cls-1" d="M35.69,25.84a1.21,1.21,0,1,0-1.71,0,1.21,1.21,0,0,0,1.71,0Zm-1.71,0a1.21,1.21,0,1,0,0-1.71,1.21,1.21,0,0,0,0,1.71ZM31.83,29.7a1.21,1.21,0,1,0-1.71,0,1.21,1.21,0,0,0,1.71,0ZM34,24.13l-1.74-1.74M31.83,28,34,25.84M30.12,28l-1.74-1.74M30.12,28,29,26.91m.6-1.93h.2m-2.73,2.53v.2M24.59,25h-.2m1.46-1.26-.66-.66m1.93-.6v-.2M31,23.65v.2m2.53-2.73h.2M31,18.6v-.2m-1.26,1.46L29,19.19m-.6,1.93h-.2M31,27.63V26.11m-1.21,2.73H28.25m1.87.85L29,30.77M31,30.05v1.52m.85-1.87,1.07,1.07m-.72-1.93h1.52M33.63,25H32.11m2.73-1.21V22.25m.85,1.87,1.07-1.07M36,25h1.52m-1.87.85,1.07,1.07m-1.93-.72v1.52"/><path class="cls-1" d="M48.22,50.18l.12-.12m-1.93.12v-.91m-1.81.91-.12-.12"/><path class="cls-1" d="M49.41,47.28a1.21,1.21,0,1,1,0,1.71,1.21,1.21,0,0,1,0-1.71Zm1.71,0,.61-.61M51.12,49l.83.83M51.12,49l.83.83m-.48-1.69h.38m-1.59,1.21v.84M49.41,49l-1.07,1.07m.72-1.93H47.54m1.87-.85L48.34,46.2m1.93.72V45.41m1.16-1.13h0"/><path class="cls-1" d="M.12,35.87h0a16,16,0,0,1,11.38,4.71A16,16,0,0,1,16.23,52H.12V35.87ZM1.92.13A51.68,51.68,0,0,1,35.53,14L12.72,36.85a19.58,19.58,0,0,0-10.8-4.47V.13ZM38.05,16.58A51.68,51.68,0,0,1,52,50.18H19.72a19.58,19.58,0,0,0-4.47-10.8Z"/></g></g></svg>